<svg width="100%" height="100%" viewBox="0 0 40 40" fill="none" xmlns="http://www.w3.org/2000/svg">
<circle cx="20" cy="20" r="20" fill="black"/>
<path fill-rule="evenodd" clip-rule="evenodd" d="M20 27.2553C24.007 27.2553 27.2553 24.007 27.2553 20C27.2553 15.993 24.007 12.7447 20 12.7447C15.993 12.7447 12.7447 15.993 12.7447 20C12.7447 21.5231 13.214 22.9365 14.0159 24.1036L9.67533 28.4442C7.79224 26.1445 6.66235 23.2042 6.66235 20C6.66235 12.6338 12.6338 6.66235 20 6.66235C27.3662 6.66235 33.3376 12.6338 33.3376 20C33.3376 27.3662 27.3662 33.3376 20 33.3376C16.5521 33.3376 13.4097 32.0293 11.0423 29.882L15.021 25.9034L15.0168 25.8992L22.834 18.0819L24.2406 19.4885L17.0837 26.6454C17.9762 27.0376 18.9627 27.2553 20 27.2553Z" fill="white"/>
</svg>
