<svg width="100%" height="100%" viewBox="0 0 40 40" fill="none" xmlns="http://www.w3.org/2000/svg">
<circle cx="20" cy="20" r="20" fill="black"/>
<path d="M30 19.162H29.7944C27.3977 19.162 25.0008 19.1601 22.6045 19.1646C22.334 19.165 22.1235 19.0725 21.9501 18.8689C21.7483 18.632 21.5397 18.4002 21.3311 18.1689C21.0373 17.8433 20.6854 17.8384 20.3769 18.1566C20.1256 18.416 19.876 18.6773 19.6283 18.9407C19.4884 19.0898 19.3252 19.1638 19.1158 19.1638C16.145 19.1608 13.1742 19.162 10.203 19.1616C10.1482 19.1616 10.0934 19.1567 10 19.1526C10.0642 18.7416 10.1111 18.3422 10.1925 17.95C10.2683 17.5857 10.3857 17.2309 10.4746 16.8693C10.5114 16.7203 10.5879 16.6825 10.7376 16.6829C13.8398 16.6878 16.9416 16.6837 20.0438 16.6896C20.4869 16.6904 20.8433 16.5541 21.1202 16.2019C21.2737 16.0065 21.4455 15.8242 21.617 15.6434C21.883 15.3631 22.239 15.3717 22.4975 15.6599C22.7099 15.8961 22.9264 16.1293 23.1294 16.3737C23.3207 16.6039 23.5612 16.6889 23.8539 16.6885C25.6574 16.6848 27.4615 16.6889 29.265 16.6829C29.4301 16.6822 29.4973 16.7282 29.5479 16.8888C29.7787 17.6206 29.9369 18.364 30 19.162Z" fill="white"/>
<path d="M10.977 24.3553C10.5895 23.5594 10.3204 22.7363 10.1542 21.8537C10.2424 21.8537 10.3152 21.8537 10.388 21.8537C12.4355 21.8537 14.4829 21.8515 16.5304 21.8556C16.9378 21.8564 17.2691 21.7205 17.5295 21.4038C17.6957 21.202 17.8713 21.0078 18.0496 20.8161C18.3119 20.5343 18.6747 20.535 18.9328 20.8172C19.1516 21.056 19.3699 21.296 19.5785 21.5438C19.7657 21.7669 19.9995 21.8552 20.2858 21.8549C23.4006 21.8522 26.5156 21.8534 29.6301 21.8534C29.704 21.8534 29.7779 21.8534 29.8642 21.8534C29.7089 22.6997 29.4459 23.4913 29.0943 24.2564C29.0399 24.375 28.9536 24.3556 28.8636 24.3556C27.0908 24.3556 25.318 24.3556 23.5451 24.3556C22.0469 24.3556 20.5488 24.3519 19.051 24.359C18.7463 24.3605 18.51 24.2628 18.3167 24.0273C18.1231 23.7915 17.9152 23.5676 17.7108 23.3409C17.4447 23.0456 17.0902 23.0332 16.8114 23.3139C16.5394 23.5879 16.2846 23.8806 15.9995 24.1404C15.8843 24.2455 15.7098 24.344 15.5616 24.3455C14.0391 24.3605 12.5161 24.3545 10.9763 24.3545L10.977 24.3553Z" fill="white"/>
<path d="M27.9956 14.0021C27.5048 14.0021 27.0137 14.0021 26.523 14.0021C26.392 14.0021 26.2607 14.001 26.1298 14.0021C25.8979 14.0047 25.705 13.9186 25.5508 13.7472C25.322 13.4923 25.0976 13.2336 24.8665 12.9806C24.5986 12.6871 24.2414 12.6804 23.9656 12.9626C23.7176 13.2164 23.4708 13.4721 23.231 13.7337C23.0603 13.9201 22.8614 14.0051 22.6041 14.0047C19.1469 14.0002 15.6895 14.0017 12.2324 14.0017C12.1644 14.0017 12.0965 14.0017 11.9697 14.0017C13.6885 11.8094 15.8669 10.451 18.5901 10.0999C22.4412 9.60355 25.5703 10.9687 28.0166 13.9321C28.0095 13.9553 28.0027 13.9789 27.9956 14.0021Z" fill="white"/>
<path d="M12.7071 26.8402C13.1213 26.8047 13.4166 26.5984 13.6593 26.2903C13.7978 26.1148 13.955 25.9535 14.1051 25.7865C14.3613 25.5013 14.7268 25.4923 14.9872 25.7719C15.1992 25.9999 15.4085 26.2308 15.6059 26.4712C15.8074 26.7171 16.055 26.8163 16.3728 26.8159C19.9417 26.8107 23.5106 26.8125 27.0799 26.8125C27.1534 26.8125 27.2273 26.8125 27.3009 26.8125C25.596 28.6414 23.5076 29.7171 21.0264 29.9493C17.7644 30.2543 14.9947 29.1797 12.7071 26.8402Z" fill="white"/>
</svg>
