<svg width="100%" height="100%" viewBox="0 0 40 40" fill="none" xmlns="http://www.w3.org/2000/svg">
<circle cx="20" cy="20" r="20" fill="black"/>
<path d="M22.22 22.28L20.768 26.264C20.732 26.372 20.732 26.492 20.768 26.612L23.264 33.464L26.156 31.796L22.688 22.28C22.604 22.064 22.304 22.064 22.22 22.28Z" fill="white" fill-opacity="0.5"/>
<path d="M25.136 15.584C25.052 15.368 24.752 15.368 24.668 15.584L23.216 19.568C23.18 19.676 23.18 19.796 23.216 19.916L27.308 31.136L30.2 29.468L25.136 15.596V15.584Z" fill="white" fill-opacity="0.5"/>
<path d="M20 6.86C20.072 6.86 20.144 6.884 20.204 6.92L31.22 13.28C31.352 13.352 31.424 13.496 31.424 13.64V26.36C31.424 26.504 31.34 26.648 31.22 26.72L20.204 33.08C20.144 33.116 20.072 33.14 20 33.14C19.928 33.14 19.856 33.116 19.796 33.08L8.77998 26.72C8.64798 26.648 8.57598 26.504 8.57598 26.36V13.628C8.57598 13.484 8.65998 13.34 8.77998 13.268L19.796 6.908C19.856 6.872 19.928 6.848 20 6.848V6.86ZM20 5C19.604 5 19.22 5.096 18.86 5.3L7.84398 11.66C7.13598 12.068 6.70398 12.812 6.70398 13.628V26.348C6.70398 27.164 7.13598 27.908 7.84398 28.316L18.86 34.676C19.208 34.88 19.604 34.976 20 34.976C20.396 34.976 20.78 34.88 21.14 34.676L32.156 28.316C32.864 27.908 33.296 27.164 33.296 26.348V13.628C33.296 12.812 32.864 12.068 32.156 11.66L21.128 5.3C20.78 5.096 20.384 5 19.988 5H20Z" fill="white"/>
<path d="M19.064 12.728H16.268C16.064 12.728 15.872 12.86 15.8 13.052L9.81195 29.468L12.704 31.136L19.304 13.052C19.364 12.884 19.244 12.716 19.076 12.716L19.064 12.728Z" fill="white"/>
<path d="M23.96 12.728H21.164C20.96 12.728 20.768 12.86 20.696 13.052L13.856 31.796L16.748 33.464L24.188 13.052C24.248 12.884 24.128 12.716 23.96 12.716V12.728Z" fill="white"/>
</svg>
