<svg width="100%" height="100%" viewBox="0 0 100 100" fill="none" xmlns="http://www.w3.org/2000/svg">
<circle cx="50" cy="50" r="50" fill="#212423"/>
<g clip-path="url(#clip0_720_34)">
<path d="M50 15.838C50.1882 15.838 50.3618 15.8862 50.5354 15.9808L78.7771 32.5236C79.1078 32.7146 79.3125 33.0669 79.3125 33.4489V66.5326C79.3125 66.9164 79.1078 67.2669 78.7771 67.4579L50.5354 84.0155C50.3782 84.1119 50.19 84.1583 50 84.1583C49.81 84.1583 49.6382 84.11 49.4646 84.0155L21.2393 67.4764C20.9086 67.2854 20.704 66.9331 20.704 66.5511V33.4508C20.704 33.0669 20.9086 32.7164 21.2393 32.5254L49.4646 15.9827C49.6382 15.8862 49.81 15.8399 50 15.8399M50 11.0019C48.9932 11.0019 47.9864 11.2726 47.0892 11.8011L18.8475 28.3401C17.0531 29.3934 15.9367 31.3423 15.9367 33.4508V66.5344C15.9367 68.6428 17.0531 70.5899 18.8475 71.6599L47.0892 88.2026C47.9864 88.7293 48.9932 89.0019 50 89.0019C51.0068 89.0019 52.0136 88.7311 52.9108 88.2026L81.1525 71.6599C82.9615 70.6066 84.0633 68.6577 84.0633 66.5344V33.4508C84.0633 31.3423 82.9468 29.3953 81.1525 28.3253L52.9108 11.7825C52.0136 11.2559 51.0068 11 50 11V11.0019Z" fill="white"/>
<path d="M42.7934 33.0502H39.1115C38.8283 33.0502 38.5926 33.2264 38.4976 33.4971L26.6187 66.501C26.5401 66.7254 26.6973 66.9479 26.933 66.9479H30.6149C30.8981 66.9479 31.1338 66.7718 31.2288 66.501L43.0912 33.4804C43.1862 33.2727 43.0291 33.0502 42.7915 33.0502H42.7934Z" fill="white"/>
<path d="M47.5771 45.8564C47.4675 45.569 47.0582 45.569 46.9631 45.8564L45.0427 51.1896C44.9952 51.3324 44.9952 51.4937 45.0427 51.6532L50.3929 66.5196C50.4879 66.7903 50.7382 66.9665 51.0068 66.9665H54.6887C54.9244 66.9665 55.0815 66.7421 55.003 66.5196L47.5771 45.8583V45.8564Z" fill="white"/>
<path d="M49.2453 33.0502H45.5634C45.2802 33.0502 45.0445 33.2264 44.9495 33.4971L33.0871 66.501C33.0085 66.7254 33.1657 66.9479 33.4014 66.9479H37.0832C37.3665 66.9479 37.6022 66.7718 37.6972 66.501L49.5596 33.4804C49.6382 33.2727 49.481 33.0502 49.2453 33.0502Z" fill="white"/>
<path d="M50.8021 36.8665C50.6925 36.5791 50.2832 36.5791 50.1882 36.8665L48.2696 42.1996C48.2221 42.3424 48.2221 42.5038 48.2696 42.6632L56.8448 66.5029C56.9398 66.7736 57.1901 66.9498 57.4587 66.9498H61.1406C61.3763 66.9498 61.5335 66.7254 61.4549 66.5029L50.804 36.8683L50.8021 36.8665Z" fill="white"/>
<path d="M73.0651 33.0502H69.3833C69.1 33.0502 68.8643 33.2264 68.7693 33.4971L60.1795 57.3368C60.132 57.4796 60.132 57.6409 60.1795 57.8004L62.0999 63.1335C62.2095 63.4209 62.6188 63.4209 62.7139 63.1335L73.3648 33.499C73.4434 33.2746 73.2862 33.0521 73.0651 33.0521V33.0502Z" fill="white"/>
<path d="M58.873 54.1436C58.9827 54.431 59.392 54.431 59.487 54.1436L66.9129 33.4971C66.9914 33.2727 66.8343 33.0502 66.5986 33.0502H62.9167C62.6335 33.0502 62.3978 33.2264 62.3028 33.4971L56.9526 48.3635C56.9051 48.5063 56.9051 48.6676 56.9526 48.8271L58.8712 54.1436H58.873Z" fill="white"/>
</g>
</svg>
