<svg width="100%" height="100%" viewBox="0 0 100 100" fill="none" xmlns="http://www.w3.org/2000/svg">
<circle cx="50" cy="50" r="50" fill="#212423"/>
<g clip-path="url(#clip0_720_2)">
<path d="M50.1021 15.8419C50.2898 15.8419 50.4629 15.8902 50.6361 15.9848L78.7273 32.6208C79.0572 32.8119 79.2613 33.1646 79.2449 33.5469L79.1356 66.6424C79.1356 67.0266 78.9314 67.3774 78.6016 67.5685L50.4155 84.0114C50.2588 84.1079 50.0711 84.1543 49.8815 84.1543C49.692 84.1543 49.5207 84.1061 49.3475 84.0114L21.2581 67.3774C20.9282 67.1862 20.7241 66.8336 20.7405 66.4513L20.8499 33.3557C20.8499 32.9715 21.054 32.6208 21.3839 32.4296L49.5845 15.97C49.7412 15.8902 49.9289 15.8419 50.1021 15.8419ZM50.1185 11C49.1142 11 48.11 11.2561 47.2151 11.7832L19.0291 28.2261C17.2248 29.2821 16.1094 31.2307 16.1094 33.3409L16 66.4364C16 68.5465 17.099 70.4952 18.8869 71.566L46.9782 88.202C47.8731 88.729 48.8773 89.0019 49.8815 89.0019C50.8858 89.0019 51.89 88.7457 52.7849 88.2187L80.9709 71.7758C82.7752 70.7216 83.8906 68.7711 83.8906 66.6628L84 33.5673C84 31.4572 82.901 29.5085 81.1131 28.4377L53.0218 11.7999C52.1269 11.2728 51.1227 11 50.1185 11Z" fill="white"/>
<path d="M55.814 29.0408H51.7023C51.3888 29.0408 51.1209 29.232 51.0116 29.5363L37.767 66.4977C37.6722 66.7371 37.8617 66.9932 38.1114 66.9932H42.2231C42.5366 66.9932 42.8045 66.802 42.9139 66.4977L56.1585 29.5363C56.2533 29.2969 56.0637 29.0408 55.814 29.0408ZM48.6112 29.0408H44.4995C44.186 29.0408 43.9181 29.232 43.8088 29.5363L30.5787 66.4828C30.484 66.7222 30.6735 66.9784 30.9232 66.9784H35.0349C35.3484 66.9784 35.6163 66.7872 35.7257 66.4828L48.9557 29.5363C49.0505 29.2969 48.8773 29.0408 48.6112 29.0408ZM53.9477 43.3588C53.8384 43.0229 53.3663 43.0229 53.257 43.3588L51.1227 49.3347C51.0608 49.4943 51.0608 49.6854 51.1227 49.8469L57.0862 66.4828C57.1955 66.7705 57.4634 66.9784 57.7769 66.9784H61.8886C62.1401 66.9784 62.3279 66.7222 62.2331 66.4828L53.9477 43.3588ZM69.4213 66.4828L57.5418 33.3075C57.4325 32.9715 56.9604 32.9715 56.8511 33.3075L54.7168 39.2833C54.6549 39.4429 54.6549 39.6341 54.7168 39.7956L64.2744 66.4828C64.3837 66.7705 64.6516 66.9784 64.9651 66.9784H69.0768C69.3429 66.9951 69.5161 66.7222 69.4213 66.4828Z" fill="white"/>
</g>
<defs>
<clipPath id="clip0_720_2">
<rect width="68" height="78" fill="white" transform="translate(16 11)"/>
</clipPath>
</defs>
</svg>
