<svg width="100%" height="100%" viewBox="0 0 40 40" fill="none" xmlns="http://www.w3.org/2000/svg">
<circle cx="20" cy="20" r="20" fill="black"/>
<path fill-rule="evenodd" clip-rule="evenodd" d="M10.8222 28.5259H14.5214H14.5214C15.3924 28.5259 15.8278 28.5259 16.2165 28.4183C16.6426 28.2916 17.0312 28.067 17.3543 27.7579C17.651 27.4752 17.8652 27.1005 18.2875 26.3613L18.2878 26.3609L18.3002 26.3392L23.0979 17.8581C23.524 17.1136 23.7347 16.739 23.8284 16.3457C23.9314 15.9196 23.9314 15.47 23.8284 15.0439C23.7355 14.6536 23.5226 14.2817 23.1028 13.5482L23.0932 13.5315L21.2155 10.2537C20.8269 9.57009 20.6302 9.22826 20.3821 9.10184C20.1152 8.96605 19.7967 8.96605 19.5298 9.10184C19.2817 9.22826 19.085 9.57009 18.6964 10.2537L9.56262 26.3532C9.17866 27.0275 8.98666 27.3647 9.00072 27.6409C9.01945 27.9406 9.17397 28.2122 9.42684 28.3762C9.66095 28.5259 10.0449 28.5259 10.8222 28.5259ZM29.1635 28.5259H23.863C23.0811 28.5259 22.6877 28.5259 22.4583 28.3762C22.2054 28.2122 22.0509 27.9361 22.0322 27.6363C22.0182 27.3622 22.2118 27.0282 22.599 26.3597L22.5991 26.3596L22.6081 26.344L25.2538 21.8019C25.6424 21.1323 25.8391 20.7999 26.0826 20.6734C26.3493 20.5376 26.6633 20.5376 26.93 20.6734C27.1718 20.7965 27.3601 21.1149 27.7328 21.7452L27.7333 21.7461L27.7635 21.7972L30.4186 26.3393L30.4235 26.3476C30.4347 26.3672 30.4458 26.3864 30.4569 26.4053L30.457 26.4053C30.825 27.0404 31.0128 27.3645 30.9993 27.6317C30.9851 27.9312 30.826 28.2076 30.5732 28.3716C30.3389 28.5259 29.9455 28.5259 29.1636 28.5259H29.1635Z" fill="white"/>
</svg>
