<svg width="100%" height="100%" viewBox="0 0 40 40" fill="none" xmlns="http://www.w3.org/2000/svg">
<circle cx="20" cy="20" r="20" fill="black"/>
<path fill-rule="evenodd" clip-rule="evenodd" d="M25.2818 7.06849L32.7752 14.5524L32.7823 25.2209L25.3084 32.8337L14.7182 32.9315L7.22479 25.4476L7.21765 14.7791L14.6916 7.16633L25.2818 7.06849ZM15.3473 8.70881L8.76654 15.4118L8.77283 24.8052L15.3531 31.3771L24.6527 31.2912L31.2335 24.5882L31.2272 15.1948L24.6469 8.62289L15.3473 8.70881Z" fill="white"/>
<path fill-rule="evenodd" clip-rule="evenodd" d="M22.1191 14.8118L24.9026 17.5917L23.8083 18.6874L21.4842 16.3662L18.5203 16.3936L16.4166 18.5364L16.4186 21.5392L18.5158 23.6338L21.4797 23.6064L23.8054 21.2375L24.9104 22.3223L22.1353 25.1489L17.8809 25.1882L14.8705 22.1816L14.8677 17.9037L17.8646 14.8511L22.1191 14.8118Z" fill="white"/>
<path fill-rule="evenodd" clip-rule="evenodd" d="M23.7696 10.7707L26.446 13.4437L25.3518 14.5394L23.1347 12.3251L16.8644 12.3831L12.4242 16.9057L12.4284 23.2437L16.8653 27.6749L23.1356 27.6169L27.5758 23.0943L27.5731 19.0428L29.1215 19.0418L29.1247 23.7269L23.7913 29.1594L16.2304 29.2293L10.8804 23.8861L10.8753 16.2731L16.2087 10.8406L23.7696 10.7707Z" fill="white"/>
<path d="M28.3502 14.7589C28.3502 15.7328 27.5608 16.5223 26.5869 16.5223C25.613 16.5223 24.8235 15.7328 24.8235 14.7589C24.8235 13.785 25.613 12.9956 26.5869 12.9956C27.5608 12.9956 28.3502 13.785 28.3502 14.7589Z" fill="white"/>
<path d="M23.8069 21.2378H24.9104V22.3235H23.8069V21.2378Z" fill="white"/>
<path d="M23.8061 17.5938H24.9012V18.687H23.8061V17.5938Z" fill="white"/>
<path d="M21.1851 24.7825L22.4133 24.0734L24.2591 27.2704L23.0309 27.9795L21.1851 24.7825Z" fill="white"/>
<path d="M19.2491 24.7825L18.0209 24.0734L16.175 27.2704L17.4033 27.9795L19.2491 24.7825Z" fill="white"/>
<path d="M15.3111 21.1025L16.0202 22.3308L12.8231 24.1766L12.114 22.9484L15.3111 21.1025Z" fill="white"/>
<path d="M15.3111 19.1665L16.0202 17.9383L12.8231 16.0925L12.114 17.3207L15.3111 19.1665Z" fill="white"/>
<path d="M19.2491 15.3834L18.0209 16.0925L16.175 12.8954L17.4033 12.1863L19.2491 15.3834Z" fill="white"/>
<path d="M21.1851 15.3834L22.4133 16.0925L24.2591 12.8954L23.0309 12.1863L21.1851 15.3834Z" fill="white"/>
</svg>
