<svg width="100%" height="100%" viewBox="0 0 40 40" fill="none" xmlns="http://www.w3.org/2000/svg">
<circle cx="20" cy="20" r="20" fill="black"/>
<path d="M28.6273 11.8639C29.4844 12.7 30.3429 13.539 31.1896 14.3662C29.3172 16.2254 27.4609 18.0684 25.6432 19.8741C27.5467 21.8196 29.3823 23.6951 31.203 25.5559C30.337 26.4365 29.4829 27.3067 28.5593 28.2453C28.1892 27.8443 27.8354 27.4404 27.4565 27.0588C25.5899 25.1772 23.7189 23.3016 21.8449 21.426C21.4674 21.0473 21.238 20.6077 21.2188 20.0672C21.1995 19.4999 21.4349 19.0396 21.8257 18.6475C23.9942 16.4719 26.1642 14.2964 28.3342 12.1223C28.4157 12.0406 28.5089 11.9678 28.6273 11.8639Z" fill="white"/>
<path d="M25.5493 8.79012C26.4183 9.64995 27.2783 10.5009 28.1501 11.3637C28.0909 11.432 28.0421 11.4944 27.9858 11.5493C25.8039 13.7368 23.6206 15.9242 21.4388 18.1131C20.9177 18.6359 20.3108 18.9389 19.5721 18.7383C19.2583 18.6537 18.9297 18.4785 18.7002 18.2513C16.4547 16.0252 14.2285 13.7798 11.9977 11.5389C11.9489 11.4899 11.9089 11.4305 11.8571 11.3667C12.7201 10.5128 13.5727 9.66777 14.449 8.80051C14.6059 8.94902 14.7776 9.10495 14.9405 9.26978C16.5317 10.8677 18.12 12.4685 19.7113 14.065C19.9866 14.3412 19.9925 14.3337 20.2752 14.0516C21.9879 12.3334 23.699 10.6167 25.4132 8.90001C25.4561 8.85694 25.5079 8.82279 25.5478 8.7916L25.5493 8.79012Z" fill="white"/>
<path d="M11.3333 28.2083C10.494 27.3291 9.66212 26.4589 8.80802 25.5634C10.6332 23.7591 12.4938 21.9176 14.3471 20.0852C13.9622 19.6827 13.6484 19.3412 13.3198 19.013C11.884 17.5784 10.4437 16.1468 9.00489 14.7138C8.73105 14.442 8.72957 14.4376 8.99009 14.1732C9.671 13.4827 10.3549 12.7936 11.0402 12.1061C11.1335 12.0125 11.2386 11.9308 11.3422 11.8402C11.9165 12.4135 12.4761 12.9704 13.0356 13.5287C14.6757 15.1652 16.3158 16.8032 17.9545 18.4412C18.1069 18.5927 18.2549 18.7516 18.3866 18.9224C18.8958 19.5847 18.9107 20.397 18.4163 21.0712C18.2742 21.2657 18.1039 21.4425 17.9337 21.6147C15.774 23.7873 13.6114 25.957 11.4488 28.1266C11.431 28.1444 11.4058 28.1563 11.3333 28.2053V28.2083Z" fill="white"/>
<path d="M11.8006 28.6378C14.0432 26.4088 16.2443 24.2153 18.4529 22.0309C18.6733 21.8126 18.9132 21.5898 19.1855 21.4487C19.896 21.0775 20.6525 21.1963 21.2416 21.7636C22.1653 22.6546 23.0712 23.5664 23.983 24.4708C25.3656 25.8445 26.7451 27.2196 28.1499 28.6185C28.0315 28.7536 27.9382 28.8695 27.8346 28.9749C27.1329 29.6833 26.4224 30.3828 25.7282 31.0985C25.5698 31.2618 25.481 31.2336 25.3404 31.091C23.6174 29.3462 21.8914 27.6042 20.1655 25.8623C20.1166 25.8132 20.0618 25.7687 20.0011 25.7138C19.264 26.4384 18.5298 27.1498 17.806 27.8715C16.7254 28.9512 15.6552 30.0397 14.5746 31.1178C14.5257 31.1668 14.3733 31.1951 14.3392 31.1609C13.494 30.3322 12.6592 29.4932 11.7991 28.6334L11.8006 28.6378Z" fill="white"/>
</svg>
