<svg width="100%" height="100%" viewBox="0 0 40 40" fill="none" xmlns="http://www.w3.org/2000/svg">
<circle cx="20" cy="20" r="20" fill="black"/>
<g clip-path="url(#clip0_5_245)">
<path d="M27.382 15.9827C27.382 14.4178 26.6262 13.0327 25.4644 12.1823L28.6 9L26.7255 9.00877L24.2335 11.538C23.7713 11.3802 23.279 11.2969 22.765 11.2969H14.1874V23.6272L24.5142 13.1466C25.4428 13.7384 26.0647 14.7904 26.0647 15.987C26.0647 17.8324 24.5833 19.3359 22.765 19.3359H22.4929L11 31H12.8658L15.1203 28.7119H22.765C25.3132 28.7119 27.382 26.6079 27.382 24.0261C27.382 22.321 26.4794 20.8306 25.1361 20.011C26.4794 19.1825 27.382 17.6878 27.382 15.9827ZM15.5047 20.3923V12.6338H22.765C22.8903 12.6338 23.0112 12.6426 23.1321 12.6557L15.5047 20.3923ZM26.0647 24.0173C26.0647 25.8627 24.5833 27.3662 22.765 27.3662H16.4376L23.0112 20.6948C24.7129 20.8263 26.0647 22.2596 26.0647 24.0173Z" fill="white"/>
</g>
<defs>
<clipPath id="clip0_5_245">
<rect width="17.6" height="22" fill="white" transform="translate(11 9)"/>
</clipPath>
</defs>
</svg>
