<svg width="100%" height="100%" viewBox="0 0 40 40" fill="none" xmlns="http://www.w3.org/2000/svg">
<circle cx="20" cy="20" r="20" fill="black"/>
<path fill-rule="evenodd" clip-rule="evenodd" d="M31.298 20C31.298 26.2378 26.2309 31.2945 19.9803 31.2945C14.0501 31.2945 9.18513 26.7429 8.70197 20.9494H23.6614V19.0506H8.70197C9.18513 13.2571 14.0501 8.70545 19.9803 8.70545C26.2309 8.70545 31.298 13.7622 31.298 20Z" fill="white"/>
<path d="M19.9803 31.2945C26.2309 31.2945 31.298 26.2378 31.298 20C31.298 13.7622 26.2309 8.70545 19.9803 8.70545C14.0501 8.70545 9.18513 13.2571 8.70197 19.0506H23.6614V20.9494H8.70197C9.18513 26.7429 14.0501 31.2945 19.9803 31.2945Z" fill="white"/>
</svg>
