<svg width="100%" height="100%" viewBox="0 0 40 40" fill="none" xmlns="http://www.w3.org/2000/svg">
<circle cx="20" cy="20" r="20" fill="black"/>
<path d="M30.0814 22.8092C29.9976 25.3257 28.9822 27.7213 27.2321 29.5315C25.4821 31.3417 23.1221 32.4375 20.6099 32.6063C18.0978 32.775 15.6124 32.0048 13.6359 30.445C11.6595 28.8852 10.3327 26.6469 9.91299 24.1643H12.5761C12.7943 24.1635 13.0076 24.2288 13.1879 24.3516C13.3683 24.4744 13.5072 24.6489 13.5864 24.8522C13.9835 25.9133 14.6406 26.8578 15.4973 27.5992C16.354 28.3405 17.3831 28.8551 18.4902 29.0958C19.5973 29.3364 20.7471 29.2954 21.8343 28.9766C22.9215 28.6577 23.9113 28.0712 24.7131 27.2707C25.5148 26.4702 26.1029 25.4813 26.4235 24.3946C26.7441 23.308 26.7869 22.1582 26.5481 21.0507C26.3092 19.9432 25.7963 18.9134 25.0562 18.0554C24.3162 17.1975 23.3728 16.539 22.3123 16.1402C22.1067 16.0607 21.93 15.9205 21.806 15.7382C21.6819 15.556 21.6162 15.3402 21.6177 15.1197V12.4508C24.0432 12.8605 26.2378 14.136 27.7943 16.0408C29.3508 17.9456 30.1631 20.3507 30.0814 22.8092Z" fill="white"/>
<path d="M19.9322 26.4953C21.0021 26.4953 22.0282 26.0702 22.7848 25.3137C23.5413 24.5571 23.9663 23.531 23.9663 22.4611C23.9663 21.3912 23.5413 20.365 22.7848 19.6085C22.0282 18.8519 21.0021 18.4269 19.9322 18.4269C18.8622 18.4269 17.8361 18.8519 17.0796 19.6085C16.323 20.365 15.898 21.3912 15.898 22.4611C15.898 23.531 16.323 24.5571 17.0796 25.3137C17.8361 26.0702 18.8622 26.4953 19.9322 26.4953ZM9.91299 20.6172V9.65087C9.91344 9.04625 10.1539 8.46652 10.5814 8.03902C11.009 7.61152 11.5888 7.37122 12.1934 7.37088C12.4799 7.37155 12.7545 7.48558 12.9572 7.68805C13.16 7.89053 13.2743 8.16501 13.2753 8.45152V14.7926C14.6818 13.57 16.3986 12.7596 18.2365 12.4508V15.1159C18.2348 15.3391 18.1653 15.5564 18.0371 15.7392C17.909 15.9219 17.7284 16.0613 17.5191 16.1389C16.6492 16.471 15.8569 16.9787 15.1917 17.6304C14.5266 18.2821 14.0027 19.0638 13.6529 19.9268C13.5755 20.1205 13.4441 20.2889 13.274 20.4101C13.0913 20.5448 12.8699 20.6181 12.6426 20.6185L9.91299 20.6172Z" fill="white"/>
</svg>
