<svg width="100%" height="100%" viewBox="0 0 40 40" fill="none" xmlns="http://www.w3.org/2000/svg">
<circle cx="20" cy="20" r="20" fill="black"/>
<path d="M27.6062 14.5969L22.0751 9.0507C21.7823 8.7489 21.4318 8.50896 21.0446 8.34511C20.6573 8.18126 20.2411 8.09683 19.8206 8.09683C19.4 8.09683 18.9838 8.18126 18.5965 8.34511C18.2093 8.50896 17.8588 8.7489 17.566 9.0507L12.0198 14.5969L19.7905 18.4747L27.6062 14.5969ZM29.7285 16.8364L30.8257 17.9336C31.1294 18.2253 31.371 18.5754 31.5361 18.9628C31.7011 19.3503 31.7862 19.767 31.7862 20.1881C31.7862 20.6093 31.7011 21.026 31.5361 21.4134C31.371 21.8009 31.1294 22.1509 30.8257 22.4427L21.9869 31.3687C21.7774 31.583 21.5336 31.7608 21.2655 31.8947V21.0749L29.7285 16.8364ZM9.79536 16.8364L8.69815 17.9336C8.39446 18.2253 8.15284 18.5754 7.9878 18.9628C7.82275 19.3503 7.73767 19.767 7.73767 20.1881C7.73767 20.6093 7.82275 21.026 7.9878 21.4134C8.15284 21.8009 8.39446 22.1509 8.69815 22.4427L17.538 31.3687C17.7484 31.5831 17.9919 31.7615 18.2594 31.8947V21.0749L9.79536 16.8364Z" fill="white"/>
</svg>
