<svg width="100%" height="100%" viewBox="0 0 40 40" fill="none" xmlns="http://www.w3.org/2000/svg">
<circle cx="20" cy="20" r="20" fill="black" />
<path d="M10.992 20L11.0064 25.2885L15.5 27.9327V31.0288L8.3766 26.851V18.4535L10.992 20ZM10.992 14.7115V17.7933L8.375 16.2452V13.1635L10.992 11.6154L13.6218 13.1635L10.992 14.7115ZM17.3766 13.1635L19.9936 11.6154L22.6234 13.1635L19.9936 14.7115L17.3766 13.1635Z" fill="white" />
<path d="M12.883 24.1923V21.0962L15.5 22.6442V25.726L12.883 24.1923ZM17.3766 29.0417L19.9936 30.5897L22.6234 29.0417V32.1234L19.9936 33.6715L17.3766 32.1234V29.0417ZM26.3766 13.1635L28.9936 11.6154L31.6234 13.1635V16.2452L28.9936 17.7933V14.7115L26.3766 13.1635ZM28.9936 25.2885L29.008 20L31.625 18.4519V26.8494L24.5016 31.0272V27.9311L28.9936 25.2885Z" fill="white" />
<path d="M27.117 24.1923L24.5 25.726V22.6442L27.117 21.0962V24.1923Z" fill="white" />
<path d="M27.117 15.8077L27.1314 18.9038L22.625 21.5481V26.8494L20.008 28.383L17.391 26.8494V21.5481L12.8846 18.9038V15.8077L15.5128 14.2596L19.992 16.9167L24.4984 14.2596L27.1282 15.8077H27.117ZM12.883 10.5208L19.9936 6.32852L27.117 10.5208L24.5 12.0689L19.9936 9.41186L15.5 12.0689L12.883 10.5208Z" fill="white" />
</svg>
