<svg width="100%" height="100%" viewBox="0 0 40 40" fill="none" xmlns="http://www.w3.org/2000/svg">
<circle cx="20" cy="20" r="20" fill="black"/>
<path d="M24.6272 30.9212H12.09V23.6404C12.09 19.6198 15.3502 16.3596 19.3729 16.3596H24.6272C28.6498 16.3596 31.91 19.6198 31.91 23.6404C31.91 27.661 28.6498 30.9212 24.6272 30.9212Z" fill="white" fill-opacity="0.5"/>
<path d="M28.2534 17.3263V17.4477C28.2534 20.8697 25.4806 23.6404 22.0566 23.6404H12.09C12.09 21.6301 12.9071 19.8099 14.2217 18.4913C15.5403 17.1726 17.3605 16.3596 19.3749 16.3596H24.6272C25.9478 16.3616 27.1856 16.7135 28.2534 17.3263Z" fill="white" fill-opacity="0.5"/>
<path fill-rule="evenodd" clip-rule="evenodd" d="M12.09 9.0788V23.6404C12.09 21.6301 12.9071 19.8099 14.2217 18.4913C15.5403 17.1726 17.3605 16.3596 19.3749 16.3596H24.6272C25.9478 16.3616 27.1856 16.7135 28.2534 17.3263V15.2715C28.2534 11.8516 25.4806 9.0788 22.0587 9.0788H12.09Z" fill="white"/>
</svg>
