<svg width="100%" height="100%" viewBox="0 0 40 40" fill="none" xmlns="http://www.w3.org/2000/svg">
<circle cx="20" cy="20" r="20" fill="black"/>
<path d="M19.6846 8.16556C20.245 7.87331 20.9292 8.55127 20.6314 9.1112C20.4584 9.56763 19.8027 9.689 19.4678 9.34109C19.1129 9.00719 19.2287 8.34723 19.6846 8.16556ZM13.6565 8.81536C13.9969 8.67521 14.4279 8.98713 14.3932 9.35819C14.4293 9.761 13.9368 10.0575 13.5898 9.86605C13.13 9.68798 13.1826 8.94162 13.6565 8.81536ZM26.0027 9.87736C25.4707 9.81308 25.3865 8.97659 25.8987 8.80816C26.296 8.6144 26.6605 8.97774 26.7186 9.35433C26.6353 9.67589 26.3661 9.97032 26.0027 9.87736ZM15.0281 11.381C15.5973 11.021 16.4095 11.5572 16.3219 12.2183C16.2923 12.8858 15.4057 13.2726 14.9054 12.8213C14.4217 12.4668 14.495 11.6536 15.0281 11.381ZM23.7171 11.763C23.971 11.1086 25 11.0888 25.289 11.7258C25.5747 12.2216 25.2233 12.8355 24.7143 13.0041C24.0401 13.13 23.3997 12.4011 23.7171 11.763ZM18.9587 12.9669C18.9531 12.4044 19.4655 11.9853 20.0001 11.947C20.3547 12.0181 20.7412 12.1692 20.8933 12.527C21.1768 13.0206 20.925 13.7002 20.4128 13.9267C20.1785 14.058 19.9016 14.0088 19.6465 13.9935C19.2566 13.802 18.9282 13.4266 18.9587 12.9669ZM9.99399 13.7866C10.5139 13.467 11.2154 14.0503 11.0186 14.6151C10.9102 15.1037 10.2534 15.3025 9.87802 14.9905C9.47726 14.6983 9.54077 13.9956 9.99399 13.7866ZM29.2444 13.7856C29.6855 13.443 30.4135 13.836 30.3609 14.3929C30.3905 14.9008 29.7611 15.2838 29.3232 15.0223C28.8409 14.8055 28.7917 14.0635 29.2444 13.7856ZM21.4797 14.7968C22.2077 14.5353 23.0723 14.8482 23.4872 15.4972C24.0345 16.2907 23.7433 17.499 22.894 17.9542C22.0139 18.4927 20.7288 18.0363 20.4038 17.0535C20.0348 16.1737 20.5724 15.0726 21.4797 14.7968ZM17.2085 14.8833C18.0153 14.5025 19.1011 14.822 19.4908 15.6473C19.9494 16.4506 19.5948 17.5692 18.7749 17.9839C17.954 18.4501 16.7958 18.0967 16.3985 17.2342C15.953 16.4002 16.3487 15.2674 17.2085 14.8833ZM12.9319 16.3454C12.9932 15.8256 13.4836 15.4873 13.9783 15.4524C14.5114 15.5167 14.9372 15.9307 14.9952 16.4701C14.9602 17.0042 14.5475 17.5262 13.9815 17.523C13.3588 17.5766 12.8129 16.9572 12.9319 16.3454ZM25.5638 15.5654C26.203 15.1933 27.0907 15.735 27.0623 16.4694C27.1061 17.2475 26.1237 17.7958 25.4872 17.3394C24.8259 16.9594 24.8775 15.889 25.5638 15.5654ZM15.4704 18.3078C16.218 18.1021 17.0729 18.4545 17.4396 19.1417C17.8412 19.8335 17.6771 20.7944 17.0532 21.3017C16.2531 22.0459 14.7775 21.7471 14.3517 20.7315C13.8623 19.8005 14.4567 18.5529 15.4704 18.3078ZM23.5716 18.304C24.2984 18.0961 25.1522 18.3762 25.543 19.0384C26.0596 19.7957 25.813 20.9252 25.0438 21.4133C24.2382 21.9802 22.9903 21.6826 22.547 20.7962C22.0095 19.8794 22.5503 18.5836 23.5716 18.304ZM10.6617 19.168C11.3075 18.9237 12.0234 19.6363 11.7617 20.2766C11.6019 20.86 10.7798 21.0756 10.3551 20.6455C9.85822 20.2417 10.0422 19.3431 10.6617 19.168ZM28.1667 20.0972C28.1481 19.562 28.5396 19.0881 29.0883 19.0585C29.5306 19.1286 29.9607 19.4854 29.9257 19.9669C29.9662 20.6028 29.1999 21.0351 28.6581 20.7363C28.4042 20.6072 28.2739 20.3467 28.1667 20.0972ZM7.48619 19.4821C7.87474 19.3125 8.35534 19.6492 8.26663 20.0807C8.2458 20.5693 7.52451 20.7571 7.25952 20.3489C7.02539 20.0654 7.16554 19.6283 7.48619 19.4821ZM31.9847 19.4723C32.2583 19.2775 32.6972 19.4175 32.8056 19.7372C32.9894 20.0862 32.6523 20.5645 32.2594 20.5055C31.7078 20.5558 31.5294 19.7152 31.9847 19.4723ZM17.5808 21.8176C18.6032 21.5517 19.7022 22.4042 19.7086 23.457C19.7753 24.5208 18.6929 25.4641 17.6463 25.2184C16.8374 25.0882 16.2026 24.3089 16.2288 23.4914C16.2266 22.7096 16.8167 21.9829 17.5808 21.8176ZM21.6297 21.8154C22.6674 21.5253 23.7993 22.3932 23.7828 23.4702C23.8376 24.5144 22.7889 25.4259 21.7642 25.2188C20.7999 25.0941 20.0884 24.0347 20.3576 23.0989C20.4936 22.4753 21.0145 21.9683 21.6297 21.8154ZM13.823 22.4634C14.5411 22.3409 15.2143 23.142 14.923 23.8238C14.7106 24.5504 13.6533 24.7475 13.1858 24.154C12.6374 23.584 13.0468 22.5421 13.823 22.4634ZM25.6972 22.4954C26.3375 22.2272 27.1235 22.7811 27.0742 23.476C27.1 24.241 26.1296 24.7686 25.5035 24.322C24.7943 23.9211 24.9234 22.7414 25.6972 22.4954ZM29.0162 25.8244C28.7655 25.357 29.2209 24.7376 29.7398 24.8241C29.9981 24.8197 30.1787 25.0233 30.3441 25.194C30.378 25.4709 30.435 25.8014 30.2051 26.0148C29.8929 26.4099 29.1858 26.2971 29.0162 25.8244ZM9.9918 24.9542C10.4768 24.6314 11.1747 25.1129 11.0656 25.6799C11.0076 26.1813 10.376 26.4679 9.95992 26.1834C9.51339 25.9251 9.52984 25.1896 9.9918 24.9542ZM19.573 26.0039C20.2079 25.7237 21.0167 26.2764 20.9565 26.9757C21.0036 27.7485 20.0032 28.2836 19.3824 27.8196C18.6929 27.4211 18.8078 26.2489 19.573 26.0039ZM15.1353 27.0391C15.6761 26.7546 16.4018 27.246 16.3525 27.8512C16.369 28.3481 15.884 28.7716 15.3936 28.6982C14.9875 28.6895 14.7226 28.3254 14.5924 27.9791C14.599 27.6018 14.7544 27.1815 15.1353 27.0391ZM24.1243 27.0479C24.6804 26.7042 25.4707 27.1978 25.4181 27.845C25.4324 28.5214 24.5392 28.9547 24.0214 28.5104C23.5201 28.1621 23.5813 27.3248 24.1243 27.0479ZM25.6875 30.9124C25.4401 30.5381 25.7313 30.0872 26.133 30.0018C26.4559 30.0675 26.7974 30.3104 26.7295 30.6848C26.6825 31.1915 25.9414 31.3469 25.6875 30.9124ZM13.2789 30.5873C13.3774 30.2907 13.616 29.9959 13.9652 30.073C14.4742 30.1092 14.6253 30.8764 14.1798 31.1128C13.7791 31.3829 13.3144 31.013 13.2789 30.5873ZM19.2653 30.9277C19.3628 30.4888 19.9308 30.2754 20.3052 30.5085C20.5526 30.6147 20.6248 30.8915 20.6883 31.1268C20.6544 31.2493 20.624 31.372 20.5942 31.4945C20.441 31.6762 20.244 31.8579 19.9889 31.8513C19.5149 31.9069 19.0872 31.371 19.2653 30.9277Z" fill="white"/>
</svg>
