<svg width="100%" height="100%" viewBox="0 0 40 40" fill="none" xmlns="http://www.w3.org/2000/svg">
<circle cx="20" cy="20" r="20" fill="black"/>
<g>
<path d="M38.0385 27.0068C33.7921 27.0068 31.1305 24.023 31.1305 20.0168C31.1305 16.0485 33.8155 13.0263 38.0619 13.0263C41.4889 13.0263 43.4872 14.7853 44.3223 17.4125H42.0352C41.3092 15.7854 40.1304 14.9558 38.0541 14.9558C35.1579 14.9558 33.425 17.2035 33.425 20.0245C33.425 22.8451 35.1584 25.0928 38.0541 25.0928C40.2789 25.0928 41.4811 24.1083 42.0352 22.6361H44.3223C43.6898 25.1391 41.4499 27.0068 38.0385 27.0068ZM53.9936 26.7666H51.7455C51.6755 26.3362 51.6442 25.9005 51.652 25.4645V25.1776H51.6364C51.2926 26.069 50.403 27.0146 48.5138 27.0146C46.3046 27.0146 45.0483 25.6506 45.0483 24.1005C45.0483 21.2643 48.3969 21.1864 49.8099 20.9618C51.1056 20.7528 51.6364 20.5668 51.6364 19.7528C51.6364 18.9392 50.9338 18.4121 49.7315 18.4121C48.6623 18.4121 47.9051 19.0011 47.8505 19.9778H45.6964C45.7899 18.3736 47.07 16.7071 49.693 16.7071C52.9633 16.7071 53.8066 18.6523 53.8066 20.7528V24.5112C53.8066 25.255 53.8378 26.2556 53.9936 26.7666ZM51.6909 21.241C51.4645 21.8299 50.9104 22.2795 49.2948 22.566C47.944 22.814 47.2414 23.1861 47.2414 24.062C47.2414 24.8366 47.9289 25.4026 49.0683 25.4026C50.4186 25.4026 51.6992 24.4415 51.6992 22.264V21.241H51.6909ZM58.8253 18.3892C57.9669 18.3892 57.2253 18.9007 57.2253 19.5983C57.2253 20.5438 58.3652 20.8074 60.0198 21.1869C61.7527 21.5668 63.0095 22.3804 63.0095 23.946C63.0095 25.8912 61.1207 27.0306 58.9505 27.0306C56.9288 27.0306 55.0317 26.1231 54.798 23.7755H56.9833C57.1708 24.8526 57.8422 25.3408 58.9816 25.3408C59.9185 25.3408 60.7925 24.9613 60.7925 24.0542C60.7925 23.0935 59.8245 22.9386 58.24 22.5587C56.6634 22.2021 55.0789 21.466 55.0789 19.6835C55.0789 17.9011 56.8275 16.7154 58.8492 16.7154C60.98 16.7154 62.58 17.7925 62.8064 19.9081H60.7224C60.5817 18.8466 59.7232 18.3892 58.8253 18.3892ZM74.0782 21.8455C74.0782 24.8911 72.2123 27.0453 69.6053 27.0453C67.9113 27.0453 66.8031 26.1543 66.4048 24.9842H66.3892V30.5254H64.1255V16.994H66.4126V18.7687C66.7719 17.7072 67.9191 16.7305 69.6131 16.7305C72.2123 16.7305 74.0782 18.8233 74.0782 21.8455ZM71.8535 21.8455C71.8535 19.9934 70.7842 18.5208 69.059 18.5208C67.365 18.5208 66.3191 19.8224 66.2412 21.636V21.8455C66.2412 23.7751 67.1386 25.2321 69.059 25.2321C70.8231 25.2321 71.8535 23.7366 71.8535 21.8455ZM84.4365 22.473H76.8571C77.0134 24.2476 78.1528 25.2706 79.6905 25.2706C80.8148 25.2706 81.7434 24.8522 82.1105 23.8759H84.2958C83.7028 25.8596 82.0088 27.0302 79.6905 27.0302C76.7402 27.0302 74.718 24.9296 74.718 21.8533C74.718 18.8851 76.8103 16.7305 79.6905 16.7305C83.0391 16.7305 84.4132 19.3036 84.4288 22.0623V22.473H84.4365ZM82.2508 20.8844C82.0949 19.3499 81.2048 18.4277 79.6827 18.4277C78.1606 18.4277 77.1303 19.3888 76.9038 20.8844H82.2508ZM87.8241 22.132V26.7666H85.6154V16.994H87.7851V19.0712H87.8241C88.2068 17.7457 89.1592 16.8781 90.7203 16.8006V18.9938C88.8544 19.0167 87.8241 20.2019 87.8241 22.132ZM27.727 25.6506C27.4793 25.6501 27.2389 25.7344 27.0458 25.8895C26.8526 26.0446 26.7184 26.2611 26.6655 26.5031L22.5675 26.3092C22.5831 26.2318 22.5904 26.1543 22.5904 26.0768C22.5904 25.9375 22.5675 25.7977 22.5281 25.6584L24.019 24.8059C24.3857 25.255 25.0498 25.3485 25.5256 25.0075C25.7548 24.845 25.9121 24.6 25.9645 24.324C26.0169 24.0479 25.9603 23.7623 25.8065 23.5271C25.6515 23.292 25.4131 23.1245 25.1393 23.0583C24.8656 22.9921 24.5769 23.0322 24.3316 23.1705C24.087 23.3081 23.9049 23.5348 23.8234 23.8034C23.7419 24.072 23.7674 24.3617 23.8944 24.612L22.4506 25.4416C22.2837 25.0941 21.9902 24.8235 21.6304 24.6851C21.2705 24.5468 20.8714 24.5511 20.5146 24.6973C20.1578 24.8417 19.8704 25.1179 19.7119 25.4687C19.5534 25.8195 19.5361 26.2178 19.6635 26.581L16.9786 27.224C16.9603 26.8591 16.8072 26.5138 16.5491 26.2551L17.0331 25.5887C17.297 25.6784 17.585 25.6641 17.8388 25.549C18.0925 25.4338 18.2928 25.2262 18.399 24.9686C18.504 24.7115 18.5058 24.4239 18.404 24.1655C18.3022 23.9072 18.1047 23.6981 17.8526 23.5817C17.6 23.4631 17.3118 23.4452 17.0464 23.5315C16.7811 23.6179 16.5585 23.8019 16.424 24.0464C16.2929 24.2912 16.2603 24.5767 16.3329 24.8447C16.4055 25.1127 16.5778 25.3428 16.8145 25.4879L16.3699 26.1002C16.0529 25.8678 15.6591 25.7652 15.269 25.8133L14.8084 23.2017C15.0887 23.1417 15.3459 23.0024 15.5494 22.8004C15.7528 22.5984 15.894 22.3422 15.956 22.0623C16.0178 21.783 15.9976 21.4918 15.8978 21.2238C15.798 20.9557 15.623 20.7221 15.3937 20.5512C15.1648 20.3779 14.8912 20.2735 14.605 20.2502C14.3189 20.2269 14.032 20.2857 13.778 20.4196L12.6148 18.1646C12.8646 18.0409 13.0676 17.8465 13.2161 17.6146L14.1837 17.8699C14.1759 17.924 14.1681 17.9708 14.1681 18.0248C14.1695 18.2964 14.2717 18.5577 14.4549 18.7582C14.638 18.9586 14.8891 19.0839 15.1595 19.1097C15.4309 19.1372 15.7028 19.0616 15.9212 18.898C16.1395 18.7344 16.2884 18.4947 16.3383 18.2265C16.3887 17.9594 16.3362 17.6832 16.1915 17.4532C16.0467 17.2232 15.8203 17.0564 15.5578 16.9863C15.2953 16.9114 15.0143 16.9376 14.7702 17.0596C14.5261 17.1816 14.3364 17.3905 14.2387 17.6453L13.3252 17.4052C13.4495 17.111 13.4742 16.7842 13.3953 16.4748L16.0885 15.2428C16.3314 15.5433 16.6795 15.7401 17.0621 15.7934C17.4448 15.8467 17.8335 15.7524 18.1492 15.5297C18.464 15.3091 18.6807 14.9748 18.7536 14.5973C18.8264 14.2199 18.7497 13.829 18.5397 13.507L20.2566 11.8405C20.4674 11.9725 20.7094 12.0578 20.9514 12.0734V12.8095C20.6763 12.839 20.4228 12.9725 20.2429 13.1828C20.063 13.3931 19.9704 13.6642 19.9839 13.9406C19.9996 14.2175 20.1208 14.4779 20.3226 14.6682C20.5244 14.8585 20.7914 14.9642 21.0688 14.9636C21.6463 14.9636 22.1225 14.5145 22.1536 13.9406C22.1686 13.6638 22.0764 13.3918 21.8961 13.1812C21.7159 12.9706 21.4614 12.8375 21.1856 12.8095V12.0734C21.4043 12.0578 21.6073 11.9955 21.7948 11.8946L23.6758 14.0259C23.4642 14.3024 23.3554 14.6439 23.3682 14.9918C23.381 15.3397 23.5146 15.6723 23.7459 15.9325C23.9814 16.1931 24.2998 16.364 24.647 16.4163C24.9943 16.4686 25.3489 16.3991 25.6507 16.2195C25.9511 16.042 26.1801 15.7653 26.2983 15.4371C26.4165 15.1088 26.4165 14.7497 26.2983 14.4214L26.8841 14.096C27.0643 14.3066 27.3179 14.4407 27.5935 14.4709C27.869 14.5012 28.1457 14.4253 28.3673 14.2587C28.5887 14.0949 28.7383 13.8519 28.7848 13.5804C28.8314 13.3089 28.7713 13.0299 28.617 12.8017C28.4619 12.5728 28.2253 12.4118 27.9555 12.3513C27.6857 12.2908 27.403 12.3355 27.165 12.4763C26.9278 12.6169 26.7535 12.8431 26.678 13.1083C26.6024 13.3735 26.6314 13.6576 26.759 13.9021L26.2048 14.212C26.0926 14.01 25.9355 13.8366 25.7457 13.7049C25.5559 13.5732 25.3384 13.4868 25.11 13.4523C24.8816 13.4179 24.6483 13.4363 24.4281 13.5062C24.2079 13.5761 24.0066 13.6955 23.8398 13.8554L21.9973 11.7709C22.1774 11.6288 22.3241 11.4489 22.4268 11.2438L24.0429 11.5073C24.1036 11.7764 24.2655 12.0118 24.495 12.1648C24.7245 12.3178 25.0041 12.3766 25.2758 12.3291C25.548 12.2855 25.793 12.1389 25.9602 11.9196C26.1273 11.7004 26.2037 11.4253 26.1737 11.1512C26.142 10.8776 26.0074 10.6262 25.7972 10.4482C25.587 10.2702 25.3169 10.1788 25.0418 10.1925C24.7667 10.2063 24.5071 10.3242 24.3157 10.5223C24.1243 10.7204 24.0155 10.9839 24.0113 11.2594L22.5125 11.0119C22.6145 10.6657 22.5887 10.2943 22.4398 9.96551C22.2909 9.63673 22.0288 9.3724 21.7013 9.22071C21.3733 9.06797 21.0015 9.03795 20.6533 9.1361C20.3051 9.23425 20.0036 9.45406 19.8038 9.75559C19.6038 10.0561 19.5198 10.4189 19.5672 10.7767C19.6147 11.1344 19.7904 11.4628 20.0618 11.7008L18.3912 13.3205C18.1321 13.0247 17.7682 12.8413 17.3764 12.809V11.6774C17.6517 11.648 17.9052 11.5145 18.0852 11.3042C18.2652 11.0939 18.3579 10.8227 18.3444 10.5462C18.3301 10.2709 18.2102 10.0116 18.0096 9.82252C17.8089 9.6334 17.5431 9.52898 17.2673 9.531C16.6898 9.531 16.2132 9.98017 16.182 10.554C16.1669 10.8309 16.2591 11.103 16.4393 11.3137C16.6196 11.5244 16.8741 11.6576 17.15 11.6856V12.8095C16.8972 12.8289 16.6532 12.9114 16.4405 13.0494C16.2277 13.1875 16.053 13.3766 15.9322 13.5996C15.813 13.8234 15.7526 14.0738 15.7568 14.3273C15.7609 14.5809 15.8295 14.8292 15.956 15.0489L13.333 16.2424C13.2387 16.0193 13.0912 15.8226 12.9035 15.6695L13.9261 13.8403C14.02 13.8632 14.1058 13.8788 14.1997 13.8788C14.7538 13.8788 15.214 13.4681 15.2846 12.9254C15.3547 12.3832 14.9958 11.8795 14.4651 11.7475C14.207 11.6831 13.9343 11.7154 13.6984 11.8382C13.4625 11.9611 13.2797 12.166 13.1845 12.4144C12.9897 12.9254 13.2161 13.4993 13.7001 13.755L12.7088 15.5375C12.418 15.3646 12.0776 15.2943 11.7421 15.3379C11.4066 15.3814 11.0955 15.5363 10.8585 15.7776C10.623 16.0163 10.4749 16.3274 10.438 16.6606C10.4012 16.9939 10.4778 17.3298 10.6554 17.6142C10.834 17.9004 11.1028 18.1191 11.4194 18.2356C11.736 18.3522 12.0824 18.3599 12.404 18.2577L13.5828 20.5438C13.2853 20.7611 13.0794 21.0813 13.0053 21.4422L12.1464 21.1947C12.1698 21.1094 12.178 21.0159 12.178 20.9311C12.1778 20.6659 12.0797 20.41 11.9025 20.2126C11.7253 20.0152 11.4815 19.8902 11.2178 19.8614C10.9538 19.8306 10.6877 19.8971 10.4693 20.0485C10.2508 20.1999 10.0951 20.4257 10.0312 20.6836C9.96774 20.9419 10.003 21.2146 10.1301 21.4482C10.2572 21.6819 10.4669 21.8597 10.7182 21.9468C10.9678 22.037 11.2417 22.0332 11.4888 21.9362C11.7358 21.8392 11.9391 21.6556 12.0607 21.4197L12.9741 21.6833V21.7529C12.9741 22.2644 13.2317 22.7374 13.6685 23.0088L13.0832 23.7678C12.8747 23.5847 12.6041 23.4884 12.3269 23.4986C12.0497 23.5087 11.7868 23.6245 11.5923 23.8223C11.1866 24.233 11.1706 24.8765 11.5611 25.3027C11.7488 25.5078 12.0078 25.6332 12.2851 25.6534C12.5623 25.6735 12.8367 25.5867 13.052 25.4109C13.268 25.2378 13.4088 24.9881 13.4452 24.7137C13.4816 24.4394 13.4107 24.1616 13.2473 23.9383L13.8798 23.1169C14.0668 23.2022 14.2776 23.2407 14.4885 23.2407C14.5196 23.2407 14.5508 23.2407 14.582 23.2333L15.0504 25.8605C14.7468 25.951 14.479 26.134 14.2845 26.3841C14.09 26.6341 13.9785 26.9387 13.9655 27.2552C13.9582 27.5723 14.0518 27.8835 14.2328 28.1439C14.4138 28.4044 14.6728 28.6007 14.9725 28.7045C15.2729 28.8107 15.5993 28.8192 15.9049 28.7287C16.2105 28.6382 16.4796 28.4534 16.6738 28.2008L18.8596 29.1697C18.8415 29.2485 18.8311 29.329 18.8284 29.4098C18.8284 29.9598 19.2418 30.425 19.7964 30.4869C20.0615 30.5182 20.3288 30.4509 20.5475 30.298C20.7662 30.145 20.921 29.917 20.9826 29.6573C21.1077 29.1229 20.8034 28.5803 20.2804 28.3946C20.0281 28.3054 19.7518 28.3122 19.5041 28.4136C19.2565 28.5151 19.0548 28.7041 18.9375 28.9446L16.8063 27.9991C16.9019 27.83 16.9606 27.6425 16.9786 27.4491L19.7575 26.7749C19.8634 26.9666 20.0096 27.1331 20.186 27.2628C20.3625 27.3926 20.565 27.4826 20.7795 27.5265C20.9943 27.5689 21.2157 27.5646 21.4286 27.5137C21.6415 27.4629 21.841 27.3667 22.0134 27.2318L23.0515 28.1233C22.9341 28.3753 22.9189 28.663 23.0092 28.926C23.0994 29.189 23.2881 29.4068 23.5355 29.5336C23.7809 29.6602 24.0653 29.6889 24.331 29.6137C24.5968 29.5386 24.8241 29.3654 24.9669 29.129C25.1097 28.8926 25.1574 28.6108 25.1003 28.3406C25.0432 28.0704 24.8856 27.832 24.6593 27.6737C24.428 27.5174 24.1458 27.4553 23.8702 27.4999C23.5946 27.5445 23.3464 27.6926 23.1762 27.9138L22.1848 27.0691C22.3333 26.9142 22.4424 26.7208 22.5125 26.5191L26.6421 26.7208C26.646 27.0072 26.7631 27.2805 26.9678 27.4809C27.1726 27.6812 27.4483 27.7924 27.7348 27.7901C28.3361 27.7901 28.8196 27.302 28.8118 26.713C28.8118 26.1314 28.3283 25.6506 27.727 25.6506Z" fill="white"/>
</g>
</svg>
