<svg width="100%" height="100%" viewBox="0 0 40 40" fill="none" xmlns="http://www.w3.org/2000/svg">
<circle cx="20" cy="20" r="20" fill="black"/>
<path d="M17.6035 29.0148C21.075 29.0148 23.8884 26.2014 23.8884 22.7299C23.8884 19.2583 21.075 16.445 17.6035 16.445C14.132 16.445 11.3186 19.2583 11.3186 22.7299C11.3186 26.2014 14.132 29.0148 17.6035 29.0148ZM17.6035 31.3002C12.8704 31.3002 9.0332 27.463 9.0332 22.7299C9.0332 17.9968 12.8704 14.1596 17.6035 14.1596C22.3366 14.1596 26.1738 17.9968 26.1738 22.7299C26.1738 27.463 22.3366 31.3002 17.6035 31.3002Z" fill="white"/>
<path d="M22.1743 24.4439C25.6458 24.4439 28.4592 21.6306 28.4592 18.159C28.4592 14.6875 25.6458 11.8742 22.1743 11.8742C18.7028 11.8742 15.8894 14.6875 15.8894 18.159C15.8894 21.6306 18.7028 24.4439 22.1743 24.4439ZM22.1743 26.7293C17.4412 26.7293 13.604 22.8921 13.604 18.159C13.604 13.426 17.4412 9.58875 22.1743 9.58875C26.9074 9.58875 30.7446 13.426 30.7446 18.159C30.7446 22.8921 26.9074 26.7293 22.1743 26.7293Z" fill="white"/>
<path d="M22.4577 26.7293C23.0519 26.0094 23.477 25.1661 23.7032 24.2588C24.6083 24.0326 25.4516 23.6075 26.1738 23.0133C26.1418 24.0623 25.9155 25.0953 25.5064 26.0643C24.5397 26.4711 23.5067 26.6973 22.4577 26.7293ZM16.0745 16.6301C15.1695 16.8564 14.3262 17.2814 13.604 17.8757C13.636 16.8266 13.8623 15.7936 14.2713 14.8269C15.2381 14.4201 16.2734 14.1939 17.3201 14.1596C16.7259 14.8795 16.3008 15.7228 16.0745 16.6301Z" fill="white"/>
</svg>
