<svg width="100%" height="100%" viewBox="0 0 40 40" fill="none" xmlns="http://www.w3.org/2000/svg">
<circle cx="20" cy="20" r="20" fill="black"/>
<path d="M17.3729 29.8794C21.1947 29.8794 24.2919 26.7822 24.2919 22.9604C24.2919 19.1387 21.1947 16.0415 17.3729 16.0415C13.5512 16.0415 10.454 19.1387 10.454 22.9604C10.454 26.7822 13.5512 29.8794 17.3729 29.8794ZM17.3729 32.3953C12.1624 32.3953 7.93805 28.171 7.93805 22.9604C7.93805 17.7499 12.1624 13.5255 17.3729 13.5255C22.5835 13.5255 26.8078 17.7499 26.8078 22.9604C26.8078 28.171 22.5835 32.3953 17.3729 32.3953Z" fill="white"/>
<path d="M22.4049 24.8474C26.2266 24.8474 29.3238 21.7502 29.3238 17.9285C29.3238 14.1067 26.2266 11.0096 22.4049 11.0096C18.5831 11.0096 15.4859 14.1067 15.4859 17.9285C15.4859 21.7502 18.5831 24.8474 22.4049 24.8474ZM22.4049 27.3634C17.1943 27.3634 12.97 23.1391 12.97 17.9285C12.97 12.7179 17.1943 8.49359 22.4049 8.49359C27.6154 8.49359 31.8398 12.7179 31.8398 17.9285C31.8398 23.1391 27.6154 27.3634 22.4049 27.3634Z" fill="white"/>
<path d="M22.7168 27.3634C23.371 26.5708 23.839 25.6425 24.0881 24.6436C25.0844 24.3945 26.0128 23.9266 26.8078 23.2724C26.7726 24.4272 26.5235 25.5645 26.0732 26.6312C25.0089 27.0791 23.8717 27.3282 22.7168 27.3634ZM15.6897 16.2453C14.6934 16.4944 13.765 16.9624 12.97 17.6165C13.0052 16.4617 13.2543 15.3245 13.7046 14.2602C14.7689 13.8124 15.9086 13.5633 17.0609 13.5255C16.4068 14.3181 15.9388 15.2465 15.6897 16.2453Z" fill="white"/>
</svg>
