<svg width="100%" height="100%" viewBox="0 0 40 40" fill="none" xmlns="http://www.w3.org/2000/svg">
<circle cx="20" cy="20" r="20" fill="black"/>
<g clip-path="url(#clip0_5_256)">
<path fill-rule="evenodd" clip-rule="evenodd" d="M11.6506 26.5205C10.9747 25.0892 10.6036 23.4855 10.6036 21.7892C10.6036 15.6133 15.6133 10.6036 21.7892 10.6036C25.2349 10.6036 28.3096 12.1542 30.3639 14.606L31.5831 13.5723C29.2373 10.7759 25.7253 9 21.7892 9C14.7253 9 9 14.7253 9 21.7892C9 23.7241 9.4241 25.553 10.1928 27.1964L11.6506 26.5205Z" fill="white"/>
<path fill-rule="evenodd" clip-rule="evenodd" d="M21.7891 29.3825C17.6011 29.3825 14.1951 25.9898 14.1951 21.7885C14.1951 17.6006 17.5879 14.1946 21.7891 14.1946C24.1216 14.1946 26.2156 15.2548 27.6071 16.9114L28.8264 15.8777C27.1433 13.8765 24.612 12.591 21.7891 12.591C16.7132 12.591 12.6047 16.6994 12.6047 21.7753C12.6047 26.8512 16.7132 30.9596 21.7891 30.9596V29.3825Z" fill="white"/>
<path fill-rule="evenodd" clip-rule="evenodd" d="M24.5458 24.0958C23.8832 24.8777 22.9024 25.3813 21.7892 25.3813C19.8012 25.3813 18.1976 23.7777 18.1976 21.7898C18.1976 19.8018 19.8012 18.1982 21.7892 18.1982C22.8892 18.1982 23.8832 18.7018 24.5458 19.4837L25.9241 18.3307C24.9301 17.1512 23.4458 16.409 21.7892 16.409C18.8073 16.409 16.3952 18.8211 16.3952 21.803C16.3952 24.7849 18.8073 27.197 21.7892 27.197C23.3133 27.197 24.6783 26.5741 25.6591 25.5536L24.5458 24.0958Z" fill="white"/>
</g>
<defs>
<clipPath id="clip0_5_256">
<rect width="22.6627" height="22" fill="white" transform="translate(9 9)"/>
</clipPath>
</defs>
</svg>
