<svg width="100%" height="100%" viewBox="0 0 40 40" fill="none" xmlns="http://www.w3.org/2000/svg">
<circle cx="20" cy="20" r="20" fill="black"/>
<path fill-rule="evenodd" clip-rule="evenodd" d="M22.3379 16.0883L16.1766 22.2413C16.0972 22.0873 16.0255 21.9269 15.9613 21.7605C15.7461 21.2015 15.6385 20.6083 15.6385 19.9819C15.6385 19.3549 15.7461 18.762 15.9613 18.2029C16.1766 17.6436 16.4751 17.1584 16.8565 16.7466C17.2381 16.335 17.6966 16.0094 18.2317 15.7697C18.7672 15.5302 19.3547 15.4103 19.9945 15.4103C20.6345 15.4103 21.2252 15.5332 21.7663 15.7791C21.9676 15.8704 22.1581 15.9734 22.3379 16.0883ZM21.7942 24.2306C21.2588 24.4703 20.6714 24.59 20.0315 24.59C19.3915 24.59 18.8008 24.467 18.2594 24.2214C18.0584 24.1298 17.8679 24.0269 17.6884 23.9117L23.8493 17.7592C23.9288 17.9129 24.0005 18.0731 24.0647 18.2397C24.2799 18.7988 24.3875 19.3919 24.3875 20.0186C24.3875 20.6453 24.2799 21.2382 24.0647 21.7976C23.8493 22.3566 23.551 22.8418 23.1694 23.2534C22.7879 23.6651 22.3296 23.9908 21.7942 24.2306ZM22.7264 26.1383C23.551 25.7819 24.2647 25.2997 24.8677 24.6911C25.4705 24.0831 25.938 23.3733 26.2702 22.5623C26.6027 21.7513 26.7688 20.8911 26.7688 19.9819C26.7688 19.0724 26.6027 18.2121 26.2702 17.4009C26.0733 16.9199 25.8307 16.4757 25.5428 16.0681L29.55 12.0664L27.9577 10.4762L23.9383 14.4901C23.5774 14.2444 23.1856 14.0321 22.7633 13.8527C21.9387 13.5026 21.0282 13.3272 20.0315 13.3272C19.0346 13.3272 18.1242 13.5056 17.2996 13.8619C16.4751 14.2183 15.7612 14.7005 15.1584 15.3089C14.5554 15.9172 14.0878 16.6269 13.7555 17.4379C13.4233 18.2489 13.2571 19.1092 13.2571 20.0187C13.2571 20.9279 13.4233 21.7879 13.7555 22.5991C13.9528 23.0803 14.1953 23.5245 14.4832 23.9324L10.4762 27.9337L12.0685 29.5238L16.0878 25.5101C16.4486 25.7558 16.8404 25.9683 17.2628 26.1475C18.0873 26.4976 18.9978 26.6728 19.9945 26.6728C20.9913 26.6728 21.9019 26.4944 22.7264 26.1383Z" fill="white"/>
</svg>
