<svg width="100%" height="100%" viewBox="0 0 40 40" fill="none" xmlns="http://www.w3.org/2000/svg">
<rect width="40" height="40" rx="20" fill="black"/>
<g>
<path fill-rule="evenodd" clip-rule="evenodd" d="M13.1178 13.1071C13.2073 13.0178 13.261 12.9286 13.261 12.8036C13.261 12.6786 13.2073 12.5893 13.1178 12.5C12.9388 12.3393 12.6524 12.3393 12.4555 12.5C12.366 12.5893 12.3123 12.6786 12.3123 12.8036C12.3123 12.9286 12.366 13.0178 12.4555 13.1071C12.545 13.1786 12.6703 13.2321 12.7777 13.2321C12.903 13.25 13.0283 13.2143 13.1178 13.1071Z" fill="white"/>
<path fill-rule="evenodd" clip-rule="evenodd" d="M14.2634 14.3393C14.335 14.25 14.3887 14.1607 14.3887 14.0357C14.3887 13.9107 14.335 13.8214 14.2634 13.7321C14.1023 13.5714 13.8159 13.5714 13.6548 13.7321C13.5832 13.8214 13.5295 13.9107 13.5295 14.0357C13.5295 14.1607 13.5832 14.25 13.6548 14.3393C13.7443 14.4107 13.8338 14.4643 13.9591 14.4643C14.0844 14.4643 14.1739 14.4107 14.2634 14.3393Z" fill="white"/>
<path fill-rule="evenodd" clip-rule="evenodd" d="M15.5163 15.5179C15.5879 15.4464 15.6416 15.3393 15.6416 15.2143C15.6416 15.0893 15.5879 15 15.5163 14.9107C15.3552 14.75 15.0688 14.75 14.9077 14.9107C14.8361 14.9821 14.7824 15.0893 14.7824 15.2143C14.7824 15.3393 14.8361 15.4286 14.9077 15.5179C14.9972 15.6071 15.0867 15.6429 15.212 15.6429C15.3373 15.6429 15.4447 15.5893 15.5163 15.5179Z" fill="white"/>
<path fill-rule="evenodd" clip-rule="evenodd" d="M16.7155 16.7143C16.805 16.6429 16.8587 16.5357 16.8587 16.4107C16.8587 16.2857 16.805 16.1964 16.7155 16.1071C16.5365 15.9464 16.2501 15.9464 16.0532 16.1071C15.9637 16.1786 15.9101 16.2857 15.9101 16.4107C15.9101 16.5357 15.9637 16.6429 16.0532 16.7143C16.1427 16.8036 16.268 16.8393 16.3754 16.8393C16.5007 16.8393 16.6081 16.8214 16.7155 16.7143Z" fill="white"/>
<path fill-rule="evenodd" clip-rule="evenodd" d="M17.8611 17.9107C17.9506 17.8393 17.9864 17.7321 17.9864 17.6071C17.9864 17.4821 17.9327 17.3929 17.8611 17.3036C17.7 17.1429 17.4136 17.1429 17.2525 17.3036C17.163 17.375 17.1272 17.4821 17.1272 17.6071C17.1272 17.7321 17.1809 17.8393 17.2525 17.9107C17.3241 18 17.4315 18.0357 17.5568 18.0357C17.6642 18.0536 17.7895 18.0179 17.8611 17.9107Z" fill="white"/>
<path fill-rule="evenodd" clip-rule="evenodd" d="M19.2393 18.8036C19.2393 18.6786 19.1856 18.5893 19.114 18.5C18.9529 18.3393 18.6665 18.3393 18.5055 18.5C18.416 18.5893 18.3802 18.6786 18.3802 18.8036C18.3802 18.9286 18.4339 19.0178 18.5055 19.1071C18.5771 19.1786 18.6844 19.2321 18.8097 19.2321C18.935 19.2321 19.0245 19.1786 19.114 19.1071C19.2035 19.0357 19.2393 18.9286 19.2393 18.8036Z" fill="white"/>
<path fill-rule="evenodd" clip-rule="evenodd" d="M21.4767 21.4464C21.5483 21.375 21.602 21.2679 21.602 21.1429C21.602 21.0179 21.5483 20.9286 21.4767 20.8393C21.3156 20.6786 21.0292 20.6786 20.8681 20.8393C20.7786 20.9286 20.7428 21.0179 20.7428 21.1429C20.7428 21.2679 20.7965 21.3571 20.8681 21.4464C20.9397 21.5357 21.0471 21.5714 21.1724 21.5714C21.2798 21.5893 21.3872 21.5536 21.4767 21.4464Z" fill="white"/>
<path fill-rule="evenodd" clip-rule="evenodd" d="M22.7117 22.6429C22.8012 22.5714 22.8549 22.4643 22.8549 22.3393C22.8549 22.2143 22.8012 22.125 22.7117 22.0357C22.5327 21.875 22.2463 21.875 22.0495 22.0357C21.96 22.125 21.9063 22.2143 21.9063 22.3393C21.9063 22.4643 21.96 22.5536 22.0495 22.6429C22.139 22.7321 22.2642 22.7679 22.3716 22.7679C22.5148 22.7857 22.6222 22.7321 22.7117 22.6429Z" fill="white"/>
<path fill-rule="evenodd" clip-rule="evenodd" d="M23.8752 23.8571C23.9468 23.7857 24.0005 23.6786 24.0005 23.5536C24.0005 23.4286 23.9468 23.3214 23.8752 23.25C23.7141 23.0893 23.4277 23.0893 23.2666 23.25C23.195 23.3214 23.1413 23.4286 23.1413 23.5536C23.1413 23.6786 23.195 23.7678 23.2666 23.8571C23.3561 23.9464 23.4456 23.9821 23.5709 23.9821C23.6962 23.9821 23.7678 23.9286 23.8752 23.8571Z" fill="white"/>
<path fill-rule="evenodd" clip-rule="evenodd" d="M25.0744 25.0536C25.1639 24.9821 25.1997 24.875 25.1997 24.75C25.1997 24.625 25.146 24.5357 25.0744 24.4464C24.9133 24.2857 24.6269 24.2857 24.4658 24.4464C24.3942 24.5357 24.3406 24.625 24.3406 24.75C24.3406 24.875 24.3942 24.9821 24.4658 25.0536C24.5553 25.1429 24.6448 25.1786 24.7701 25.1786C24.8775 25.1786 25.0028 25.1429 25.0744 25.0536Z" fill="white"/>
<path fill-rule="evenodd" clip-rule="evenodd" d="M26.3094 26.25C26.3989 26.1786 26.4526 26.0714 26.4526 25.9464C26.4526 25.8214 26.3989 25.7321 26.3094 25.6429C26.1305 25.4821 25.8441 25.4821 25.683 25.6429C25.5935 25.7321 25.5398 25.8214 25.5398 25.9464C25.5398 26.0714 25.5935 26.1786 25.683 26.25C25.7725 26.3214 25.8978 26.375 26.0052 26.375C26.1305 26.375 26.2378 26.3393 26.3094 26.25Z" fill="white"/>
<path fill-rule="evenodd" clip-rule="evenodd" d="M27.4908 27.4464C27.5803 27.3571 27.6161 27.2679 27.6161 27.1429C27.6161 27.0179 27.5624 26.9286 27.4908 26.8393C27.3297 26.6786 27.0433 26.6786 26.8822 26.8393C26.7927 26.9286 26.7569 27.0179 26.7569 27.1429C26.7569 27.2679 26.8106 27.3571 26.8822 27.4464C26.9538 27.5179 27.0612 27.5714 27.1865 27.5714C27.276 27.5893 27.3834 27.5357 27.4908 27.4464Z" fill="white"/>
<path fill-rule="evenodd" clip-rule="evenodd" d="M26.8822 13.1071C26.8106 13.0178 26.7569 12.9286 26.7569 12.8036C26.7569 12.6786 26.8106 12.5893 26.8822 12.5C27.0433 12.3393 27.3297 12.3393 27.4908 12.5C27.5803 12.5893 27.6161 12.6786 27.6161 12.8036C27.6161 12.9286 27.5624 13.0178 27.4908 13.1071C27.4192 13.1786 27.3118 13.2321 27.1865 13.2321C27.0612 13.25 26.9538 13.2143 26.8822 13.1071Z" fill="white"/>
<path fill-rule="evenodd" clip-rule="evenodd" d="M25.683 14.3393C25.5935 14.25 25.5398 14.1607 25.5398 14.0357C25.5398 13.9107 25.5935 13.8214 25.683 13.7321C25.862 13.5714 26.1484 13.5714 26.3453 13.7321C26.4348 13.8214 26.4885 13.9107 26.4885 14.0357C26.4885 14.1607 26.4348 14.25 26.3453 14.3393C26.2558 14.4107 26.1305 14.4643 26.0231 14.4643C25.8978 14.4464 25.7725 14.4107 25.683 14.3393Z" fill="white"/>
<path fill-rule="evenodd" clip-rule="evenodd" d="M24.4658 15.5179C24.3942 15.4464 24.3406 15.3393 24.3406 15.2143C24.3406 15.0893 24.3942 15 24.4658 14.9107C24.6269 14.75 24.9133 14.75 25.0744 14.9107C25.146 14.9821 25.1997 15.0893 25.1997 15.2143C25.1997 15.3393 25.146 15.4286 25.0744 15.5179C24.9849 15.6071 24.8954 15.6429 24.7701 15.6429C24.6627 15.6429 24.5553 15.5893 24.4658 15.5179Z" fill="white"/>
<path fill-rule="evenodd" clip-rule="evenodd" d="M23.2666 16.7143C23.195 16.6429 23.1413 16.5357 23.1413 16.4107C23.1413 16.2857 23.195 16.1964 23.2666 16.1071C23.4277 15.9464 23.7141 15.9464 23.8752 16.1071C23.9468 16.1786 24.0005 16.2857 24.0005 16.4107C24.0005 16.5357 23.9468 16.6429 23.8752 16.7143C23.7857 16.8036 23.6962 16.8393 23.5709 16.8393C23.4635 16.8393 23.3561 16.8214 23.2666 16.7143Z" fill="white"/>
<path fill-rule="evenodd" clip-rule="evenodd" d="M22.0853 17.9107C21.9958 17.8393 21.9421 17.7321 21.9421 17.6071C21.9421 17.4821 21.9958 17.3929 22.0853 17.3036C22.2463 17.1429 22.5506 17.1429 22.7117 17.3036C22.8012 17.375 22.8549 17.4821 22.8549 17.6071C22.8549 17.7321 22.8012 17.8393 22.7117 17.9107C22.6222 18 22.4969 18.0357 22.3895 18.0357C22.2821 18.0536 22.1569 18.0179 22.0853 17.9107Z" fill="white"/>
<path fill-rule="evenodd" clip-rule="evenodd" d="M20.7428 18.8036C20.7428 18.6786 20.7965 18.5893 20.8681 18.5C21.0292 18.3393 21.3156 18.3393 21.4767 18.5C21.5662 18.5893 21.602 18.6786 21.602 18.8036C21.602 18.9286 21.5483 19.0178 21.4767 19.1071C21.4051 19.1786 21.2977 19.2321 21.1724 19.2321C21.0471 19.2321 20.9576 19.1786 20.8681 19.1071C20.7786 19.0357 20.7428 18.9286 20.7428 18.8036Z" fill="white"/>
<path fill-rule="evenodd" clip-rule="evenodd" d="M19.6689 20.3214C19.5794 20.2321 19.5436 20.1429 19.5436 20.0179C19.5436 19.8929 19.5973 19.8036 19.6689 19.7143C19.83 19.5536 20.1164 19.5536 20.2775 19.7143C20.367 19.8036 20.4028 19.8929 20.4028 20.0179C20.4028 20.1429 20.3491 20.2321 20.2775 20.3214C20.2059 20.3929 20.0985 20.4464 19.9732 20.4464C19.8479 20.4464 19.7405 20.3929 19.6689 20.3214Z" fill="white"/>
<path fill-rule="evenodd" clip-rule="evenodd" d="M18.4697 21.4464C18.3802 21.375 18.3265 21.2679 18.3265 21.1429C18.3265 21.0179 18.3802 20.9286 18.4697 20.8393C18.6486 20.6786 18.935 20.6786 19.0961 20.8393C19.1856 20.9286 19.2393 21.0179 19.2393 21.1429C19.2393 21.2679 19.1856 21.3571 19.0961 21.4464C19.0066 21.5357 18.8813 21.5714 18.7739 21.5714C18.6844 21.5893 18.5592 21.5536 18.4697 21.4464Z" fill="white"/>
<path fill-rule="evenodd" clip-rule="evenodd" d="M17.2525 22.6429C17.1809 22.5714 17.1272 22.4643 17.1272 22.3393C17.1272 22.2143 17.1809 22.125 17.2525 22.0357C17.4136 21.875 17.7 21.875 17.8611 22.0357C17.9327 22.125 17.9864 22.2143 17.9864 22.3393C17.9864 22.4643 17.9327 22.5536 17.8611 22.6429C17.7716 22.7321 17.6821 22.7679 17.5568 22.7679C17.4673 22.7857 17.342 22.7321 17.2525 22.6429Z" fill="white"/>
<path fill-rule="evenodd" clip-rule="evenodd" d="M16.0532 23.8571C15.9816 23.7857 15.928 23.6786 15.928 23.5536C15.928 23.4286 15.9816 23.3214 16.0532 23.25C16.2143 23.0893 16.5007 23.0893 16.6618 23.25C16.7334 23.3214 16.7871 23.4286 16.7871 23.5536C16.7871 23.6786 16.7334 23.7678 16.6618 23.8571C16.5723 23.9464 16.4828 23.9821 16.3575 23.9821C16.2322 23.9821 16.1427 23.9286 16.0532 23.8571Z" fill="white"/>
<path fill-rule="evenodd" clip-rule="evenodd" d="M14.9256 25.0536C14.8361 24.9821 14.8003 24.875 14.8003 24.75C14.8003 24.625 14.854 24.5357 14.9256 24.4464C15.0867 24.2857 15.3731 24.2857 15.5342 24.4464C15.6058 24.5357 15.6595 24.625 15.6595 24.75C15.6595 24.875 15.6058 24.9821 15.5342 25.0536C15.4447 25.1429 15.3552 25.1786 15.2299 25.1786C15.1225 25.1786 14.9972 25.1429 14.9256 25.0536Z" fill="white"/>
<path fill-rule="evenodd" clip-rule="evenodd" d="M13.6548 26.25C13.5653 26.1786 13.5295 26.0714 13.5295 25.9464C13.5295 25.8214 13.5832 25.7321 13.6548 25.6429C13.8159 25.4821 14.1023 25.4821 14.2634 25.6429C14.3529 25.7321 14.3887 25.8214 14.3887 25.9464C14.3887 26.0714 14.335 26.1786 14.2634 26.25C14.1918 26.3214 14.0844 26.375 13.9591 26.375C13.8338 26.375 13.7264 26.3393 13.6548 26.25Z" fill="white"/>
<path fill-rule="evenodd" clip-rule="evenodd" d="M12.4556 27.4464C12.3661 27.3571 12.3124 27.2679 12.3124 27.1429C12.3124 27.0179 12.3661 26.9286 12.4556 26.8393C12.6346 26.6786 12.9209 26.6786 13.082 26.8393C13.1715 26.9286 13.2252 27.0179 13.2252 27.1429C13.2252 27.2679 13.1715 27.3571 13.082 27.4464C12.9925 27.5179 12.8672 27.5714 12.7598 27.5714C12.6703 27.5893 12.563 27.5357 12.4556 27.4464Z" fill="white"/>
<path fill-rule="evenodd" clip-rule="evenodd" d="M24.0363 13.4464C22.8191 12.6429 21.4767 12.2679 19.9911 12.25C18.5412 12.25 17.1988 12.6429 15.9459 13.4464L13.3684 10.875C15.391 9.33928 17.5747 8.57143 19.9911 8.57143C22.4074 8.57143 24.6269 9.33928 26.5958 10.875L24.0363 13.4464Z" fill="white"/>
<path fill-rule="evenodd" clip-rule="evenodd" d="M26.6137 24C27.4371 22.75 27.8309 21.4286 27.8309 20C27.8309 18.5536 27.4371 17.2143 26.6137 16L29.1733 13.4464C30.6768 15.4107 31.4286 17.5893 31.4286 20.0179C31.4286 22.4107 30.6768 24.6071 29.1554 26.6071L26.6137 24Z" fill="white"/>
<path fill-rule="evenodd" clip-rule="evenodd" d="M15.9637 26.5536C17.1809 27.375 18.5233 27.8036 19.9731 27.8214C21.4588 27.8214 22.8191 27.4286 24.0362 26.5714L26.6137 29.125C24.6269 30.6786 22.4074 31.4464 19.9731 31.4286C17.5568 31.4107 15.3731 30.625 13.4042 29.125L15.9637 26.5536Z" fill="white"/>
<path fill-rule="evenodd" clip-rule="evenodd" d="M13.44 15.9643C12.6166 17.2143 12.1871 18.5714 12.2229 20.0357C12.2408 21.4643 12.6524 22.7679 13.44 23.9643L10.8625 26.5179C9.34111 24.5536 8.55355 22.375 8.55355 19.9821C8.53565 17.5536 9.30531 15.3393 10.8625 13.3571L13.44 15.9643Z" fill="white"/>
<path fill-rule="evenodd" clip-rule="evenodd" d="M10.7551 27.3571C9.77067 27.3571 8.94731 28.1607 8.94731 29.1607C8.94731 30.1429 9.75277 30.9643 10.7551 30.9643C11.7396 30.9643 12.5629 30.1607 12.5629 29.1607C12.5629 28.1607 11.7575 27.3571 10.7551 27.3571Z" fill="white"/>
<path fill-rule="evenodd" clip-rule="evenodd" d="M29.1912 27.3571C28.2068 27.3571 27.4013 28.1607 27.4013 29.1607C27.4013 30.1429 28.2068 30.9643 29.1912 30.9643C30.1757 30.9643 30.9811 30.1607 30.9811 29.1607C30.9811 28.1607 30.1757 27.3571 29.1912 27.3571Z" fill="white"/>
<path fill-rule="evenodd" clip-rule="evenodd" d="M10.7193 8.96428C9.73486 8.96428 8.9294 9.76785 8.9294 10.7679C8.9294 11.7679 9.73486 12.5714 10.7193 12.5714C11.7038 12.5714 12.5092 11.7679 12.5092 10.7679C12.5092 9.76785 11.7038 8.96428 10.7193 8.96428Z" fill="white"/>
<path fill-rule="evenodd" clip-rule="evenodd" d="M29.227 8.96428C28.2425 8.96428 27.4192 9.76785 27.4192 10.75C27.4192 11.7321 28.2246 12.5357 29.227 12.5357C30.2114 12.5357 31.0348 11.7321 31.0348 10.75C31.0348 9.76785 30.2293 8.96428 29.227 8.96428Z" fill="white"/>
</g>
</svg>
