<svg width="100%" height="100%" viewBox="0 0 40 40" fill="none" xmlns="http://www.w3.org/2000/svg">
<circle cx="20" cy="20" r="20" fill="black"/>
<path fill-rule="evenodd" clip-rule="evenodd" d="M20.0094 6.4C20.2114 6.39995 20.3998 6.50154 20.5108 6.6703L28.5013 18.8193C28.5932 18.959 28.6226 19.1308 28.5824 19.2932C28.5422 19.4555 28.436 19.5938 28.2895 19.6745L20.2991 24.0772C20.1197 24.176 19.9024 24.1766 19.7226 24.0787L11.713 19.7173C11.5657 19.6371 11.4587 19.4988 11.4179 19.3361C11.3772 19.1734 11.4064 19.0011 11.4985 18.8609L19.5081 6.67053C19.619 6.50172 19.8074 6.40005 20.0094 6.4ZM20.0098 8.09228L12.8593 18.9751L20.0078 22.8676L27.1421 18.9366L20.0098 8.09228Z" fill="white"/>
<path fill-rule="evenodd" clip-rule="evenodd" d="M20.0095 27.1035C20.3409 27.1035 20.6095 27.3721 20.6095 27.7035V33C20.6095 33.3314 20.3409 33.6 20.0095 33.6C19.6782 33.6 19.4095 33.3314 19.4095 33V27.7035C19.4095 27.3721 19.6782 27.1035 20.0095 27.1035Z" fill="white"/>
<path fill-rule="evenodd" clip-rule="evenodd" d="M28.4618 22.9175C28.6456 23.1391 28.6462 23.46 28.4631 23.6822L20.4727 33.3815C20.3589 33.5196 20.1895 33.5997 20.0106 33.6C19.8316 33.6003 19.6619 33.5207 19.5477 33.383L11.5382 23.7251C11.3545 23.5036 11.3539 23.183 11.5367 22.9608C11.7195 22.7387 12.0343 22.6775 12.287 22.8151L20.0079 27.0193L27.7105 22.7752C27.9626 22.6363 28.2779 22.696 28.4618 22.9175ZM25.543 25.3396L20.2991 28.229C20.1198 28.3278 19.9025 28.3283 19.7226 28.2304L14.4545 25.3618L20.008 32.0582L25.543 25.3396Z" fill="white"/>
<path fill-rule="evenodd" clip-rule="evenodd" d="M19.7838 15.382C19.9278 15.3235 20.089 15.3232 20.2332 15.3812L28.2237 18.5922C28.4387 18.6787 28.5848 18.8812 28.5989 19.1125C28.6129 19.3439 28.4925 19.5626 28.2895 19.6745L20.2991 24.0772C20.1197 24.176 19.9024 24.1766 19.7226 24.0787L11.713 19.7173C11.5094 19.6064 11.3878 19.388 11.4009 19.1565C11.414 18.925 11.5594 18.7217 11.7742 18.6344L19.7838 15.382ZM20.0107 16.585L13.3999 19.2695L20.0078 22.8676L26.6024 19.234L20.0107 16.585Z" fill="white"/>
<path fill-rule="evenodd" clip-rule="evenodd" d="M20.0095 6.4C20.3409 6.4 20.6095 6.66863 20.6095 7V23.5517C20.6095 23.8831 20.3409 24.1517 20.0095 24.1517C19.6782 24.1517 19.4095 23.8831 19.4095 23.5517V7C19.4095 6.66863 19.6782 6.4 20.0095 6.4Z" fill="white"/>
<path fill-rule="evenodd" clip-rule="evenodd" d="M20.0094 6.4C20.2114 6.39995 20.3998 6.50154 20.5108 6.6703L28.5013 18.8193C28.5932 18.959 28.6226 19.1308 28.5824 19.2932C28.5422 19.4555 28.436 19.5938 28.2895 19.6745L20.2991 24.0772C20.1197 24.176 19.9024 24.1766 19.7226 24.0787L11.713 19.7173C11.5657 19.6371 11.4587 19.4988 11.4179 19.3361C11.3772 19.1734 11.4064 19.0011 11.4985 18.8609L19.5081 6.67053C19.619 6.50172 19.8074 6.40005 20.0094 6.4ZM20.0098 8.09228L12.8593 18.9751L20.0078 22.8676L27.1421 18.9366L20.0098 8.09228Z" fill="white"/>
</svg>
