<svg width="100%" height="100%" viewBox="0 0 40 40" fill="none" xmlns="http://www.w3.org/2000/svg">
<circle cx="20" cy="20" r="20" fill="black"/>
<path fill-rule="evenodd" clip-rule="evenodd" d="M21.3333 16.6111L25.3333 14.2778V18.9444L21.3333 16.6111ZM25.3333 26.6111L20 29.7223L14.6667 26.6111V21.1667L20 24.2778L25.3333 21.1667V26.6111ZM14.6667 14.2778L18.6667 16.6111L14.6667 18.9444V14.2778ZM20.6667 17.7222L24.6667 20.0556L20.6667 22.3889V17.7222ZM19.3333 22.3889L15.3333 20.0556L19.3333 17.7222V22.3889ZM24.6667 13.1666L20 15.8333L15.3333 13.1666L20 10.3889L24.6667 13.1666ZM13.3333 12.7222V27.2778L20 31.0556L26.6667 27.2778V12.7222L20 8.94441L13.3333 12.7222Z" fill="white" stroke="white" stroke-width="0.1"/>
</svg>
