<svg width="100%" height="100%" viewBox="0 0 40 40" fill="none" xmlns="http://www.w3.org/2000/svg">
<circle cx="20" cy="20" r="20" fill="black"/>
<path fill-rule="evenodd" clip-rule="evenodd" d="M21.6652 15.7677L26.6606 12.8537V18.6817L21.6652 15.7677ZM26.6606 28.2564L20 32.1418L13.3394 28.2564V21.457L20 25.3424L26.6606 21.457V28.2564ZM13.3394 12.8537L18.3348 15.7677L13.3394 18.6817V12.8537ZM20.8326 17.1554L25.8281 20.0694L20.8326 22.9834V17.1554ZM19.1674 22.9834L14.1719 20.0694L19.1674 17.1554V22.9834ZM25.8281 11.4661L20 14.7964L14.1719 11.4661L20 7.99697L25.8281 11.4661ZM11.6742 10.911V29.089L20 33.807L28.3258 29.089V10.911L20 6.19305L11.6742 10.911Z" fill="white"/>
<path fill-rule="evenodd" clip-rule="evenodd" d="M20 6.03656L28.4619 10.8317V29.1683L20 33.9634L11.5381 29.1683V10.8317L20 6.03656ZM11.8103 10.9903V29.0097L20 33.6505L28.1897 29.0097V10.9903L20 6.34953L11.8103 10.9903ZM20 7.83853L26.0983 11.4685L20 14.9532L13.9017 11.4685L20 7.83853ZM14.4421 11.4637L20 14.6396L25.5579 11.4637L20 8.15541L14.4421 11.4637ZM13.2032 12.6167L18.605 15.7677L13.2032 18.9188V12.6167ZM26.7968 12.6167V18.9188L21.395 15.7677L26.7968 12.6167ZM13.4755 13.0907V18.4447L18.0646 15.7677L13.4755 13.0907ZM21.9354 15.7677L26.5245 18.4447V13.0907L21.9354 15.7677ZM19.3036 16.9183V23.2204L13.9017 20.0694L19.3036 16.9183ZM20.6964 16.9183L26.0983 20.0694L20.6964 23.2204V16.9183ZM14.4421 20.0694L19.0313 22.7464V17.3924L14.4421 20.0694ZM20.9687 17.3924V22.7464L25.5579 20.0694L20.9687 17.3924ZM13.2032 21.22L20 25.1848L26.7968 21.22V28.3346L20 32.2994L13.2032 28.3346V21.22ZM13.4755 21.694V28.1782L20 31.9842L26.5245 28.1782V21.694L20 25.5L13.4755 21.694Z" fill="white"/>
</svg>
