<svg width="100%" height="100%" viewBox="0 0 40 40" fill="none" xmlns="http://www.w3.org/2000/svg">
<circle cx="20" cy="20" r="20" fill="black"/>
<path d="M27.9969 16.927H23.0731V21.8508H27.9969V16.927Z" fill="white"/>
<path d="M18.1492 23.7016C18.1492 24.7143 17.3111 25.5524 16.2984 25.5524C15.2857 25.5524 14.4476 24.7143 14.4476 23.7016C14.4476 22.6889 15.2857 21.8508 16.2984 21.8508H18.1492V16.927H16.2984C12.5619 16.927 9.5238 19.9651 9.5238 23.7016C9.5238 27.4381 12.5619 30.4762 16.2984 30.4762C20.0349 30.4762 23.073 27.4381 23.073 23.7016V21.8508H18.1492V23.7016Z" fill="white"/>
<path d="M23.073 16.927H18.1492V21.8508H23.073V16.927Z" fill="black"/>
<path d="M24.9238 14.4476H30.4762V9.5238H24.9238C21.1873 9.5238 18.1492 12.5619 18.1492 16.2984V16.927H23.073V16.2984C23.073 15.2857 23.9111 14.4476 24.9238 14.4476Z" fill="white"/>
</svg>
