<svg width="100%" height="100%" viewBox="0 0 40 40" fill="none" xmlns="http://www.w3.org/2000/svg">
<circle cx="20" cy="20" r="20" fill="black"/>
<path d="M14.6143 21.8138C15.3653 21.8138 16.0981 21.5634 16.6904 21.1055L11.9275 16.3426C10.7795 17.8264 11.0543 19.9636 12.5381 21.1116C13.1365 21.5634 13.8632 21.8138 14.6143 21.8138Z" fill="white"/>
<path d="M28.7809 18.4126C28.7809 17.6615 28.5305 16.9288 28.0725 16.3365L23.3096 21.0994C24.7935 22.2473 26.9246 21.9726 28.0725 20.4887C28.5305 19.8964 28.7809 19.1637 28.7809 18.4126Z" fill="white"/>
<path d="M31.1807 13.2284L29.074 15.335C30.7715 17.3684 30.5029 20.3971 28.4695 22.0947C26.6864 23.5846 24.0974 23.5846 22.3143 22.0947L20 24.409L17.6918 22.1008C15.6585 23.7983 12.6297 23.5297 10.9322 21.4963C9.44224 19.7132 9.44224 17.1242 10.9322 15.3411L9.85137 14.2603L8.82551 13.2284C7.58593 15.2679 6.93256 17.6127 6.93256 20.0002C6.93256 27.2179 12.7824 33.0677 20 33.0677C27.2177 33.0677 33.0675 27.2179 33.0675 20.0002C33.0736 17.6127 32.4141 15.2679 31.1807 13.2284Z" fill="white"/>
<path d="M29.4526 10.9812C24.4759 5.76036 16.208 5.56495 10.9871 10.5416C10.8345 10.6881 10.6879 10.8347 10.5475 10.9812C10.2238 11.3232 9.91853 11.6774 9.63153 12.0498L20 22.4244L30.3685 12.0498C30.0876 11.6774 29.7762 11.3232 29.4526 10.9812ZM20 8.64253C23.0532 8.64253 25.8987 9.82104 28.0359 11.9705L20 20.0063L11.9641 11.9705C14.1013 9.82104 16.9469 8.64253 20 8.64253Z" fill="white"/>
</svg>
