<svg width="100%" height="100%" viewBox="0 0 40 40" fill="none" xmlns="http://www.w3.org/2000/svg">
<circle cx="20" cy="20" r="20" fill="black"/>
<g clip-path="url(#clip0_641_35)">
<path d="M35.3935 10.5315C35.1707 10.1201 34.6748 9.98456 34.2947 10.2313L13.8933 23.4872C13.3733 22.4482 13.0787 21.261 13.0787 20.0002C13.0787 15.9068 16.1842 12.5883 20.0149 12.5883C21.66 12.5883 23.17 13.2018 24.359 14.2239L20.0189 17.4073L31.2984 10.4489C31.5413 10.2993 31.6246 9.96674 31.4838 9.70782C31.3356 9.43389 31.0011 9.35275 30.7564 9.53192L27.9947 11.5578C25.9594 9.36072 23.1367 8 20.0149 8C13.8126 8 8.78451 13.3725 8.78451 20.0002C8.78451 22.134 9.30626 24.1373 10.22 25.8737L4.5 29.59L10.373 26.1547C12.3342 29.6557 15.9181 32 20.0153 32C26.2176 32 31.2457 26.6275 31.2457 19.9998V18.5668C31.2457 17.4444 31.6719 16.0081 33.1828 15.1432C33.3121 15.0691 33.3591 14.8955 33.2858 14.759C33.2139 14.6263 33.0552 14.5803 32.9311 14.6573L19.5388 22.9196C21.0339 22.2404 22.1765 21.8277 23.6913 21.5026C26.8468 20.8253 26.927 22.4327 25.7086 24.2461C24.8926 25.46 23.0494 27.4099 20.0171 27.4099C17.5443 27.4099 15.3748 26.0276 14.1463 23.9468L35.0874 11.698C35.4781 11.47 35.6158 10.9428 35.3935 10.531V10.5315Z" fill="white"/>
</g>
<defs>
<clipPath id="clip0_641_35">
<rect width="31" height="24" fill="white" transform="translate(4.5 8)"/>
</clipPath>
</defs>
</svg>
