<svg width="100%" height="100%" viewBox="0 0 40 40" fill="none" xmlns="http://www.w3.org/2000/svg">
<circle cx="20" cy="20" r="20" fill="black"/>
<g clip-path="url(#clip0_5_88)">
<path d="M26.3012 8.99999C25.0412 8.99901 23.8323 9.49801 22.9399 10.3875C22.0474 11.2769 21.5444 12.4841 21.5411 13.7441V19.0042C21.0509 19.0373 20.5497 19.0581 20.03 19.0581C19.5104 19.0581 19.0116 19.079 18.5189 19.1084V13.7441C18.4989 12.4951 17.9886 11.3039 17.0982 10.4277C16.2078 9.55151 15.0087 9.06043 13.7595 9.06043C12.5102 9.06043 11.3111 9.55151 10.4207 10.4277C9.5303 11.3039 9.02004 12.4951 9 13.7441V26.3159C9.02004 27.565 9.5303 28.7561 10.4207 29.6323C11.3111 30.5085 12.5102 30.9996 13.7595 30.9996C15.0087 30.9996 16.2078 30.5085 17.0982 29.6323C17.9886 28.7561 18.4989 27.565 18.5189 26.3159V21.0558C19.0091 21.0227 19.5104 21.0019 20.03 21.0019C20.5497 21.0019 21.0485 20.981 21.5411 20.9516V26.3159C21.5612 27.565 22.0714 28.7561 22.9618 29.6323C23.8522 30.5085 25.0514 30.9996 26.3006 30.9996C27.5498 30.9996 28.749 30.5085 29.6394 29.6323C30.5298 28.7561 31.04 27.565 31.0601 26.3159V13.7441C31.0568 12.4843 30.5539 11.2773 29.6617 10.3879C28.7696 9.49848 27.561 8.99933 26.3012 8.99999V8.99999ZM13.7588 10.9437C14.5024 10.9434 15.2158 11.2381 15.7424 11.7631C16.269 12.2881 16.5659 13.0005 16.5678 13.7441V19.3143C15.1753 19.5161 13.8155 19.9005 12.5235 20.4577C11.9637 20.7034 11.4367 21.018 10.9548 21.3941V13.7441C10.9567 13.0014 11.2529 12.2897 11.7784 11.7648C12.304 11.2399 13.0161 10.9447 13.7588 10.9437V10.9437ZM16.5678 26.3159C16.5678 27.0609 16.2719 27.7754 15.7451 28.3022C15.2183 28.8289 14.5038 29.1249 13.7588 29.1249C13.0139 29.1249 12.2994 28.8289 11.7726 28.3022C11.2458 27.7754 10.9499 27.0609 10.9499 26.3159V25.0548C10.9499 23.9408 11.8323 22.8856 13.3115 22.2287C14.3538 21.779 15.4475 21.4592 16.5678 21.2764V26.3159V26.3159ZM26.3012 29.1163C25.5576 29.1166 24.8442 28.822 24.3176 28.297C23.791 27.772 23.4942 27.0595 23.4922 26.3159V20.7457C24.8847 20.544 26.2446 20.1595 27.5366 19.6023C28.0964 19.3566 28.6233 19.0421 29.1053 18.666V26.3159C29.1033 27.0587 28.8072 27.7704 28.2816 28.2952C27.7561 28.8201 27.044 29.1153 26.3012 29.1163V29.1163ZM26.7485 17.824C25.7062 18.2737 24.6126 18.5935 23.4922 18.7763V13.7441C23.4922 12.9991 23.7882 12.2847 24.315 11.7579C24.8417 11.2311 25.5562 10.9351 26.3012 10.9351C27.0462 10.9351 27.7607 11.2311 28.2875 11.7579C28.8142 12.2847 29.1102 12.9991 29.1102 13.7441V15.0052C29.1102 16.1144 28.2278 17.1696 26.7485 17.824Z" fill="white"/>
</g>
<defs>
<clipPath id="clip0_5_88">
<rect width="22.0601" height="22" fill="white" transform="translate(9 9)"/>
</clipPath>
</defs>
</svg>
