<svg width="100%" height="100%" viewBox="0 0 40 40" fill="none" xmlns="http://www.w3.org/2000/svg">
<circle cx="20" cy="20" r="20" fill="black"/>
<path d="M25.064 10.8413C26.1717 9.73357 27.9916 9.73357 29.0994 10.8413C30.2071 11.9491 30.2071 13.7689 29.0994 14.8767C28.4466 15.5295 27.5762 15.8064 26.686 15.6877C26.6465 15.6877 26.6069 15.6877 26.5476 15.6877C26.2904 15.6481 26.0135 15.6877 25.7366 15.8064C25.3607 15.9844 25.1036 16.2811 24.9651 16.6372C24.8266 16.9933 24.8464 17.3889 25.0046 17.7449C25.9541 19.8022 25.519 22.2946 23.8969 23.8969C22.2748 25.5189 19.8022 25.9541 17.745 25.0046C17.3691 24.8266 16.9735 24.8266 16.6174 24.9651C16.2614 25.1035 15.9647 25.3607 15.8064 25.7168C15.7075 25.9541 15.6482 26.1915 15.6679 26.4487C15.6679 26.4882 15.6679 26.5476 15.6679 26.5871C15.8262 27.4971 15.5097 28.4268 14.8767 29.0796C13.7689 30.1873 11.9491 30.1873 10.8413 29.0796C10.3072 28.5455 10.0105 27.8333 10.0105 27.0619C10.0105 26.3102 10.3072 25.5783 10.8413 25.0442C11.4941 24.3914 12.3645 24.1145 13.2546 24.2332C13.2744 24.2332 13.2744 24.2332 13.2942 24.2332C13.3931 24.253 13.492 24.2727 13.5909 24.2727C13.8085 24.2727 14.0063 24.2332 14.2041 24.1343C14.58 23.9562 14.8371 23.6595 14.9558 23.3232C15.0943 22.9672 15.0943 22.5518 14.9163 22.1759C13.9668 20.0989 14.4019 17.6263 16.024 16.024C17.6461 14.4019 20.1187 13.9667 22.1759 14.9162C22.532 15.0943 22.9474 15.0943 23.3035 14.9558C23.6595 14.8173 23.9562 14.5602 24.1343 14.2041C24.2727 13.9272 24.2925 13.6107 24.253 13.314C24.1145 12.4238 24.4112 11.4941 25.064 10.8413ZM22.2353 22.2353C23.4617 21.0088 23.4617 19.0109 22.2353 17.7647C21.0089 16.5383 19.011 16.5383 17.7647 17.7647C16.5383 18.9912 16.5383 20.9891 17.7647 22.2353C19.011 23.4617 21.0089 23.4617 22.2353 22.2353ZM30.1478 15.9449C31.8292 14.2635 31.8292 11.5337 30.1478 9.83248C28.4664 8.15108 25.7366 8.15108 24.0354 9.83248C23.4024 10.4655 23.0265 11.2369 22.8485 12.0282C19.7824 10.8809 16.2812 11.6128 13.947 13.947C11.6128 16.2811 10.8809 19.8022 12.048 22.8683C11.237 23.0265 10.4655 23.4221 9.83249 24.0551C8.15109 25.7365 8.15109 28.4663 9.83249 30.1675C11.5139 31.8489 14.2437 31.8489 15.9449 30.1675C16.5779 29.5345 16.9735 28.7433 17.1317 27.9323C18.0812 28.2883 19.0703 28.4663 20.0594 28.4663C22.2551 28.4663 24.4112 27.6158 26.0135 26.0135C28.3477 23.6793 29.0796 20.1978 27.952 17.1515C28.7433 16.9537 29.5148 16.5581 30.1478 15.9449Z" fill="white"/>
</svg>
