<svg width="100%" height="100%" viewBox="0 0 40 40" fill="none" xmlns="http://www.w3.org/2000/svg">
<circle cx="20" cy="20" r="20" fill="black"/>
<path fill-rule="evenodd" clip-rule="evenodd" d="M26.969 8.80241H13.0311C11.9015 8.80241 10.8183 9.2499 10.0196 10.0464C9.22091 10.843 8.77222 11.9233 8.77222 13.0498V26.9502C8.77222 28.0767 9.22091 29.157 10.0196 29.9535C10.8183 30.7501 11.9015 31.1976 13.0311 31.1976H26.969C28.0986 31.1976 29.1819 30.7501 29.9805 29.9535C30.7792 29.157 31.2279 28.0767 31.2279 26.9502V13.0498C31.2279 11.9233 30.7792 10.843 29.9805 10.0464C29.1819 9.2499 28.0986 8.80241 26.969 8.80241ZM16.9348 27.2494C15.8946 27.2494 15.0989 26.9475 14.5479 26.3439C13.9968 25.7402 13.7213 24.8882 13.7213 23.7878V16.5479C13.7213 15.4449 13.9968 14.5922 14.5479 13.9899C15.0989 13.3875 15.8946 13.0857 16.9348 13.0844C17.9672 13.0844 18.7622 13.3862 19.3197 13.9899C19.8773 14.5935 20.1527 15.4462 20.1463 16.5479V23.7878C20.1463 24.8882 19.8708 25.7402 19.3197 26.3439C18.7687 26.9475 17.9737 27.2494 16.9348 27.2494ZM16.9348 25.282C17.6639 25.282 18.0291 24.8316 18.0304 23.9306V16.4089C18.0304 15.508 17.6652 15.0575 16.9348 15.0575C16.2043 15.0575 15.8384 15.508 15.8371 16.4089V23.9248C15.8371 24.8309 16.203 25.2833 16.9348 25.282ZM21.9446 16.5479H24.1574V27.0523H26.2829V13.2813H24.86C24.7324 13.6673 24.5356 14.0271 24.2793 14.3431C24.0368 14.5951 23.7272 14.7726 23.3868 14.8547C22.9157 14.9737 22.4304 15.027 21.9446 15.013V16.5479Z" fill="white"/>
</svg>
