<svg width="100%" height="100%" viewBox="0 0 40 40" fill="none" xmlns="http://www.w3.org/2000/svg">
<path d="M40 20.0034C40.0136 30.9466 31.1445 40 20.0034 40C8.86236 40 -0.00681851 30.9398 3.93338e-06 19.9898C0.00682638 9.03974 8.86236 0 20.0102 0C31.1581 0 40.0205 9.06703 40 20.0034Z" fill="black"/>
<path fill-rule="evenodd" clip-rule="evenodd" d="M20 30.7143C25.9173 30.7143 30.7143 25.9173 30.7143 20C30.7143 14.0827 25.9173 9.28571 20 9.28571C14.0827 9.28571 9.28573 14.0827 9.28573 20C9.28573 25.9173 14.0827 30.7143 20 30.7143ZM20 31.4286C26.3118 31.4286 31.4286 26.3118 31.4286 20C31.4286 13.6882 26.3118 8.57143 20 8.57143C13.6882 8.57143 8.57144 13.6882 8.57144 20C8.57144 26.3118 13.6882 31.4286 20 31.4286Z" fill="white"/>
<rect x="19.6058" y="14.5391" width="0.788177" height="10.8093" rx="0.394089" fill="white"/>
<rect x="23.6593" y="17.5791" width="0.788177" height="7.31879" rx="0.394089" transform="rotate(90 23.6593 17.5791)" fill="white"/>
<rect x="21.6326" y="23.2091" width="0.788177" height="3.26531" rx="0.394089" transform="rotate(90 21.6326 23.2091)" fill="white"/>
<rect x="22.3089" y="15.1071" width="0.788178" height="7.31879" rx="0.394089" transform="rotate(45 22.3089 15.1071)" fill="white"/>
<rect x="17.1339" y="15.6644" width="0.788178" height="7.31879" rx="0.394089" transform="rotate(-45 17.1339 15.6644)" fill="white"/>
</svg>
