<svg width="100%" height="100%" viewBox="0 0 40 40" fill="none" xmlns="http://www.w3.org/2000/svg">
<path d="M40 20.0034C40.0136 30.9466 31.1445 40 20.0034 40C8.86236 40 -0.00681851 30.9398 3.93338e-06 19.9898C0.00682638 9.03974 8.86236 0 20.0102 0C31.1581 0 40.0205 9.06703 40 20.0034Z" fill="black"/>
<g clip-path="url(#clip0_5_95)">
<path d="M15.7723 25.6762L10.7056 26.2487L13.6826 19.3858L10.634 15.2279L18.0408 14.3835L20.0518 9.76045L24.4601 15.7503L29.5268 15.1778L26.5641 22.0121L29.5912 26.1342L22.2201 26.9715L20.1806 31.6661L15.7723 25.6762ZM17.8762 25.2253C17.683 25.3184 17.4755 25.3971 17.2608 25.4615L17.0676 25.5188L19.923 29.4047L20.9392 27.0717L20.7531 27.0502C19.7584 26.9214 18.8495 26.3847 18.2627 25.576L17.9764 25.1824L17.8762 25.2253ZM16.8815 21.7044L19.1859 24.889C19.651 25.5331 20.4096 25.9195 21.2111 25.9195C21.3041 25.9195 21.3972 25.9124 21.4902 25.9052L27.5015 25.2182L25.1042 21.9549C24.9825 21.7903 24.8465 21.6472 24.6962 21.5183L24.5531 21.4038L22.8356 25.2754L19.8514 21.3251L16.8815 21.7044ZM16.9817 17.8185C16.0871 17.9115 15.3143 18.4841 14.9564 19.3142L12.5376 24.889L16.5523 24.4381C16.7527 24.4167 16.9459 24.3666 17.132 24.3022L17.3037 24.2378L14.8205 20.8099L19.7154 20.1873L20.8819 17.4034L16.9817 17.8185ZM20.7746 20.631L22.5923 23.0355L23.7015 20.5379L24.1881 19.4358C24.5531 18.6129 24.4458 17.6468 23.9162 16.924L20.3166 12.0362L18.6992 15.7503C18.6205 15.9364 18.5632 16.1296 18.5275 16.3228L18.4988 16.5017L22.6925 16.058L20.7746 20.631ZM25.1757 16.8238L25.2473 16.9955C25.6337 17.9259 25.6266 18.985 25.2187 19.901L25.0254 20.3447L25.1185 20.4091C25.2974 20.5308 25.4691 20.6739 25.6266 20.8313L25.7697 20.9745L27.6876 16.5447L25.1757 16.8238ZM12.7237 16.1439L14.2551 18.2264L14.3696 18.0833C14.9779 17.2961 15.8868 16.7808 16.8672 16.6807L17.3467 16.6306L17.3538 16.5161C17.3681 16.2727 17.4111 16.0366 17.4755 15.8004L17.5327 15.6L12.7237 16.1439Z" fill="white"/>
<path d="M19.0426 31.7597C15.858 31.452 13.0026 29.7989 11.1348 27.1797L12.4158 27.0365C12.6305 27.2942 12.8524 27.5446 13.0885 27.7808C14.4768 29.1763 16.2158 30.1209 18.1266 30.5074L19.0426 31.7597Z" fill="white"/>
<path d="M21.7121 30.5792C23.7731 30.2428 25.6481 29.2767 27.1437 27.781C27.2797 27.6451 27.4085 27.5019 27.5445 27.3517L29.0974 27.1727C27.2296 29.792 24.3814 31.4522 21.1968 31.76L21.7121 30.5792Z" fill="white"/>
<path d="M29.4122 24.2603C29.8345 23.1296 30.0563 21.9416 30.0563 20.7179C30.0563 19.6373 29.8846 18.5781 29.5554 17.5691L30.178 16.1307C30.8292 17.5762 31.1655 19.1149 31.1655 20.7179C31.1655 22.3209 30.8363 23.8595 30.1851 25.298L29.4122 24.2603Z" fill="white"/>
<path d="M10.0543 25.3118C9.3959 23.8662 9.06671 22.3205 9.06671 20.7174C9.06671 19.1001 9.40306 17.5472 10.0686 16.0944L10.8272 17.1321C10.3906 18.27 10.1688 19.4794 10.1688 20.7174C10.1688 21.7981 10.3405 22.8644 10.6769 23.8806L10.0543 25.3118Z" fill="white"/>
<path d="M11.1779 14.1905C13.0457 11.6071 15.8867 9.97543 19.0355 9.66771L18.5203 10.8557C16.4521 11.1849 14.5771 12.151 13.0814 13.6538C12.9669 13.7683 12.8524 13.89 12.7451 14.0116L11.1779 14.1905Z" fill="white"/>
<path d="M27.8164 14.3981C27.6017 14.1404 27.3799 13.89 27.1437 13.6538C25.7554 12.2583 24.0164 11.3208 22.12 10.9272L21.1968 9.66771C24.3742 9.97543 27.2296 11.6286 29.0974 14.2478L27.8164 14.3981Z" fill="white"/>
</g>
<defs>
<clipPath id="clip0_5_95">
<rect width="22.2581" height="23" fill="white" transform="translate(9 9)"/>
</clipPath>
</defs>
</svg>
