<svg width="100%" height="100%" viewBox="0 0 40 40" fill="none" xmlns="http://www.w3.org/2000/svg">
<circle cx="20" cy="20" r="20" fill="black"/>
<path fill-rule="evenodd" clip-rule="evenodd" d="M20.9124 11.3755C19.9742 11.3755 19.21 12.1393 19.21 13.0768C19.21 14.0143 19.9761 14.7781 20.9141 14.7781H27.0802V30.4393H22.841V29.0276C20.7837 31.1543 16.9753 31.2556 14.5398 29.7226C11.8108 28.0936 10.5576 24.7217 11.0104 21.596C11.3978 18.7492 13.0621 16.4994 15.5683 15.4404C15.2478 14.7184 15.0684 13.9183 15.0684 13.0768C15.0684 9.85152 17.6853 7.2362 20.9124 7.2362H23.9583V11.3755H20.9124ZM22.9351 22.8503V18.9192H19.0018C16.8306 18.9192 15.0684 20.6802 15.0684 22.8503C15.0684 25.0204 16.8306 26.7814 19.0018 26.7814C21.1732 26.7814 22.9351 25.0223 22.9351 22.8503Z" fill="white"/>
</svg>
