<svg width="100%" height="100%" viewBox="0 0 40 40" fill="none" xmlns="http://www.w3.org/2000/svg">
<circle cx="20" cy="20" r="20" fill="black"/>
<g clip-path="url(#clip0_488_20)">
<path opacity="0.5" d="M13.7865 27.3297L14.8944 31L22.4994 20L14.8944 9L13.7325 12.5907L18.7842 19.998L13.7865 27.3297Z" fill="white"/>
<path d="M29.9973 30.998H26.3883L18.7815 19.998L26.3883 9H29.9973L22.4976 19.998L29.9973 30.998Z" fill="white"/>
<path d="M12 9H14.8926V30.998H12V9Z" fill="white"/>
<path d="M30 30.998H26.391L18.7842 19.998L26.391 9H30L22.5003 19.998L30 30.998Z" fill="white"/>
<path d="M30 30.998H26.391L18.7842 19.998L26.391 9H30L22.5003 19.998L30 30.998Z" fill="white"/>
<path d="M30 30.998H26.391L18.7842 19.998L26.391 9H30L22.5003 19.998L30 30.998Z" fill="white"/>
<path d="M30 30.998H26.391L18.7842 19.998L26.391 9H30L22.5003 19.998L30 30.998Z" fill="white"/>
</g>
<defs>
<clipPath id="clip0_488_20">
<rect width="18" height="22" fill="white" transform="translate(12 9)"/>
</clipPath>
</defs>
</svg>
