<svg width="100%" height="100%" viewBox="0 0 40 40" fill="none" xmlns="http://www.w3.org/2000/svg">
<circle cx="20" cy="20" r="20" fill="black"/>
<path d="M32.7488 11.9619C32.3053 11.6122 31.7766 11.1347 30.813 11.0153C29.9091 10.8959 28.9881 11.5014 28.3656 11.9022C27.7431 12.303 26.5663 13.4798 26.0802 13.8379C25.5941 14.1961 24.3491 14.5287 22.3451 15.7311C20.3411 16.9335 12.4787 21.9818 12.4787 21.9818L14.5253 22.0074L5.4008 26.7061H6.31325L5 27.7038C5 27.7038 6.15975 28.0108 7.1319 27.3968V27.6782C7.1319 27.6782 17.996 23.3974 20.0938 24.506L18.8147 24.8812C18.9256 24.8812 20.9892 25.0176 20.9892 25.0176C21.0393 25.445 21.183 25.856 21.4099 26.2215C21.6369 26.5871 21.9417 26.8981 22.3025 27.1325C23.5475 27.9511 23.5731 28.4031 23.5731 28.4031C23.5731 28.4031 22.925 28.6674 22.925 29C22.925 29 23.8801 28.7101 24.767 28.7356C25.3298 28.757 25.8881 28.8457 26.4298 29C26.4298 29 26.3616 28.6418 25.5003 28.4031C24.639 28.1643 23.7863 27.2263 23.3684 26.7146C23.1125 26.3889 22.9457 26.0023 22.8844 25.5926C22.8231 25.1829 22.8694 24.7644 23.0188 24.378C23.3173 23.602 24.3576 23.1757 26.5066 22.0671C29.0393 20.7538 29.6191 19.7817 29.9773 19.0227C30.3355 18.2638 30.8642 16.7544 31.1626 16.0466C31.5379 15.1341 31.9983 14.6481 32.3821 14.3581C32.7658 14.0682 34.4713 13.4286 34.4713 13.4286C34.4713 13.4286 33.1666 12.2945 32.7488 11.9619Z" fill="white"/>
</svg>
