<svg width="100%" height="100%" viewBox="0 0 40 40" fill="none" xmlns="http://www.w3.org/2000/svg">
<circle cx="20" cy="20" r="20" fill="black"/>
<path d="M20 32.771V28.422C19.5622 28.422 19.115 28.3839 18.6772 28.3173L17.992 32.6092C18.6582 32.7234 19.3339 32.771 20 32.771ZM21.9984 32.6187C22.6646 32.514 23.3212 32.3618 23.9588 32.1524L22.617 28.0128C22.1983 28.146 21.7605 28.2507 21.3228 28.3173L21.9984 32.6187ZM16.0412 32.1524L17.383 28.0223C16.9643 27.8891 16.5551 27.7178 16.1554 27.5179L14.176 31.3911C14.7755 31.6861 15.4036 31.943 16.0412 32.1524ZM25.8145 31.3911C26.414 31.0866 26.985 30.7345 27.5274 30.3443L24.958 26.8327C24.6059 27.0897 24.2253 27.3276 23.8256 27.5179L25.8145 31.3911ZM12.463 30.3348L15.0325 26.8232C14.6804 26.5663 14.3378 26.2808 14.0237 25.9668L10.9404 29.0405C11.4162 29.5068 11.9301 29.9446 12.463 30.3348ZM29.0405 29.0596L29.0691 29.031C29.5449 28.5647 29.9827 28.0508 30.3728 27.5179L26.8518 24.958C26.5948 25.3101 26.2998 25.6527 25.9953 25.9572L25.9477 26.0048L27.4323 27.4037L29.0405 29.0596ZM9.63668 27.5084L13.1577 24.9485C12.9008 24.5964 12.6629 24.2158 12.463 23.8256L8.58036 25.7955C8.88489 26.395 9.23699 26.966 9.63668 27.5084ZM31.4196 25.805C31.7242 25.215 31.9811 24.5869 32.1905 23.9493L28.0413 22.617C27.9081 23.0357 27.7368 23.4449 27.537 23.8351L31.4196 25.805ZM7.80954 23.9493L11.9587 22.6075C11.8254 22.1888 11.7208 21.7605 11.6541 21.3228L7.34324 21.9984C7.44792 22.6551 7.60969 23.3117 7.80954 23.9493ZM32.6568 22.008C32.7614 21.3513 32.8185 20.6757 32.8185 20.0095H28.46C28.46 20.4473 28.422 20.8945 28.3554 21.3323L32.6568 22.008ZM11.5495 20C11.5495 19.5622 11.5875 19.115 11.6541 18.6772L7.34324 18.0016C7.23856 18.6582 7.19097 19.3339 7.18146 20H11.5495ZM28.3554 18.6867L32.6663 18.0111C32.5616 17.3545 32.4093 16.6978 32.2 16.0602L28.0508 17.3925C28.1841 17.8208 28.2888 18.249 28.3554 18.6867ZM11.9587 17.3925C12.0919 16.9738 12.2632 16.5646 12.463 16.1744L8.58036 14.2045C8.27584 14.7945 8.0189 15.4226 7.80954 16.0602L11.9587 17.3925ZM27.5465 16.1839L31.4387 14.2141C31.1341 13.6145 30.782 13.0435 30.3824 12.5011L26.8518 15.061C27.1087 15.4131 27.3466 15.7938 27.5465 16.1839ZM13.1577 15.0515C13.4147 14.6994 13.7097 14.3568 14.0237 14.0428L14.0332 14.0332L10.9499 10.9595L10.9404 10.969C10.4646 11.4448 10.0269 11.9492 9.63668 12.4916L13.1577 15.0515ZM25.9953 14.0618L26.9279 13.1197L29.0691 10.988L29.0596 10.9785C28.5838 10.5122 28.0794 10.0744 27.5465 9.68426L24.9771 13.1958C25.3292 13.4527 25.6718 13.7382 25.9763 14.0523L25.9953 14.0618ZM15.042 13.1768C15.3941 12.9198 15.7747 12.6914 16.1744 12.4916L14.195 8.61843C13.5955 8.92295 13.0245 9.27506 12.4821 9.66523L15.042 13.1768ZM23.8541 12.5011L25.843 8.62795C25.2435 8.32342 24.625 8.06648 23.9874 7.85712L22.636 11.9872C23.0452 12.13 23.4544 12.3013 23.8541 12.5011ZM17.402 11.9872C17.8208 11.854 18.2585 11.7493 18.6963 11.6827L18.0206 7.39082C17.364 7.4955 16.6978 7.64776 16.0602 7.85712L17.402 11.9872ZM21.3323 11.6827L22.0175 7.39082C21.3608 7.28614 20.6852 7.22904 20.019 7.22904V11.578C20.4568 11.578 20.9041 11.6161 21.3323 11.6827Z" fill="white"/>
<path d="M20 28.6218V24.2538C19.6289 24.2538 19.2672 24.2062 18.9056 24.1111L17.7637 28.3268C18.4964 28.5171 19.2482 28.6218 20 28.6218ZM22.2363 28.3268C22.9691 28.1365 23.6638 27.851 24.3204 27.4703L22.1126 23.6923C21.7986 23.8732 21.456 24.0159 21.1039 24.1111L22.2363 28.3268ZM15.6891 27.4703L17.8969 23.6923C17.5828 23.5115 17.2878 23.2831 17.0214 23.0262L16.9833 22.9881L15.5939 24.4441L13.881 26.0905L13.9095 26.119C14.4424 26.6424 15.042 27.0992 15.6891 27.4703ZM26.1 26.119C26.6329 25.5861 27.0992 24.9961 27.4703 24.349L23.6543 22.1602C23.4735 22.4743 23.2451 22.7597 22.9786 23.0262L26.1 26.119ZM12.5297 24.3395L16.3457 22.1602C16.1649 21.8462 16.0222 21.5131 15.927 21.161L11.6732 22.2839C11.8635 22.9977 12.1585 23.6923 12.5297 24.3395ZM28.3363 22.2934C28.5267 21.5702 28.6313 20.8279 28.6313 20.0856H24.2253C24.2253 20.4473 24.1777 20.8184 24.0825 21.1705L28.3363 22.2934ZM15.7938 20.0761C15.7938 19.7145 15.8413 19.3434 15.9365 18.9913L11.6732 17.8683C11.4829 18.5916 11.3782 19.3339 11.3782 20.0761H15.7938ZM24.073 19.0008L28.3363 17.8778C28.146 17.1546 27.851 16.4599 27.4799 15.8128L23.6638 17.992C23.8351 18.3156 23.9778 18.6487 24.073 19.0008ZM16.3552 17.992C16.536 17.6875 16.7549 17.3925 17.0214 17.1356L17.0309 17.1261L15.4512 15.5654L13.9381 14.0142L13.9095 14.0428C13.3766 14.5662 12.9198 15.1657 12.5392 15.8033L16.3552 17.992ZM22.9786 17.1356L24.5393 15.5844L26.1381 14.0808L26.1 14.0428C25.5671 13.5098 24.9675 13.0626 24.3204 12.6819L22.1126 16.4599C22.4267 16.6407 22.7122 16.8596 22.9786 17.1165V17.1356ZM17.8969 16.4599C18.2109 16.2791 18.5535 16.1364 18.9056 16.0412L17.7827 11.8254C17.0499 12.0158 16.3552 12.3013 15.6986 12.6819L17.8969 16.4599ZM21.0944 16.0507L22.2363 11.835C21.5131 11.6446 20.7613 11.54 20.0095 11.54V15.908C20.3711 15.908 20.7423 15.9555 21.0944 16.0507Z" fill="white"/>
</svg>
