<svg width="100%" height="100%" viewBox="0 0 40 40" fill="none" xmlns="http://www.w3.org/2000/svg">
<circle cx="20" cy="20" r="20" fill="black"/>
<g clip-path="url(#clip0_651_26)">
<path d="M20 5.5C27.7296 5.5 34.0081 12.0007 33.9982 19.9981C33.9963 21.5982 33.7499 23.1373 33.2875 24.577H29.0989V12.3804L20 21.8032L10.9016 12.3804V24.5772H6.71214C6.24907 23.1376 6.00396 21.5985 6.0012 19.9983C5.98801 11.9926 12.2697 5.50193 20 5.50193V5.5Z" fill="white"/>
<path d="M22.0925 23.9694L26.0633 19.857V27.5317H29.0992L31.9639 27.5323C29.5067 31.7072 25.0659 34.5 20 34.5C14.9342 34.5 10.4932 31.7066 8.03546 27.5316H13.9376V19.857L17.9087 23.9694L20.0005 26.1357L22.0924 23.9694H22.0925Z" fill="white"/>
</g>
</svg>
