<svg width="100%" height="100%" viewBox="0 0 40 40" fill="none" xmlns="http://www.w3.org/2000/svg">
<circle cx="20" cy="20" r="20" fill="black"/>
<path d="M11.4407 19.4987C11.4407 19.258 11.6368 19.0629 11.8787 19.0629H28.0841C28.3259 19.0629 28.522 19.258 28.522 19.4987C28.522 19.7394 28.3259 19.9346 28.0841 19.9346H11.8787C11.6368 19.9346 11.4407 19.7394 11.4407 19.4987Z" fill="white"/>
<path d="M8.15581 21.4166C8.15581 21.1758 8.3519 20.9807 8.59379 20.9807H20.4193C20.6612 20.9807 20.8573 21.1758 20.8573 21.4166C20.8573 21.6573 20.6612 21.8524 20.4193 21.8524H8.59379C8.3519 21.8524 8.15581 21.6573 8.15581 21.4166Z" fill="white"/>
<path d="M19.1492 26.7342C18.9073 26.7342 18.7112 26.9294 18.7112 27.1701C18.7112 27.4108 18.9073 27.6059 19.1492 27.6059H26.4635C26.7054 27.6059 26.9015 27.4108 26.9015 27.1701C26.9015 26.9294 26.7054 26.7342 26.4635 26.7342H19.1492Z" fill="white"/>
<path d="M14.2438 29.0879C14.2438 28.8472 14.4399 28.652 14.6818 28.652H21.9523C22.1942 28.652 22.3903 28.8472 22.3903 29.0879C22.3903 29.3286 22.1942 29.5238 21.9523 29.5238H14.6818C14.4399 29.5238 14.2438 29.3286 14.2438 29.0879Z" fill="white"/>
<path d="M11.8787 22.8985C11.6368 22.8985 11.4407 23.0937 11.4407 23.3344C11.4407 23.5751 11.6368 23.7703 11.8787 23.7703H26.1569C26.3988 23.7703 26.5949 23.5751 26.5949 23.3344C26.5949 23.0937 26.3988 22.8985 26.1569 22.8985H11.8787Z" fill="white"/>
<path d="M8.98798 25.2522C8.98798 25.0115 9.18406 24.8164 9.42596 24.8164H15.1197C15.3616 24.8164 15.5577 25.0115 15.5577 25.2522C15.5577 25.493 15.3616 25.6881 15.1197 25.6881H9.42596C9.18406 25.6881 8.98798 25.493 8.98798 25.2522Z" fill="white"/>
<path d="M16.7841 24.8164C16.5422 24.8164 16.3461 25.0115 16.3461 25.2522C16.3461 25.493 16.5422 25.6881 16.7841 25.6881H28.6096C28.8515 25.6881 29.0476 25.493 29.0476 25.2522C29.0476 25.0115 28.8515 24.8164 28.6096 24.8164H16.7841Z" fill="white"/>
<path d="M10.8275 19.4987C10.8275 19.7394 10.6314 19.9346 10.3895 19.9346C10.1476 19.9346 9.95154 19.7394 9.95154 19.4987C9.95154 19.258 10.1476 19.0629 10.3895 19.0629C10.6314 19.0629 10.8275 19.258 10.8275 19.4987Z" fill="white"/>
<path d="M7.10465 21.8524C7.34654 21.8524 7.54263 21.6573 7.54263 21.4166C7.54263 21.1758 7.34654 20.9807 7.10465 20.9807C6.86275 20.9807 6.66666 21.1758 6.66666 21.4166C6.66666 21.6573 6.86275 21.8524 7.10465 21.8524Z" fill="white"/>
<path d="M18.098 27.1701C18.098 27.4108 17.9019 27.6059 17.66 27.6059C17.4182 27.6059 17.2221 27.4108 17.2221 27.1701C17.2221 26.9294 17.4182 26.7342 17.66 26.7342C17.9019 26.7342 18.098 26.9294 18.098 27.1701Z" fill="white"/>
<path d="M13.1926 29.5238C13.4345 29.5238 13.6306 29.3286 13.6306 29.0879C13.6306 28.8472 13.4345 28.652 13.1926 28.652C12.9507 28.652 12.7546 28.8472 12.7546 29.0879C12.7546 29.3286 12.9507 29.5238 13.1926 29.5238Z" fill="white"/>
<path d="M10.8275 23.3344C10.8275 23.5751 10.6314 23.7703 10.3895 23.7703C10.1476 23.7703 9.95154 23.5751 9.95154 23.3344C9.95154 23.0937 10.1476 22.8985 10.3895 22.8985C10.6314 22.8985 10.8275 23.0937 10.8275 23.3344Z" fill="white"/>
<path d="M7.93682 25.6881C8.17871 25.6881 8.3748 25.493 8.3748 25.2522C8.3748 25.0115 8.17871 24.8164 7.93682 24.8164C7.69492 24.8164 7.49883 25.0115 7.49883 25.2522C7.49883 25.493 7.69492 25.6881 7.93682 25.6881Z" fill="white"/>
<path d="M26.4559 14.7813C26.8081 15.6275 26.9893 16.5343 26.9893 17.4502C26.9893 17.6427 26.8325 17.7988 26.6389 17.7988H13.3242C13.1307 17.7988 12.9739 17.6427 12.9739 17.4502C12.9739 16.5343 13.1551 15.6275 13.5073 14.7813C13.8595 13.9352 14.3757 13.1664 15.0264 12.5188C15.6771 11.8712 16.4496 11.3575 17.2999 11.0071C18.1501 10.6566 19.0613 10.4762 19.9816 10.4762C20.9019 10.4762 21.8131 10.6566 22.6633 11.0071C23.5136 11.3575 24.2861 11.8712 24.9368 12.5188C25.5875 13.1664 26.1037 13.9352 26.4559 14.7813Z" fill="white"/>
</svg>
