<svg width="100%" height="100%" viewBox="0 0 40 40" fill="none" xmlns="http://www.w3.org/2000/svg">
<circle cx="20" cy="20" r="20" fill="black"/>
<g clip-path="url(#clip0_5_133)">
<path d="M26.6489 10.1244L22.0533 16.9444C21.7356 17.4089 22.3467 17.9711 22.7867 17.58L27.3089 13.6444C27.4311 13.5467 27.6022 13.62 27.6022 13.7911V26.0867C27.6022 26.2578 27.3822 26.3311 27.2844 26.2089L13.5956 9.83111C13.1556 9.29333 12.52 9 11.8111 9H11.3222C10.0511 9 9 10.0511 9 11.3467V28.6533C9 29.9489 10.0511 31 11.3467 31C12.1533 31 12.9111 30.5844 13.3511 29.8756L17.9467 23.0556C18.2644 22.5911 17.6533 22.0289 17.2133 22.42L12.6911 26.3311C12.5689 26.4289 12.3978 26.3556 12.3978 26.1844V13.9133C12.3978 13.7422 12.6178 13.6689 12.7156 13.7911L26.4044 30.1689C26.8444 30.7067 27.5044 31 28.1889 31H28.6778C29.9733 31 31.0244 29.9489 31.0244 28.6533V11.3467C31.0244 10.0511 29.9733 9 28.6778 9C27.8467 9 27.0889 9.41556 26.6489 10.1244Z" fill="white"/>
</g>
</svg>
