<svg width="100%" height="100%" viewBox="0 0 40 40" fill="none" xmlns="http://www.w3.org/2000/svg">
<circle cx="20" cy="20" r="20" fill="black"/>
<g clip-path="url(#clip0_1_117)">
<path d="M26.0266 11.0222L21.8535 17.2222C21.5649 17.6444 22.1199 18.1556 22.5194 17.8L26.626 14.2222C26.737 14.1333 26.8923 14.2 26.8923 14.3556V25.5333C26.8923 25.6889 26.6926 25.7556 26.6038 25.6444L14.1731 10.7556C13.7736 10.2667 13.1964 10 12.5527 10H12.1088C10.9545 10 10 10.9556 10 12.1333V27.8667C10 29.0444 10.9545 30 12.131 30C12.8635 30 13.5516 29.6222 13.9512 28.9778L18.1243 22.7778C18.4129 22.3556 17.8579 21.8444 17.4584 22.2L13.3518 25.7556C13.2408 25.8444 13.0855 25.7778 13.0855 25.6222V14.4667C13.0855 14.3111 13.2852 14.2444 13.374 14.3556L25.8047 29.2444C26.2042 29.7333 26.8036 30 27.4251 30H27.869C29.0455 30 30 29.0444 30 27.8667V12.1333C30 10.9556 29.0455 10 27.869 10C27.1143 10 26.4262 10.3778 26.0266 11.0222Z" fill="white"/>
</g>
</svg>
