<svg width="100%" height="100%" viewBox="0 0 40 40" fill="none" xmlns="http://www.w3.org/2000/svg">
<circle cx="20" cy="20" r="20" fill="black"/>
<path d="M12.504 26.5168C11.0666 26.5168 9.88959 26.1792 8.97308 25.5039C8.06622 24.8189 7.61279 23.8349 7.61279 22.571C7.61279 22.3009 7.64174 21.9825 7.69962 21.5966C7.85398 20.7284 8.07587 19.6865 8.36529 18.4612C9.18532 15.1425 11.3078 13.4832 14.7229 13.4832C15.6491 13.4832 16.4884 13.6375 17.2216 13.9559C17.9548 14.255 18.5337 14.718 18.9582 15.3355C19.3827 15.9433 19.5949 16.6668 19.5949 17.5061C19.5949 17.757 19.566 18.0753 19.5081 18.4612C19.3248 19.5321 19.1125 20.5837 18.852 21.5966C18.4276 23.2464 17.704 24.4909 16.6621 25.3109C15.6298 26.1213 14.2406 26.5168 12.504 26.5168ZM12.7645 23.912C13.4398 23.912 14.009 23.7094 14.4818 23.3139C14.9641 22.9183 15.3114 22.3106 15.514 21.4809C15.7938 20.3425 16.0061 19.3584 16.1508 18.5095C16.199 18.2586 16.2279 17.9982 16.2279 17.728C16.2279 16.6282 15.6587 16.0783 14.5107 16.0783C13.8354 16.0783 13.2565 16.2809 12.7742 16.6765C12.3014 17.072 11.9638 17.6798 11.7612 18.5095C11.5393 19.3199 11.3271 20.3039 11.1052 21.4809C11.0569 21.7221 11.028 21.9729 11.028 22.243C11.0183 23.3621 11.6068 23.912 12.7645 23.912Z" fill="white"/>
<path d="M20.4341 26.3432C20.2991 26.3432 20.2026 26.3046 20.1254 26.2178C20.0675 26.1213 20.0482 26.0152 20.0675 25.8898L22.5662 14.1199C22.5855 13.9848 22.653 13.8787 22.7688 13.7919C22.8749 13.7051 22.9907 13.6665 23.1161 13.6665H27.9302C29.2712 13.6665 30.342 13.9462 31.1524 14.4961C31.9725 15.0557 32.3873 15.8564 32.3873 16.908C32.3873 17.2071 32.3487 17.5254 32.2812 17.8534C31.9821 19.2427 31.3743 20.2653 30.4482 20.931C29.5413 21.5966 28.2968 21.9247 26.7146 21.9247H24.2738L23.4441 25.8898C23.4152 26.0248 23.3573 26.1309 23.2415 26.2178C23.1354 26.3046 23.0196 26.3432 22.8942 26.3432H20.4341ZM26.84 19.426C27.3513 19.426 27.7855 19.2909 28.1617 19.0111C28.5476 18.7314 28.7985 18.3358 28.9239 17.8149C28.9625 17.6123 28.9818 17.429 28.9818 17.2746C28.9818 16.9273 28.8756 16.6572 28.673 16.4739C28.4704 16.2809 28.1135 16.1844 27.6215 16.1844H25.4508L24.7658 19.426H26.84Z" fill="white"/>
</svg>
