<svg width="100%" height="100%" viewBox="0 0 40 40" xmlns="http://www.w3.org/2000/svg">
<circle cx="20" cy="20" r="20"/>
<path d="m14.168 25.312c-1.192 0-2.168-0.28-2.928-0.84-0.752-0.568-1.128-1.384-1.128-2.432 0-0.224 0.024-0.488 0.072-0.808 0.128-0.72 0.312-1.584 0.552-2.6 0.68-2.752 2.44-4.128 5.272-4.128 0.768 0 1.464 0.128 2.072 0.392 0.608 0.248 1.088 0.632 1.44 1.144 0.352 0.504 0.528 1.104 0.528 1.8 0 0.208-0.024 0.472-0.072 0.792-0.152 0.888-0.328 1.76-0.544 2.6-0.352 1.368-0.952 2.4-1.816 3.08-0.856 0.672-2.008 1-3.448 1zm0.216-2.16c0.56 0 1.032-0.168 1.424-0.496 0.4-0.328 0.688-0.832 0.856-1.52 0.232-0.944 0.408-1.76 0.528-2.464 0.04-0.208 0.064-0.424 0.064-0.648 0-0.912-0.472-1.368-1.424-1.368-0.56 0-1.04 0.168-1.44 0.496-0.392 0.328-0.672 0.832-0.84 1.52-0.184 0.672-0.36 1.488-0.544 2.464-0.04 0.2-0.064 0.408-0.064 0.632-8e-3 0.928 0.48 1.384 1.44 1.384z" fill="#fff"/>
<path d="m20.744 25.168c-0.112 0-0.192-0.032-0.256-0.104-0.048-0.08-0.064-0.168-0.048-0.272l2.072-9.76c0.016-0.112 0.072-0.2 0.168-0.272 0.088-0.072 0.184-0.104 0.288-0.104h3.992c1.112 0 2 0.232 2.672 0.688 0.68 0.464 1.024 1.128 1.024 2 0 0.248-0.032 0.512-0.088 0.784-0.248 1.152-0.752 2-1.52 2.552-0.752 0.552-1.784 0.824-3.096 0.824h-2.024l-0.688 3.288c-0.024 0.112-0.072 0.2-0.168 0.272-0.088 0.072-0.184 0.104-0.288 0.104h-2.04zm5.312-5.736c0.424 0 0.784-0.112 1.096-0.344 0.32-0.232 0.528-0.56 0.632-0.992 0.032-0.168 0.048-0.32 0.048-0.448 0-0.288-0.088-0.512-0.256-0.664-0.168-0.16-0.464-0.24-0.872-0.24h-1.8l-0.568 2.688h1.72z" fill="#fff"/>
</svg>
