<svg width="100%" height="100%" viewBox="0 0 40 40" fill="none" xmlns="http://www.w3.org/2000/svg">
<circle cx="20" cy="20" r="20" fill="black"/>
<path fill-rule="evenodd" clip-rule="evenodd" d="M29.4384 14.253C29.4298 14.2407 29.4213 14.2284 29.4128 14.216C29.6903 13.3287 30.1463 12.0583 30.8402 11.1307C30.4238 10.6871 29.7697 10.1224 29.0164 9.61828C28.382 9.19481 27.8666 8.91249 27.47 8.75117C26.4194 9.59812 25.5075 10.1829 24.8731 10.5257C24.8716 10.5251 24.8701 10.5244 24.8685 10.5238C24.8567 10.5309 24.845 10.5381 24.8334 10.5452C26.6572 11.3719 28.2432 12.6625 29.4326 14.2758C29.4345 14.2681 29.4365 14.2606 29.4384 14.253ZM30.4836 12.9661C32.2295 13.4072 32.9379 12.0233 32.7036 11.0896C32.4459 10.1419 31.6132 9.17391 30.1463 8.08498C28.6793 6.99604 27.1925 6.5524 26.2409 6.75405C25.2894 6.95571 25.0118 8.42779 25.2497 8.99242C25.3044 9.11473 25.3952 9.26768 25.5155 9.44115C25.5778 9.4006 25.6412 9.35883 25.7057 9.3158C25.5867 8.99315 25.5471 8.54951 25.904 8.18653C26.4392 7.64207 27.6286 7.96472 29.3335 9.11415C29.9283 9.53762 30.523 10.0014 30.9591 10.4249C31.5736 11.0097 31.871 11.4937 31.871 11.8768C31.8909 12.2801 31.7124 12.5019 31.5538 12.6229C31.3358 12.8044 31.0582 12.8448 30.8204 12.8448C30.7212 12.8448 30.6221 12.8448 30.5428 12.8246C30.5227 12.8718 30.503 12.9189 30.4836 12.9661ZM31.2961 11.897C31.2961 11.8365 31.2763 11.7357 31.2168 11.6348L31.2167 11.635C31.078 11.8366 30.9393 12.0382 30.8204 12.2801C30.9591 12.2801 31.1177 12.2398 31.197 12.1793C31.2366 12.139 31.2961 12.0784 31.2961 11.897ZM26.7961 8.56968C26.5383 8.52935 26.3797 8.56968 26.3203 8.63018C26.2013 8.731 26.1815 8.87216 26.2013 9.01332C26.3995 8.87216 26.5978 8.731 26.7961 8.56968Z" fill="white"/>
<path fill-rule="evenodd" clip-rule="evenodd" d="M31.1574 21.4339C31.1574 27.6595 26.1959 32.7063 20.0757 32.7063C13.9554 32.7063 8.99396 27.6595 8.99396 21.4339C8.99396 15.2082 13.9554 10.1614 20.0757 10.1614C26.1959 10.1614 31.1574 15.2082 31.1574 21.4339ZM9.52917 21.4358L9.52939 21.4071L9.52915 21.3344H9.53194C9.60745 19.9859 11.2252 20.0324 14.1086 20.367C15.4368 20.5283 17.2606 20.6291 19.2827 20.0242C21.6219 19.2982 23.6638 19.0966 25.6859 19.2579C28.4034 19.4932 30.4651 20.1668 30.5776 21.3344H30.6022C30.6022 27.2429 25.8841 32.0423 20.0756 32.0423C14.3203 32.0423 9.61595 27.3304 9.53034 21.4963C9.52956 21.4761 9.52917 21.4559 9.52917 21.4358Z" fill="white"/>
<path d="M23.525 16.3525C24.5104 16.3525 25.3092 15.5399 25.3092 14.5376C25.3092 13.5352 24.5104 12.7227 23.525 12.7227C22.5397 12.7227 21.7408 13.5352 21.7408 14.5376C21.7408 15.5399 22.5397 16.3525 23.525 16.3525Z" fill="white"/>
<path d="M26.4392 17.7031C26.8552 17.7031 27.1925 17.3601 27.1925 16.9368C27.1925 16.5136 26.8552 16.1706 26.4392 16.1706C26.0231 16.1706 25.6859 16.5136 25.6859 16.9368C25.6859 17.3601 26.0231 17.7031 26.4392 17.7031Z" fill="white"/>
<g opacity="0.6">
<path opacity="0.6" d="M29.1352 13.0846C29.1154 13.0846 29.0956 13.0846 29.0956 13.0846C28.9766 13.0644 28.8973 12.9434 28.9171 12.8022C29.0956 11.8746 29.8488 10.9873 29.8885 10.947C29.9678 10.8462 30.1264 10.8462 30.2057 10.9268C30.3048 11.0075 30.3048 11.1688 30.2255 11.2495C30.2057 11.2696 29.5118 12.0964 29.3533 12.903C29.3334 13.0241 29.2343 13.0846 29.1352 13.0846Z" fill="url(#paint0_linear_592_56)"/>
</g>
<defs>
<linearGradient id="paint0_linear_592_56" x1="30.2379" y1="10.8488" x2="28.6887" y2="13.3237" gradientUnits="userSpaceOnUse">
<stop offset="0.2888" stop-color="white"/>
<stop offset="0.7796" stop-color="white" stop-opacity="0"/>
</linearGradient>
</defs>
</svg>
