<svg width="100%" height="100%" viewBox="0 0 40 40" fill="none" xmlns="http://www.w3.org/2000/svg">
<circle cx="20" cy="20" r="20" fill="black"/>
<g>
<path d="M30.9356 12.2426C30.6913 11.3017 29.9061 10.3609 28.4925 9.3136C27.3582 8.47929 26.1541 8 25.1943 8C25.0023 8 24.8278 8.01775 24.6533 8.05325C24.2171 8.14201 23.8332 8.46153 23.5889 8.94082C23.2922 9.50886 23.2224 10.2722 23.4144 10.7337C23.4842 10.8757 23.5714 11.0532 23.6761 11.213C22.7512 11.781 22.2277 11.9408 22.1579 11.9585C24.5661 12.7751 26.5729 14.4792 27.8294 16.6981L27.8469 16.4851C27.8992 15.8993 28.0737 15.2248 28.318 14.5325C28.5623 14.6035 28.8067 14.639 29.051 14.639C29.6967 14.639 30.2551 14.3727 30.6041 13.8935C30.9531 13.4142 31.0927 12.7751 30.9356 12.2426Z" fill="black"/>
<path d="M28.4228 14.0175C30.0108 14.4612 30.6565 13.2186 30.4471 12.3843C30.2202 11.55 29.4873 10.6979 28.1959 9.73936C26.9045 8.78079 25.5957 8.39026 24.7581 8.56777C23.9205 8.74529 23.6761 10.0411 23.8856 10.5382C23.9728 10.7334 24.1648 11.0175 24.4265 11.337C24.095 11.5677 23.7808 11.7453 23.5191 11.905C25.1246 12.6328 26.5206 13.7689 27.5677 15.189C27.6898 14.7098 27.8643 14.2837 28.0214 13.9109C28.1435 13.9287 28.2832 13.9642 28.4228 14.0175Z" fill="white"/>
<path d="M19.3309 31.4131C24.7185 31.4131 29.0859 26.9705 29.0859 21.4902C29.0859 16.0098 24.7185 11.5672 19.3309 11.5672C13.9433 11.5672 9.57584 16.0098 9.57584 21.4902C9.57584 26.9705 13.9433 31.4131 19.3309 31.4131Z" fill="white"/>
<path opacity="0.6" d="M29.6443 11.5684C28.3181 10.1483 27.2013 9.77551 25.8575 9.47374C24.8105 9.22522 25.0897 8.62168 26.3636 8.74594C25.7528 8.53292 25.1769 8.47967 24.7581 8.56842C23.9205 8.74594 23.6761 10.0418 23.8856 10.5388C23.9728 10.7341 24.1648 11.0181 24.4265 11.3376C23.9554 11.6572 23.554 11.8879 23.2224 12.0654C23.3795 12.1364 23.5714 12.2252 23.7983 12.3495C24.3916 12.669 25.0373 13.2015 25.0373 13.2015C24.0601 12.3495 24.2695 11.9589 25.6132 11.0004C26.032 10.6986 26.7999 10.7341 27.5154 11.1069C28.2308 11.4796 29.0685 12.4205 29.0685 12.4205L28.2657 13.9826C28.3181 14.0003 28.3704 14.0181 28.4228 14.0358C28.9289 14.1778 29.3302 14.1423 29.6443 14.0181C30.0108 13.7873 30.9706 13.0063 29.6443 11.5684Z" fill="white"/>
<path d="M25.8401 10.3258C26.1891 10.4678 26.6428 10.7163 27.2013 11.0891C27.8644 11.5329 28.4402 12.0299 28.8067 12.4205C28.1959 13.237 27.7945 14.3553 27.5502 15.1364C27.6724 15.3139 27.812 15.4914 27.9342 15.6689C28.0563 15.2252 28.2657 14.5684 28.5449 13.9115C28.6147 13.9293 28.702 13.9293 28.7893 13.9293C28.9987 13.9293 29.243 13.8938 29.4349 13.734C29.5745 13.6275 29.7316 13.4323 29.7142 13.0773C29.7142 12.74 29.4524 12.314 28.9114 11.7992C28.5275 11.4264 28.004 11.0181 27.4805 10.6453C25.9797 9.6335 24.9326 9.34948 24.4615 9.82876C24.1473 10.1483 24.1822 10.5388 24.2869 10.8228C23.7285 11.1956 23.2573 11.4619 22.9432 11.6394C23.1526 11.7104 23.3446 11.7992 23.554 11.8879C24.1124 11.5862 24.9152 11.0714 25.8401 10.3258ZM29.1383 12.8642C29.1906 12.953 29.2081 13.0418 29.2081 13.095C29.2081 13.2548 29.1557 13.3081 29.1208 13.3436C29.051 13.3968 28.9114 13.4323 28.7893 13.4323C28.894 13.2193 29.0161 13.0418 29.1383 12.8642ZM24.8279 10.2193C24.8803 10.166 25.0199 10.1305 25.2468 10.166C25.0722 10.3081 24.8977 10.4323 24.7232 10.5566C24.7058 10.4323 24.7232 10.3081 24.8279 10.2193Z" fill="black"/>
<path d="M19.3309 10.9824C13.6244 10.9824 8.99994 15.6865 8.99994 21.4912C8.99994 27.2959 13.6244 32 19.3309 32C25.0373 32 29.6618 27.2959 29.6618 21.4912C29.6618 15.6865 25.0199 10.9824 19.3309 10.9824ZM19.3309 31.4142C13.9385 31.4142 9.57582 26.9763 9.57582 21.4912C9.57582 16.006 13.9385 11.5682 19.3309 11.5682C24.7232 11.5682 29.0859 16.006 29.0859 21.4912C29.0859 26.9763 24.7057 31.4142 19.3309 31.4142Z" fill="white"/>
<path opacity="0.6" d="M19.3309 31.4143C24.7185 31.4143 29.0859 26.9716 29.0859 21.4913C29.0859 16.011 24.7185 11.5683 19.3309 11.5683C13.9433 11.5683 9.57584 16.011 9.57584 21.4913C9.57584 26.9716 13.9433 31.4143 19.3309 31.4143Z" fill="white"/>
<path opacity="0.6" d="M19.2611 30.2069C13.9386 29.3371 10.3262 24.2425 11.1988 18.8284C11.5827 16.4319 12.7693 14.3905 14.4446 12.9171C12.0015 14.355 10.1866 16.8579 9.69799 19.9112C8.8429 25.3253 12.4552 30.42 17.7603 31.2898C20.7269 31.7868 23.5889 30.846 25.7004 28.9998C23.8332 30.1004 21.5646 30.5797 19.2611 30.2069Z" fill="white"/>
<path opacity="0.6" d="M20.884 11.7096C18.4234 11.3014 16.0327 11.8694 14.0781 13.1298C14.0432 13.1653 14.0083 13.2008 14.0083 13.2008C14.7587 12.7392 15.8581 12.3309 15.8581 12.3309C13.0311 13.9996 12.1586 15.8989 12.1586 15.8989C13.258 13.7333 16.4864 12.2067 19.0167 12.1002C21.5471 11.9937 23.205 12.757 25.2292 14.4079C27.2536 16.0765 28.4751 19.4847 28.353 22.1829C28.2483 24.8811 26.8522 27.0646 26.8522 27.0646C27.812 25.8042 28.3879 24.8811 28.7543 23.9403C28.8241 23.6563 28.894 23.3723 28.9289 23.0705C29.8014 17.6741 26.2065 12.5795 20.884 11.7096Z" fill="url(#paint0_linear_5_137)"/>
<path d="M28.5973 21.4026C28.5973 26.6038 24.444 30.8286 19.3309 30.8286C14.2178 30.8286 10.047 26.6038 10.047 21.4026H28.5973Z" fill="black"/>
<g opacity="0.6">
<path opacity="0.6" d="M27.8644 21.4006C27.8644 26.4774 23.9205 30.6312 18.9644 30.8265C19.0866 30.8265 19.2087 30.8265 19.3309 30.8265C24.444 30.8265 28.5973 26.6017 28.5973 21.4006H27.8644Z" fill="white"/>
</g>
<g opacity="0.7">
<path opacity="0.7" d="M11.3558 21.4006H10.047C10.047 26.6017 14.2003 30.8265 19.3134 30.8265C19.5403 30.8265 19.7497 30.8265 19.9591 30.8088C15.1601 30.4538 11.3558 26.3709 11.3558 21.4006Z" fill="black"/>
</g>
<path d="M28.5798 21.4918C28.5798 20.409 26.73 19.7877 24.2695 19.5747C22.4895 19.4327 20.692 19.6102 18.6328 20.2492C16.8528 20.7818 15.2474 20.693 14.0782 20.551C11.478 20.2492 10.047 20.2137 10.047 21.4918C10.047 23.338 13.7466 25.6456 19.296 24.8468C22.1055 24.4385 23.554 23.6043 25.2118 23.0362C27.0093 22.4327 28.5798 22.4504 28.5798 21.4918Z" fill="black"/>
<path d="M22.3673 17.0171C23.2347 17.0171 23.9379 16.3018 23.9379 15.4195C23.9379 14.5371 23.2347 13.8218 22.3673 13.8218C21.4999 13.8218 20.7967 14.5371 20.7967 15.4195C20.7967 16.3018 21.4999 17.0171 22.3673 17.0171Z" fill="white"/>
<path d="M24.9326 18.2061C25.2989 18.2061 25.5958 17.9041 25.5958 17.5315C25.5958 17.159 25.2989 16.857 24.9326 16.857C24.5664 16.857 24.2695 17.159 24.2695 17.5315C24.2695 17.9041 24.5664 18.2061 24.9326 18.2061Z" fill="white"/>
<g opacity="0.6">
<path opacity="0.6" d="M27.3059 14.1404C27.2884 14.1404 27.271 14.1404 27.271 14.1404C27.1662 14.1227 27.0964 14.0162 27.1139 13.8919C27.271 13.0753 27.9341 12.2942 27.969 12.2587C28.0388 12.17 28.1784 12.17 28.2482 12.241C28.3355 12.312 28.3355 12.454 28.2657 12.525C28.2482 12.5428 27.6374 13.2706 27.4978 13.9806C27.4804 14.0872 27.3931 14.1404 27.3059 14.1404Z" fill="url(#paint1_linear_5_137)"/>
</g>
<path opacity="0.2" d="M18.6863 28.8935C18.9562 28.8935 19.1749 28.671 19.1749 28.3965C19.1749 28.122 18.9562 27.8994 18.6863 27.8994C18.4165 27.8994 18.1977 28.122 18.1977 28.3965C18.1977 28.671 18.4165 28.8935 18.6863 28.8935Z" fill="white"/>
<g opacity="0.4">
<path opacity="0.6" d="M18.4059 28.7149C18.214 28.5196 18.214 28.2001 18.4059 28.0049C18.4408 27.9694 18.4757 27.9516 18.5106 27.9161C18.4408 27.9339 18.3885 27.9694 18.3361 28.0226C18.1442 28.2179 18.1442 28.5374 18.3361 28.7327C18.4932 28.8924 18.7375 28.9279 18.9295 28.8214C18.7549 28.8924 18.5455 28.8569 18.4059 28.7149Z" fill="url(#paint2_linear_5_137)"/>
</g>
<path opacity="0.3" d="M18.8597 28.2542C18.9175 28.2542 18.9644 28.2066 18.9644 28.1477C18.9644 28.0889 18.9175 28.0412 18.8597 28.0412C18.8018 28.0412 18.755 28.0889 18.755 28.1477C18.755 28.2066 18.8018 28.2542 18.8597 28.2542Z" fill="white"/>
<path opacity="0.2" d="M21.2342 28.6451C21.504 28.6451 21.7228 28.4226 21.7228 28.148C21.7228 27.8735 21.504 27.651 21.2342 27.651C20.9643 27.651 20.7456 27.8735 20.7456 28.148C20.7456 28.4226 20.9643 28.6451 21.2342 28.6451Z" fill="white"/>
<g opacity="0.4">
<path opacity="0.6" d="M20.9538 28.468C20.7618 28.2728 20.7618 27.9532 20.9538 27.758C20.9887 27.7225 21.0236 27.7047 21.0585 27.6692C20.9887 27.687 20.9363 27.7225 20.884 27.7757C20.692 27.971 20.692 28.2905 20.884 28.4858C21.041 28.6456 21.2853 28.6811 21.4773 28.5745C21.3028 28.6456 21.0934 28.61 20.9538 28.468Z" fill="url(#paint3_linear_5_137)"/>
</g>
<path opacity="0.3" d="M21.4075 28.0059C21.4653 28.0059 21.5122 27.9582 21.5122 27.8994C21.5122 27.8405 21.4653 27.7928 21.4075 27.7928C21.3497 27.7928 21.3028 27.8405 21.3028 27.8994C21.3028 27.9582 21.3497 28.0059 21.4075 28.0059Z" fill="white"/>
<path opacity="0.2" d="M19.9765 29.7982C20.1789 29.7982 20.343 29.6313 20.343 29.4254C20.343 29.2195 20.1789 29.0526 19.9765 29.0526C19.7741 29.0526 19.6101 29.2195 19.6101 29.4254C19.6101 29.6313 19.7741 29.7982 19.9765 29.7982Z" fill="white"/>
<g opacity="0.4">
<path opacity="0.6" d="M19.7673 29.6562C19.6277 29.5141 19.6277 29.2656 19.7673 29.1236C19.7847 29.1059 19.8196 29.0881 19.8371 29.0704C19.7847 29.0881 19.7498 29.1236 19.7149 29.1591C19.5753 29.3011 19.5753 29.5496 19.7149 29.6917C19.8371 29.8159 20.0116 29.8337 20.1686 29.7449C20.029 29.7982 19.872 29.7627 19.7673 29.6562Z" fill="url(#paint4_linear_5_137)"/>
</g>
<path opacity="0.3" d="M20.0988 29.3013C20.1373 29.3013 20.1686 29.2695 20.1686 29.2302C20.1686 29.191 20.1373 29.1592 20.0988 29.1592C20.0602 29.1592 20.029 29.191 20.029 29.2302C20.029 29.2695 20.0602 29.3013 20.0988 29.3013Z" fill="white"/>
<path opacity="0.2" d="M22.2277 29.5322C22.4301 29.5322 22.5942 29.3653 22.5942 29.1594C22.5942 28.9535 22.4301 28.7866 22.2277 28.7866C22.0253 28.7866 21.8612 28.9535 21.8612 29.1594C21.8612 29.3653 22.0253 29.5322 22.2277 29.5322Z" fill="white"/>
<g opacity="0.4">
<path opacity="0.6" d="M22.0183 29.3917C21.8787 29.2497 21.8787 29.0012 22.0183 28.8592C22.0358 28.8414 22.0707 28.8237 22.0881 28.8059C22.0358 28.8237 22.0009 28.8592 21.966 28.8947C21.8264 29.0367 21.8264 29.2852 21.966 29.4272C22.0881 29.5515 22.2626 29.5692 22.4197 29.4805C22.2801 29.5337 22.123 29.4982 22.0183 29.3917Z" fill="url(#paint5_linear_5_137)"/>
</g>
<path opacity="0.3" d="M22.3499 29.0352C22.3885 29.0352 22.4197 29.0034 22.4197 28.9642C22.4197 28.925 22.3885 28.8932 22.3499 28.8932C22.3114 28.8932 22.2801 28.925 22.2801 28.9642C22.2801 29.0034 22.3114 29.0352 22.3499 29.0352Z" fill="white"/>
<path opacity="0.2" d="M16.6086 28.7158C17.0519 28.7158 17.4113 28.3502 17.4113 27.8992C17.4113 27.4483 17.0519 27.0827 16.6086 27.0827C16.1652 27.0827 15.8058 27.4483 15.8058 27.8992C15.8058 28.3502 16.1652 28.7158 16.6086 28.7158Z" fill="white"/>
<g opacity="0.4">
<path opacity="0.6" d="M16.1552 28.4141C15.8411 28.0946 15.8411 27.5798 16.1552 27.2603C16.2075 27.207 16.2599 27.1715 16.3297 27.136C16.225 27.1715 16.1377 27.2425 16.0505 27.3135C15.7364 27.6331 15.7364 28.1478 16.0505 28.4674C16.3122 28.7336 16.7136 28.7869 17.0277 28.5916C16.7311 28.7159 16.382 28.6626 16.1552 28.4141Z" fill="url(#paint6_linear_5_137)"/>
</g>
<path opacity="0.3" d="M16.8878 27.651C16.9842 27.651 17.0623 27.5715 17.0623 27.4734C17.0623 27.3754 16.9842 27.2959 16.8878 27.2959C16.7914 27.2959 16.7133 27.3754 16.7133 27.4734C16.7133 27.5715 16.7914 27.651 16.8878 27.651Z" fill="white"/>
<path opacity="0.2" d="M23.7813 26.7096C24.2247 26.7096 24.5841 26.344 24.5841 25.893C24.5841 25.442 24.2247 25.0764 23.7813 25.0764C23.338 25.0764 22.9786 25.442 22.9786 25.893C22.9786 26.344 23.338 26.7096 23.7813 26.7096Z" fill="white"/>
<g opacity="0.4">
<path opacity="0.6" d="M23.3097 26.4075C22.9956 26.088 22.9956 25.5732 23.3097 25.2537C23.3621 25.2004 23.4144 25.1649 23.4842 25.1294C23.3795 25.1649 23.2923 25.2359 23.205 25.3069C22.8909 25.6264 22.8909 26.1412 23.205 26.4607C23.4668 26.727 23.8681 26.7802 24.1823 26.585C23.8856 26.7092 23.554 26.656 23.3097 26.4075Z" fill="url(#paint7_linear_5_137)"/>
</g>
<path opacity="0.3" d="M24.0601 25.6447C24.1565 25.6447 24.2346 25.5653 24.2346 25.4672C24.2346 25.3692 24.1565 25.2897 24.0601 25.2897C23.9637 25.2897 23.8856 25.3692 23.8856 25.4672C23.8856 25.5653 23.9637 25.6447 24.0601 25.6447Z" fill="white"/>
</g>
<defs>
<linearGradient id="paint0_linear_5_137" x1="26.2057" y1="14.7516" x2="18.0135" y2="22.1409" gradientUnits="userSpaceOnUse">
<stop offset="0.2888" stop-color="white"/>
<stop offset="0.7796" stop-color="white" stop-opacity="0"/>
</linearGradient>
<linearGradient id="paint1_linear_5_137" x1="28.2765" y1="12.1723" x2="26.9128" y2="14.3509" gradientUnits="userSpaceOnUse">
<stop offset="0.2888" stop-color="white"/>
<stop offset="0.7796" stop-color="white" stop-opacity="0"/>
</linearGradient>
<linearGradient id="paint2_linear_5_137" x1="18.1917" y1="28.4106" x2="18.93" y2="28.4106" gradientUnits="userSpaceOnUse">
<stop offset="0.2888" stop-color="white"/>
<stop offset="0.7796" stop-color="white" stop-opacity="0"/>
</linearGradient>
<linearGradient id="paint3_linear_5_137" x1="20.7377" y1="28.1604" x2="21.4761" y2="28.1604" gradientUnits="userSpaceOnUse">
<stop offset="0.2888" stop-color="white"/>
<stop offset="0.7796" stop-color="white" stop-opacity="0"/>
</linearGradient>
<linearGradient id="paint4_linear_5_137" x1="19.6079" y1="29.4296" x2="20.1622" y2="29.4296" gradientUnits="userSpaceOnUse">
<stop offset="0.2888" stop-color="white"/>
<stop offset="0.7796" stop-color="white" stop-opacity="0"/>
</linearGradient>
<linearGradient id="paint5_linear_5_137" x1="21.8514" y1="29.1645" x2="22.4057" y2="29.1645" gradientUnits="userSpaceOnUse">
<stop offset="0.2888" stop-color="white"/>
<stop offset="0.7796" stop-color="white" stop-opacity="0"/>
</linearGradient>
<linearGradient id="paint6_linear_5_137" x1="15.8069" y1="27.9201" x2="17.0126" y2="27.9201" gradientUnits="userSpaceOnUse">
<stop offset="0.2888" stop-color="white"/>
<stop offset="0.7796" stop-color="white" stop-opacity="0"/>
</linearGradient>
<linearGradient id="paint7_linear_5_137" x1="22.9681" y1="25.9129" x2="24.1739" y2="25.9129" gradientUnits="userSpaceOnUse">
<stop offset="0.2888" stop-color="white"/>
<stop offset="0.7796" stop-color="white" stop-opacity="0"/>
</linearGradient>
</defs>
</svg>
