<svg width="100%" height="100%" viewBox="0 0 40 40" fill="none" xmlns="http://www.w3.org/2000/svg">
<circle cx="20" cy="20" r="20" fill="black"/>
<g clip-path="url(#clip0_6_314)">
<path d="M23.1279 9.7056V13.7243C23.1279 15.0232 22.0733 16.0782 20.7676 16.0782H20.7317C20.0789 16.071 19.4907 16.0782 19.4907 16.0782C19.3759 16.0782 19.254 16.0638 19.1463 16.0782C18.4146 16.1571 17.7761 16.4872 17.238 17.0757C17.2237 17.09 17.2094 17.1115 17.195 17.1259C16.7646 17.6856 16.5278 18.4033 16.5278 19.1855V19.2213C16.5278 19.7237 16.6283 20.1974 16.8148 20.6279C17.0013 21.0513 16.9081 21.5537 16.5494 21.8479C16.1978 22.1422 15.7817 22.4866 15.502 22.7091C14.6913 21.7833 14.2107 20.5776 14.2107 19.2573V19.2213C14.2107 16.3509 16.5063 13.9611 19.6269 13.9611C19.8206 13.9611 20.4592 13.9611 20.7533 13.9611V9.26785C20.5093 9.25349 20.2583 9.23914 20 9.23914C14.06 9.23914 9.23914 14.0616 9.23914 20.0036C9.23914 24.862 12.4531 28.9668 16.8722 30.3016V26.3188C16.8722 25.0055 17.9411 23.9362 19.254 23.9362H19.2611C19.9139 23.9434 20.5022 23.9362 20.5022 23.9362C20.6169 23.9362 20.739 23.9505 20.8466 23.9362C21.5783 23.8572 22.2167 23.5272 22.7548 22.9387C22.7691 22.9244 22.7835 22.9029 22.7978 22.8884C23.2283 22.3288 23.465 21.6039 23.465 20.8289V20.793C23.465 20.4055 23.3 19.8816 23.135 19.4582C22.9557 18.9917 23.0919 18.4464 23.4793 18.1234C23.8094 17.8435 24.1537 17.5708 24.4908 17.2981C25.3016 18.2238 25.7821 19.4295 25.7821 20.7499V20.7858C25.7821 23.6563 23.4865 26.046 20.3659 26.046C20.1722 26.046 19.5337 26.046 19.2395 26.046V30.7321C19.4907 30.7466 19.749 30.7609 20 30.7609C25.94 30.7609 30.7609 25.9384 30.7609 19.9965C30.7609 15.1452 27.5469 11.0476 23.1279 9.7056Z" fill="white"/>
</g>
</svg>
