<svg width="100%" height="100%" viewBox="0 0 40 40" fill="none" xmlns="http://www.w3.org/2000/svg">
<rect width="40" height="40" rx="20" fill="black"/>
<g clip-path="url(#clip0_5_188)">
<path d="M20.0005 33.7701C22.7197 33.7701 24.9241 32.4975 24.9241 30.9276C24.9241 29.3577 22.7197 28.085 20.0005 28.085C17.2813 28.085 15.077 29.3577 15.077 30.9276C15.077 32.4975 17.2813 33.7701 20.0005 33.7701Z" fill="white"/>
<path d="M31.8226 26.9945C33.1822 24.6569 33.1742 22.1256 31.8046 21.3406C30.4351 20.5557 28.2226 21.8144 26.863 24.1519C25.5034 26.4895 25.5115 29.0208 26.8811 29.8058C28.2506 30.5907 30.463 29.3321 31.8226 26.9945Z" fill="white"/>
<path d="M20.0005 12.3518C22.7197 12.3518 24.924 11.0791 24.924 9.50923C24.924 7.93933 22.7197 6.66667 20.0005 6.66667C17.2812 6.66667 15.0769 7.93933 15.0769 9.50923C15.0769 11.0791 17.2812 12.3518 20.0005 12.3518Z" fill="white"/>
<path d="M13.1391 16.2867C14.4988 13.9491 14.4899 11.4174 13.1194 10.6319C11.7489 9.84639 9.53572 11.1046 8.17609 13.4422C6.81647 15.7798 6.8253 18.3116 8.1958 19.0971C9.56631 19.8826 11.7795 18.6243 13.1391 16.2867Z" fill="white"/>
<path d="M13.1201 29.8052C14.4906 29.0197 14.4994 26.488 13.1398 24.1504C11.7802 21.8128 9.56698 20.5546 8.19649 21.34C6.82599 22.1255 6.81716 24.6573 8.17678 26.9949C9.53639 29.3325 11.7496 30.5907 13.1201 29.8052Z" fill="white"/>
<path d="M31.8059 19.0974C33.1755 18.3125 33.1836 15.7812 31.824 13.4436C30.4643 11.106 28.2519 9.84736 26.8823 10.6323C25.5127 11.4172 25.5046 13.9486 26.8643 16.2861C28.2239 18.6237 30.4363 19.8824 31.8059 19.0974Z" fill="white"/>
</g>
</svg>
