<svg width="100%" height="100%" viewBox="0 0 40 40" fill="none" xmlns="http://www.w3.org/2000/svg">
<circle cx="20" cy="20" r="20" fill="black"/>
<g clip-path="url(#clip0_5_183)">
<path d="M26.2331 15.9036C25.7953 15.6534 25.2324 15.6534 24.7321 15.9036L21.2296 17.9675L18.8529 19.281L15.4129 21.3449C14.9751 21.5951 14.4122 21.5951 13.9119 21.3449L11.2225 19.7188C10.7846 19.4686 10.4719 18.9682 10.4719 18.4053V15.2781C10.4719 14.7778 10.7221 14.2774 11.2225 13.9647L13.9119 12.4011C14.3497 12.1509 14.9126 12.1509 15.4129 12.4011L18.1023 14.0272C18.5402 14.2774 18.8529 14.7778 18.8529 15.3407V17.4046L21.2296 16.0287V13.9021C21.2296 13.4018 20.9794 12.9014 20.479 12.5887L15.4755 9.64912C15.0377 9.39894 14.4748 9.39894 13.9744 9.64912L8.84577 12.6513C8.34542 12.9014 8.09524 13.4018 8.09524 13.9021V19.7813C8.09524 20.2817 8.34542 20.782 8.84577 21.0947L13.9119 24.0343C14.3497 24.2845 14.9126 24.2845 15.4129 24.0343L18.8529 22.0329L21.2296 20.6569L24.6695 18.6555C25.1073 18.4053 25.6702 18.4053 26.1706 18.6555L28.86 20.2191C29.2978 20.4693 29.6105 20.9697 29.6105 21.5326V24.6598C29.6105 25.1601 29.3603 25.6605 28.86 25.9732L26.2331 27.5368C25.7953 27.787 25.2324 27.787 24.7321 27.5368L22.0426 25.9732C21.6048 25.723 21.2921 25.2227 21.2921 24.6598V22.6584L18.9154 24.0343V26.0983C18.9154 26.5987 19.1656 27.099 19.666 27.4117L24.7321 30.3513C25.1699 30.6015 25.7328 30.6015 26.2331 30.3513L31.2992 27.4117C31.737 27.1616 32.0497 26.6612 32.0497 26.0983V20.1566C32.0497 19.6562 31.7996 19.1559 31.2992 18.8432L26.2331 15.9036Z" fill="white"/>
</g>
</svg>
