<svg width="100%" height="100%" viewBox="0 0 40 40" fill="none" xmlns="http://www.w3.org/2000/svg">
<circle cx="20" cy="20" r="20" fill="black"/>
<g clip-path="url(#clip0_5_196)">
<path fill-rule="evenodd" clip-rule="evenodd" d="M10.375 9H29.625V19.4602C29.625 21.0164 29.2585 23.4646 27.9286 25.7425C26.5862 28.0413 24.279 30.1351 20 31C15.7214 30.1353 13.414 28.0416 12.0712 25.7428C10.7413 23.4644 10.375 21.0162 10.375 19.4597V9ZM28.9375 9.6875V19.4597C28.9375 22.3998 27.6366 28.7087 20 30.3125C12.3634 28.7087 11.0625 22.3998 11.0625 19.4597V9.6875H28.9375Z" fill="white"/>
<path d="M28.9375 9.6875H11.0625V19.4597C11.0625 22.3998 12.3634 28.7087 20 30.3469C27.6366 28.7087 28.9375 22.3998 28.9375 19.4597V9.6875Z" fill="black"/>
<path d="M26.7375 12.2345H13.2625V16.6715L22.4191 24.1899L21.563 24.8935L13.2625 18.0776V19.4842C13.2625 22.4244 14.8781 26.9125 20 27.7665C24.356 27.0405 26.1759 23.6855 26.6228 20.8894C26.6324 20.8292 17.5809 13.3715 17.5809 13.3715H19.2932L26.7375 19.4838L26.7375 12.2345Z" fill="white"/>
</g>
</svg>
