<svg width="100%" height="100%" viewBox="0 0 40 40" fill="none" xmlns="http://www.w3.org/2000/svg">
<circle cx="20" cy="20" r="20" fill="black"/>
<g clip-path="url(#clip0_5_202)">
<path d="M8 9V30.4359H27.8461V28.0332H10.3767V11.4027H27.8461V9H8Z" fill="white"/>
<path d="M29.8177 17.2378C29.8177 16.7285 29.6206 16.2856 29.2262 15.9092C28.832 15.5327 28.2844 15.3444 27.5724 15.3444C26.97 15.3444 26.499 15.4662 26.1486 15.7209C25.7981 15.9756 25.6229 16.3078 25.6229 16.7285C25.6229 16.9499 25.6667 17.1492 25.7542 17.3264C25.8419 17.5035 25.9843 17.6586 26.1923 17.8025C26.4005 17.9464 26.6743 18.0683 27.0248 18.1789C27.3643 18.2896 27.8024 18.3893 28.3281 18.489C29.6534 18.7326 30.661 19.1422 31.362 19.7069C32.063 20.2827 32.4134 21.1242 32.4134 22.2424V22.4639C32.4134 23.0618 32.3039 23.5933 32.0958 24.0805C31.8877 24.5566 31.5811 24.9663 31.1868 25.3095C30.7924 25.6527 30.3106 25.9074 29.741 26.0956C29.1715 26.2727 28.5362 26.3724 27.8243 26.3724C26.9919 26.3724 26.269 26.2506 25.6338 26.0181C24.9986 25.7856 24.4728 25.4534 24.0566 25.0326C23.6404 24.6119 23.3119 24.1247 23.1037 23.56C22.8847 22.9954 22.7752 22.3754 22.7752 21.711V21.6003H25.1519C25.1519 22.3642 25.3709 22.9733 25.809 23.4383C26.2472 23.8922 26.9262 24.1247 27.8572 24.1247C28.58 24.1247 29.1167 23.9697 29.4672 23.6486C29.8177 23.3275 29.9929 22.9511 29.9929 22.5193C29.9929 22.3089 29.9601 22.1207 29.8834 21.9214C29.8067 21.7331 29.6863 21.5671 29.5001 21.4121C29.3248 21.2571 29.0729 21.1242 28.7553 21.0024C28.4377 20.8805 28.0434 20.7809 27.5615 20.6924C26.9262 20.5817 26.3457 20.4377 25.809 20.2605C25.2833 20.0833 24.8233 19.8508 24.429 19.5629C24.0347 19.2751 23.739 18.9097 23.52 18.4668C23.3009 18.0239 23.1914 17.4925 23.1914 16.8613V16.7506C23.1914 16.2302 23.3009 15.743 23.509 15.3002C23.7171 14.8572 24.0128 14.4697 24.3961 14.1376C24.7794 13.8054 25.2286 13.5507 25.7652 13.3736C26.3019 13.1964 26.8933 13.0968 27.5615 13.0968C28.3062 13.0968 28.9634 13.2075 29.5439 13.4179C30.1244 13.6282 30.6063 13.9161 31.0005 14.2815C31.3948 14.6469 31.6577 15.0787 31.8877 15.5437C32.1725 16.1084 32.1834 17.2599 32.1834 17.2599L29.8177 17.2378Z" fill="white"/>
</g>
</svg>
