<svg width="100%" height="100%" viewBox="0 0 40 40" fill="none" xmlns="http://www.w3.org/2000/svg">
<circle cx="20" cy="20" r="20" fill="black"/>
<g clip-path="url(#clip0_5_208)">
<path d="M29.897 25.3199L26.5954 28.8077C26.5236 28.8834 26.4368 28.9438 26.3403 28.9851C26.2438 29.0264 26.1397 29.0477 26.0345 29.0476H10.3833C10.3086 29.0476 10.2356 29.0261 10.1731 28.9858C10.1107 28.9455 10.0615 28.888 10.0318 28.8206C10.002 28.7531 9.99289 28.6785 10.0056 28.606C10.0182 28.5335 10.0521 28.4663 10.1031 28.4125L13.4071 24.9248C13.4787 24.8492 13.5653 24.7889 13.6615 24.7477C13.7577 24.7064 13.8614 24.685 13.9664 24.6848H29.6167C29.6914 24.6848 29.7644 24.7063 29.8269 24.7466C29.8893 24.787 29.9384 24.8444 29.9683 24.9119C29.998 24.9793 30.0071 25.0539 29.9945 25.1264C29.9818 25.1989 29.9479 25.2662 29.897 25.3199ZM26.5954 18.2966C26.5236 18.2209 26.4368 18.1605 26.3403 18.1192C26.2438 18.0779 26.1397 18.0566 26.0345 18.0567H10.3833C10.3086 18.0567 10.2356 18.0782 10.1731 18.1185C10.1107 18.1589 10.0615 18.2163 10.0318 18.2837C10.002 18.3512 9.99289 18.4258 10.0056 18.4983C10.0182 18.5708 10.0521 18.638 10.1031 18.6918L13.4071 22.1796C13.4787 22.2551 13.5653 22.3154 13.6615 22.3567C13.7577 22.3979 13.8614 22.4193 13.9664 22.4195H29.6167C29.6914 22.4195 29.7644 22.398 29.8269 22.3577C29.8893 22.3173 29.9384 22.2599 29.9683 22.1924C29.998 22.125 30.0071 22.0504 29.9945 21.9779C29.9818 21.9054 29.9479 21.8382 29.897 21.7844L26.5954 18.2966ZM10.3833 15.7914H26.0345C26.1397 15.7914 26.2438 15.7702 26.3403 15.7289C26.4368 15.6876 26.5236 15.6272 26.5954 15.5514L29.897 12.0637C29.9479 12.0099 29.9818 11.9426 29.9945 11.8702C30.0071 11.7977 29.998 11.7231 29.9683 11.6556C29.9384 11.5882 29.8893 11.5307 29.8269 11.4904C29.7644 11.4501 29.6914 11.4286 29.6167 11.4286H13.9664C13.8614 11.4287 13.7577 11.4501 13.6615 11.4914C13.5653 11.5327 13.4787 11.593 13.4071 11.6685L10.1039 15.1563C10.053 15.21 10.0191 15.2772 10.0064 15.3496C9.99375 15.422 10.0028 15.4965 10.0324 15.5639C10.0621 15.6314 10.1111 15.6888 10.1734 15.7292C10.2357 15.7696 10.3087 15.7912 10.3833 15.7914Z" fill="white"/>
</g>

</svg>
