<svg width="100%" height="100%" viewBox="0 0 40 40" fill="none" xmlns="http://www.w3.org/2000/svg">
<circle cx="20" cy="20" r="20" fill="black"/>
<path fill-rule="evenodd" clip-rule="evenodd" d="M11.9112 16.288L12.3613 14.9313C12.4528 14.6553 12.6761 14.4406 12.9599 14.3559L14.3574 13.9366C14.5509 13.879 14.5525 13.6127 14.3605 13.5521L12.9694 13.1129C12.687 13.0236 12.4669 12.8059 12.3797 12.5289L11.9504 11.1654C11.8913 10.9772 11.6185 10.9752 11.5562 11.1629L11.106 12.5197C11.0146 12.7951 10.7913 13.0098 10.5074 13.0951L9.10994 13.5138C8.91651 13.5719 8.91442 13.8377 9.10681 13.8984L10.498 14.3375C10.7803 14.4268 11.0005 14.6451 11.0877 14.9221L11.517 16.2849C11.5761 16.4737 11.8489 16.4757 11.9112 16.288Z" fill="white"/>
<path opacity="0.5" fill-rule="evenodd" clip-rule="evenodd" d="M33.9999 15.4985C33.4238 14.87 32.5246 14.516 31.6505 14.371C30.7693 14.2316 29.8455 14.2445 28.9756 14.3952C27.2156 14.6858 25.6167 15.3967 24.2222 16.2738C23.4979 16.7043 22.8803 17.2024 22.2405 17.7096C21.9322 17.9662 21.6511 18.2394 21.3584 18.5087L20.5585 19.2851C19.6894 20.1715 18.8327 20.9787 18.0039 21.6479C17.1717 22.3139 16.3936 22.8197 15.6269 23.173C14.8606 23.5281 14.0407 23.7369 12.972 23.7703C11.9127 23.8068 10.6594 23.6203 9.31882 23.3124C7.97103 23.0059 6.55571 22.5689 4.97412 22.193C5.52597 23.6867 6.357 25.0066 7.42394 26.2132C8.50339 27.3988 9.8513 28.4795 11.5829 29.1902C13.2894 29.9167 15.434 30.1774 17.4393 29.7839C19.4499 29.4064 21.2143 28.4987 22.6405 27.449C24.0703 26.3885 25.2271 25.1805 26.2023 23.9246C26.4715 23.5777 26.6139 23.3835 26.8088 23.1123L27.3472 22.3341C27.7214 21.8527 28.0621 21.3047 28.4324 20.8278C29.1586 19.829 29.8745 18.8314 30.7065 17.9123C31.1253 17.4461 31.5666 17.0002 32.0879 16.5717C32.3479 16.3625 32.6288 16.1578 32.9399 15.9734C33.2557 15.7745 33.5893 15.6189 33.9999 15.4985Z" fill="white"/>
<path fill-rule="evenodd" clip-rule="evenodd" d="M34 15.4981C33.381 13.9744 32.2305 12.6918 30.6861 11.7454C29.1511 10.8094 27.019 10.3317 24.9064 10.7389C23.8628 10.9359 22.8516 11.315 21.9642 11.8199C21.0809 12.3228 20.2894 12.9281 19.6042 13.5776C19.2621 13.9033 18.9515 14.2432 18.6431 14.5851L17.8435 15.5795L16.6086 17.1804C15.0343 19.2401 13.339 21.654 10.557 22.3693C7.82575 23.0714 6.64117 22.4496 4.97424 22.1927C5.27903 22.9604 5.65659 23.7059 6.16842 24.3618C6.67072 25.031 7.26401 25.6596 8.00164 26.1982C8.37441 26.457 8.76797 26.7124 9.20507 26.929C9.64017 27.1383 10.1094 27.3224 10.6103 27.4611C11.6065 27.7275 12.7281 27.8208 13.814 27.6775C14.9006 27.5361 15.939 27.2002 16.8468 26.754C17.7612 26.3121 18.5578 25.7739 19.269 25.2059C20.683 24.0604 21.7828 22.7946 22.7118 21.5151C23.179 20.8755 23.6032 20.2237 23.9955 19.5717L24.4572 18.7957C24.5984 18.5687 24.7411 18.3405 24.8862 18.1279C25.4712 17.2737 26.0434 16.5888 26.7384 16.0747C27.4239 15.5473 28.3782 15.1577 29.6535 15.0672C30.9236 14.9757 32.3898 15.1448 34 15.4981Z" fill="white"/>
<path opacity="0.5" fill-rule="evenodd" clip-rule="evenodd" d="M27.1288 28.1577C27.1288 29.2768 28.0592 30.1845 29.2063 30.1845C30.3533 30.1845 31.2826 29.2768 31.2826 28.1577C31.2826 27.0386 30.3533 26.131 29.2063 26.131C28.0592 26.131 27.1288 27.0386 27.1288 28.1577Z" fill="white"/>
</svg>
