<svg width="100%" height="100%" viewBox="0 0 40 40" fill="none" xmlns="http://www.w3.org/2000/svg">
<circle cx="20" cy="20" r="20" fill="black"/>
<g clip-path="url(#clip0_5_212)">
<path d="M29.3301 11.872L26.1995 13.467L11.0822 21.167C11.031 20.7772 11.0053 20.3844 11.0052 19.9911C11.0072 18.4222 11.4191 16.881 12.2001 15.5203C12.9811 14.1595 14.104 13.0264 15.4576 12.2331C16.8113 11.4399 18.3487 11.014 19.9175 10.9978C21.4864 10.9815 23.0323 11.3754 24.4021 12.1404L26.194 11.2274L26.4613 11.091C24.8198 9.89962 22.8808 9.18525 20.8587 9.02689C18.8366 8.86852 16.8101 9.27233 15.0031 10.1937C13.1962 11.115 11.6791 12.518 10.6197 14.2477C9.56025 15.9773 8.99965 17.9661 8.99986 19.9944C8.99986 20.2746 9.01049 20.5536 9.03176 20.8315C9.06155 21.2251 8.97426 21.6187 8.78087 21.9628C8.58749 22.3069 8.29665 22.5861 7.94496 22.7653L7.00006 23.2471V25.4944L9.78196 24.0765L10.6829 23.6167L11.5706 23.1646L27.5074 15.0444L29.2982 14.1325L32.9997 12.246V9.99984L29.3301 11.872Z" fill="white"/>
<path d="M32.9997 14.4933L12.4759 24.9433L10.6851 25.8574L7.00006 27.7351V29.9802L10.6598 28.1157L13.7904 26.5207L28.9231 18.8097C28.9742 19.2022 28.9999 19.5975 29.0001 19.9933C28.9991 21.5641 28.5873 23.1072 27.8056 24.4697C27.0238 25.8321 25.8994 26.9663 24.5438 27.7598C23.1882 28.5533 21.6486 28.9785 20.0779 28.993C18.5072 29.0076 16.96 28.6111 15.59 27.8429L15.48 27.9012L13.5374 28.8912C15.1785 30.0827 17.117 30.7972 19.1388 30.956C21.1606 31.1147 23.1869 30.7115 24.9939 29.7907C26.8009 28.87 28.3181 27.4677 29.378 25.7387C30.4379 24.0097 30.9992 22.0213 30.9999 19.9933C30.9999 19.7106 30.9889 19.4279 30.968 19.1485C30.9382 18.7551 31.0254 18.3616 31.2186 18.0175C31.4117 17.6735 31.7023 17.3942 32.0537 17.2147L32.9997 16.7329V14.4933Z" fill="white"/>
</g>
</svg>
