<svg width="100%" height="100%" viewBox="0 0 40 40" fill="none" xmlns="http://www.w3.org/2000/svg">
<circle cx="20" cy="20" r="20" fill="black"/>
<path fill-rule="evenodd" clip-rule="evenodd" d="M10.7928 16.0456C11.3012 16.1129 11.8165 16.1508 12.3422 16.1508L12.3404 16.1491C16.4766 16.1491 20.1215 14.0155 22.2378 10.7928H29.2055V15.2839C28.4679 15.1409 27.6458 15.0582 26.7083 15.0582C22.8427 15.0582 20.9022 16.4541 19.0272 17.8052L19.026 17.8061C17.2961 19.0518 15.6624 20.2283 12.3508 20.2283C11.7855 20.2283 11.2685 20.1938 10.7928 20.1301V16.0456ZM10.7946 14.312C11.2995 14.3895 11.8165 14.4309 12.3439 14.4309C15.4581 14.4309 18.2465 13.016 20.1026 10.7963H10.7946V14.312ZM20.0349 19.2021C21.7647 17.9564 23.3985 16.7799 26.71 16.7799C27.6682 16.7799 28.4868 16.8781 29.2072 17.0487V29.2072H10.7946V21.8656C11.2789 21.9207 11.7941 21.9501 12.3525 21.9501C16.2198 21.9501 18.1586 20.5541 20.0336 19.203L20.0349 19.2021Z" fill="white"/>
</svg>
