<svg width="100%" height="100%" viewBox="0 0 40 40" fill="none" xmlns="http://www.w3.org/2000/svg">
<circle cx="20" cy="20" r="20" fill="black"/>
<path d="M19.3764 20.4707C19.447 20.2183 19.6578 20.0564 19.8466 20.11C20.0353 20.163 20.1313 20.411 20.0601 20.6635C19.9895 20.9159 19.7787 21.0779 19.5899 21.0242C19.4012 20.9712 19.3052 20.7232 19.3764 20.4707Z" fill="white"/>
<path d="M14.1931 20.1971C14.2461 19.9634 14.4321 19.8066 14.6087 19.8463C14.7853 19.8867 14.8852 20.1087 14.8322 20.3424C14.7792 20.5761 14.5932 20.733 14.4166 20.6933C14.24 20.6528 14.1401 20.4307 14.1931 20.1971Z" fill="white"/>
<path fill-rule="evenodd" clip-rule="evenodd" d="M12.9035 15.3135C12.5529 15.7231 12.191 16.1458 12.0046 16.6554L12.0051 16.656C11.6641 17.7547 11.8865 18.9407 12.2756 20.0085C12.4025 19.5881 12.5642 19.2158 12.7877 18.9318C14.1636 17.1841 16.7712 17.0979 18.7161 17.3338C20.3596 17.5326 22.2818 18.2115 23.9905 19.1953C25.6235 20.1361 26.8526 21.2408 27.278 22.1501C27.4956 22.6153 27.5099 23.0897 27.4923 23.5267C27.7213 23.2306 27.9359 22.9151 28.128 22.5942C28.6099 21.7794 28.9912 20.8712 29.038 19.9157C29.05 17.9104 27.9129 15.5006 27.053 13.678C27.0393 13.6489 27.0256 13.62 27.0121 13.5913C26.9738 13.5124 26.9356 13.4335 26.8974 13.3545C26.1908 11.8947 25.4819 10.4302 24.5991 9.06766C25.9945 11.0419 27.2399 13.1411 28.1826 15.3711C28.3461 14.9441 28.708 14.5872 29.0661 14.2381L29.0673 14.237C29.5875 13.7302 30.1247 13.2068 30.0807 12.4682C30.0277 11.5849 28.0932 9.54771 26.937 8.33021L26.9018 8.2932C25.5567 6.87629 24.1654 5.41134 23.4618 5.38868C22.0115 5.3423 19.1669 7.92268 17.8003 9.16237L17.8 9.16267C17.4321 9.49689 17.0664 9.82598 16.7343 10.1249C16.6881 10.1664 16.6427 10.2073 16.598 10.2476L16.5926 10.2524C15.684 11.0698 14.8267 11.841 14.7254 11.9948C14.5507 12.2607 14.4877 12.6008 14.4211 12.9609L14.4208 12.9626C14.3954 13.1013 14.3689 13.2405 14.3358 13.3775C14.3869 13.3293 14.4371 13.2821 14.4862 13.236C14.6354 13.0957 14.7744 12.9649 14.8981 12.8461C15.8214 12.002 16.7674 11.1795 17.7326 10.384C18.2499 9.97715 18.7712 9.5751 19.2926 9.17303C20.0311 8.60342 20.7698 8.03376 21.4971 7.45024C21.015 7.88105 20.5282 8.30684 20.0414 8.73266C19.331 9.35406 18.6206 9.97551 17.9247 10.6127C17.8781 10.653 17.8315 10.6932 17.7849 10.7334C16.7402 11.6356 15.6939 12.5392 14.6895 13.4863C14.1117 14.0326 13.5416 14.5917 13.0129 15.1855C12.9767 15.2281 12.9402 15.2707 12.9035 15.3135ZM9.5829 22.9549C9.37098 22.9373 9.25066 23.1113 9.19823 23.2163H9.19879C9.00396 23.604 9.05142 24.3166 9.61657 24.9647L9.61436 24.9663C9.99957 25.0342 10.3831 25.0674 10.7192 24.9248C11.1149 24.757 11.3611 24.2918 11.5366 23.694C10.9381 24.005 10.4841 23.6088 10.1348 23.3041L10.1342 23.3036L10.1312 23.3009C9.93473 23.1295 9.74981 22.9682 9.5829 22.9549ZM28.8102 28.9883C30.0513 28.917 31.042 28.4574 31.5563 27.7056H31.5574C31.8809 27.2328 32.0072 26.682 31.8947 26.2317C31.8345 25.9894 31.7058 25.8065 31.5337 25.7163C31.2006 25.5422 30.9437 25.6106 30.5557 25.714L30.5531 25.7147C30.0817 25.8408 29.4956 25.997 28.5264 25.797C27.0259 25.4872 27.0745 24.6111 27.1218 23.7642L27.1219 23.7624C27.1489 23.2786 27.1769 22.7776 26.9542 22.3019C26.1489 20.5797 22.1692 18.1132 18.6736 17.6895C16.8198 17.4647 14.3429 17.5365 13.0697 19.1534C12.5951 19.7555 12.4163 20.8852 12.2436 21.9777L12.2429 21.9821C12.008 23.463 11.7862 24.8616 10.86 25.2546C10.334 25.4777 9.75563 25.3624 9.24514 25.26C8.77604 25.1662 8.3704 25.0855 8.17448 25.2983C8.06742 25.4148 8.00615 25.8838 8.15185 26.3827C8.22415 26.6296 8.39137 27.0262 8.75507 27.2504C8.75507 26.9963 8.82571 26.7747 8.96809 26.5997C9.3362 26.1472 9.94052 26.2722 10.525 26.3936C11.036 26.4997 11.5642 26.6091 11.9853 26.3854C12.9621 25.8656 13.1089 24.479 13.11 24.4652C13.1194 24.3663 13.2077 24.294 13.3059 24.3039C13.4047 24.3134 13.477 24.4012 13.4671 24.5001C13.4605 24.5646 13.2982 26.0931 12.1536 26.7018C11.6188 26.9867 10.9997 26.8584 10.4537 26.7453L10.4521 26.745C9.92893 26.6361 9.47693 26.5429 9.24625 26.8263C9.06798 27.0454 9.06798 27.4039 9.24625 27.8348C9.62595 28.7519 10.7529 29.7749 11.9814 29.9008C14.3937 30.1483 16.4092 28.8197 16.8822 26.672C16.9026 26.5786 16.9931 26.518 17.0875 26.534C17.1818 26.55 17.247 26.6378 17.2354 26.7328C16.9037 29.4529 18.6443 30.7339 19.4082 31.1581C20.6803 31.8651 22.6594 31.5266 23.5794 30.7515C23.8834 30.4952 24.2062 30.077 24.0197 29.5412C23.9232 29.2639 23.7178 29.2141 23.3337 29.1428L23.3319 29.1425C22.8836 29.0593 22.3259 28.9558 21.8921 28.2673C21.2967 27.3223 21.544 26.4306 21.555 26.393C21.5821 26.2981 21.6819 26.2428 21.7769 26.2704C21.8718 26.2981 21.9264 26.3976 21.8994 26.4924L21.8994 26.4926C21.8942 26.5123 21.6925 27.2786 22.1951 28.0757C22.5456 28.632 22.9794 28.7121 23.3983 28.7894C23.7869 28.8613 24.188 28.9358 24.358 29.423C24.4204 29.602 24.4437 29.7815 24.4292 29.9578C24.9375 30.1418 25.4497 30.2301 25.9121 30.1985C27.3091 30.1029 28.2831 29.3152 28.6285 28.5768C28.8096 28.19 28.8112 27.8272 28.6334 27.5813C28.468 27.3526 28.1461 27.3918 27.6345 27.4752L27.6339 27.4753C27.1132 27.5604 26.4649 27.6663 25.9275 27.2791C24.7764 26.4494 25.6291 24.7651 25.6661 24.694C25.7118 24.606 25.8199 24.5719 25.9078 24.6171C25.9956 24.6624 26.0297 24.7713 25.9845 24.8591C25.9729 24.8812 25.2394 26.3411 26.1367 26.9875C26.5534 27.2874 27.0734 27.2029 27.5767 27.1205L27.5789 27.1202C28.0914 27.037 28.6206 26.9511 28.9239 27.3709C29.1804 27.7261 29.191 28.221 28.9531 28.7292C28.9128 28.8154 28.8648 28.9021 28.8102 28.9883ZM14.8326 19.2541C15.3797 19.3561 15.6855 20.1797 15.5154 21.0935C15.3454 22.0073 14.764 22.6655 14.2168 22.5635C13.6696 22.4616 13.3639 21.6381 13.534 20.7241C13.704 19.8103 14.2854 19.1521 14.8326 19.2541ZM21.518 21.3241C21.6009 20.3888 21.0294 19.5738 20.2415 19.5038C19.4537 19.4338 18.7478 20.1354 18.6649 21.0708C18.582 22.006 19.1534 22.8212 19.9413 22.891C20.7292 22.961 21.4351 22.2595 21.518 21.3241Z" fill="white"/>
</svg>
