<svg width="100%" height="100%" viewBox="0 0 40 40" fill="none" xmlns="http://www.w3.org/2000/svg">
<circle cx="20" cy="20" r="20" fill="black"/>
<path fill-rule="evenodd" clip-rule="evenodd" d="M26.1155 17.8365C27.1743 19.1668 27.8123 20.8569 27.8123 22.6895C27.8123 24.5221 27.1607 26.2597 26.068 27.6036L25.9729 27.719L25.9458 27.5696C25.9254 27.4475 25.8983 27.3185 25.8711 27.1895C25.3281 24.7936 23.5498 22.737 20.6177 21.0673C18.6426 19.9474 17.5091 18.5967 17.2104 17.0628C17.0204 16.0718 17.1629 15.0741 17.4344 14.2188C17.7127 13.3636 18.1199 12.651 18.4661 12.2234L19.6064 10.8319C19.8032 10.5876 20.1833 10.5876 20.3801 10.8319L26.1155 17.8365ZM27.9141 16.4451L20.2851 7.11925C20.1426 6.94277 19.8643 6.94277 19.7218 7.11925L12.086 16.4451L12.0588 16.479C10.6606 18.2234 9.81897 20.4361 9.81897 22.8456C9.81897 28.4588 14.3801 33.0131 20 33.0131C25.62 33.0131 30.1811 28.4588 30.1811 22.8456C30.1811 20.4361 29.3395 18.2234 27.9345 16.479L27.9141 16.4451ZM13.9118 17.8094L14.5905 16.9745L14.6109 17.1306C14.6244 17.2528 14.6448 17.375 14.6719 17.4972C15.1131 19.8116 16.6946 21.7461 19.3281 23.2393C21.6222 24.5425 22.9526 26.0425 23.3394 27.6918C23.5023 28.3773 23.5295 29.0561 23.4616 29.6466L23.4548 29.6805L23.4209 29.6941C22.3892 30.1963 21.2218 30.4814 19.9933 30.4814C15.6833 30.4814 12.1878 26.9927 12.1878 22.6895C12.1878 20.8433 12.8326 19.1397 13.9118 17.8094Z" fill="white"/>
</svg>
