<svg width="100%" height="100%" viewBox="0 0 40 40" fill="none" xmlns="http://www.w3.org/2000/svg">
<circle cx="20" cy="20" r="20" fill="black"/>
<g clip-path="url(#clip0_5_219)">
<path d="M27.7171 25.2027C27.4892 21.1694 22.4153 19.336 21.9297 19.1477C21.9099 19.1378 21.9099 19.118 21.9198 19.0982L27.1523 13.8459V13.2811C27.1493 13.1889 27.0759 13.1156 26.9838 13.1126H17.3414V9.95135V9L13.7838 9.74324V10.2784H13.982C13.982 10.2784 14.8541 10.2784 14.8541 11.1505V13.1027H12.0991C12.0456 13.1067 12.004 13.1483 12 13.2018V14.4405H14.864V21.1694C14.864 23.2802 16.2216 24.7468 18.6 24.5486C19.0895 24.5001 19.5603 24.3296 19.9676 24.0532C20.1469 23.9382 20.255 23.741 20.255 23.5279V22.864C19.482 23.3793 18.8279 23.3495 18.8279 23.3495C17.3216 23.3495 17.3514 21.4369 17.3514 21.4369V14.4405H24.2883L19.2937 19.4748C19.2838 20.1387 19.2739 20.6541 19.2739 20.664C19.2719 20.6788 19.2828 20.6917 19.2977 20.6937C19.2996 20.6937 19.3016 20.6937 19.3036 20.6937C23.882 21.4667 25.1207 24.4297 25.1207 25.2919C25.1207 25.2919 25.6162 29.4838 21.4243 29.7712C21.4243 29.7712 18.6793 29.8901 18.1937 28.7901C18.1759 28.7544 18.1917 28.7108 18.2274 28.694C18.2294 28.693 18.2314 28.692 18.2333 28.691C18.7001 28.4958 19.0023 28.0379 18.9964 27.5315C18.9964 26.7189 18.5009 26.055 17.4604 26.055C16.618 26.055 15.9243 26.7189 15.9243 27.5315C15.9243 27.5315 15.5279 31.0595 21.4144 30.9604C28.1333 30.8414 27.7171 25.2027 27.7171 25.2027Z" fill="white"/>
</g>
</svg>
