<svg width="100%" height="100%" viewBox="0 0 40 40" fill="none" xmlns="http://www.w3.org/2000/svg">
<circle cx="20" cy="20" r="20" fill="black"/>
<path d="M27.5643 9.73698H12.4348C9.65307 9.73698 7.88992 12.7377 9.28943 15.1635L18.6268 31.3477C19.2361 32.4044 20.7631 32.4044 21.3724 31.3477L30.7116 15.1635C32.1092 12.7415 30.3461 9.73698 27.5662 9.73698H27.5643ZM18.6192 26.4943L16.5857 22.5587L11.679 13.783C11.3553 13.2213 11.7551 12.5016 12.4329 12.5016H18.6173V26.4962L18.6192 26.4943ZM28.3163 13.7811L23.4116 22.5606L21.3781 26.4943V12.4997H27.5624C28.2402 12.4997 28.64 13.2194 28.3163 13.7811Z" fill="white"/>
</svg>
