<svg width="100%" height="100%" viewBox="0 0 40 40" fill="none" xmlns="http://www.w3.org/2000/svg">
<circle cx="20" cy="20" r="20" fill="black"/>
<g clip-path="url(#clip0_5_223)">
<path d="M30.1578 15.6275C29.1266 14.6753 27.7 13.2213 26.5381 12.19L26.4694 12.1419C26.355 12.05 26.226 11.978 26.0878 11.9288V11.9288C23.2862 11.4063 10.2478 8.96906 9.99343 9C9.92215 9.00998 9.85402 9.03583 9.79406 9.07563L9.72874 9.12719C9.64832 9.20886 9.58724 9.30754 9.54999 9.41594L9.53281 9.46063V9.70469V9.7425C11.0006 13.8297 16.7962 27.2188 17.9375 30.3606C18.0062 30.5738 18.1369 30.9794 18.3809 31H18.4359C18.5666 31 19.1234 30.2644 19.1234 30.2644C19.1234 30.2644 29.0784 18.1919 30.0856 16.9063C30.216 16.7479 30.3311 16.5775 30.4294 16.3975C30.4545 16.2566 30.4426 16.1117 30.395 15.9767C30.3474 15.8418 30.2657 15.7215 30.1578 15.6275V15.6275ZM21.6775 17.0334L25.9262 13.51L28.4184 15.8063L21.6775 17.0334ZM20.0275 16.8031L12.7125 10.8081L24.5478 12.9909L20.0275 16.8031ZM20.6875 18.3741L28.1744 17.1675L19.615 27.48L20.6875 18.3741ZM11.7191 11.4063L19.4156 17.9375L18.3019 27.4869L11.7191 11.4063Z" fill="white"/>
</g>
</svg>
