<svg width="100%" height="100%" viewBox="0 0 40 40" fill="none" xmlns="http://www.w3.org/2000/svg">
<circle cx="20" cy="20" r="20" fill="black"/>
<path fill-rule="evenodd" clip-rule="evenodd" d="M12.865 16.9363C12.865 12.9958 16.0594 9.80139 20 9.80139C23.9405 9.80139 27.1349 12.9958 27.1349 16.9363C27.1349 20.8769 23.9405 24.0713 20 24.0713C16.0594 24.0713 12.865 20.8769 12.865 16.9363ZM20 7.5659C14.8248 7.5659 10.6295 11.7612 10.6295 16.9363C10.6295 22.1115 14.8248 26.3068 20 26.3068C25.1751 26.3068 29.3704 22.1115 29.3704 16.9363C29.3704 11.7612 25.1751 7.5659 20 7.5659ZM19.9999 32.4341C24.0177 32.4341 27.2748 31.6306 27.2748 30.6394C27.2748 29.6481 24.0177 28.8446 19.9999 28.8446C15.9821 28.8446 12.725 29.6481 12.725 30.6394C12.725 31.6306 15.9821 32.4341 19.9999 32.4341Z" fill="white"/>
</svg>
