<svg width="160" height="120" viewBox="0 0 160 120" fill="none" xmlns="http://www.w3.org/2000/svg">
    <g class="star">
        <path
            d="M100.001 80.0019C88.9557 80.0019 80.0014 88.9562 80.0014 100.002C80.0014 88.9562 71.0471 80.0019 60.0015 80.0019C71.0471 80.0019 80.0014 71.0476 80.0014 60.002C80.0014 71.0476 88.9557 80.0019 100.001 80.0019Z"
            fill="#da3d2f" />
    </g>
    <g>
        <path opacity="0.2" d="M118 10.0054C112.477 10.0054 108 14.4825 108 20.0054V10.0054H118Z" fill="#F8FAF6" />
        <path opacity="0.2" d="M98 10.0054C103.523 10.0054 108 14.4825 108 20.0054V10.0054H98Z" fill="#F8FAF6" />
        <path opacity="0.2" d="M98 10.0054C103.523 10.0054 108 5.52822 108 0.00538158L108 10.0054L98 10.0054Z"
            fill="#F8FAF6" />
        <path opacity="0.2" d="M118 10.0054C112.477 10.0054 108 5.52822 108 0.00538158L108 10.0054L118 10.0054Z"
            fill="#F8FAF6" />
    </g>
    <g>
        <path opacity="0.1" d="M160 75C157.239 75 155 77.2386 155 80V75H160Z" fill="#F8FAF6" />
        <path opacity="0.1" d="M150 75C152.762 75 155 77.2386 155 80V75H150Z" fill="#F8FAF6" />
        <path opacity="0.1" d="M150 75C152.762 75 155 72.7614 155 70L155 75L150 75Z" fill="#F8FAF6" />
        <path opacity="0.1" d="M160 75C157.239 75 155 72.7614 155 70L155 75L160 75Z" fill="#F8FAF6" />
    </g>
    <g>
        <path opacity="0.1" d="M160 65.0054C157.239 65.0054 155 67.2439 155 70.0054V65.0054H160Z" fill="#F8FAF6" />
        <path opacity="0.1" d="M150 65.0054C152.762 65.0054 155 67.2439 155 70.0054V65.0054H150Z" fill="#F8FAF6" />
        <path opacity="0.1" d="M150 65.0054C152.762 65.0054 155 62.7668 155 60.0054L155 65.0054L150 65.0054Z"
            fill="#F8FAF6" />
        <path opacity="0.1" d="M160 65.0054C157.239 65.0054 155 62.7668 155 60.0054L155 65.0054L160 65.0054Z"
            fill="#F8FAF6" />
    </g>
    <g>
        <path opacity="0.1" d="M160 55.0034C157.239 55.0034 155 57.242 155 60.0034V55.0034H160Z" fill="#F8FAF6" />
        <path opacity="0.1" d="M150 55.0034C152.761 55.0034 155 57.242 155 60.0034V55.0034H150Z" fill="#F8FAF6" />
        <path opacity="0.1" d="M150 55.0034C152.761 55.0034 155 52.7648 155 50.0034L155 55.0034L150 55.0034Z"
            fill="#F8FAF6" />
        <path opacity="0.1" d="M160 55.0034C157.239 55.0034 155 52.7648 155 50.0034L155 55.0034L160 55.0034Z"
            fill="#F8FAF6" />
    </g>
    <g>
        <rect opacity="0.05" width="20" height="20" transform="matrix(4.37114e-08 -1 -1 -4.37114e-08 40.0002 20)"
            fill="#F8FAF6" />
        <rect opacity="0.05" width="20" height="20" transform="matrix(4.37114e-08 -1 -1 -4.37114e-08 59.9993 20)"
            fill="#F8FAF6" />
        <path opacity="0.05"
            d="M80.0002 20.0015L60.0002 20.0015L60.0003 0.00146397C71.0459 0.00146445 80.0002 8.95577 80.0002 20.0015Z"
            fill="#F8FAF6" />
        <path opacity="0.05"
            d="M-8.74228e-07 5.72205e-06L20 6.75517e-06L20 20C8.9543 20 -3.91405e-07 11.0457 -8.74228e-07 5.72205e-06Z"
            fill="#F8FAF6" />
    </g>
    <g>
        <rect opacity="0.1" width="20" height="20" transform="matrix(4.37114e-08 -1 -1 -4.37114e-08 59.9966 120)"
            fill="#F8FAF6" />
        <path opacity="0.1" d="M79.9966 100L59.9966 100L59.9966 120C71.0423 120 79.9966 111.046 79.9966 100Z"
            fill="#F8FAF6" />
        <path opacity="0.1" d="M19.9976 100L39.9976 100L39.9976 120C28.9519 120 19.9976 111.046 19.9976 100Z"
            fill="#F8FAF6" />
    </g>
    <g class="keep">
        <g class="keep-grouped">
            <path opacity="0.5" d="M90 40.001L130 40.001L130 80.001C107.909 80.001 90 62.0924 90 40.001Z"
                fill="#F8FAF6" />
        </g>
    </g>
    <g>
        <rect opacity="0.2" width="20" height="20" transform="matrix(4.37114e-08 -1 -1 -4.37114e-08 20.0022 70.0044)"
            fill="#F8FAF6" />
        <path opacity="0.2" d="M20 30.0024L20 50.0024L0 50.0024C0 38.9567 8.9543 30.0024 20 30.0024Z" fill="#F8FAF6" />
        <path opacity="0.2"
            d="M8.74228e-07 70.002L20 70.002L20 90.002C8.9543 90.002 3.91405e-07 81.0477 8.74228e-07 70.002Z"
            fill="#F8FAF6" />
    </g>
    <g>
        <path opacity="0.4"
            d="M80.0007 50.0024L60.0007 50.0024L60.0007 30.0024C71.0464 30.0024 80.0007 38.9567 80.0007 50.0024Z"
            fill="#F8FAF6" />
        <path opacity="0.4" d="M60 30.0024L60 50.0024L40 50.0024C40 38.9567 48.9543 30.0024 60 30.0024Z"
            fill="#F8FAF6" />
    </g>
    <g class="keep">
        <g class="keep-grouped">
            <circle opacity="0.1" cx="140" cy="30" r="9.99999" fill="#F8FAF6" />
        </g>
    </g>
    <g>
        <path opacity="0.1"
            d="M70.0015 60.0049L60.0015 60.0049L60.0015 50.0049C65.5243 50.0049 70.0015 54.482 70.0015 60.0049Z"
            fill="#F8FAF6" />
        <path opacity="0.1"
            d="M59.9993 50.0049L59.9993 60.0049L49.9993 60.0049C49.9993 54.482 54.4764 50.0049 59.9993 50.0049Z"
            fill="#F8FAF6" />
    </g>
</svg>