<?xml version="1.0" encoding="UTF-8"?>
<!-- Generated by Pixelmator Pro 3.6.17 -->
<svg width="143" height="35" viewBox="0 0 143 35" xmlns="http://www.w3.org/2000/svg">
    <g id="Rounded-Rectangle">
        <path id="path1" fill="#1f1f1f" fill-rule="evenodd" stroke="none" d="M 0.190591 16.158785 C 0.190591 18.174427 1.824592 19.80843 3.840235 19.80843 L 91.159767 19.80843 C 93.175407 19.80843 94.80941 18.174427 94.80941 16.158785 L 94.80941 3.841215 C 94.80941 1.825573 93.175407 0.191572 91.159767 0.191572 L 3.840235 0.191572 C 1.824592 0.191572 0.190591 1.825573 0.190591 3.841215 Z"/>
        <path id="path2" fill="#e84326" fill-rule="evenodd" stroke="none" d="M -0.00049 16.158785 C -0.00049 18.279959 1.719062 19.99951 3.840235 19.99951 L 91.159767 19.99951 C 93.280937 19.99951 95.000488 18.279957 95.000488 16.158785 L 95.000488 3.841215 C 95.000488 1.720043 93.280937 0.000491 91.159767 0.000491 L 3.840235 0.000491 C 1.719061 0.000491 -0.00049 1.720042 -0.00049 3.841215 L -0.00049 16.158785 Z M 3.840235 19.80843 C 1.824592 19.80843 0.190591 18.174427 0.190591 16.158785 L 0.190591 3.841215 C 0.190591 1.825573 1.824592 0.191572 3.840235 0.191572 L 91.159767 0.191572 C 93.175407 0.191572 94.80941 1.825573 94.80941 3.841215 L 94.80941 16.158785 C 94.80941 18.174427 93.175407 19.80843 91.159767 19.80843 L 3.840235 19.80843 Z"/>
    </g>
    <g id="surface1">
        <path id="Path" fill="#1f1f1f" stroke="#e84326" stroke-width="0.105094" d="M 21.574883 10 C 21.574883 4.75223 17.342501 0.498085 12.121577 0.498085 C 6.900654 0.498085 2.668272 4.75223 2.668272 10 C 2.668272 15.24777 6.900654 19.501915 12.121577 19.501915 C 17.342501 19.501915 21.574883 15.24777 21.574883 10 Z M 21.574883 10"/>
        <path id="path3" fill="#1f1f1f" fill-rule="evenodd" stroke="#e84326" stroke-width="0.105094" d="M 68.374458 38.276352 C 68.374458 38.381882 68.460014 38.46743 68.565544 38.46743 L 75.864189 38.46743 C 75.969719 38.46743 76.055275 38.381882 76.055275 38.276352 L 76.055275 30.938206 C 76.055275 30.832676 75.969719 30.747128 75.864189 30.747128 L 68.565544 30.747128 C 68.460014 30.747128 68.374458 30.832676 68.374458 30.938206 Z"/>
        <path id="path4" fill="#e84326" stroke="none" d="M 13.646303 10 C 13.646303 9.153571 12.963675 8.467433 12.121577 8.467433 C 11.279478 8.467433 10.59685 9.153571 10.59685 10 C 10.59685 10.846429 11.279478 11.532567 12.121577 11.532567 C 12.963675 11.532567 13.646303 10.846429 13.646303 10 Z M 13.646303 10"/>
        <path id="path5" fill="#e84326" stroke="none" d="M 9.453305 7.701149 C 9.453305 7.066346 8.941316 6.551724 8.30976 6.551724 C 7.678205 6.551724 7.166215 7.066346 7.166215 7.701149 C 7.166215 8.335953 7.678205 8.850574 8.30976 8.850574 C 8.941316 8.850574 9.453305 8.335953 9.453305 7.701149 Z M 9.453305 7.701149"/>
        <path id="path6" fill="#e84326" stroke="none" d="M 17.076939 7.701149 C 17.076939 7.066346 16.564949 6.551724 15.933393 6.551724 C 15.301838 6.551724 14.789848 7.066346 14.789848 7.701149 C 14.789848 8.335953 15.301838 8.850574 15.933393 8.850574 C 16.564949 8.850574 17.076939 8.335953 17.076939 7.701149 Z M 17.076939 7.701149"/>
        <path id="path7" fill="#e84326" stroke="none" d="M 9.453305 12.298851 C 9.453305 11.664047 8.941316 11.149426 8.30976 11.149426 C 7.678205 11.149426 7.166215 11.664047 7.166215 12.298851 C 7.166215 12.933654 7.678205 13.448277 8.30976 13.448277 C 8.941316 13.448277 9.453305 12.933654 9.453305 12.298851 Z M 9.453305 12.298851"/>
        <path id="path8" fill="#e84326" stroke="none" d="M 17.076939 12.298851 C 17.076939 11.664047 16.564949 11.149426 15.933393 11.149426 C 15.301838 11.149426 14.789848 11.664047 14.789848 12.298851 C 14.789848 12.933654 15.301838 13.448277 15.933393 13.448277 C 16.564949 13.448277 17.076939 12.933654 17.076939 12.298851 Z M 17.076939 12.298851"/>
        <path id="path9" fill="#e84326" stroke="#e84326" stroke-width="0.105094" d="M 12.121577 10 L 8.30976 7.701149"/>
        <path id="path10" fill="#e84326" stroke="#e84326" stroke-width="0.105094" d="M 12.121577 10 L 15.933393 7.701149"/>
        <path id="path11" fill="#e84326" stroke="#e84326" stroke-width="0.105094" d="M 12.121577 10 L 8.30976 12.298851"/>
        <path id="path12" fill="#e84326" stroke="#e84326" stroke-width="0.105094" d="M 12.121577 10 L 15.933393 12.298851"/>
    </g>
    <text id="NodeXeus-Technologies" xml:space="preserve" x="23" y="12" font-family="Arial Narrow" font-size="7.93941" fill="#e84326">NodeXeus Technologies</text>
</svg>
