<svg width="100%" height="100%" viewBox="0 0 64 64" fill="none" xmlns="http://www.w3.org/2000/svg">
<path d="M34.286 48V42.5H28.8574V48H34.286Z" fill="#4A4A49"/>
<path d="M23.4286 26V20.5H18V26H23.4286Z" fill="#4A4A49"/>
<path d="M23.4286 31.5V26H18V31.5H23.4286Z" fill="#4A4A49"/>
<path d="M23.4286 37V31.5H18V37H23.4286Z" fill="#4A4A49"/>
<path d="M34.286 31.5V26H28.8574V31.5H34.286Z" fill="#4A4A49"/>
<path d="M39.7138 31.5V26H34.2852V31.5H39.7138Z" fill="#4A4A49"/>
<path d="M45.1434 37V31.5H39.7148V37H45.1434Z" fill="#4A4A49"/>
<path d="M23.4286 15V20.5H18C18 17.4624 20.4305 15 23.4286 15Z" fill="#4A4A49"/>
<path d="M56.0009 34.1406C53.0028 34.1406 50.5723 36.603 50.5723 39.6406V34.1406H56.0009Z" fill="#4A4A49"/>
<path d="M45.1426 34.1406C48.1407 34.1406 50.5711 36.603 50.5711 39.6406V34.1406H45.1426Z" fill="#4A4A49"/>
<path d="M45.1426 34.1406C48.1407 34.1406 50.5711 31.6782 50.5711 28.6406V34.1406H45.1426Z" fill="#4A4A49"/>
<path d="M56.0009 34.1406C53.0028 34.1406 50.5723 31.6782 50.5723 28.6406V34.1406H56.0009Z" fill="#4A4A49"/>
<path d="M45.1434 31.5H39.7148V26C42.7129 26 45.1434 28.4624 45.1434 31.5Z" fill="#4A4A49"/>
<path d="M23.4277 26H28.8562V31.5C25.8581 31.5 23.4277 29.0376 23.4277 26Z" fill="#4A4A49"/>
<path d="M39.7148 42.5V37H45.1434C45.1434 40.0376 42.7129 42.5 39.7148 42.5Z" fill="#4A4A49"/>
<path d="M39.7138 42.5H34.2852V48C37.2833 48 39.7138 45.5376 39.7138 42.5Z" fill="#4A4A49"/>
<path d="M23.4277 42.5H28.8562V48C25.8581 48 23.4277 45.5376 23.4277 42.5Z" fill="#4A4A49"/>
<path d="M18 37H23.4286V42.5C20.4305 42.5 18 40.0376 18 37Z" fill="#4A4A49"/>
<path d="M56 10H37C34.2386 10 32 12.2386 32 15C32 17.7614 34.2386 20 37 20H56C58.7614 20 61 17.7614 61 15C61 12.2386 58.7614 10 56 10Z" fill="#e84326"/>
<path d="M37.3516 17.0002H39.8536C40.8376 17.0002 41.3476 16.5202 41.3476 15.7822C41.3476 15.2122 41.0116 14.8822 40.6396 14.7502C40.9456 14.6362 41.2396 14.3362 41.2396 13.8982C41.2396 13.1962 40.7476 12.7402 39.8116 12.7402H37.3516V17.0002ZM39.6496 13.5622C40.0096 13.5622 40.2016 13.6882 40.2016 13.9822C40.2016 14.2702 40.0036 14.4022 39.6496 14.4022H38.3536V13.5622H39.6496ZM39.6736 15.2242C40.0996 15.2242 40.3096 15.3802 40.3096 15.6982C40.3096 16.0162 40.0996 16.1782 39.6736 16.1782H38.3536V15.2242H39.6736Z" fill="#232524"/>
<path d="M42.4746 17.0002H46.2726V16.1182H43.4946V15.2062H45.0126V14.3482H43.4946V13.5802H46.0386V12.7402H42.4746V17.0002Z" fill="#232524"/>
<path d="M46.9395 13.6282H48.5535V17.0002H49.5675V13.6282H51.1815V12.7402H46.9395V13.6282Z" fill="#232524"/>
<path d="M54.981 17.0004H56.061L54.201 12.7344H53.157L51.291 17.0004H52.317L52.635 16.2624H54.663L54.981 17.0004ZM53.001 15.4104L53.649 13.9044L54.297 15.4104H53.001Z" fill="#232524"/>
</svg>
