<svg width="167" height="32" viewBox="0 0 167 32" fill="none" xmlns="http://www.w3.org/2000/svg">
<path d="M37.3397 26.6667H46.6805C50.3541 26.6667 52.2581 24.8747 52.2581 22.1195C52.2581 19.9915 51.0037 18.7595 49.6149 18.2667C50.7573 17.8411 51.8549 16.7211 51.8549 15.0859C51.8549 12.4651 50.0181 10.7627 46.5237 10.7627H37.3397V26.6667ZM45.9189 13.8315C47.2629 13.8315 47.9797 14.3019 47.9797 15.3995C47.9797 16.4747 47.2405 16.9675 45.9189 16.9675H41.0805V13.8315H45.9189ZM46.0085 20.0363C47.5989 20.0363 48.3829 20.6187 48.3829 21.8059C48.3829 22.9931 47.5989 23.5979 46.0085 23.5979H41.0805V20.0363H46.0085Z" fill="#212423"/>
<path d="M67.4165 23.3067H58.0309V10.7627H54.2229V26.6667H67.4165V23.3067Z" fill="#212423"/>
<path d="M75.9892 26.9355C80.738 26.9355 84.4116 23.5531 84.4116 18.7147C84.4116 13.8091 80.738 10.4939 75.9892 10.4939C71.218 10.4939 67.5444 13.8091 67.5444 18.7147C67.5444 23.5531 71.218 26.9355 75.9892 26.9355ZM75.9892 23.5307C73.2116 23.5307 71.4196 21.4251 71.4196 18.7147C71.4196 16.0267 73.2116 13.8987 75.9892 13.8987C78.7892 13.8987 80.5364 16.0491 80.5364 18.7147C80.5364 21.4027 78.7892 23.5307 75.9892 23.5307Z" fill="#212423"/>
<path d="M93.7842 26.9355C99.1378 26.9355 101.019 23.1499 101.311 21.5595H97.4578C97.0994 22.1643 96.1362 23.5083 93.7842 23.5083C91.141 23.5083 89.5282 21.3355 89.5282 18.7147C89.5282 16.0939 91.141 13.9211 93.7842 13.9211C95.9794 13.9211 97.077 15.2651 97.4354 15.8699H101.311C100.952 14.0555 98.9362 10.4939 93.7842 10.4939C89.013 10.4939 85.6306 13.9659 85.6306 18.7147C85.6306 23.4635 89.013 26.9355 93.7842 26.9355Z" fill="#212423"/>
<path d="M114.344 26.6667H119.541L111.096 18.4235L119.183 10.7627H114.232L106.952 17.6395V10.7627H103.144V26.6667H106.952V19.5211L114.344 26.6667Z" fill="#212423"/>
<path d="M130.952 10.7627H127.144V21.0219C127.144 22.4779 126.382 23.5531 124.859 23.5531C123.313 23.5531 122.574 22.4779 122.574 21.0219V17.1019H118.968V21.3579C118.968 24.7851 120.961 26.9803 124.859 26.9803C128.734 26.9803 130.952 24.7851 130.952 21.3579V10.7627Z" fill="#212423"/>
<path d="M141.312 26.9355C146.061 26.9355 149.735 23.5531 149.735 18.7147C149.735 13.8091 146.061 10.4939 141.312 10.4939C136.541 10.4939 132.868 13.8091 132.868 18.7147C132.868 23.5531 136.541 26.9355 141.312 26.9355ZM141.312 23.5307C138.535 23.5307 136.743 21.4251 136.743 18.7147C136.743 16.0267 138.535 13.8987 141.312 13.8987C144.112 13.8987 145.86 16.0491 145.86 18.7147C145.86 21.4027 144.112 23.5307 141.312 23.5307Z" fill="#212423"/>
<path d="M159.652 19.9915L166.394 10.7627H162.116L157.77 16.5419L153.447 10.7627H148.609L155.665 19.9691V26.6667H159.652V19.9915Z" fill="#212423"/>
<path d="M5.33333 0C2.38781 0 2.33127e-07 2.38781 2.33127e-07 5.33333L0 21.3333C-1.28753e-07 24.2789 2.38782 26.6667 5.33333 26.6667V10.6688C5.33333 10.6681 5.33333 10.6674 5.33333 10.6667L5.33333 0Z" fill="#212423"/>
<path d="M21.3333 16V21.3333V26.6667C24.2789 26.6667 26.6667 24.2789 26.6667 21.3333V18.6667V16C26.6667 13.0545 24.2789 10.6667 21.3333 10.6667H10.6667H5.33333L5.33333 10.6688C5.33447 13.6133 7.72185 16 10.6667 16H21.3333Z" fill="#212423"/>
<path d="M10.6667 32H16C18.9455 32 21.3333 29.6122 21.3333 26.6667H16H10.6667H5.33333C5.33333 29.6122 7.72115 32 10.6667 32Z" fill="#212423"/>
<path d="M37.3333 18.56C34.3878 18.56 32 20.9478 32 23.8933C32 20.9478 29.6122 18.56 26.6667 18.56C29.6122 18.56 32 16.1722 32 13.2267C32 16.1722 34.3878 18.56 37.3333 18.56Z" fill="#212423"/>
</svg>
