
<svg width="143" height="20" viewBox="0 0 143 20" fill="none" xmlns="http://www.w3.org/2000/svg">
<path d="M28.0048 15.9694H35.0104C37.7656 15.9694 39.1936 14.6254 39.1936 12.559C39.1936 10.963 38.2528 10.039 37.2112 9.66944C38.068 9.35024 38.8912 8.51024 38.8912 7.28384C38.8912 5.31824 37.5136 4.04144 34.8928 4.04144H28.0048V15.9694ZM34.4392 6.34304C35.4472 6.34304 35.9848 6.69584 35.9848 7.51904C35.9848 8.32544 35.4304 8.69504 34.4392 8.69504H30.8104V6.34304H34.4392ZM34.5064 10.9966C35.6992 10.9966 36.2872 11.4334 36.2872 12.3238C36.2872 13.2142 35.6992 13.6678 34.5064 13.6678H30.8104V10.9966H34.5064Z" fill="#e84326"/>
<path d="M50.5624 13.4494H43.5232V4.04144H40.6672V15.9694H50.5624V13.4494Z" fill="#e84326"/>
<path d="M56.9919 16.171C60.5535 16.171 63.3087 13.6342 63.3087 10.0054C63.3087 6.32624 60.5535 3.83984 56.9919 3.83984C53.4135 3.83984 50.6583 6.32624 50.6583 10.0054C50.6583 13.6342 53.4135 16.171 56.9919 16.171ZM56.9919 13.6174C54.9087 13.6174 53.5647 12.0382 53.5647 10.0054C53.5647 7.98944 54.9087 6.39344 56.9919 6.39344C59.0919 6.39344 60.4023 8.00624 60.4023 10.0054C60.4023 12.0214 59.0919 13.6174 56.9919 13.6174Z" fill="#e84326"/>
<path d="M70.3382 16.171C74.3534 16.171 75.7646 13.3318 75.983 12.139H73.0934C72.8246 12.5926 72.1022 13.6006 70.3382 13.6006C68.3558 13.6006 67.1462 11.971 67.1462 10.0054C67.1462 8.03984 68.3558 6.41024 70.3382 6.41024C71.9846 6.41024 72.8078 7.41824 73.0766 7.87184H75.983C75.7142 6.51104 74.2022 3.83984 70.3382 3.83984C66.7598 3.83984 64.223 6.44384 64.223 10.0054C64.223 13.567 66.7598 16.171 70.3382 16.171Z" fill="#e84326"/>
<path d="M85.7581 15.9694H89.6557L83.3221 9.78704L89.3869 4.04144H85.6741L80.2141 9.19904V4.04144H77.3581V15.9694H80.2141V10.6102L85.7581 15.9694Z" fill="#e84326"/>
<path d="M101.779 4.04144H100.637L95.9496 14.575L91.2456 4.04144H90.0024L95.412 16.0198H96.4368L101.779 4.04144Z" fill="#a3a3a3"/>
<path d="M103.629 15.9694H104.721V4.04144H103.629V15.9694Z" fill="#a3a3a3"/>
<path d="M111.379 4.86464C113.966 4.86464 115.058 6.09104 115.461 6.84704H116.604C116.234 5.62064 114.84 3.83984 111.379 3.83984C108.758 3.83984 106.977 5.04944 106.977 6.99824C106.977 8.96384 108.54 9.93824 110.64 10.1566C111.48 10.2406 112.085 10.291 112.992 10.4254C114.857 10.6438 115.781 11.2822 115.781 12.7606C115.781 14.2222 114.319 15.1462 112.169 15.1462C109.346 15.1462 108.153 13.735 107.75 12.7942H106.557C107.061 14.2894 108.573 16.1878 112.169 16.1878C115.193 16.1878 116.889 14.7094 116.889 12.7102C116.889 10.4758 115.243 9.60224 113.093 9.33344L110.757 9.06464C108.977 8.84624 108.086 8.15744 108.086 6.99824C108.086 5.65424 109.313 4.86464 111.379 4.86464Z" fill="#a3a3a3"/>
<path d="M124.477 16.171C127.955 16.171 130.559 13.4494 130.559 10.0054C130.559 6.56144 127.955 3.83984 124.477 3.83984C120.983 3.83984 118.396 6.56144 118.396 10.0054C118.396 13.4494 120.983 16.171 124.477 16.171ZM124.477 15.1294C121.521 15.1294 119.538 12.8278 119.538 10.0054C119.538 7.23344 121.504 4.88144 124.477 4.88144C127.451 4.88144 129.417 7.25024 129.417 10.0054C129.417 12.7774 127.434 15.1294 124.477 15.1294Z" fill="#a3a3a3"/>
<path d="M132.415 15.9694H133.524V10.3918H138.514L141.622 15.9694H142.798L139.69 10.291C141.42 9.97184 142.344 8.84624 142.344 7.25024C142.344 5.23424 141.05 4.04144 138.614 4.04144H132.415V15.9694ZM138.581 5.06624C140.328 5.06624 141.202 5.88944 141.202 7.25024C141.202 8.57744 140.328 9.36704 138.581 9.36704H133.524V5.06624H138.581Z" fill="#a3a3a3"/>
<rect width="4" height="4" transform="matrix(-1.31134e-07 -1 -1 1.31134e-07 12 20)" fill="#e84326"/>
<rect width="4" height="4" transform="matrix(-1.31134e-07 -1 -1 1.31134e-07 12 4)" fill="#e84326"/>
<rect width="4" height="4" transform="matrix(4.37114e-08 1 1 -4.37114e-08 16 8)" fill="#e84326"/>
<rect width="4" height="4" transform="matrix(4.37114e-08 1 1 -4.37114e-08 0 8)" fill="#e84326"/>
<path d="M16 16L16 12L20 12C20 14.2091 18.2091 16 16 16Z" fill="#e84326"/>
<path d="M28 10.082C25.7909 10.082 24 11.8729 24 14.082V10.082H28Z" fill="#e84326"/>
<path d="M20 10.082C22.2091 10.082 24 11.8729 24 14.082V10.082H20Z" fill="#e84326"/>
<path d="M20 10.082C22.2091 10.082 24 8.29117 24 6.08203L24 10.082L20 10.082Z" fill="#e84326"/>
<path d="M28 10.082C25.7909 10.082 24 8.29117 24 6.08203L24 10.082L28 10.082Z" fill="#e84326"/>
<path d="M-1.74846e-07 12L4 12L4 16C1.79086 16 -7.8281e-08 14.2091 -1.74846e-07 12Z" fill="#e84326"/>
<path d="M4 4L4 8L0 8C0 5.79086 1.79086 4 4 4Z" fill="#e84326"/>
<path d="M16 4L12 4L12 1.74846e-07C14.2091 7.8281e-08 16 1.79086 16 4Z" fill="#e84326"/>
<path d="M16 20L12 20L12 16C14.2091 16 16 17.7909 16 20Z" fill="#e84326"/>
<path d="M4 16L8 16L8 20C5.79086 20 4 18.2091 4 16Z" fill="#e84326"/>
<path d="M4 2.38419e-07L8 -4.76995e-08L8 4C5.79086 4 4 2.20914 4 2.38419e-07Z" fill="#e84326"/>
<path d="M20 8L16 8L16 4C18.2091 4 20 5.79086 20 8Z" fill="#e84326"/>
</svg>
