<svg width="100%" height="100%" viewBox="0 0 25 24" fill="none" xmlns="http://www.w3.org/2000/svg">
<path d="M20.7004 6.5969L15.1693 1.0507C14.8765 0.7489 14.526 0.50896 14.1388 0.34511C13.7515 0.18126 13.3353 0.0968304 12.9148 0.0968304C12.4942 0.0968304 12.078 0.18126 11.6907 0.34511C11.3035 0.50896 10.953 0.7489 10.6602 1.0507L5.11404 6.5969L12.8847 10.4747L20.7004 6.5969ZM22.8227 8.8364L23.9199 9.9336C24.2236 10.2253 24.4652 10.5754 24.6303 10.9628C24.7953 11.3503 24.8804 11.767 24.8804 12.1881C24.8804 12.6093 24.7953 13.026 24.6303 13.4134C24.4652 13.8009 24.2236 14.1509 23.9199 14.4427L15.0811 23.3687C14.8716 23.583 14.6278 23.7608 14.3597 23.8947V13.0749L22.8227 8.8364ZM2.8896 8.8364L1.79239 9.9336C1.4887 10.2253 1.24708 10.5754 1.08204 10.9628C0.916989 11.3503 0.831909 11.767 0.831909 12.1881C0.831909 12.6093 0.916989 13.026 1.08204 13.4134C1.24708 13.8009 1.4887 14.1509 1.79239 14.4427L10.6322 23.3687C10.8426 23.5831 11.0861 23.7615 11.3536 23.8947V13.0749L2.8896 8.8364Z" fill="black"/>
</svg>
