<svg width="100%" height="100%" viewBox="0 0 12 12" fill="none" xmlns="http://www.w3.org/2000/svg">
<path d="M1.4291 5.53681C0.63983 4.94694 0.63983 3.99056 1.4291 3.40069L4.5709 1.0526C5.36017 0.462729 6.63983 0.462728 7.4291 1.0526L10.5709 3.40069C11.3602 3.99056 11.3602 4.94694 10.5709 5.53681L7.4291 7.8849C6.63983 8.47477 5.36017 8.47477 4.5709 7.8849L1.4291 5.53681Z" fill="#212423"/>
<path fill-rule="evenodd" clip-rule="evenodd" d="M1.26258 6.98459C0.643121 7.57723 0.698226 8.4358 1.42789 8.98113L4.56969 11.3292C5.35896 11.9191 6.63862 11.9191 7.42789 11.3292L10.5697 8.98113C11.2994 8.43573 11.3545 7.57702 10.7348 6.98438L7.59852 9.32831C6.71487 9.98872 5.28219 9.98873 4.39854 9.32831L1.26258 6.98459Z" fill="#212423"/>
</svg>
