<svg width="100%" height="100%" viewBox="0 0 16 16" fill="none" xmlns="http://www.w3.org/2000/svg">
  <path fill-rule="evenodd" clip-rule="evenodd"
    d="M1.33333 0H14.6667C15.0203 0 15.3594 0.140476 15.6095 0.390524C15.8595 0.640573 16 0.979711 16 1.33333V5.33333C16 5.68695 15.8595 6.02609 15.6095 6.27614C15.3594 6.52619 15.0203 6.66667 14.6667 6.66667H1.33333C0.979711 6.66667 0.640573 6.52619 0.390524 6.27614C0.140476 6.02609 0 5.68695 0 5.33333V1.33333C0 0.979711 0.140476 0.640573 0.390524 0.390524C0.640573 0.140476 0.979711 0 1.33333 0ZM2.66667 4H6.66667V2.66667H2.66667V4ZM1.33333 9.33333H14.6667C15.0203 9.33333 15.3594 9.47381 15.6095 9.72386C15.8595 9.97391 16 10.313 16 10.6667V14.6667C16 15.0203 15.8595 15.3594 15.6095 15.6095C15.3594 15.8595 15.0203 16 14.6667 16H1.33333C0.979711 16 0.640573 15.8595 0.390524 15.6095C0.140476 15.3594 0 15.0203 0 14.6667V10.6667C0 10.313 0.140476 9.97391 0.390524 9.72386C0.640573 9.47381 0.979711 9.33333 1.33333 9.33333ZM2.66667 13.3333H6.66667V12H2.66667V13.3333Z"
    fill="#BFF589" />
</svg>