<svg width="100%" height="100%" viewBox="0 0 16 16" fill="none" xmlns="http://www.w3.org/2000/svg">
<g>
<path fill-rule="evenodd" clip-rule="evenodd" d="M2.00456 0.805481H13.9955C14.3135 0.805481 14.6184 0.931813 14.8433 1.15669C15.0682 1.38156 15.1945 1.68655 15.1945 2.00456V5.60182C15.1945 5.91984 15.0682 6.22483 14.8433 6.44971C14.6184 6.67458 14.3135 6.80092 13.9955 6.80092H2.00456C1.68655 6.80092 1.38156 6.67458 1.15669 6.44971C0.931813 6.22483 0.805481 5.91984 0.805481 5.60182V2.00456C0.805481 1.68655 0.931813 1.38156 1.15669 1.15669C1.38156 0.931813 1.68655 0.805481 2.00456 0.805481ZM3.20366 4.40274H6.80092V3.20366H3.20366V4.40274ZM2.00456 9.19908H13.9955C14.3135 9.19908 14.6184 9.32542 14.8433 9.55029C15.0682 9.77517 15.1945 10.0801 15.1945 10.3982V13.9955C15.1945 14.3135 15.0682 14.6184 14.8433 14.8433C14.6184 15.0682 14.3135 15.1945 13.9955 15.1945H2.00456C1.68655 15.1945 1.38156 15.0682 1.15669 14.8433C0.931813 14.6184 0.805481 14.3135 0.805481 13.9955V10.3982C0.805481 10.0801 0.931813 9.77517 1.15669 9.55029C1.38156 9.32542 1.68655 9.19908 2.00456 9.19908ZM3.20366 12.7963H6.80092V11.5973H3.20366V12.7963Z" fill="#212423"/>
</g>
</svg>
