<svg width="100%" height="100%" viewBox="0 0 12 13" fill="none" xmlns="http://www.w3.org/2000/svg">
<path fill-rule="evenodd" clip-rule="evenodd" d="M8.01551 12.288C10.2161 12.288 12 10.5041 12 8.3035C12 6.10292 10.2161 4.319 8.01551 4.319C5.81493 4.319 4.03101 6.10292 4.03101 8.3035C4.03101 10.5041 5.81493 12.288 8.01551 12.288ZM8.49128 10.5164C9.26863 10.3706 9.69081 9.88237 9.69081 9.24194C9.69081 8.48738 9.30214 8.08791 8.53149 7.87866L7.93508 7.72014C7.62012 7.62503 7.46599 7.50455 7.46599 7.25726C7.46599 7.00363 7.67373 6.84511 8.00209 6.84511C8.33045 6.84511 8.51139 7.04802 8.53149 7.30165V7.30799H9.57019V7.30165C9.55009 6.67391 9.21502 6.19834 8.49128 6.0525V5.28526H7.54641V6.04616C6.84277 6.192 6.39379 6.62952 6.39379 7.28897C6.39379 8.04352 6.78916 8.41763 7.54641 8.63956L8.14282 8.79808C8.44438 8.88051 8.60521 9.02001 8.60521 9.27365C8.60521 9.53362 8.41087 9.71116 8.01549 9.71116C7.64022 9.71116 7.39228 9.50826 7.39228 9.15951V9.14683H6.34018V9.17219C6.34018 9.86334 6.76906 10.3643 7.54641 10.5101V11.3217H8.49128V10.5164Z" fill="#212423"/>
<path fill-rule="evenodd" clip-rule="evenodd" d="M6.21711 0.287998H0.565192C0.415293 0.287998 0.271535 0.347545 0.165541 0.453539C0.0595468 0.559533 0 0.703292 0 0.85319V2.54876C0 2.69866 0.0595468 2.84242 0.165541 2.94842C0.271535 3.05441 0.415293 3.11396 0.565192 3.11396H6.21711C6.36701 3.11396 6.51076 3.05441 6.61676 2.94842C6.72275 2.84242 6.7823 2.69866 6.7823 2.54876V0.85319C6.7823 0.703292 6.72275 0.559533 6.61676 0.453539C6.51076 0.347545 6.36701 0.287998 6.21711 0.287998ZM2.82596 1.98357H1.13038V1.41838H2.82596V1.98357ZM4.8212 4.24434H0.565192C0.415293 4.24434 0.271535 4.30389 0.165541 4.40988C0.0595468 4.51587 0 4.65963 0 4.80953V6.50511C0 6.655 0.0595468 6.79876 0.165541 6.90476C0.271535 7.01075 0.415293 7.0703 0.565192 7.0703H3.10952C3.30124 5.92097 3.93092 4.91986 4.8212 4.24434ZM2.82596 5.93991H1.13038V5.37472H2.82596V5.93991Z" fill="#212423"/>
</svg>
