<svg width="100%" height="100%" viewBox="0 0 12 12" fill="none" xmlns="http://www.w3.org/2000/svg">
<path d="M5.98282 2.46403C6.00541 2.57461 6.00599 2.68855 5.98453 2.79935C5.96308 2.91015 5.92 3.01564 5.85776 3.10979C5.79553 3.20394 5.71536 3.28491 5.62182 3.34806C5.52829 3.41122 5.42323 3.45533 5.31265 3.47788C4.64673 3.61392 4.03611 3.94435 3.55797 4.4274C3.07984 4.91045 2.75567 5.52443 2.62646 6.1917C2.49724 6.85898 2.56877 7.54958 2.83202 8.1762C3.09527 8.80282 3.5384 9.33732 4.10539 9.71211C4.67238 10.0869 5.33778 10.2852 6.01744 10.2818C6.6971 10.2785 7.36051 10.0737 7.92378 9.69333C8.48706 9.31298 8.92492 8.77415 9.18199 8.14497C9.43906 7.5158 9.5038 6.82452 9.36803 6.15855C9.32245 5.93512 9.3675 5.70274 9.49326 5.51253C9.61902 5.32232 9.8152 5.18985 10.0386 5.14428C10.2621 5.0987 10.4944 5.14375 10.6846 5.26951C10.8749 5.39528 11.0073 5.59145 11.0529 5.81488C11.1211 6.15431 11.1554 6.49969 11.1551 6.84591C11.1549 7.82129 10.878 8.7766 10.3566 9.60089C9.83511 10.4252 9.09051 11.0846 8.20923 11.5026C7.32795 11.9206 6.34617 12.08 5.37791 11.9623C4.40966 11.8446 3.49466 11.4546 2.73919 10.8377C1.98373 10.2207 1.41879 9.40208 1.11001 8.47687C0.80122 7.55165 0.761251 6.55782 0.994743 5.61079C1.22823 4.66377 1.7256 3.80241 2.42909 3.12678C3.13257 2.45114 4.01329 1.98894 4.96897 1.79386C5.07955 1.77127 5.19349 1.77069 5.30429 1.79215C5.41509 1.8136 5.52058 1.85668 5.61473 1.91891C5.70888 1.98115 5.78984 2.06132 5.853 2.15486C5.91616 2.24839 5.96027 2.35345 5.98282 2.46403Z" fill="#212423"/>
<path d="M8.54947 3.00322C8.73689 2.84351 8.73689 2.55402 8.54947 2.39432L5.9188 0.152573C5.65911 -0.0687292 5.25936 0.115825 5.25936 0.457024L5.25936 4.94051C5.25936 5.28171 5.6591 5.46627 5.9188 5.24496L8.54947 3.00322Z" fill="#212423"/>
</svg>
