<svg width="100%" height="100%" viewBox="0 0 12 12" fill="none" xmlns="http://www.w3.org/2000/svg"><path d="M7.21973 0.0435969L4.46819 1.80853C4.29269 1.9211 4.29269 2.17838 4.46819 2.29095L7.21973 4.05586C7.41028 4.17807 7.69232 4.02497 7.66103 3.81464L7.53442 2.96389H9.9284V9.15028H9.10739C8.63399 9.15028 8.25023 9.53405 8.25023 10.0074C8.25023 10.4808 8.63399 10.8645 9.10739 10.8645H10.7856C11.2589 10.8645 11.6427 10.4808 11.6427 10.0074V2.10675C11.6427 1.63339 11.2589 1.24962 10.7856 1.24962H7.52805L7.66103 0.284816C7.69021 0.0728469 7.40992 -0.0783953 7.21973 0.0435969ZM7.5318 9.7092C7.7073 9.82177 7.7073 10.0791 7.5318 10.1916L4.78026 11.9565C4.58971 12.0787 4.30767 11.9256 4.33896 11.7153L4.46557 10.8646H1.21446C0.741089 10.8646 0.3573 10.4808 0.3573 10.0074V2.10675C0.3573 1.63339 0.741065 1.24962 1.21446 1.24962H2.73096C3.20435 1.24962 3.58809 1.63339 3.58809 2.10675C3.58809 2.58014 3.20432 2.96391 2.73096 2.96391H2.07159V9.15031H4.47194L4.33896 8.1855C4.30978 7.97353 4.59007 7.82229 4.78026 7.94428L7.5318 9.7092Z" fill="currentColor"/></svg>