<svg width="100%" height="100%" viewBox="0 0 512 512"><path d="m308.042 1.86-117.399 75.304c-7.488 4.803-7.488 15.78 0 20.583l117.399 75.303c8.13 5.214 20.164-1.318 18.829-10.292l-5.402-36.299h102.143v263.953h-35.03c-20.198 0-36.572 16.374-36.572 36.571s16.374 36.571 36.572 36.571h71.602c20.197 0 36.572-16.374 36.572-36.571v-337.095c0-20.197-16.374-36.571-36.572-36.571h-138.987l5.674-41.165c1.245-9.044-10.714-15.497-18.829-10.292zm13.315 412.399c7.488 4.803 7.488 15.781 0 20.583l-117.399 75.303c-8.13 5.214-20.164-1.318-18.829-10.291l5.402-36.299h-138.714c-20.197 0-36.572-16.374-36.572-36.571v-337.096c0-20.197 16.374-36.571 36.572-36.571h64.704c20.198 0 36.571 16.374 36.571 36.571 0 20.198-16.374 36.572-36.571 36.572h-28.133v263.953h102.415l-5.674-41.165c-1.245-9.044 10.714-15.497 18.829-10.292z" /></svg>