<svg width="100%" height="100%" viewBox="0 0 12 13" fill="none" xmlns="http://www.w3.org/2000/svg">
<path fill-rule="evenodd" clip-rule="evenodd" d="M8.01551 12.288C10.2161 12.288 12 10.5041 12 8.3035C12 6.10292 10.2161 4.319 8.01551 4.319C5.81493 4.319 4.03101 6.10292 4.03101 8.3035C4.03101 10.5041 5.81493 12.288 8.01551 12.288ZM8.49128 10.5164C9.26863 10.3706 9.69081 9.88237 9.69081 9.24194C9.69081 8.48738 9.30214 8.08791 8.53149 7.87866L7.93508 7.72014C7.62012 7.62503 7.46599 7.50455 7.46599 7.25726C7.46599 7.00363 7.67373 6.84511 8.00209 6.84511C8.33045 6.84511 8.51139 7.04802 8.53149 7.30165V7.30799H9.57019V7.30165C9.55009 6.67391 9.21502 6.19834 8.49128 6.0525V5.28526H7.54641V6.04616C6.84277 6.192 6.39379 6.62952 6.39379 7.28897C6.39379 8.04352 6.78916 8.41763 7.54641 8.63956L8.14282 8.79808C8.44438 8.88051 8.60521 9.02001 8.60521 9.27365C8.60521 9.53362 8.41087 9.71116 8.01549 9.71116C7.64022 9.71116 7.39228 9.50826 7.39228 9.15951V9.14683H6.34018V9.17219C6.34018 9.86334 6.76906 10.3643 7.54641 10.5101V11.3217H8.49128V10.5164Z" fill="#212423"/>
<path fill-rule="evenodd" clip-rule="evenodd" d="M4.75679 4.63646C5.03438 4.39911 5.3421 4.19597 5.67342 4.03358L5.6158 3.7431C5.86562 3.62893 6.07739 3.44543 6.22596 3.21441C6.37452 2.98339 6.45362 2.71457 6.45385 2.4399V1.78304C6.45965 1.40272 6.31823 1.03487 6.05915 0.756368C5.80008 0.47787 5.44339 0.310277 5.06364 0.288614C4.81488 0.281323 4.56851 0.338886 4.34874 0.455645C4.12897 0.572405 3.94336 0.744342 3.81016 0.954557C4.12526 1.31755 4.29995 1.78139 4.30256 2.26206C4.27412 2.67287 4.37151 3.08259 4.58175 3.43667C4.63301 3.51877 4.66711 3.6104 4.68201 3.70603C4.69691 3.80167 4.69229 3.89933 4.66844 3.99313C4.64458 4.08694 4.60199 4.17494 4.54322 4.25184C4.48445 4.32874 4.41071 4.39295 4.32647 4.4406L4.39196 4.45972C4.52357 4.49776 4.64679 4.55779 4.75679 4.63646ZM4.40077 4.97728C4.35639 4.95364 4.30941 4.93459 4.26051 4.92062L3.22932 4.62613C3.19174 4.61542 3.15736 4.59565 3.12919 4.56857C3.10102 4.54148 3.07992 4.5079 3.06774 4.47076L2.98647 4.22121C3.36299 4.24607 3.73999 4.1805 4.08601 4.02999C4.11545 4.01473 4.14139 3.99352 4.16219 3.9677C4.18299 3.94188 4.19818 3.91201 4.20682 3.88C4.21545 3.84799 4.21733 3.81453 4.21233 3.78175C4.20734 3.74897 4.19558 3.71759 4.1778 3.68961C3.91997 3.26032 3.79689 2.76354 3.82451 2.26354C3.83005 1.8852 3.69033 1.51913 3.43412 1.24069C3.17791 0.962246 2.82471 0.792619 2.44721 0.766724C2.25414 0.75906 2.06151 0.790488 1.88088 0.859124C1.70026 0.927759 1.53536 1.03219 1.3961 1.16613C1.25684 1.30008 1.14608 1.46079 1.07048 1.63861C0.99487 1.81643 0.955976 2.00769 0.956128 2.20092C0.992822 2.72152 0.870092 3.24096 0.604273 3.69009C0.586595 3.71809 0.574927 3.74945 0.57001 3.7822C0.565093 3.81495 0.567033 3.84836 0.575708 3.88031C0.584382 3.91227 0.599602 3.94208 0.620403 3.96784C0.641203 3.99361 0.66713 4.01477 0.696539 4.02999C1.04256 4.1805 1.41957 4.24607 1.79609 4.22121L1.71482 4.47076C1.70263 4.5079 1.68154 4.54148 1.65337 4.56857C1.62519 4.59565 1.59081 4.61542 1.55323 4.62613L0.522046 4.92062C0.371869 4.96307 0.239639 5.05335 0.145423 5.17776C0.0512077 5.30218 0.000150451 5.45393 0 5.60999V6.74252C0 6.80592 0.0251837 6.86672 0.0700108 6.91155C0.114838 6.95637 0.175637 6.98156 0.239032 6.98156H3.33605C3.51008 6.21787 3.88437 5.53039 4.40077 4.97728Z" fill="#212423"/>
</svg>
