<svg width="100%" height="100%" viewBox="0 0 12 12" fill="none" xmlns="http://www.w3.org/2000/svg">
<path d="M6.14212 5.52047L2.80879 2.18714C2.68305 2.0657 2.51465 1.99851 2.33986 2.00003C2.16506 2.00154 1.99785 2.07166 1.87424 2.19526C1.75064 2.31887 1.68053 2.48608 1.67901 2.66087C1.67749 2.83567 1.74468 3.00407 1.86612 3.12981L4.72812 5.99181L1.86612 8.85381C1.80245 8.91531 1.75166 8.98887 1.71672 9.07021C1.68178 9.15154 1.66339 9.23902 1.66262 9.32754C1.66185 9.41606 1.67872 9.50385 1.71224 9.58578C1.74576 9.66771 1.79526 9.74214 1.85786 9.80474C1.92045 9.86733 1.99489 9.91683 2.07682 9.95036C2.15875 9.98388 2.24654 10.0007 2.33506 9.99998C2.42358 9.99921 2.51106 9.98082 2.59239 9.94588C2.67373 9.91094 2.74729 9.86015 2.80879 9.79647L6.14212 6.46314C6.2671 6.33812 6.33731 6.16858 6.33731 5.99181C6.33731 5.81503 6.2671 5.64549 6.14212 5.52047Z" fill="#212423"/>
<path d="M10.1421 5.52047L6.80879 2.18714C6.68305 2.0657 6.51465 1.99851 6.33986 2.00003C6.16506 2.00154 5.99785 2.07166 5.87424 2.19526C5.75064 2.31887 5.68053 2.48608 5.67901 2.66087C5.67749 2.83567 5.74468 3.00407 5.86612 3.12981L8.72812 5.99181L5.86612 8.85381C5.80245 8.91531 5.75166 8.98887 5.71672 9.07021C5.68178 9.15154 5.66339 9.23902 5.66262 9.32754C5.66185 9.41606 5.67872 9.50385 5.71224 9.58578C5.74576 9.66771 5.79526 9.74214 5.85786 9.80474C5.92045 9.86733 5.99489 9.91683 6.07682 9.95036C6.15875 9.98388 6.24654 10.0007 6.33506 9.99998C6.42358 9.99921 6.51106 9.98082 6.59239 9.94588C6.67373 9.91094 6.74729 9.86015 6.80879 9.79647L10.1421 6.46314C10.2671 6.33812 10.3373 6.16858 10.3373 5.99181C10.3373 5.81503 10.2671 5.64549 10.1421 5.52047Z" fill="#212423"/>
</svg>
