<svg width="22" height="22" viewBox="0.2 0 12 12" fill="none" xmlns="http://www.w3.org/2000/svg">
    <path d="M6 1C6.98891 1 7.95561 1.29325 8.77785 1.84265C9.6001 2.39206 10.241 3.17295 10.6194 4.08658C10.9978 5.00021 11.0969 6.00555 10.9039 6.97545C10.711 7.94536 10.2348 8.83627 9.53553 9.53553C8.83627 10.2348 7.94536 10.711 6.97545 10.9039C6.00555 11.0969 5.00021 10.9978 4.08658 10.6194C3.17295 10.241 2.39206 9.6001 1.84265 8.77785C1.29324 7.9556 1 6.98891 1 6" stroke="#F8FAF6" stroke-width="2"/>
    <path opacity="0.2" d="M6 11C5.01109 11 4.04439 10.7068 3.22215 10.1573C2.3999 9.60794 1.75904 8.82705 1.3806 7.91342C1.00216 6.99979 0.903147 5.99445 1.09607 5.02455C1.289 4.05464 1.7652 3.16373 2.46447 2.46447C3.16373 1.7652 4.05464 1.289 5.02455 1.09607C5.99445 0.903147 6.99979 1.00216 7.91342 1.3806C8.82705 1.75904 9.60794 2.3999 10.1573 3.22215C10.7068 4.04439 11 5.01109 11 6" stroke="#F8FAF6" stroke-width="2"/>
</svg>
