<svg width="100%" height="100%" viewBox="0 0 12 12" fill="none" xmlns="http://www.w3.org/2000/svg">
<path d="M11.0529 12C11.3869 12 11.6577 11.7292 11.6577 11.3952V11.3614C11.6577 11.0461 11.402 10.7905 11.0867 10.7905H9.78004C9.70257 10.7905 9.6667 10.6943 9.72525 10.6435V10.6435C10.5061 9.98808 11.0804 9.28987 11.4483 8.54891C11.8161 7.80795 12 6.97657 12 6.0548C12 4.6814 11.581 3.45612 10.7431 2.37895C10.104 1.55728 9.32182 0.941634 8.39672 0.53201C7.95502 0.336432 7.49229 0.68754 7.49229 1.1706V1.1706C7.49229 1.48313 7.69399 1.7555 7.97642 1.88934C8.67063 2.21833 9.24779 2.71297 9.70788 3.37327C10.271 4.18147 10.5526 5.07531 10.5526 6.0548C10.5526 6.79444 10.4156 7.43534 10.1417 7.9775C9.86774 8.51964 9.49571 8.99085 9.02562 9.39112V9.39112C8.81925 9.52862 8.54292 9.38069 8.54292 9.13271V8.24458C8.54292 7.91285 8.274 7.64394 7.94228 7.64394V7.64394C7.61056 7.64394 7.34165 7.91285 7.34165 8.24458V11C7.34165 11.5523 7.78936 12 8.34165 12H11.0529ZM3.5759 11.4814C4.02174 11.6805 4.48957 11.3256 4.48957 10.8373V10.8373C4.48957 10.5203 4.28428 10.2444 3.99744 10.1094C3.29813 9.78046 2.72364 9.28622 2.27397 8.62672C1.72291 7.81853 1.44737 6.92469 1.44737 5.9452C1.44737 5.38822 1.58606 4.82039 1.86344 4.2417C2.14081 3.66302 2.4956 3.14919 2.92783 2.70021V2.70021C3.10785 2.5402 3.39241 2.66799 3.39241 2.90883V3.7503C3.39241 4.08485 3.66362 4.35606 3.99817 4.35606V4.35606C4.33272 4.35606 4.60393 4.08485 4.60393 3.7503V1C4.60393 0.447715 4.15622 0 3.60393 0H0.882419C0.548414 0 0.27765 0.270764 0.27765 0.604769V0.604769C0.27765 0.938774 0.548414 1.20954 0.882419 1.20954H2.15116C2.24678 1.20954 2.29515 1.3247 2.22822 1.39298V1.39298C1.4889 2.08869 0.932695 2.83654 0.559617 3.63654C0.186538 4.43653 -4.6897e-07 5.20609 -4.6897e-07 5.9452C-4.6897e-07 7.3186 0.415934 8.54693 1.2478 9.63019C1.88013 10.4536 2.65616 11.0707 3.5759 11.4814Z" fill="black"/>
</svg>
