<svg width="12" height="12" viewBox="0 0 12 12" fill="none" xmlns="http://www.w3.org/2000/svg">
<g clip-path="url(#clip0_4231_15274)">
<path fill-rule="evenodd" clip-rule="evenodd" d="M9 2H2V9H4V11H2C1.46957 11 0.960859 10.7893 0.585786 10.4142C0.210714 10.0391 0 9.53043 0 9V2C0 1.46957 0.210714 0.960859 0.585786 0.585786C0.960859 0.210714 1.46957 0 2 0H9C9.53043 0 10.0391 0.210714 10.4142 0.585786C10.7893 0.960859 11 1.46957 11 2V4H9V2ZM5 5L10 6L8.707 7.293L11.707 10.293L10.293 11.707L7.293 8.707L6 10L5 5Z" fill="#212423"/>
</g>
</svg>
