<svg width="100%" height="100%" viewBox="0 0 12 12" fill="none" xmlns="http://www.w3.org/2000/svg">
<path d="M10 0H8V2H10V10H2V2H4V0H2C1.46957 0 0.960859 0.210714 0.585786 0.585786C0.210714 0.960859 0 1.46957 0 2V10C0 10.5304 0.210714 11.0391 0.585786 11.4142C0.960859 11.7893 1.46957 12 2 12H10C10.5304 12 11.0391 11.7893 11.4142 11.4142C11.7893 11.0391 12 10.5304 12 10V2C12 1.46957 11.7893 0.960859 11.4142 0.585786C11.0391 0.210714 10.5304 0 10 0Z" fill="#212423"/>
<path d="M6.5 0H5.5C5.36739 0 5.24021 0.0526784 5.14645 0.146447C5.05268 0.240215 5 0.367392 5 0.5V5H3.5C3.40499 5.00004 3.31196 5.02714 3.2318 5.07814C3.15164 5.12913 3.08767 5.20191 3.04738 5.28795C3.00709 5.37399 2.99214 5.46973 3.00429 5.56396C3.01645 5.65819 3.0552 5.747 3.116 5.82L5.616 8.82C5.66293 8.87627 5.72164 8.92154 5.788 8.95261C5.85436 8.98367 5.92673 8.99977 6 8.99977C6.07327 8.99977 6.14564 8.98367 6.212 8.95261C6.27836 8.92154 6.33707 8.87627 6.384 8.82L8.884 5.82C8.9448 5.747 8.98355 5.65819 8.9957 5.56396C9.00786 5.46973 8.99291 5.37399 8.95262 5.28795C8.91233 5.20191 8.84836 5.12913 8.7682 5.07814C8.68804 5.02714 8.59501 5.00004 8.5 5H7V0.5C7 0.367392 6.94732 0.240215 6.85355 0.146447C6.75979 0.0526784 6.63261 0 6.5 0Z" fill="#212423"/>
</svg>
