<svg width="12" height="12" viewBox="0 0 12 12" fill="none" xmlns="http://www.w3.org/2000/svg">
<g clip-path="url(#clip0_4231_15355)">
<path fill-rule="evenodd" clip-rule="evenodd" d="M9.05806 4.81694C9.17527 4.93415 9.33424 5 9.5 5C9.66576 5 9.82473 4.93415 9.94194 4.81694C10.0592 4.69973 10.125 4.54076 10.125 4.375C10.1255 4.04364 10.2574 3.72601 10.4917 3.4917C10.726 3.25739 11.0436 3.12553 11.375 3.125C11.5408 3.125 11.6997 3.05915 11.8169 2.94194C11.9342 2.82473 12 2.66576 12 2.5C12 2.33424 11.9342 2.17527 11.8169 2.05806C11.6997 1.94085 11.5408 1.875 11.375 1.875C11.0436 1.87447 10.726 1.74261 10.4917 1.5083C10.2574 1.27399 10.1255 0.956358 10.125 0.625C10.125 0.45924 10.0592 0.300268 9.94194 0.183058C9.82473 0.065848 9.66576 0 9.5 0C9.33424 0 9.17527 0.065848 9.05806 0.183058C8.94085 0.300268 8.875 0.45924 8.875 0.625C8.87447 0.956358 8.74261 1.27399 8.5083 1.5083C8.27399 1.74261 7.95636 1.87447 7.625 1.875C7.45924 1.875 7.30027 1.94085 7.18306 2.05806C7.06585 2.17527 7 2.33424 7 2.5C7 2.66576 7.06585 2.82473 7.18306 2.94194C7.30027 3.05915 7.45924 3.125 7.625 3.125C7.95636 3.12553 8.27399 3.25739 8.5083 3.4917C8.74261 3.72601 8.87447 4.04364 8.875 4.375C8.875 4.54076 8.94085 4.69973 9.05806 4.81694ZM3.29289 11.7071C3.48043 11.8946 3.73478 12 4 12C4.26522 12 4.51957 11.8946 4.70711 11.7071C4.89464 11.5196 5 11.2652 5 11C5 10.4696 5.21071 9.96086 5.58579 9.58579C5.96086 9.21071 6.46957 9 7 9C7.26522 9 7.51957 8.89464 7.70711 8.70711C7.89464 8.51957 8 8.26522 8 8C8 7.73478 7.89464 7.48043 7.70711 7.29289C7.51957 7.10536 7.26522 7 7 7C6.46957 7 5.96086 6.78929 5.58579 6.41421C5.21071 6.03914 5 5.53043 5 5C5 4.73478 4.89464 4.48043 4.70711 4.29289C4.51957 4.10536 4.26522 4 4 4C3.73478 4 3.48043 4.10536 3.29289 4.29289C3.10536 4.48043 3 4.73478 3 5C3 5.53043 2.78929 6.03914 2.41421 6.41421C2.03914 6.78929 1.53043 7 1 7C0.734784 7 0.48043 7.10536 0.292893 7.29289C0.105357 7.48043 0 7.73478 0 8C0 8.26522 0.105357 8.51957 0.292893 8.70711C0.48043 8.89464 0.734784 9 1 9C1.53043 9 2.03914 9.21071 2.41421 9.58579C2.78929 9.96086 3 10.4696 3 11C3 11.2652 3.10536 11.5196 3.29289 11.7071Z" fill="#212423"/>
</g>
</svg>
