<svg width="12" height="12" viewBox="0 0 12 12" fill="none" xmlns="http://www.w3.org/2000/svg">
<g clip-path="url(#clip0_4231_15348)">
<path d="M0.0634727 10.745C0.10684 10.8225 0.170096 10.8872 0.24673 10.9321C0.323363 10.9771 0.410605 11.0009 0.499473 11.001L11.4995 11.001C11.5884 11.0011 11.6757 10.9775 11.7524 10.9326C11.8292 10.8877 11.8925 10.8232 11.936 10.7456C11.9795 10.6681 12.0016 10.5804 11.9999 10.4915C11.9982 10.4026 11.9729 10.3158 11.9265 10.24L6.42647 1.23998C6.38185 1.16673 6.31913 1.10619 6.24435 1.06418C6.16957 1.02218 6.08524 1.00011 5.99947 1.00011C5.9137 1.00011 5.82937 1.02218 5.75459 1.06418C5.67981 1.10619 5.6171 1.16673 5.57247 1.23998L0.0724726 10.24C0.0262814 10.3158 0.00110149 10.4025 -0.000480652 10.4913C-0.0020628 10.58 0.0200119 10.6676 0.0634727 10.745Z" fill="#212423"/>
</g>
</svg>
