<svg width="12" height="12" viewBox="0 0 12 12" fill="none" xmlns="http://www.w3.org/2000/svg">
<g clip-path="url(#clip0_4231_15373)">
<path fill-rule="evenodd" clip-rule="evenodd" d="M10 4C11.1046 4 12 3.10457 12 2C12 0.89543 11.1046 0 10 0C8.89543 0 8 0.89543 8 2C8 3.10457 8.89543 4 10 4ZM2 12C3.10457 12 4 11.1046 4 10C4 8.89543 3.10457 8 2 8C0.89543 8 0 8.89543 0 10C0 11.1046 0.89543 12 2 12ZM9.46967 4.96967C9.61032 4.82902 9.80109 4.75 10 4.75C10.1989 4.75 10.3897 4.82902 10.5303 4.96967C10.671 5.11032 10.75 5.30109 10.75 5.5V8.5C10.75 9.22935 10.4603 9.92882 9.94454 10.4445C9.42882 10.9603 8.72935 11.25 8 11.25C7.27065 11.25 6.57118 10.9603 6.05546 10.4445C5.53973 9.92882 5.25 9.22935 5.25 8.5V3.5C5.25 3.16848 5.1183 2.85054 4.88388 2.61612C4.64946 2.3817 4.33152 2.25 4 2.25C3.66848 2.25 3.35054 2.3817 3.11612 2.61612C2.8817 2.85054 2.75 3.16848 2.75 3.5V6.5C2.75 6.69891 2.67098 6.88968 2.53033 7.03033C2.38968 7.17098 2.19891 7.25 2 7.25C1.80109 7.25 1.61032 7.17098 1.46967 7.03033C1.32902 6.88968 1.25 6.69891 1.25 6.5V3.5C1.25 2.77065 1.53973 2.07118 2.05546 1.55546C2.57118 1.03973 3.27065 0.75 4 0.75C4.72935 0.75 5.42882 1.03973 5.94454 1.55546C6.46027 2.07118 6.75 2.77065 6.75 3.5V8.5C6.75 8.83152 6.8817 9.14946 7.11612 9.38388C7.35054 9.6183 7.66848 9.75 8 9.75C8.33152 9.75 8.64946 9.6183 8.88388 9.38388C9.1183 9.14946 9.25 8.83152 9.25 8.5V5.5C9.25 5.30109 9.32902 5.11032 9.46967 4.96967Z" fill="#212423"/>
</g>
</svg>
