<svg width="12" height="12" viewBox="0 0 12 12" fill="none" xmlns="http://www.w3.org/2000/svg">
<g clip-path="url(#clip0_4231_15383)">
<path fill-rule="evenodd" clip-rule="evenodd" d="M9.93495 4.70033L8.57195 6.10033L9.63095 7.15533L11 5.75533C11.6175 5.11875 11.9597 4.26466 11.9525 3.37776C11.9452 2.49087 11.5892 1.64247 10.9613 1.01604C10.3334 0.389613 9.48422 0.0355166 8.59732 0.0303312C7.71041 0.0251458 6.8571 0.369289 6.22195 0.98833L4.82495 2.35033L5.88595 3.41133L7.27595 2.05633C7.4489 1.87879 7.65532 1.73731 7.88329 1.64005C8.11127 1.5428 8.35626 1.49171 8.6041 1.48974C8.85194 1.48776 9.09771 1.53495 9.3272 1.62856C9.55669 1.72217 9.76535 1.86035 9.9411 2.03511C10.1168 2.20987 10.2562 2.41773 10.3511 2.64669C10.446 2.87565 10.4946 3.12115 10.494 3.369C10.4935 3.61685 10.4437 3.86212 10.3478 4.09064C10.2518 4.31916 10.1115 4.52638 9.93495 4.70033ZM6.10009 8.5722L4.70009 9.9352C4.52614 10.1118 4.31892 10.2521 4.0904 10.348C3.86188 10.444 3.6166 10.4937 3.36876 10.4943C3.12091 10.4948 2.87541 10.4463 2.64645 10.3514C2.41749 10.2565 2.20962 10.1171 2.03486 9.94134C1.8601 9.76559 1.72192 9.55694 1.62831 9.32745C1.5347 9.09795 1.48752 8.85218 1.48949 8.60434C1.49147 8.3565 1.54256 8.11151 1.63981 7.88354C1.73706 7.65557 1.87855 7.44914 2.05609 7.2762L3.41109 5.8862L2.35009 4.8252L0.988086 6.2222C0.369044 6.85735 0.0249017 7.71065 0.0300871 8.59756C0.0352724 9.48447 0.389369 10.3337 1.0158 10.9616C1.64222 11.5894 2.49062 11.9455 3.37752 11.9527C4.26441 11.9599 5.11851 11.6178 5.75509 11.0002L7.15509 9.6312L6.10009 8.5722ZM4.22391 6.7002L3.46991 7.4542C3.39622 7.52286 3.33712 7.60566 3.29613 7.69766C3.25514 7.78966 3.23309 7.88897 3.23132 7.98967C3.22954 8.09038 3.24807 8.1904 3.28579 8.28379C3.32351 8.37718 3.37965 8.46202 3.45087 8.53323C3.52209 8.60445 3.60692 8.6606 3.70031 8.69832C3.7937 8.73604 3.89373 8.75456 3.99443 8.75279C4.09513 8.75101 4.19445 8.72897 4.28645 8.68798C4.37845 8.64699 4.46125 8.58788 4.52991 8.5142L5.28491 7.7592L4.22391 6.7002ZM6.69995 4.22415L7.45395 3.47015C7.52261 3.39647 7.60541 3.33736 7.69741 3.29637C7.78941 3.25538 7.88873 3.23334 7.98943 3.23156C8.09013 3.22979 8.19016 3.24831 8.28355 3.28603C8.37694 3.32375 8.46177 3.3799 8.53299 3.45112C8.60421 3.52233 8.66035 3.60717 8.69807 3.70056C8.7358 3.79394 8.75432 3.89397 8.75254 3.99468C8.75077 4.09538 8.72872 4.19469 8.68773 4.28669C8.64674 4.37869 8.58764 4.46149 8.51395 4.53015L7.75895 5.28515L6.69995 4.22415ZM10.713 11.693C10.804 11.7308 10.9016 11.7501 11.0001 11.7498C11.1483 11.7497 11.2932 11.7057 11.4164 11.6232C11.5396 11.5408 11.6357 11.4237 11.6924 11.2868C11.7491 11.1498 11.7639 10.9991 11.7351 10.8537C11.7062 10.7083 11.6348 10.5747 11.5301 10.4698L1.53009 0.469847C1.38792 0.337367 1.19987 0.265243 1.00557 0.268672C0.811267 0.2721 0.625882 0.350812 0.488469 0.488225C0.351056 0.625638 0.272344 0.811023 0.268916 1.00532C0.265487 1.19963 0.337611 1.38767 0.470091 1.52985L10.4701 11.5298C10.5395 11.5998 10.622 11.6552 10.713 11.693Z" fill="#212423"/>
</g>
<defs>
<clipPath id="clip0_4231_15383">
<rect width="12" height="12" fill="white"/>
</clipPath>
</defs>
</svg>
