<svg width="100%" height="100%" viewBox="0 0 12 12" fill="none" xmlns="http://www.w3.org/2000/svg">
<path d="M1.764 8.99992C1.95707 8.99991 2.14602 8.944 2.30802 8.83895C2.47001 8.73391 2.59814 8.58421 2.67691 8.40794C2.75569 8.23166 2.78176 8.03635 2.75196 7.84559C2.72216 7.65483 2.63778 7.47677 2.509 7.33292C2.2517 7.04512 2.08319 6.689 2.02381 6.30755C1.96443 5.9261 2.01671 5.53562 2.17436 5.18322C2.332 4.83083 2.58826 4.53159 2.91221 4.32162C3.23616 4.11165 3.61395 3.99992 4 3.99992H7.5C7.59902 4.0001 7.69586 3.97087 7.77825 3.91594C7.86064 3.86101 7.92487 3.78285 7.96278 3.69138C8.0007 3.59991 8.0106 3.49924 7.99124 3.40213C7.97187 3.30502 7.92411 3.21585 7.854 3.14592L4.854 0.145918C4.78407 0.0758114 4.6949 0.0280469 4.59779 0.00868009C4.50068 -0.0106867 4.40001 -0.000783588 4.30854 0.0371339C4.21706 0.0750515 4.13891 0.139276 4.08398 0.221665C4.02905 0.304054 3.99982 0.400898 4 0.499918V1.99992C3.2278 1.99994 2.47212 2.22348 1.82417 2.64355C1.17623 3.06361 0.663721 3.66225 0.348524 4.36719C0.0333261 5.07213 -0.0710881 5.85323 0.047886 6.61621C0.16686 7.37918 0.504136 8.09141 1.019 8.66692C1.11254 8.77198 1.22732 8.85599 1.35575 8.91339C1.48418 8.9708 1.62333 9.00029 1.764 8.99992Z" fill="#212423"/>
<path d="M10.236 2.99992C10.0429 2.99993 9.85398 3.05583 9.69198 3.16088C9.52998 3.26593 9.40186 3.41563 9.32308 3.5919C9.2443 3.76817 9.21824 3.96348 9.24804 4.15425C9.27783 4.34501 9.36222 4.52307 9.491 4.66692C9.7483 4.95472 9.91681 5.31083 9.97619 5.69228C10.0356 6.07374 9.98328 6.46422 9.82564 6.81661C9.668 7.16901 9.41174 7.46825 9.08779 7.67822C8.76384 7.88819 8.38604 7.99992 8 7.99992H4.5C4.40098 7.99974 4.30413 8.02897 4.22175 8.0839C4.13936 8.13883 4.07513 8.21698 4.03721 8.30845C3.9993 8.39993 3.98939 8.5006 4.00876 8.59771C4.02813 8.69482 4.07589 8.78399 4.146 8.85392L7.146 11.8539C7.21593 11.924 7.3051 11.9718 7.40221 11.9912C7.49932 12.0105 7.59999 12.0006 7.69146 11.9627C7.78294 11.9248 7.86109 11.8606 7.91602 11.7782C7.97095 11.6958 8.00018 11.5989 8 11.4999V9.99992C8.77219 9.99989 9.52788 9.77636 10.1758 9.35629C10.8238 8.93622 11.3363 8.33759 11.6515 7.63265C11.9667 6.92771 12.0711 6.14661 11.9521 5.38363C11.8331 4.62065 11.4959 3.90842 10.981 3.33292C10.8875 3.22786 10.7727 3.14385 10.6442 3.08644C10.5158 3.02904 10.3767 2.99955 10.236 2.99992Z" fill="#212423"/>
</svg>
