<svg width="100%" height="100%" viewBox="0 0 12 12" fill="none" xmlns="http://www.w3.org/2000/svg">
<g clip-path="url(#clip0_1217_7721)">
<path d="M5.27695 6.87815C5.27695 6.71099 5.19342 6.55489 5.05434 6.46215L1.95708 4.39684C1.62481 4.17528 1.17969 4.41347 1.17969 4.81284V8.75535C1.17969 8.92982 1.22127 9.10142 1.30054 9.25401C1.3798 9.40661 1.49414 9.53519 1.6328 9.62766L4.49958 11.5391C4.83185 11.7606 5.27695 11.5224 5.27695 11.123V6.87815Z" fill="#222222"/>
<path d="M5.72262 5.08847C5.89057 5.20041 6.10936 5.20039 6.2773 5.08842L9.45983 2.96645C9.75666 2.76854 9.75667 2.33237 9.45985 2.13444L6.51093 0.168078C6.35771 0.0658981 6.18066 0.0117188 5.99997 0.0117188C5.81929 0.0117188 5.64224 0.0658981 5.48902 0.168078L2.54 2.13536C2.24322 2.33334 2.24331 2.7695 2.54017 2.96736L5.72262 5.08847Z" fill="#222222"/>
<path d="M6.94565 6.46215C6.80657 6.55489 6.72304 6.71099 6.72304 6.87815V11.1282C6.72304 11.5275 7.16814 11.7657 7.50041 11.5442L10.3672 9.6328C10.5065 9.53987 10.6213 9.41048 10.7006 9.25691C10.7799 9.10334 10.8211 8.93069 10.8203 8.75535V4.81284C10.8203 4.41347 10.3752 4.17528 10.0429 4.39684L6.94565 6.46215Z" fill="#222222"/>
</g>
</svg>
