<svg width="100%" height="100%" viewBox="0 0 12 12" fill="none" xmlns="http://www.w3.org/2000/svg">
<path fill-rule="evenodd" clip-rule="evenodd" d="M5.14725 0.06C5.42976 0.0202447 5.7147 0.000196311 6 0C7.5913 0 9.11742 0.632141 10.2426 1.75736C11.3679 2.88258 12 4.4087 12 6C12 7.5913 11.3679 9.11742 10.2426 10.2426C9.11742 11.3679 7.5913 12 6 12C5.7147 11.9998 5.42976 11.9798 5.14725 11.94C4.95022 11.9123 4.77225 11.8076 4.65249 11.6487C4.59319 11.57 4.54996 11.4805 4.52528 11.3851C4.50059 11.2897 4.49493 11.1904 4.50862 11.0929C4.53627 10.8958 4.64105 10.7179 4.79992 10.5981C4.87858 10.5388 4.96816 10.4956 5.06353 10.4709C5.15889 10.4462 5.25819 10.4406 5.35575 10.4542C5.56918 10.4844 5.78445 10.4996 6 10.5C7.19347 10.5 8.33806 10.0259 9.18198 9.18198C10.0259 8.33807 10.5 7.19347 10.5 6C10.5 4.80652 10.0259 3.66193 9.18198 2.81802C8.33806 1.97411 7.19347 1.5 6 1.5C5.78445 1.50036 5.56918 1.51565 5.35575 1.54575C5.32068 1.55024 5.28535 1.55249 5.25 1.5525C5.06052 1.55174 4.87836 1.47929 4.74011 1.34972C4.60187 1.22014 4.51779 1.04305 4.50478 0.854017C4.49176 0.664989 4.55078 0.47804 4.66996 0.330743C4.78915 0.183446 4.95966 0.0867182 5.14725 0.06ZM1.80523 3.59218C1.92167 3.59218 2.0365 3.56507 2.14064 3.513C2.24478 3.46093 2.33537 3.38532 2.40523 3.29218C2.63971 2.98186 2.91321 2.70306 3.21898 2.46268C3.37533 2.33965 3.4764 2.15955 3.49996 1.96201C3.52351 1.76446 3.46763 1.56565 3.34461 1.4093C3.22158 1.25296 3.04148 1.15189 2.84394 1.12833C2.64639 1.10477 2.44758 1.16065 2.29123 1.28368C1.88387 1.60477 1.51939 1.97681 1.20673 2.39068C1.12316 2.5021 1.07227 2.6346 1.05976 2.77332C1.04725 2.91204 1.07362 3.05151 1.13591 3.17609C1.1982 3.30067 1.29395 3.40544 1.41243 3.47866C1.53092 3.55189 1.66745 3.59068 1.80673 3.59068L1.80523 3.59218ZM5.25 8.24945C5.0511 8.24941 4.86037 8.17036 4.71975 8.0297L3.21975 6.5297C3.14812 6.46051 3.09098 6.37776 3.05167 6.28625C3.01237 6.19475 2.99168 6.09634 2.99081 5.99675C2.98995 5.89717 3.00892 5.79841 3.04663 5.70623C3.08434 5.61406 3.14003 5.53032 3.21045 5.4599C3.28087 5.38948 3.36461 5.33379 3.45678 5.29608C3.54896 5.25837 3.64772 5.2394 3.7473 5.24026C3.84689 5.24113 3.9453 5.26182 4.0368 5.30112C4.12831 5.34043 4.21106 5.39757 4.28025 5.4692L5.25 6.43895L7.71975 3.9692C7.78893 3.89757 7.87169 3.84043 7.9632 3.80112C8.0547 3.76182 8.15311 3.74113 8.2527 3.74026C8.35228 3.7394 8.45104 3.75837 8.54321 3.79608C8.63539 3.83379 8.71912 3.88948 8.78954 3.9599C8.85996 4.03032 8.91565 4.11406 8.95336 4.20623C8.99107 4.29841 9.01005 4.39717 9.00919 4.49675C9.00832 4.59634 8.98763 4.69475 8.94833 4.78625C8.90902 4.87776 8.85188 4.96052 8.78025 5.0297L5.78025 8.0297C5.63963 8.17036 5.4489 8.24941 5.25 8.24945ZM1.5 6.00006C1.50013 6.19845 1.51315 6.39661 1.539 6.59331C1.56474 6.79053 1.5111 6.9899 1.38986 7.14756C1.26862 7.30523 1.08972 7.40828 0.892502 7.43406C0.859944 7.43855 0.827117 7.4408 0.794252 7.44081C0.612423 7.44053 0.436885 7.37421 0.300302 7.25418C0.163718 7.13416 0.0753897 6.9686 0.0517521 6.78831C-0.0159719 6.27411 -0.0172323 5.75333 0.0480021 5.23881C0.073264 5.04149 0.175877 4.86228 0.333266 4.74062C0.490656 4.61896 0.689931 4.5648 0.887252 4.59006C1.08457 4.61532 1.26378 4.71793 1.38544 4.87532C1.50711 5.03271 1.56126 5.23199 1.536 5.42931C1.51185 5.6186 1.49983 5.80924 1.5 6.00006ZM2.418 8.7249C2.35934 8.64396 2.28508 8.57556 2.19959 8.52372C2.11411 8.47189 2.01912 8.43767 1.92022 8.42307C1.82132 8.40848 1.7205 8.4138 1.62369 8.43874C1.52688 8.46367 1.43603 8.5077 1.35648 8.56825C1.27693 8.6288 1.21029 8.70464 1.16048 8.79132C1.11066 8.87799 1.07868 8.97375 1.0664 9.07297C1.05413 9.17218 1.06182 9.27285 1.08901 9.36905C1.1162 9.46525 1.16236 9.55505 1.22475 9.63315C1.53872 10.0458 1.90475 10.4162 2.31375 10.7349C2.47069 10.8572 2.6698 10.9122 2.86728 10.8877C3.06476 10.8633 3.24442 10.7613 3.36675 10.6044C3.48908 10.4475 3.54406 10.2484 3.51959 10.0509C3.49511 9.8534 3.39319 9.67373 3.23625 9.5514C2.92885 9.31252 2.6538 9.03469 2.418 8.7249Z" fill="#212423"/>
</svg>
