<svg width="12" height="12" viewBox="0 0 12 12" fill="none" xmlns="http://www.w3.org/2000/svg">
<g clip-path="url(#clip0_4231_15434)">
<path fill-rule="evenodd" clip-rule="evenodd" d="M2.22607 0.976734C3.35309 0.333939 4.62864 -0.0028751 5.92607 -0.000265512C6.84285 -0.0492125 7.74784 0.224265 8.48407 0.772734C8.79237 1.01867 9.03884 1.33333 9.2038 1.69154C9.36875 2.04976 9.44761 2.4416 9.43407 2.83573C9.44742 3.35751 9.31179 3.87228 9.04307 4.31973C8.63971 4.87615 8.13692 5.35317 7.56007 5.72673C7.20619 5.96276 6.88651 6.24643 6.61007 6.56973C6.46813 6.79629 6.39838 7.06064 6.41007 7.32773V7.79973H4.34007V7.21873C4.32869 6.76301 4.43916 6.3125 4.66007 5.91373C4.96789 5.44631 5.36602 5.04512 5.83107 4.73373C6.23684 4.47127 6.60147 4.15011 6.91307 3.78073C7.08542 3.54223 7.1772 3.25498 7.17507 2.96073C7.18326 2.81066 7.15314 2.66097 7.08754 2.52574C7.02194 2.39051 6.92301 2.2742 6.80007 2.18773C6.48597 1.9927 6.11915 1.89977 5.75007 1.92173C4.81176 1.96462 3.89659 2.22697 3.07807 2.68773L2.22607 0.976734ZM7 10.4995C7 11.3279 6.32843 11.9995 5.5 11.9995C4.67157 11.9995 4 11.3279 4 10.4995C4 9.67108 4.67157 8.99951 5.5 8.99951C6.32843 8.99951 7 9.67108 7 10.4995Z" fill="#212423"/>
</g>
</svg>
