<svg width="100%" height="100%" viewBox="0 0 12 12" fill="none" xmlns="http://www.w3.org/2000/svg">
<path fill-rule="evenodd" clip-rule="evenodd" d="M10 1.25H2C1.58579 1.25 1.25 1.58579 1.25 2V10C1.25 10.4142 1.58579 10.75 2 10.75H10C10.4142 10.75 10.75 10.4142 10.75 10V2C10.75 1.58579 10.4142 1.25 10 1.25ZM2 0C0.895431 0 0 0.895431 0 2V10C0 11.1046 0.895431 12 2 12H10C11.1046 12 12 11.1046 12 10V2C12 0.895431 11.1046 0 10 0H2Z" fill="#212423"/>
<g clip-path="url(#clip0_1211_7622)">
<path fill-rule="evenodd" clip-rule="evenodd" d="M3.48438 2.65116C4.23572 2.22263 5.08608 1.99808 5.95104 1.99982C6.56222 1.96719 7.16555 2.14951 7.65638 2.51516C7.8619 2.67911 8.02622 2.88888 8.13619 3.12769C8.24616 3.3665 8.29874 3.62773 8.28971 3.89049C8.29861 4.23834 8.20819 4.58152 8.02904 4.87982C7.76013 5.25076 7.42494 5.56878 7.04037 5.81782C6.80445 5.97517 6.59133 6.16429 6.40704 6.37982C6.31241 6.53086 6.26591 6.70709 6.27371 6.88516V7.19982H4.89371V6.81249C4.88612 6.50867 4.95977 6.20833 5.10704 5.94249C5.31225 5.63087 5.57767 5.36341 5.88771 5.15582C6.15822 4.98084 6.4013 4.76674 6.60904 4.52049C6.72394 4.36149 6.78512 4.16999 6.78371 3.97382C6.78917 3.87377 6.76909 3.77398 6.72535 3.68383C6.68162 3.59367 6.61567 3.51613 6.53371 3.45849C6.32431 3.32846 6.07976 3.26651 5.83371 3.28116C5.20817 3.30974 4.59805 3.48465 4.05238 3.79182L3.48438 2.65116ZM6.66699 8.99968C6.66699 9.55196 6.21928 9.99967 5.66699 9.99967C5.11471 9.99967 4.66699 9.55196 4.66699 8.99968C4.66699 8.44739 5.11471 7.99968 5.66699 7.99968C6.21928 7.99968 6.66699 8.44739 6.66699 8.99968Z" fill="#212423"/>
</g>
<defs>
<clipPath id="clip0_1211_7622">
<rect width="8" height="8" fill="white" transform="translate(2 2)"/>
</clipPath>
</defs>
</svg>
