<svg width="620" height="94" viewBox="0 0 620 94" fill="none" xmlns="http://www.w3.org/2000/svg">
<path d="M85.5163 24.4166C90.4298 32.9501 92.3909 42.8663 91.0956 52.6278C89.8003 62.3892 85.3209 71.4508 78.3519 78.4075C71.3829 85.3643 62.3135 89.8278 52.5497 91.1059C42.786 92.3841 32.8733 90.4055 24.3484 85.477C15.8235 80.5485 9.16257 72.9453 5.39827 63.8461C1.63397 54.747 0.976559 44.6602 3.52795 35.1494C6.07934 25.6386 11.697 17.2352 19.5101 11.2418C27.3231 5.24848 36.8952 2 46.7422 2" stroke="#F8FAF6" stroke-opacity="0.2" stroke-width="4"/>
<path d="M50.0037 2.11903C56.862 2.6203 63.5125 4.69568 69.4387 8.184C75.3649 11.6723 80.4072 16.4797 84.1742 22.2328" stroke="#BFF589" stroke-width="4"/>
<path d="M300.516 24.4166C305.43 32.9501 307.391 42.8663 306.096 52.6278C304.8 62.3892 300.321 71.4508 293.352 78.4075C286.383 85.3643 277.313 89.8278 267.55 91.1059C257.786 92.3841 247.873 90.4055 239.348 85.477C230.823 80.5485 224.163 72.9453 220.398 63.8461C216.634 54.747 215.977 44.6602 218.528 35.1494C221.079 25.6386 226.697 17.2352 234.51 11.2418C242.323 5.24848 251.895 2 261.742 2" stroke="#F8FAF6" stroke-opacity="0.2" stroke-width="4"/>
<path d="M265.004 2.11903C271.862 2.6203 278.513 4.69568 284.439 8.184C290.365 11.6723 295.407 16.4797 299.174 22.2328" stroke="#BFF589" stroke-width="4"/>
<path d="M513.516 24.4166C518.43 32.9501 520.391 42.8663 519.096 52.6278C517.8 62.3892 513.321 71.4508 506.352 78.4075C499.383 85.3643 490.313 89.8278 480.55 91.1059C470.786 92.3841 460.873 90.4055 452.348 85.477C443.823 80.5485 437.163 72.9453 433.398 63.8461C429.634 54.747 428.977 44.6602 431.528 35.1494C434.079 25.6386 439.697 17.2352 447.51 11.2418C455.323 5.24848 464.895 2 474.742 2" stroke="#F8FAF6" stroke-opacity="0.2" stroke-width="4"/>
<path d="M478.004 2.11903C484.862 2.6203 491.513 4.69568 497.439 8.184C503.365 11.6723 508.407 16.4797 512.174 22.2328" stroke="#BFF589" stroke-width="4"/>
<path d="M120.402 19.09H115.812V12.9H114.842V20H120.402V19.09ZM125.84 20.12C127.93 20.12 129.51 18.53 129.51 16.45C129.51 14.37 127.93 12.78 125.84 12.78C123.74 12.78 122.17 14.37 122.17 16.45C122.17 18.54 123.72 20.12 125.84 20.12ZM125.84 19.22C124.24 19.22 123.17 18 123.17 16.45C123.17 14.93 124.24 13.68 125.84 13.68C127.44 13.68 128.51 14.94 128.51 16.45C128.51 17.97 127.44 19.22 125.84 19.22ZM137.548 20H138.568L135.278 12.86H134.508L131.228 20H132.188L132.978 18.29H136.758L137.548 20ZM133.378 17.41L134.868 14.17L136.358 17.41H133.378ZM140.996 20H143.796C146.086 20 147.516 18.57 147.516 16.45C147.516 14.29 146.076 12.9 143.796 12.9H140.996V20ZM143.796 13.79C145.476 13.79 146.516 14.78 146.516 16.45C146.516 18.07 145.476 19.11 143.796 19.11H141.966V13.79H143.796ZM159.513 20H160.533L157.243 12.86H156.473L153.193 20H154.153L154.943 18.29H158.723L159.513 20ZM155.343 17.41L156.833 14.17L158.323 17.41H155.343ZM168.748 12.9H167.758L165.198 18.77L162.638 12.9H161.538L164.718 20.03H165.628L168.748 12.9ZM177.453 16.02H173.733V16.89H176.533V18.64C176.163 18.92 175.433 19.22 174.353 19.22C172.693 19.22 171.563 18.11 171.563 16.44C171.563 14.89 172.553 13.68 174.163 13.68C175.393 13.68 176.013 14.29 176.253 14.61H177.263C176.993 13.89 176.133 12.78 174.163 12.78C172.083 12.78 170.563 14.33 170.563 16.44C170.563 18.6 172.083 20.12 174.353 20.12C175.933 20.12 176.923 19.55 177.453 19.02V16.02Z" fill="#A5A8A3"/>
<path d="M332.952 19.19C331.552 19.19 330.782 18.27 330.782 16.92V12.9H329.812V17C329.812 18.73 330.822 20.12 332.952 20.12C334.992 20.12 336.082 18.72 336.082 17V12.9H335.122V16.92C335.122 18.27 334.332 19.19 332.952 19.19ZM341.61 13.67C342.97 13.67 343.55 14.23 343.79 14.71H344.8C344.56 13.82 343.74 12.78 341.61 12.78C339.98 12.78 338.92 13.56 338.92 14.72C338.92 15.95 339.88 16.58 341.16 16.71L342.56 16.86C343.41 16.97 344 17.22 344 18.06C344 18.74 343.32 19.24 342.08 19.24C340.56 19.24 339.95 18.51 339.71 17.97H338.67C338.99 19.01 339.88 20.13 342.08 20.13C344.04 20.13 344.97 19.16 344.97 18.01C344.97 16.54 343.84 16.03 342.64 15.9L341.25 15.74C340.37 15.63 339.89 15.31 339.89 14.72C339.89 14.08 340.46 13.67 341.61 13.67ZM347.77 20H353.73V19.1H348.73V16.68H351.48V15.78H348.73V13.8H353.33V12.9H347.77V20ZM356.26 20H359.06C361.35 20 362.78 18.57 362.78 16.45C362.78 14.29 361.34 12.9 359.06 12.9H356.26V20ZM359.06 13.79C360.74 13.79 361.78 14.78 361.78 16.45C361.78 18.07 360.74 19.11 359.06 19.11H357.23V13.79H359.06ZM369.227 20H370.197V16.84H372.877L374.577 20H375.607L373.887 16.74C374.837 16.5 375.337 15.86 375.337 14.91C375.337 13.58 374.527 12.9 372.997 12.9H369.227V20ZM372.967 13.8C373.887 13.8 374.337 14.14 374.337 14.91C374.337 15.63 373.887 15.95 372.967 15.95H370.197V13.8H372.967ZM383.804 20H384.824L381.534 12.86H380.764L377.484 20H378.444L379.234 18.29H383.014L383.804 20ZM379.634 17.41L381.124 14.17L382.614 17.41H379.634ZM388.752 12.9H387.252V20H388.152V13.78L390.842 20.04H391.512L394.222 13.74V20H395.142V12.9H393.692L391.222 18.66L388.752 12.9Z" fill="#A5A8A3"/>
<path d="M542.842 20H545.642C547.932 20 549.362 18.57 549.362 16.45C549.362 14.29 547.922 12.9 545.642 12.9H542.842V20ZM545.642 13.79C547.322 13.79 548.362 14.78 548.362 16.45C548.362 18.07 547.322 19.11 545.642 19.11H543.812V13.79H545.642ZM552.173 20H553.143V12.9H552.173V20ZM558.716 13.67C560.076 13.67 560.656 14.23 560.896 14.71H561.906C561.666 13.82 560.846 12.78 558.716 12.78C557.086 12.78 556.026 13.56 556.026 14.72C556.026 15.95 556.986 16.58 558.266 16.71L559.666 16.86C560.516 16.97 561.106 17.22 561.106 18.06C561.106 18.74 560.426 19.24 559.186 19.24C557.666 19.24 557.056 18.51 556.816 17.97H555.776C556.096 19.01 556.986 20.13 559.186 20.13C561.146 20.13 562.076 19.16 562.076 18.01C562.076 16.54 560.946 16.03 559.746 15.9L558.356 15.74C557.476 15.63 556.996 15.31 556.996 14.72C556.996 14.08 557.566 13.67 558.716 13.67ZM570.095 20H571.485L566.955 16.38L571.305 12.9H569.935L565.845 16.18V12.9H564.875V20H565.845V16.7L570.095 20ZM577.325 20H578.295V16.84H580.975L582.675 20H583.705L581.985 16.74C582.935 16.5 583.435 15.86 583.435 14.91C583.435 13.58 582.625 12.9 581.095 12.9H577.325V20ZM581.065 13.8C581.985 13.8 582.435 14.14 582.435 14.91C582.435 15.63 581.985 15.95 581.065 15.95H578.295V13.8H581.065ZM586.352 20H592.312V19.1H587.312V16.68H590.062V15.78H587.312V13.8H591.912V12.9H586.352V20ZM600.441 20H601.461L598.171 12.86H597.401L594.121 20H595.081L595.871 18.29H599.651L600.441 20ZM596.271 17.41L597.761 14.17L599.251 17.41H596.271ZM603.889 20H606.689C608.979 20 610.409 18.57 610.409 16.45C610.409 14.29 608.969 12.9 606.689 12.9H603.889V20ZM606.689 13.79C608.369 13.79 609.409 14.78 609.409 16.45C609.409 18.07 608.369 19.11 606.689 19.11H604.859V13.79H606.689ZM615.569 13.67C616.929 13.67 617.509 14.23 617.749 14.71H618.759C618.519 13.82 617.699 12.78 615.569 12.78C613.939 12.78 612.879 13.56 612.879 14.72C612.879 15.95 613.839 16.58 615.119 16.71L616.519 16.86C617.369 16.97 617.959 17.22 617.959 18.06C617.959 18.74 617.279 19.24 616.039 19.24C614.519 19.24 613.909 18.51 613.669 17.97H612.629C612.949 19.01 613.839 20.13 616.039 20.13C617.999 20.13 618.929 19.16 618.929 18.01C618.929 16.54 617.799 16.03 616.599 15.9L615.209 15.74C614.329 15.63 613.849 15.31 613.849 14.72C613.849 14.08 614.419 13.67 615.569 13.67Z" fill="#A5A8A3"/>
<path d="M122.046 39.672C118.446 39.672 116.094 41.976 116.094 45.888V51.072C116.094 55.176 118.518 57.288 122.046 57.288C125.574 57.288 127.998 55.176 127.998 51.072V45.888C127.998 41.976 125.646 39.672 122.046 39.672ZM122.046 55.176C119.622 55.176 118.398 53.424 118.398 51.048V45.912C118.398 43.536 119.622 41.784 122.046 41.784C124.47 41.784 125.694 43.536 125.694 45.912V51.048C125.694 53.424 124.47 55.176 122.046 55.176ZM132.471 57H135.255V53.592H132.471V57ZM143.432 39.888H141.704L136.88 42.84V45.048L141.104 42.6V57H143.432V39.888ZM157.575 51.792C159.087 49.824 160.335 48.072 160.335 45.48C160.335 42.12 158.127 39.672 154.239 39.672C150.399 39.672 148.095 42.216 148.095 45.48C148.095 49.008 150.375 51.192 153.543 51.192C154.479 51.192 155.223 51 155.799 50.688L150.831 57H153.591L157.575 51.792ZM150.423 45.48C150.423 43.488 151.743 41.784 154.239 41.784C156.639 41.784 158.007 43.488 158.007 45.48C158.007 47.592 156.543 49.224 154.239 49.224C151.743 49.224 150.423 47.592 150.423 45.48Z" fill="#F8FAF6"/>
<path d="M121.734 75.908H116.226V68.48H115.062V77H121.734V75.908ZM125.995 70.928C124.219 70.928 122.875 72.272 122.875 74.036C122.875 75.8 124.219 77.144 125.995 77.144C127.759 77.144 129.115 75.8 129.115 74.036C129.115 72.272 127.759 70.928 125.995 70.928ZM125.995 76.136C124.807 76.136 124.003 75.2 124.003 74.036C124.003 72.872 124.807 71.936 125.995 71.936C127.183 71.936 127.987 72.848 127.987 74.036C127.987 75.224 127.183 76.136 125.995 76.136ZM135.485 77H136.577V71.072H135.485V72.056C135.329 71.732 134.693 70.928 133.385 70.928C131.825 70.928 130.493 72.116 130.493 74.036C130.493 75.992 131.825 77.144 133.385 77.144C134.741 77.144 135.317 76.28 135.485 75.98V77ZM135.509 74.036C135.509 75.224 134.741 76.136 133.589 76.136C132.389 76.136 131.621 75.224 131.621 74.036C131.621 72.848 132.389 71.936 133.589 71.936C134.741 71.936 135.509 72.848 135.509 74.036ZM143.491 77H144.583V68.168H143.491V72.056C143.335 71.732 142.675 70.928 141.331 70.928C139.747 70.928 138.403 72.08 138.403 74.036C138.403 75.992 139.747 77.144 141.331 77.144C142.687 77.144 143.335 76.268 143.491 75.98V77ZM143.515 74.036C143.515 75.236 142.723 76.136 141.535 76.136C140.323 76.136 139.531 75.236 139.531 74.036C139.531 72.836 140.323 71.936 141.535 71.936C142.723 71.936 143.515 72.836 143.515 74.036Z" fill="#5F615D"/>
<path d="M339.95 51.792C341.462 49.824 342.71 48.072 342.71 45.48C342.71 42.12 340.502 39.672 336.614 39.672C332.774 39.672 330.47 42.216 330.47 45.48C330.47 49.008 332.75 51.192 335.918 51.192C336.854 51.192 337.598 51 338.174 50.688L333.206 57H335.966L339.95 51.792ZM332.798 45.48C332.798 43.488 334.118 41.784 336.614 41.784C339.014 41.784 340.382 43.488 340.382 45.48C340.382 47.592 338.918 49.224 336.614 49.224C334.118 49.224 332.798 47.592 332.798 45.48ZM355.536 51.792C357.048 49.824 358.296 48.072 358.296 45.48C358.296 42.12 356.088 39.672 352.2 39.672C348.36 39.672 346.056 42.216 346.056 45.48C346.056 49.008 348.336 51.192 351.504 51.192C352.44 51.192 353.184 51 353.76 50.688L348.792 57H351.552L355.536 51.792ZM348.384 45.48C348.384 43.488 349.704 41.784 352.2 41.784C354.6 41.784 355.968 43.488 355.968 45.48C355.968 47.592 354.504 49.224 352.2 49.224C349.704 49.224 348.384 47.592 348.384 45.48Z" fill="#F8FAF6"/>
<path d="M331.862 68.48H330.062V77H331.142V69.536L334.37 77.048H335.174L338.426 69.488V77H339.53V68.48H337.79L334.826 75.392L331.862 68.48ZM341.964 69.932H343.104V68.216H341.964V69.932ZM341.988 77H343.08V71.072H341.988V77ZM345.543 77H349.803C351.771 77 352.755 76.052 352.755 74.552C352.755 73.46 352.035 72.752 351.207 72.524C351.879 72.332 352.575 71.708 352.575 70.784C352.575 69.308 351.579 68.48 349.719 68.48H345.543V77ZM349.695 69.548C350.811 69.548 351.375 69.968 351.375 70.808C351.375 71.624 350.811 72.068 349.695 72.068H346.695V69.548H349.695ZM349.779 73.136C351.015 73.136 351.579 73.628 351.579 74.528C351.579 75.404 351.027 75.932 349.779 75.932H346.695V73.136H349.779Z" fill="#5F615D"/>
<path d="M555.422 52.344C555.422 49.632 553.766 48.432 552.494 48.048C553.526 47.592 554.87 46.464 554.87 44.352C554.87 41.64 552.854 39.672 549.278 39.672C545.558 39.672 543.878 42.144 543.758 44.328H546.062C546.326 42.888 547.286 41.76 549.302 41.76C551.222 41.76 552.566 42.744 552.566 44.448C552.566 46.176 551.486 47.136 549.662 47.136H546.59V49.248H549.59C551.798 49.248 553.07 50.28 553.07 52.2C553.07 54.096 551.63 55.176 549.35 55.176C547.022 55.176 545.87 53.808 545.63 52.488H543.302C543.494 54.816 545.318 57.288 549.35 57.288C553.19 57.288 555.422 55.296 555.422 52.344ZM559.253 57H562.037V53.592H559.253V57ZM579.748 51.744V49.728H576.124V39.96H573.58L565.228 50.472V51.744H573.868V57H576.124V51.744H579.748ZM568.3 49.728L573.868 42.648V49.728H568.3Z" fill="#F8FAF6"/>
<path d="M549.326 77H550.994L545.558 72.656L550.778 68.48H549.134L544.226 72.416V68.48H543.062V77H544.226V73.04L549.326 77ZM552.221 69.932H553.361V68.216H552.221V69.932ZM552.245 77H553.337V71.072H552.245V77ZM555.8 77H560.06C562.028 77 563.012 76.052 563.012 74.552C563.012 73.46 562.292 72.752 561.464 72.524C562.136 72.332 562.832 71.708 562.832 70.784C562.832 69.308 561.836 68.48 559.976 68.48H555.8V77ZM559.952 69.548C561.068 69.548 561.632 69.968 561.632 70.808C561.632 71.624 561.068 72.068 559.952 72.068H556.952V69.548H559.952ZM560.036 73.136C561.272 73.136 561.836 73.628 561.836 74.528C561.836 75.404 561.284 75.932 560.036 75.932H556.952V73.136H560.036ZM564.323 77.84H565.307L568.355 67.88H567.371L564.323 77.84ZM572.714 74.54C573.518 74.636 573.77 74.912 573.77 75.38C573.77 75.848 573.278 76.208 572.27 76.208C571.022 76.208 570.542 75.536 570.482 75.344H569.318C569.45 75.884 570.182 77.168 572.27 77.168C573.95 77.168 574.862 76.376 574.862 75.38C574.862 74.288 574.262 73.688 572.858 73.508C572.342 73.448 572.054 73.424 571.586 73.364C570.878 73.28 570.578 73.016 570.578 72.596C570.578 72.164 571.034 71.84 571.934 71.84C573.038 71.84 573.482 72.38 573.614 72.536H574.778C574.586 71.936 573.938 70.904 571.934 70.904C570.482 70.904 569.498 71.588 569.498 72.632C569.498 73.724 570.302 74.264 571.442 74.396L572.714 74.54Z" fill="#5F615D"/>
</svg>
