<svg width="12" height="12" viewBox="0 0 12 12" fill="none" xmlns="http://www.w3.org/2000/svg">
    <path
        d="M11.0008 4.98771H3.41479L5.70779 2.69471C5.88995 2.50611 5.99074 2.25351 5.98846 1.99131C5.98618 1.72911 5.88101 1.4783 5.69561 1.29289C5.5102 1.10749 5.25939 1.00232 4.99719 1.00004C4.73499 0.997759 4.48239 1.09855 4.29379 1.28071L0.293788 5.28071C0.200661 5.3736 0.126775 5.48395 0.0763625 5.60544C0.0259496 5.72693 0 5.85718 0 5.98871C0 6.12025 0.0259496 6.25049 0.0763625 6.37198C0.126775 6.49347 0.200661 6.60382 0.293788 6.69671L4.29379 10.6967C4.38676 10.7896 4.49712 10.8632 4.61854 10.9134C4.73997 10.9636 4.8701 10.9894 5.00149 10.9893C5.13289 10.9892 5.26298 10.9632 5.38434 10.9128C5.50569 10.8625 5.61594 10.7887 5.70879 10.6957C5.80163 10.6027 5.87526 10.4924 5.92545 10.371C5.97565 10.2495 6.00144 10.1194 6.00134 9.988C6.00125 9.85661 5.97528 9.72652 5.92491 9.60516C5.87454 9.4838 5.80076 9.37356 5.70779 9.28071L3.41479 6.98771H11.0008C11.266 6.98771 11.5204 6.88235 11.7079 6.69482C11.8954 6.50728 12.0008 6.25293 12.0008 5.98771C12.0008 5.7225 11.8954 5.46814 11.7079 5.28061C11.5204 5.09307 11.266 4.98771 11.0008 4.98771Z"
        fill="currentColor" />
</svg>