<svg width="16" height="16" viewBox="0 0 16 16" fill="none" xmlns="http://www.w3.org/2000/svg">
<g clip-path="url(#clip0_26_272)">
<path d="M9.87588 12.95C8.27588 14.55 5.77588 14.55 4.17588 12.95C2.57588 11.35 2.47588 8.95 4.07588 7.45L8.57588 2.95C9.57588 1.95 11.1759 1.95 12.0759 2.95C13.0759 3.95 13.0759 5.55 12.0759 6.45L8.57588 10.05C8.17588 10.45 7.57588 10.45 7.17588 10.05C6.77588 9.65 6.77588 9.05 7.17588 8.65L9.97588 5.85L8.47588 4.45L5.77588 7.15C4.57588 8.35 4.57588 10.25 5.77588 11.35C6.97588 12.45 8.87588 12.55 9.97588 11.35L13.5759 7.75C15.3759 5.95 15.3759 3.15 13.5759 1.35C11.7759 -0.45 8.97588 -0.45 7.17588 1.35L2.67588 6.05C0.375876 8.35 0.475876 12.05 2.77588 14.35C3.97588 15.55 5.47588 16.15 7.07588 16.15C8.67588 16.15 10.1759 15.55 11.2759 14.35L15.5759 10.05L14.1759 8.65L9.87588 12.95Z" fill="#212423"/>
</g>
</svg>
