<svg width="12" height="12" viewBox="0 0 12 12" fill="none" xmlns="http://www.w3.org/2000/svg">
    <g clip-path="url(#clip0_1849_52)">
        <path
            d="M11.5 6.352L8.869 1.892C8.74201 1.63403 8.54786 1.41504 8.30695 1.25807C8.06604 1.1011 7.78729 1.01195 7.5 1C7.10218 1 6.72064 1.15804 6.43934 1.43934C6.15804 1.72064 6 2.10218 6 2.5C6 2.10218 5.84196 1.72064 5.56066 1.43934C5.27936 1.15804 4.89782 1 4.5 1C4.21271 1.01195 3.93396 1.1011 3.69305 1.25807C3.45214 1.41504 3.25799 1.63403 3.131 1.892L0.5 6.352C0.184687 6.84478 0.0116541 7.41509 0 8C0 8.79565 0.31607 9.55871 0.87868 10.1213C1.44129 10.6839 2.20435 11 3 11C3.79565 11 4.55871 10.6839 5.12132 10.1213C5.68393 9.55871 6 8.79565 6 8C6 8.79565 6.31607 9.55871 6.87868 10.1213C7.44129 10.6839 8.20435 11 9 11C9.79565 11 10.5587 10.6839 11.1213 10.1213C11.6839 9.55871 12 8.79565 12 8C11.9883 7.41509 11.8153 6.84478 11.5 6.352ZM3 9.5C2.70333 9.5 2.41332 9.41203 2.16664 9.2472C1.91997 9.08238 1.72771 8.84811 1.61418 8.57403C1.50065 8.29994 1.47094 7.99834 1.52882 7.70736C1.5867 7.41639 1.72956 7.14912 1.93934 6.93934C2.14912 6.72956 2.41639 6.5867 2.70736 6.52882C2.99834 6.47094 3.29994 6.50065 3.57403 6.61418C3.84811 6.72771 4.08238 6.91997 4.2472 7.16664C4.41203 7.41332 4.5 7.70333 4.5 8C4.5 8.39782 4.34196 8.77936 4.06066 9.06066C3.77936 9.34196 3.39782 9.5 3 9.5ZM9 9.5C8.70333 9.5 8.41332 9.41203 8.16665 9.2472C7.91997 9.08238 7.72771 8.84811 7.61418 8.57403C7.50065 8.29994 7.47094 7.99834 7.52882 7.70736C7.5867 7.41639 7.72956 7.14912 7.93934 6.93934C8.14912 6.72956 8.41639 6.5867 8.70736 6.52882C8.99834 6.47094 9.29994 6.50065 9.57403 6.61418C9.84811 6.72771 10.0824 6.91997 10.2472 7.16664C10.412 7.41332 10.5 7.70333 10.5 8C10.5 8.39782 10.342 8.77936 10.0607 9.06066C9.77936 9.34196 9.39782 9.5 9 9.5Z"
            fill="currentColor" />
    </g>
</svg>