<svg width="20" height="20" viewBox="0 0 20 20" fill="none" xmlns="http://www.w3.org/2000/svg">
<path d="M15.2889 9.52222C15.9444 8.75556 16.3333 7.75556 16.3333 6.66667C16.3333 4.6 14.9222 2.85556 13 2.36667V0H10.7778V2.22222H8.55556V0H6.33333V2.22222H3V4.44444H5.22222V15.5556H3V17.7778H6.33333V20H8.55556V17.7778H10.7778V20H13V17.7778C15.4556 17.7778 17.4444 15.7889 17.4444 13.3333C17.4444 11.7222 16.5778 10.3 15.2889 9.52222ZM7.44444 4.44444H11.8889C13.1111 4.44444 14.1111 5.44444 14.1111 6.66667C14.1111 7.88889 13.1111 8.88889 11.8889 8.88889H7.44444V4.44444ZM13 15.5556H7.44444V11.1111H13C14.2222 11.1111 15.2222 12.1111 15.2222 13.3333C15.2222 14.5556 14.2222 15.5556 13 15.5556Z" fill="#212423"/>
</svg>
