<svg width="100%" height="100%" viewBox="0 0 24 24" fill="none" xmlns="http://www.w3.org/2000/svg">
<path fill-rule="evenodd" clip-rule="evenodd" d="M14.1938 8.30341L8.37946 14.118C8.30457 13.9725 8.23683 13.8209 8.17623 13.6636C7.97313 13.1354 7.8717 12.5749 7.8717 11.9828C7.8717 11.3904 7.97313 10.8301 8.17623 10.3017C8.37946 9.77323 8.66109 9.31468 9.02113 8.92549C9.38116 8.53653 9.81379 8.2289 10.3189 8.00235C10.8242 7.77603 11.3786 7.66275 11.9824 7.66275C12.5863 7.66275 13.1438 7.77884 13.6545 8.01128C13.8444 8.09752 14.0242 8.19482 14.1938 8.30341ZM13.6808 15.9979C13.1755 16.2245 12.6211 16.3375 12.0174 16.3375C11.4134 16.3375 10.8558 16.2213 10.3449 15.9892C10.1553 15.9027 9.97557 15.8053 9.80603 15.6966L15.6202 9.88245C15.6952 10.0277 15.7628 10.179 15.8234 10.3365C16.0265 10.8649 16.1281 11.4254 16.1281 12.0176C16.1281 12.6098 16.0265 13.1701 15.8234 13.6987C15.6202 14.227 15.3387 14.6855 14.9786 15.0744C14.6185 15.4635 14.1861 15.7714 13.6808 15.9979ZM14.5604 17.8007C15.3387 17.464 16.0122 17.0082 16.5812 16.4331C17.1501 15.8585 17.5912 15.1878 17.9047 14.4213C18.2185 13.655 18.3753 12.8421 18.3753 11.9828C18.3753 11.1234 18.2185 10.3105 17.9047 9.54383C17.7188 9.0893 17.4899 8.66956 17.2183 8.28437L21 4.5027L19.4972 3L15.704 6.79318C15.3635 6.56099 14.9939 6.36028 14.5952 6.19083C13.8171 5.85994 12.9579 5.69424 12.0174 5.69424C11.0765 5.69424 10.2173 5.86275 9.43921 6.19954C8.66109 6.53631 7.98755 6.992 7.41847 7.56686C6.84952 8.14172 6.40817 8.81245 6.09466 9.57883C5.78116 10.3453 5.62435 11.1582 5.62435 12.0176C5.62435 12.8769 5.78116 13.6896 6.09466 14.4562C6.2808 14.9109 6.50972 15.3306 6.78141 15.7161L3 19.4973L4.50268 21L8.2956 17.2071C8.63613 17.4392 9.00586 17.6399 9.40443 17.8093C10.1826 18.1402 11.0417 18.3058 11.9824 18.3058C12.9231 18.3058 13.7823 18.1372 14.5604 17.8007Z" fill="#5F615D"/>
</svg>
