<svg width="24" height="24" viewBox="0 0 24 24" fill="none" xmlns="http://www.w3.org/2000/svg">
<path d="M11.7301 2.05918C12.2096 1.81319 12.7949 2.38386 12.5402 2.85518C12.3922 3.23938 11.8312 3.34154 11.5447 3.04869C11.2411 2.76763 11.3401 2.21211 11.7301 2.05918ZM6.57275 2.60615C6.86403 2.48819 7.23275 2.75074 7.20305 3.06308C7.23396 3.40215 6.81255 3.65172 6.51566 3.49057C6.1223 3.34068 6.16729 2.71243 6.57275 2.60615ZM17.1356 3.50009C16.6805 3.44598 16.6084 2.74187 17.0467 2.60009C17.3866 2.437 17.6984 2.74284 17.7481 3.05983C17.6768 3.33051 17.4465 3.57834 17.1356 3.50009ZM7.74623 4.76579C8.2332 4.46276 8.92808 4.91406 8.85317 5.47055C8.82787 6.03246 8.0693 6.358 7.64129 5.97813C7.22747 5.67975 7.29017 4.99523 7.74623 4.76579ZM15.1802 5.08732C15.3974 4.53646 16.2777 4.51979 16.525 5.05605C16.7695 5.47336 16.4688 5.99014 16.0333 6.13202C15.4565 6.23797 14.9086 5.62445 15.1802 5.08732ZM11.1091 6.10075C11.1043 5.62726 11.5427 5.27445 12.0001 5.24219C12.3034 5.30204 12.6341 5.42921 12.7642 5.7304C13.0068 6.14587 12.7914 6.71795 12.3532 6.90865C12.1527 7.01914 11.9158 6.97769 11.6976 6.96482C11.3639 6.80367 11.083 6.48765 11.1091 6.10075ZM3.43928 6.79068C3.88412 6.52163 4.48428 7.01265 4.31587 7.48808C4.22314 7.89934 3.66126 8.06666 3.34006 7.8041C2.99719 7.55811 3.05153 6.96666 3.43928 6.79068ZM19.9091 6.78981C20.2865 6.5015 20.9093 6.83224 20.8643 7.30107C20.8896 7.72856 20.3512 8.05096 19.9765 7.83083C19.5639 7.64837 19.5218 7.0238 19.9091 6.78981ZM13.2659 7.64101C13.8888 7.42088 14.6285 7.6843 14.9835 8.23062C15.4518 8.89848 15.2026 9.91558 14.4759 10.2988C13.723 10.752 12.6235 10.3678 12.3455 9.54057C12.0298 8.79999 12.4897 7.87315 13.2659 7.64101ZM9.61173 7.71384C10.302 7.39328 11.2309 7.66222 11.5643 8.35692C11.9567 9.03311 11.6533 9.97467 10.9519 10.3238C10.2495 10.7162 9.25863 10.4187 8.91873 9.69274C8.53758 8.99068 8.87605 8.03711 9.61173 7.71384ZM5.95279 8.94458C6.00526 8.50702 6.4248 8.22228 6.84808 8.19285C7.30414 8.24696 7.66846 8.59544 7.71807 9.04956C7.68815 9.49912 7.33505 9.93852 6.85083 9.93581C6.3181 9.98094 5.85104 9.45951 5.95279 8.94458ZM16.7601 8.28798C17.307 7.97477 18.0665 8.43073 18.0422 9.04891C18.0797 9.70389 17.2392 10.1655 16.6945 9.78127C16.1288 9.46135 16.1729 8.56038 16.7601 8.28798ZM8.12463 10.5964C8.76429 10.4233 9.49568 10.7199 9.8094 11.2984C10.153 11.8806 10.0126 12.6895 9.47885 13.1166C8.79432 13.743 7.53184 13.4914 7.16752 12.6366C6.74886 11.8529 7.25739 10.8027 8.12463 10.5964ZM15.0556 10.5932C15.6775 10.4182 16.408 10.654 16.7423 11.2114C17.1843 11.8488 16.9733 12.7996 16.3153 13.2105C15.626 13.6877 14.5583 13.4371 14.1791 12.691C13.7193 11.9193 14.1819 10.8286 15.0556 10.5932ZM4.01051 11.3204C4.56304 11.1148 5.17552 11.7147 4.95167 12.2537C4.81494 12.7447 4.1116 12.9262 3.74827 12.5642C3.32312 12.2242 3.48053 11.4678 4.01051 11.3204ZM18.9871 12.1026C18.9711 11.6522 19.3061 11.2532 19.7755 11.2283C20.1539 11.2873 20.5219 11.5877 20.492 11.993C20.5266 12.5282 19.871 12.8921 19.4075 12.6406C19.1902 12.5319 19.0788 12.3127 18.9871 12.1026ZM1.29372 11.5848C1.62614 11.4421 2.03732 11.7255 1.96142 12.0887C1.9436 12.5 1.3265 12.6581 1.09979 12.3145C0.899481 12.0759 1.01938 11.7079 1.29372 11.5848ZM22.2535 11.5766C22.4876 11.4127 22.8631 11.5305 22.9559 11.7996C23.1132 12.0934 22.8247 12.496 22.4886 12.4463C22.0167 12.4886 21.864 11.7811 22.2535 11.5766ZM9.93018 13.5508C10.8049 13.3269 11.7452 14.0446 11.7507 14.9307C11.8078 15.8262 10.8817 16.6202 9.98628 16.4134C9.29416 16.3038 8.75109 15.6478 8.77353 14.9597C8.77166 14.3016 9.27645 13.6899 9.93018 13.5508ZM13.3943 13.5489C14.2821 13.3048 15.2505 14.0353 15.2364 14.9419C15.2832 15.8208 14.3861 16.5881 13.5094 16.4137C12.6844 16.3088 12.0756 15.417 12.306 14.6293C12.4222 14.1044 12.868 13.6776 13.3943 13.5489ZM6.7152 14.0944C7.32955 13.9912 7.90551 14.6656 7.65636 15.2395C7.47464 15.8511 6.57 16.017 6.17004 15.5174C5.70089 15.0377 6.05113 14.1606 6.7152 14.0944ZM16.8743 14.1213C17.4221 13.8956 18.0945 14.3618 18.0524 14.9467C18.0744 15.5907 17.2442 16.0347 16.7085 15.6589C16.1017 15.3214 16.2122 14.3283 16.8743 14.1213ZM19.7138 16.9235C19.4993 16.5301 19.889 16.0087 20.3329 16.0815C20.5539 16.0778 20.7085 16.2491 20.8499 16.3929C20.879 16.626 20.9277 16.9041 20.731 17.0838C20.4639 17.4163 19.8589 17.3214 19.7138 16.9235ZM3.43741 16.191C3.85233 15.9193 4.44941 16.3246 4.35613 16.8018C4.30652 17.2239 3.76609 17.4651 3.41013 17.2256C3.0281 17.0082 3.04218 16.3892 3.43741 16.191ZM11.6346 17.0746C12.1778 16.8387 12.8698 17.304 12.8183 17.8926C12.8586 18.5431 12.0027 18.9935 11.4716 18.6029C10.8817 18.2675 10.98 17.2808 11.6346 17.0746ZM7.83797 17.946C8.30063 17.7065 8.92148 18.1201 8.87935 18.6295C8.89343 19.0478 8.4785 19.4043 8.05896 19.3425C7.71147 19.3352 7.48487 19.0287 7.37344 18.7372C7.37916 18.4196 7.51204 18.0658 7.83797 17.946ZM15.5285 17.9534C16.0043 17.6641 16.6805 18.0795 16.6355 18.6243C16.6477 19.1937 15.8835 19.5584 15.4405 19.1844C15.0116 18.8912 15.064 18.1865 15.5285 17.9534ZM16.8659 21.2063C16.6543 20.8912 16.9034 20.5117 17.2471 20.4398C17.5234 20.4951 17.8156 20.6996 17.7575 21.0147C17.7172 21.4412 17.0832 21.5721 16.8659 21.2063ZM6.24968 20.9327C6.33394 20.683 6.5381 20.4348 6.83686 20.4998C7.27235 20.5302 7.4016 21.176 7.02045 21.375C6.67769 21.6024 6.28004 21.291 6.24968 20.9327ZM11.3714 21.2192C11.4548 20.8498 11.9408 20.6701 12.2611 20.8663C12.4727 20.9557 12.5345 21.1887 12.5889 21.3868C12.5598 21.4899 12.5339 21.5932 12.5084 21.6963C12.3772 21.8492 12.2087 22.0022 11.9905 21.9966C11.5849 22.0434 11.2191 21.5923 11.3714 21.2192Z" fill="#5F615D"/>
</svg>
