<svg width="24" height="24" viewBox="0 0 24 24" fill="none" xmlns="http://www.w3.org/2000/svg">
<path d="M17.3315 9.87551C17.0068 10.2003 16.6008 10.4168 16.1678 10.498C16.7632 12.0947 16.3708 13.9215 15.1529 15.1394C14.3139 15.9783 13.1773 16.4249 12.0271 16.4249C11.5129 16.4249 10.9986 16.3302 10.498 16.1543C10.4168 16.5873 10.2138 16.9932 9.8755 17.318C8.99594 18.1976 7.56157 18.1976 6.66847 17.318C5.7889 16.4384 5.7889 15.0041 6.66847 14.111C6.99323 13.7862 7.39918 13.5697 7.8322 13.4885C7.22327 11.8782 7.6157 10.0379 8.83356 8.82003C10.0514 7.60216 11.8917 7.20974 13.502 7.81867C13.5832 7.39919 13.7862 6.99323 14.1245 6.66847C15.0041 5.7889 16.4384 5.7889 17.3315 6.66847C18.2111 7.56157 18.2111 8.99594 17.3315 9.87551ZM12 2C6.47902 2 2 6.47902 2 12C2 17.521 6.47902 22 12 22C17.521 22 22 17.521 22 12C22 6.47902 17.521 2 12 2ZM13.1908 13.1773C12.5413 13.8268 11.4993 13.8268 10.8498 13.1773C10.2003 12.5277 10.2003 11.4858 10.8498 10.8363C11.4993 10.1867 12.5413 10.1867 13.1908 10.8363C13.8268 11.4858 13.8268 12.5277 13.1908 13.1773ZM14.6658 7.20974C14.3275 7.54804 14.1651 8.03518 14.2463 8.50879C14.2733 8.67118 14.2598 8.82003 14.1921 8.96888C14.0974 9.15832 13.9486 9.29364 13.7591 9.37483C13.5697 9.44249 13.3667 9.44249 13.1637 9.34777C12.0812 8.84709 10.7821 9.07713 9.94316 9.9161C9.10419 10.7551 8.87415 12.0541 9.37483 13.1367C9.46955 13.3261 9.46955 13.5426 9.40189 13.7321C9.33423 13.908 9.19892 14.0704 9.00947 14.1516C8.90122 14.2057 8.79296 14.2192 8.68471 14.2192C8.63058 14.2192 8.57645 14.2057 8.53586 14.2057C8.03518 14.138 7.5751 14.2869 7.2368 14.6252C6.95264 14.9093 6.80379 15.2882 6.80379 15.6806C6.80379 16.0866 6.95264 16.452 7.2368 16.7361C7.81867 17.318 8.7659 17.318 9.34777 16.7361C9.68606 16.3978 9.84844 15.9107 9.76725 15.4371C9.76725 15.41 9.76725 15.3829 9.76725 15.3559C9.75372 15.2341 9.78078 15.0988 9.83491 14.977C9.92963 14.7876 10.0785 14.6522 10.2679 14.5846C10.4574 14.5169 10.6604 14.5169 10.8633 14.6116C11.9459 15.1123 13.2449 14.8823 14.0839 14.0433C14.9229 13.2043 15.1664 11.9053 14.6522 10.8227C14.5575 10.6333 14.5575 10.4168 14.6252 10.2409C14.6928 10.0514 14.8281 9.88904 15.0311 9.80785C15.1664 9.74019 15.3153 9.72666 15.4506 9.74019C15.4777 9.74019 15.4912 9.74019 15.5183 9.74019C15.9919 9.80785 16.452 9.659 16.7903 9.3207C17.3721 8.73884 17.3721 7.79161 16.7903 7.20974C16.1949 6.62788 15.2476 6.62788 14.6658 7.20974Z" fill="#5F615D"/>
</svg>
