<svg width="100%" height="100%" viewBox="0 0 24 24" fill="none" xmlns="http://www.w3.org/2000/svg">
<path opacity="0.67" fill-rule="evenodd" clip-rule="evenodd" d="M12.266 2.51983C12.1773 2.43825 12.1316 2.43671 12.1239 2.43671C12.1162 2.43671 12.0705 2.43825 11.9819 2.51983C11.8908 2.60355 11.7821 2.74803 11.6649 2.97095C11.431 3.41589 11.2071 4.08841 11.0142 4.9562C10.7972 5.93206 10.6257 7.12484 10.5175 8.46005C11.04 8.71284 11.5772 8.98767 12.1237 9.28277C12.6703 8.98762 13.2077 8.71275 13.7303 8.45992C13.6221 7.12476 13.4506 5.93203 13.2336 4.9562C13.0407 4.08841 12.8168 3.41589 12.5829 2.97095C12.4657 2.74803 12.3569 2.60355 12.266 2.51983ZM11.6665 9.53324C11.2651 9.31998 10.8698 9.11825 10.4826 8.92872C10.4532 9.35857 10.4304 9.80165 10.4145 10.2557C10.6192 10.1331 10.827 10.0108 11.0375 9.88937C11.2481 9.76789 11.4579 9.64915 11.6665 9.53324ZM10.096 8.25936C10.4095 4.59799 11.1993 2 12.1239 2C13.0485 2 13.8381 4.59793 14.1517 8.25924C17.4812 6.70002 20.1273 6.08456 20.5896 6.8848C21.0519 7.68505 19.1955 9.66747 16.1795 11.7695C19.1955 13.8715 21.0519 15.8539 20.5896 16.6542C20.1273 17.4544 17.4812 16.839 14.1517 15.2797C13.8381 18.941 13.0485 21.5389 12.1239 21.5389C11.1993 21.5389 10.4095 18.941 10.096 15.2796C6.76641 16.8389 4.12021 17.4544 3.65788 16.6542C3.19557 15.8539 5.05198 13.8715 8.06795 11.7695C5.05198 9.66747 3.19557 7.68505 3.65788 6.8848C4.12021 6.08454 6.76641 6.70004 10.096 8.25936ZM8.45277 11.5049C7.34972 10.7436 6.40174 9.9988 5.66454 9.32302C5.009 8.7221 4.53814 8.19207 4.26952 7.76714C4.13493 7.55425 4.06414 7.38789 4.03708 7.26733C4.01074 7.14992 4.03228 7.10973 4.03601 7.10326V7.10325C4.03979 7.09673 4.06394 7.05791 4.179 7.02196C4.29711 6.98506 4.47676 6.96316 4.72858 6.97319C5.23118 6.99322 5.92597 7.13574 6.77448 7.40263C7.72865 7.70276 8.84801 8.15076 10.0592 8.72474C10.017 9.30324 9.98655 9.90555 9.96902 10.526C9.43997 10.8515 8.93313 11.1791 8.45277 11.5049ZM8.45277 12.0341C7.34972 12.7953 6.40174 13.5401 5.66454 14.216C5.009 14.8169 4.53814 15.3469 4.26952 15.7718C4.13493 15.9847 4.06414 16.1511 4.03708 16.2716C4.01074 16.389 4.03228 16.4293 4.03601 16.4357C4.03977 16.4422 4.06391 16.4811 4.179 16.517C4.29711 16.5539 4.47676 16.5758 4.72858 16.5657C5.23118 16.5457 5.92597 16.4033 6.77448 16.1363C7.72865 15.8362 8.84801 15.3882 10.0592 14.8143C10.017 14.2357 9.98655 13.6334 9.96902 13.0129C9.43997 12.6874 8.93313 12.3599 8.45277 12.0341ZM9.95744 12.492C9.57189 12.2512 9.1993 12.0098 8.84141 11.7695C9.1993 11.5291 9.57189 11.2877 9.95744 11.047C9.95356 11.2856 9.95159 11.5265 9.95159 11.7695C9.95159 12.0124 9.95356 12.2535 9.95744 12.492ZM10.3996 12.7643C10.3921 12.4375 10.3883 12.1056 10.3883 11.7695C10.3883 11.4334 10.3921 11.1015 10.3996 10.7747C10.679 10.6048 10.9647 10.4356 11.2558 10.2676C11.5471 10.0995 11.8367 9.93685 12.1237 9.77982C12.4108 9.93685 12.7003 10.0995 12.9917 10.2676C13.283 10.4356 13.5687 10.6049 13.8482 10.7749C13.8557 11.1016 13.8595 11.4334 13.8595 11.7695C13.8595 12.1055 13.8557 12.4374 13.8482 12.7641C13.5687 12.934 13.283 13.1033 12.9917 13.2714C12.7003 13.4394 12.4108 13.6021 12.1237 13.7592C11.8367 13.6021 11.5471 13.4394 11.2558 13.2714C10.9647 13.1033 10.679 12.9341 10.3996 12.7643ZM10.4145 13.2833C10.4304 13.7373 10.4532 14.1804 10.4826 14.6102C10.8698 14.4207 11.2651 14.2189 11.6665 14.0057C11.4579 13.8898 11.2481 13.7711 11.0375 13.6496C10.827 13.5281 10.6192 13.4059 10.4145 13.2833ZM12.1237 14.2562C11.5772 14.5513 11.04 14.8261 10.5175 15.0789C10.6257 16.4142 10.7972 17.6069 11.0142 18.5827C11.2071 19.4506 11.431 20.1231 11.6649 20.5681C11.7821 20.7909 11.8908 20.9354 11.9819 21.0192C12.0705 21.1007 12.1162 21.1023 12.1239 21.1023C12.1316 21.1023 12.1773 21.1007 12.266 21.0192C12.3569 20.9354 12.4657 20.7909 12.5829 20.5681C12.8168 20.1231 13.0407 19.4506 13.2336 18.5827C13.4506 17.6069 13.6221 16.4142 13.7303 15.079C13.2077 14.8262 12.6703 14.5514 12.1237 14.2562ZM14.1886 14.8144C15.3997 15.3882 16.5189 15.8363 17.473 16.1363C18.3216 16.4033 19.0163 16.5457 19.5189 16.5657C19.7707 16.5758 19.9503 16.5539 20.0685 16.517C20.1836 16.4811 20.2078 16.4422 20.2115 16.4357C20.2152 16.4293 20.2367 16.3891 20.2104 16.2716C20.1834 16.1511 20.1125 15.9847 19.978 15.7718C19.7093 15.3469 19.2385 14.8169 18.583 14.216C17.8458 13.5401 16.8977 12.7953 15.7947 12.0341C15.3144 12.3598 14.8077 12.6873 14.2787 13.0127C14.2612 13.6333 14.2307 14.2358 14.1886 14.8144ZM15.7947 11.5049C16.8977 10.7436 17.8458 9.9988 18.583 9.32302C19.2385 8.7221 19.7093 8.19207 19.978 7.76714C20.1125 7.55425 20.1834 7.38789 20.2104 7.26733C20.2367 7.14989 20.2152 7.10971 20.2115 7.10325C20.2078 7.09676 20.1836 7.05793 20.0685 7.02196C19.9503 6.98506 19.7707 6.96316 19.5189 6.97319C19.0163 6.99322 18.3216 7.13574 17.473 7.40263C16.5189 7.70274 15.3997 8.15069 14.1886 8.72461C14.2307 9.3032 14.2612 9.90561 14.2787 10.5262C14.8077 10.8516 15.3144 11.1792 15.7947 11.5049ZM14.2904 11.0472C14.6758 11.2878 15.0482 11.5292 15.4061 11.7695C15.0482 12.0097 14.6758 12.2511 14.2904 12.4918C14.2942 12.2533 14.2961 12.0124 14.2961 11.7695C14.2961 11.5265 14.2942 11.2857 14.2904 11.0472ZM13.8333 10.2558C13.8175 9.80171 13.7945 9.35853 13.7652 8.92858C13.3779 9.11815 12.9824 9.31994 12.581 9.53324C12.7897 9.64915 12.9994 9.76789 13.2099 9.88937C13.4206 10.0109 13.6284 10.1331 13.8333 10.2558ZM13.7652 14.6104C13.3779 14.4208 12.9824 14.219 12.581 14.0057C12.7897 13.8898 12.9994 13.7711 13.2099 13.6496C13.4206 13.528 13.6284 13.4058 13.8333 13.2831C13.8175 13.7373 13.7945 14.1805 13.7652 14.6104Z" fill="#5F615D"/>
<path fill-rule="evenodd" clip-rule="evenodd" d="M5.87971 9.03359C6.25913 9.03359 6.5667 9.34132 6.5667 9.72091C6.5667 10.1005 6.25913 10.4083 5.87971 10.4083C5.50029 10.4083 5.19272 10.1005 5.19272 9.72091C5.19272 9.34132 5.50029 9.03359 5.87971 9.03359Z" fill="#5F615D"/>
<path fill-rule="evenodd" clip-rule="evenodd" d="M16.798 6.67989C17.1777 6.67989 17.4854 6.98762 17.4854 7.36723C17.4854 7.74682 17.1777 8.05455 16.798 8.05455C16.4184 8.05455 16.1107 7.74682 16.1107 7.36723C16.1107 6.98762 16.4184 6.67989 16.798 6.67989Z" fill="#5F615D"/>
<path fill-rule="evenodd" clip-rule="evenodd" d="M10.7396 17.4679C11.1191 17.4679 11.4269 17.7755 11.4269 18.1549C11.4269 18.5343 11.1191 18.8419 10.7396 18.8419C10.36 18.8419 10.0522 18.5343 10.0522 18.1549C10.0522 17.7755 10.36 17.4679 10.7396 17.4679Z" fill="#5F615D"/>
<path fill-rule="evenodd" clip-rule="evenodd" d="M12.0856 10.6007C12.7284 10.6007 13.2493 11.1217 13.2493 11.7644C13.2493 12.4071 12.7284 12.9281 12.0856 12.9281C11.443 12.9281 10.922 12.4071 10.922 11.7644C10.922 11.1217 11.443 10.6007 12.0856 10.6007Z" fill="#5F615D"/>
</svg>
