<svg width="100%" height="100%" viewBox="0 0 24 24" fill="none" xmlns="http://www.w3.org/2000/svg">
<g clip-path="url(#clip0_710_8929)">
<path d="M20.9073 17.4033L17.9359 20.7685C17.8713 20.8416 17.7931 20.8999 17.7063 20.9397C17.6194 20.9795 17.5257 21.0001 17.4311 21H3.34496C3.27775 21 3.212 20.9793 3.1558 20.9403C3.09959 20.9014 3.05538 20.846 3.02859 20.7809C3.0018 20.7158 2.9936 20.6439 3.005 20.5739C3.0164 20.504 3.04689 20.4391 3.09275 20.3872L6.06643 17.022C6.13086 16.9491 6.20876 16.8909 6.29532 16.8511C6.3819 16.8113 6.47528 16.7906 6.56972 16.7905H20.655C20.7222 16.7905 20.788 16.8112 20.8442 16.8501C20.9004 16.8891 20.9446 16.9445 20.9715 17.0096C20.9982 17.0747 21.0064 17.1466 20.995 17.2165C20.9836 17.2865 20.9531 17.3514 20.9073 17.4033ZM17.9359 10.6268C17.8713 10.5537 17.7931 10.4954 17.7063 10.4555C17.6194 10.4157 17.5257 10.3952 17.4311 10.3952H3.34496C3.27775 10.3952 3.212 10.416 3.1558 10.4549C3.09959 10.4938 3.05538 10.5492 3.02859 10.6143C3.0018 10.6794 2.9936 10.7514 3.005 10.8213C3.0164 10.8912 3.04689 10.9561 3.09275 11.0081L6.06643 14.3732C6.13086 14.4462 6.20876 14.5043 6.29532 14.5441C6.3819 14.5839 6.47528 14.6046 6.56972 14.6048H20.655C20.7222 14.6048 20.788 14.584 20.8442 14.5451C20.9004 14.5062 20.9446 14.4508 20.9715 14.3857C20.9982 14.3206 21.0064 14.2486 20.995 14.1787C20.9836 14.1088 20.9531 14.0439 20.9073 13.9919L17.9359 10.6268ZM3.34496 8.20953H17.4311C17.5257 8.20957 17.6194 8.18905 17.7063 8.14922C17.7931 8.10938 17.8713 8.0511 17.9359 7.978L20.9073 4.61281C20.9531 4.56092 20.9836 4.49601 20.995 4.42606C21.0064 4.35612 20.9982 4.28418 20.9715 4.21908C20.9446 4.15399 20.9004 4.09858 20.8442 4.05966C20.788 4.02074 20.7222 4 20.655 4H6.56972C6.47528 4.00017 6.3819 4.02081 6.29532 4.06063C6.20876 4.10045 6.13086 4.15862 6.06643 4.23152L3.09352 7.59672C3.04771 7.64855 3.01722 7.7134 3.0058 7.78325C2.99437 7.85313 3.00251 7.92501 3.0292 7.99007C3.0559 8.05514 3.09999 8.11054 3.15608 8.14953C3.21217 8.18851 3.27782 8.20935 3.34496 8.20953Z" fill="#5F615D"/>
</g>
</svg>
