<svg width="100%" height="100%" viewBox="0 0 24 24" fill="none" xmlns="http://www.w3.org/2000/svg">
<path d="M21.9997 11.1836H21.7941C19.3974 11.1836 17.0006 11.1817 14.6043 11.1862C14.3338 11.1866 14.1233 11.0939 13.9499 10.8898C13.7481 10.6523 13.5395 10.42 13.3309 10.1882C13.0371 9.86176 12.6852 9.85688 12.3767 10.1758C12.1254 10.4358 11.8759 10.6977 11.6282 10.9618C11.4883 11.1112 11.3251 11.1854 11.1157 11.1854C8.14493 11.1824 5.17414 11.1836 2.20298 11.1832C2.1482 11.1832 2.09342 11.1783 2 11.1742C2.06416 10.7622 2.11106 10.3619 2.19247 9.96869C2.26826 9.60362 2.3857 9.24794 2.47462 8.8855C2.51139 8.73618 2.58793 8.69828 2.73763 8.69866C5.83974 8.70353 8.94147 8.69941 12.0436 8.70541C12.4867 8.70616 12.8431 8.56959 13.12 8.21653C13.2735 8.02068 13.4453 7.83796 13.6168 7.65674C13.8828 7.37572 14.2388 7.38435 14.4973 7.67325C14.7097 7.91 14.9262 8.14374 15.1292 8.38875C15.3205 8.61949 15.561 8.70466 15.8537 8.70428C17.6572 8.70053 19.4612 8.70466 21.2647 8.69866C21.4298 8.69791 21.497 8.74405 21.5476 8.90501C21.7784 9.63852 21.9359 10.384 21.999 11.1839L21.9997 11.1836Z" fill="#5F615D"/>
<path d="M2.9771 16.3891C2.58952 15.5914 2.32051 14.7663 2.1543 13.8816C2.24247 13.8816 2.31526 13.8816 2.38804 13.8816C4.43548 13.8816 6.48291 13.8794 8.53035 13.8835C8.93781 13.8843 9.2691 13.7481 9.52949 13.4307C9.6957 13.2284 9.87129 13.0337 10.0495 12.8416C10.3118 12.5591 10.6746 12.5598 10.9327 12.8427C11.1515 13.0821 11.3698 13.3226 11.5784 13.571C11.7656 13.7946 11.9994 13.8831 12.2857 13.8828C15.4005 13.8801 18.5154 13.8813 21.6299 13.8813C21.7038 13.8813 21.7777 13.8813 21.864 13.8813C21.7087 14.7296 21.4457 15.5231 21.0941 16.29C21.0397 16.4089 20.9534 16.3894 20.8634 16.3894C19.0906 16.3894 17.3178 16.3894 15.545 16.3894C14.0468 16.3894 12.5487 16.3857 11.0509 16.3928C10.7462 16.3943 10.5099 16.2964 10.3166 16.0604C10.123 15.824 9.91519 15.5996 9.71071 15.3723C9.4447 15.0763 9.09014 15.0639 8.81137 15.3453C8.53935 15.6199 8.28459 15.9133 7.99945 16.1737C7.88426 16.2791 7.7098 16.3778 7.5616 16.3793C6.03906 16.3943 4.51614 16.3883 2.97635 16.3883L2.9771 16.3891Z" fill="#5F615D"/>
<path d="M19.9954 6.01152C19.5046 6.01152 19.0135 6.01152 18.5228 6.01152C18.3918 6.01152 18.2605 6.0104 18.1296 6.01152C17.8977 6.01415 17.7048 5.92786 17.5506 5.75602C17.3218 5.50051 17.0974 5.24125 16.8663 4.98762C16.5984 4.69347 16.2412 4.68671 15.9654 4.96961C15.7174 5.22399 15.4706 5.48025 15.2308 5.74251C15.0601 5.92936 14.8612 6.01453 14.6039 6.01415C11.1468 6.00965 7.6894 6.01115 4.23236 6.01115C4.16445 6.01115 4.09654 6.01115 3.96973 6.01115C5.68849 3.81364 7.86687 2.45206 10.59 2.10013C14.441 1.60262 17.5701 2.97095 20.0164 5.94136C20.0093 5.96463 20.0021 5.98789 19.995 6.01115L19.9954 6.01152Z" fill="#5F615D"/>
<path d="M4.70703 18.8799C5.12125 18.8443 5.41652 18.6375 5.65927 18.3287C5.79772 18.1528 5.95493 17.9911 6.10501 17.8237C6.36126 17.5378 6.7267 17.5288 6.98709 17.8091C7.19907 18.0376 7.40843 18.2691 7.60578 18.51C7.80726 18.7565 8.05489 18.8559 8.37268 18.8555C11.9415 18.8503 15.5104 18.8521 19.0796 18.8521C19.1531 18.8521 19.227 18.8521 19.3006 18.8521C17.5957 20.6853 15.5074 21.7636 13.0262 21.9963C9.76427 22.302 6.99459 21.2245 4.70703 18.8795V18.8799Z" fill="#5F615D"/>
</svg>
