<svg width="24" height="24" viewBox="0 0 24 24" fill="none" xmlns="http://www.w3.org/2000/svg">
<path fill-rule="evenodd" clip-rule="evenodd" d="M12 22C17.5228 22 22 17.5228 22 12C22 6.47715 17.5228 2 12 2C6.47715 2 2 6.47715 2 12C2 17.5228 6.47715 22 12 22ZM15.1841 5.29474L6.62157 12.55C6.37607 12.758 6.52317 13.1592 6.84495 13.1592L10.2117 13.1592L10.9237 13.1592L11.4821 13.1592L11.1264 13.8909L11.1199 13.8857L8.86285 18.4132C8.69372 18.7525 9.11529 19.0772 9.40011 18.827L17.8817 11.378C18.1242 11.165 17.9683 10.7653 17.6456 10.7729L13.8933 10.8552L13.9008 10.8623L12.9862 10.8725L13.2911 10.283L13.2929 10.2848L15.7127 5.72021C15.8909 5.38405 15.4744 5.04877 15.1841 5.29474Z" fill="#5F615D"/>
</svg>
