<svg width="28" height="24" viewBox="0 0 28 24" xmlns="http://www.w3.org/2000/svg">
    <path
        d="M4 0C1.79086 0 1.74846e-07 1.79086 1.74846e-07 4L0 16C-9.65645e-08 18.2091 1.79086 20 4 20V8.00158L4 8L4 0Z" />
    <path
        d="M16 12V16V20C18.2091 20 20 18.2091 20 16V14V12C20 9.79086 18.2091 8 16 8H8H4L4 8.00158C4.00085 10.21 5.79139 12 8 12H16Z" />
    <path d="M8 24H12C14.2091 24 16 22.2091 16 20H12H8H4C4 22.2091 5.79086 24 8 24Z" />
    <path
        d="M28 13.9199C25.7909 13.9199 24 15.7108 24 17.9199C24 15.7108 22.2091 13.9199 20 13.9199C22.2091 13.9199 24 12.1291 24 9.91992C24 12.1291 25.7909 13.9199 28 13.9199Z" />
</svg>