<svg width="64" height="64" viewBox="0 0 64 64" fill="none" xmlns="http://www.w3.org/2000/svg">
<path d="M34.2857 48V42.5H28.8571V48H34.2857Z" fill="#4A4A49"/>
<path d="M23.4286 26L23.4286 20.5L18 20.5L18 26H23.4286Z" fill="#4A4A49"/>
<path d="M23.4286 31.5V26H18V31.5H23.4286Z" fill="#4A4A49"/>
<path d="M23.4286 37V31.5H18V37H23.4286Z" fill="#4A4A49"/>
<path d="M34.2857 31.5V26H28.8571V31.5H34.2857Z" fill="#4A4A49"/>
<path d="M39.7143 31.5V26H34.2857V31.5H39.7143Z" fill="#4A4A49"/>
<path d="M45.1429 37V31.5H39.7143V37H45.1429Z" fill="#4A4A49"/>
<path d="M23.4286 15V20.5L18 20.5C18 17.4624 20.4305 15 23.4286 15Z" fill="#4A4A49"/>
<path d="M56 34.14C53.0019 34.14 50.5714 36.6024 50.5714 39.64V34.14H56Z" fill="#4A4A49"/>
<path d="M45.1429 34.14C48.141 34.14 50.5714 36.6024 50.5714 39.64V34.14H45.1429Z" fill="#4A4A49"/>
<path d="M45.1429 34.14C48.141 34.14 50.5714 31.6776 50.5714 28.64V34.14H45.1429Z" fill="#4A4A49"/>
<path d="M56 34.14C53.0019 34.14 50.5714 31.6776 50.5714 28.64V34.14H56Z" fill="#4A4A49"/>
<path d="M45.1429 31.5H39.7143V26C42.7124 26 45.1429 28.4624 45.1429 31.5Z" fill="#4A4A49"/>
<path d="M23.4286 26H28.8571V31.5C25.859 31.5 23.4286 29.0376 23.4286 26Z" fill="#4A4A49"/>
<path d="M39.7143 42.5V37H45.1429C45.1429 40.0376 42.7124 42.5 39.7143 42.5Z" fill="#4A4A49"/>
<path d="M39.7143 42.5H34.2857V48C37.2838 48 39.7143 45.5376 39.7143 42.5Z" fill="#4A4A49"/>
<path d="M23.4286 42.5H28.8571V48C25.859 48 23.4286 45.5376 23.4286 42.5Z" fill="#4A4A49"/>
<path d="M18 37H23.4286L23.4286 42.5C20.4305 42.5 18 40.0376 18 37Z" fill="#4A4A49"/>
<rect x="32" y="10" width="29" height="10" rx="5" fill="#BFF589"/>
<path d="M37.3521 17H39.8541C40.8381 17 41.3481 16.52 41.3481 15.782C41.3481 15.212 41.0121 14.882 40.6401 14.75C40.9461 14.636 41.2401 14.336 41.2401 13.898C41.2401 13.196 40.7481 12.74 39.8121 12.74H37.3521V17ZM39.6501 13.562C40.0101 13.562 40.2021 13.688 40.2021 13.982C40.2021 14.27 40.0041 14.402 39.6501 14.402H38.3541V13.562H39.6501ZM39.6741 15.224C40.1001 15.224 40.3101 15.38 40.3101 15.698C40.3101 16.016 40.1001 16.178 39.6741 16.178H38.3541V15.224H39.6741Z" fill="#232524"/>
<path d="M42.4744 17H46.2724V16.118H43.4944V15.206H45.0124V14.348H43.4944V13.58H46.0384V12.74H42.4744V17Z" fill="#232524"/>
<path d="M46.9391 13.628H48.5531V17H49.5671V13.628H51.1811V12.74H46.9391V13.628Z" fill="#232524"/>
<path d="M54.9814 17H56.0614L54.2014 12.734H53.1574L51.2914 17H52.3174L52.6354 16.262H54.6634L54.9814 17ZM53.0014 15.41L53.6494 13.904L54.2974 15.41H53.0014Z" fill="#232524"/>
</svg>
