<svg width="24" height="24" viewBox="0 0 24 24" fill="none" xmlns="http://www.w3.org/2000/svg">
<g clip-path="url(#clip0_710_8924)">
<path d="M17.1042 8.8718C16.7396 8.68075 16.2708 8.68075 15.8542 8.8718L12.9375 10.4479L10.9583 11.4509L8.09375 13.027C7.72917 13.2181 7.26042 13.2181 6.84375 13.027L4.60417 11.7852C4.23958 11.5942 3.97917 11.2121 3.97917 10.7822V8.39418C3.97917 8.01209 4.1875 7.63 4.60417 7.3912L6.84375 6.19717C7.20833 6.00612 7.67708 6.00612 8.09375 6.19717L10.3333 7.43896C10.6979 7.63 10.9583 8.01209 10.9583 8.44195V10.0181L12.9375 8.96732V7.34344C12.9375 6.96135 12.7292 6.57926 12.3125 6.34045L8.14583 4.09568C7.78125 3.90463 7.3125 3.90463 6.89583 4.09568L2.625 6.38821C2.20833 6.57926 2 6.96135 2 7.34344V11.833C2 12.2151 2.20833 12.5972 2.625 12.836L6.84375 15.0808C7.20833 15.2718 7.67708 15.2718 8.09375 15.0808L10.9583 13.5524L12.9375 12.5016L15.8021 10.9733C16.1667 10.7822 16.6354 10.7822 17.0521 10.9733L19.2917 12.1673C19.6562 12.3584 19.9167 12.7405 19.9167 13.1703V15.5584C19.9167 15.9405 19.7083 16.3225 19.2917 16.5613L17.1042 17.7554C16.7396 17.9464 16.2708 17.9464 15.8542 17.7554L13.6146 16.5613C13.25 16.3703 12.9896 15.9882 12.9896 15.5584V14.03L11.0104 15.0808V16.6569C11.0104 17.039 11.2187 17.4211 11.6354 17.6599L15.8542 19.9046C16.2187 20.0957 16.6875 20.0957 17.1042 19.9046L21.3229 17.6599C21.6875 17.4688 21.9479 17.0867 21.9479 16.6569V12.1196C21.9479 11.7375 21.7396 11.3554 21.3229 11.1166L17.1042 8.8718Z" fill="#5F615D"/>
</g>
</svg>
