<svg width="34" height="24" viewBox="0 0 34 24" fill="none" xmlns="http://www.w3.org/2000/svg">
<path d="M19.2001 4.80015L19.2 19.2003C21.8509 19.2003 24.0001 17.0512 24.0001 14.4002L24 12.096L24.0001 9.6002C24.0001 6.94923 21.8511 4.80015 19.2001 4.80015Z" fill="#F8FAF6" fill-opacity="0.3"/>
<path d="M19.2001 4.80015L19.2 4.76245C19.1797 2.12884 17.0383 0 14.3999 0H4.80002C4.80003 2.65097 6.94894 4.80015 9.59991 4.80015H19.2001Z" fill="#F8FAF6" fill-opacity="0.3"/>
<path d="M2.09815e-07 14.4002C3.25692e-07 17.0512 2.14903 19.2003 4.8 19.2003L4.8 4.8C2.14903 4.8 0 6.94923 0 9.6002L2.09815e-07 14.4002Z" fill="#F8FAF6" fill-opacity="0.3"/>
<path d="M9.59991 24.0003H19.2001C19.2001 21.3619 17.0714 19.2206 14.4379 19.2003H4.8C4.8 21.8512 6.94894 24.0003 9.59991 24.0003Z" fill="#F8FAF6" fill-opacity="0.3"/>
<path d="M28.8 16.896C28.8 14.245 30.949 12.096 33.6 12.096C30.949 12.096 28.8 9.94697 28.8 7.296C28.8 9.94697 26.651 12.096 24 12.096C26.651 12.096 28.8 14.245 28.8 16.896Z" fill="#F8FAF6" fill-opacity="0.3"/>
</svg>
