<svg width="24" height="24" viewBox="0 0 24 24" fill="none" xmlns="http://www.w3.org/2000/svg">
<g clip-path="url(#clip0_710_6445)">
<path fill-rule="evenodd" clip-rule="evenodd" d="M21.9802 12C21.9802 17.5156 17.5091 21.9867 11.9935 21.9867C6.47803 21.9867 2.00684 17.5156 2.00684 12C2.00684 6.4845 6.47803 2.01331 11.9935 2.01331C17.5091 2.01331 21.9802 6.4845 21.9802 12ZM9.16359 15.9742H7.22545C6.81819 15.9742 6.61702 15.9742 6.49436 15.8958C6.36188 15.8098 6.28092 15.6676 6.27111 15.5105C6.26374 15.3658 6.36434 15.1891 6.56551 14.8358L11.351 6.40074C11.5546 6.04255 11.6577 5.86345 11.7877 5.79721C11.9275 5.72607 12.0944 5.72607 12.2342 5.79721C12.3642 5.86345 12.4673 6.04255 12.6709 6.40074L13.6547 8.11808L13.6597 8.12684C13.8797 8.51111 13.9912 8.70598 14.0399 8.9105C14.0938 9.13376 14.0938 9.36928 14.0399 9.59253C13.9908 9.79861 13.8804 9.99489 13.6572 10.385L11.1434 14.8285L11.1369 14.8399C10.9156 15.2273 10.8034 15.4237 10.6479 15.5718C10.4786 15.7338 10.275 15.8515 10.0517 15.9178C9.84807 15.9742 9.61992 15.9742 9.16359 15.9742ZM14.058 15.9742H16.8352C17.2449 15.9742 17.451 15.9742 17.5737 15.8934C17.7062 15.8075 17.7896 15.6626 17.797 15.5057C17.804 15.3657 17.7056 15.1959 17.5128 14.8631C17.5062 14.8518 17.4995 14.8403 17.4927 14.8285L16.1017 12.4488L16.0858 12.422C15.8903 12.0915 15.7917 11.9245 15.6649 11.86C15.5252 11.7888 15.3607 11.7888 15.2209 11.86C15.0933 11.9262 14.9903 12.1004 14.7867 12.4513L13.4005 14.831L13.3958 14.8392C13.1929 15.1895 13.0915 15.3645 13.0988 15.5081C13.1086 15.6652 13.1895 15.8098 13.322 15.8958C13.4422 15.9742 13.6483 15.9742 14.058 15.9742Z" fill="#5F615D"/>
</g>
</svg>
