<svg width="100%" height="100%" viewBox="0 0 24 24" fill="none" xmlns="http://www.w3.org/2000/svg">
<path d="M14.9067 2.43348V6.16806C14.9067 7.37512 13.9267 8.35545 12.7133 8.35545H12.68C12.0733 8.34878 11.5267 8.35545 11.5267 8.35545C11.42 8.35545 11.3067 8.34211 11.2067 8.35545C10.5267 8.42881 9.93333 8.73558 9.43333 9.28243C9.42 9.29576 9.40667 9.31577 9.39333 9.32911C8.99333 9.84928 8.77333 10.5162 8.77333 11.2431V11.2764C8.77333 11.7432 8.86667 12.1834 9.04 12.5835C9.21333 12.977 9.12667 13.4438 8.79333 13.7172C8.46667 13.9907 8.08 14.3108 7.82 14.5175C7.06667 13.6572 6.62 12.5368 6.62 11.3098V11.2764C6.62 8.60887 8.75333 6.38813 11.6533 6.38813C11.8333 6.38813 12.4267 6.38813 12.7 6.38813V2.02668C12.4733 2.01334 12.24 2 12 2C6.48 2 2 6.48149 2 12.0033C2 16.5182 4.98667 20.3328 9.09333 21.5732V17.872C9.09333 16.6516 10.0867 15.6579 11.3067 15.6579H11.3133C11.92 15.6646 12.4667 15.6579 12.4667 15.6579C12.5733 15.6579 12.6867 15.6712 12.7867 15.6579C13.4667 15.5845 14.06 15.2778 14.56 14.7309C14.5733 14.7176 14.5867 14.6976 14.6 14.6842C15 14.1641 15.22 13.4905 15.22 12.7703V12.7369C15.22 12.3768 15.0667 11.89 14.9133 11.4965C14.7467 11.063 14.8733 10.5562 15.2333 10.2561C15.54 9.996 15.86 9.74258 16.1733 9.48916C16.9267 10.3494 17.3733 11.4698 17.3733 12.6969V12.7302C17.3733 15.3978 15.24 17.6185 12.34 17.6185C12.16 17.6185 11.5667 17.6185 11.2933 17.6185V21.9733C11.5267 21.9867 11.7667 22 12 22C17.52 22 22 17.5185 22 11.9967C22 7.4885 19.0133 3.68056 14.9067 2.43348Z" fill="#5F615D"/>
</svg>
