<svg width="135" height="30" viewBox="0 0 135 30" fill="none" xmlns="http://www.w3.org/2000/svg">
<g clip-path="url(#clip0_1027_7197)">
<path d="M12.0183 21.4805V25.7207H8.01172V21.4805H12.0183Z" fill="#BFF589"/>
<path d="M4.00655 4.51953V8.75974H0L1.75132e-07 4.51953H4.00655Z" fill="#BFF589"/>
<path d="M4.00655 8.75977V12.9999H0V8.75977H4.00655Z" fill="#BFF589"/>
<path d="M4.00655 13V17.2402H0V13H4.00655Z" fill="#BFF589"/>
<path d="M12.0183 8.75977V12.9999H8.01172V8.75977H12.0183Z" fill="#BFF589"/>
<path d="M16.0261 8.75977V12.9999H12.0195V8.75977H16.0261Z" fill="#BFF589"/>
<path d="M20.0338 13V17.2402H16.0273V13H20.0338Z" fill="#BFF589"/>
<path d="M4.00655 0.279297V4.5195H0C0 2.1777 1.79379 0.279297 4.00655 0.279297Z" fill="#BFF589"/>
<path d="M28.0456 15.0352C25.8328 15.0352 24.0391 16.9335 24.0391 19.2754V15.0352H28.0456Z" fill="#BFF589"/>
<path d="M20.0332 15.0352C22.246 15.0352 24.0398 16.9335 24.0398 19.2754V15.0352H20.0332Z" fill="#BFF589"/>
<path d="M20.0332 15.0351C22.246 15.0351 24.0398 13.1367 24.0398 10.7949V15.0351H20.0332Z" fill="#BFF589"/>
<path d="M28.0456 15.0351C25.8328 15.0351 24.0391 13.1367 24.0391 10.7949V15.0351H28.0456Z" fill="#BFF589"/>
<path d="M20.0338 12.9999H16.0273V8.75977C18.2401 8.75977 20.0338 10.6581 20.0338 12.9999Z" fill="#BFF589"/>
<path d="M4.00781 8.75977H8.01434V12.9999C5.80163 12.9999 4.00781 11.1015 4.00781 8.75977Z" fill="#BFF589"/>
<path d="M16.0273 21.4805V17.2402H20.0338C20.0338 19.582 18.2401 21.4805 16.0273 21.4805Z" fill="#BFF589"/>
<path d="M16.0261 21.4805H12.0195V25.7207C14.2322 25.7207 16.0261 23.8222 16.0261 21.4805Z" fill="#BFF589"/>
<path d="M4.00781 21.4805H8.01434V25.7207C5.80163 25.7207 4.00781 23.8222 4.00781 21.4805Z" fill="#BFF589"/>
<path d="M0 17.2402H4.00655V21.4805C1.79379 21.4805 -9.67233e-08 19.582 0 17.2402Z" fill="#BFF589"/>
<path d="M31.0508 21.4802H38.0679C40.8276 21.4802 42.2579 20.0555 42.2579 17.865C42.2579 16.1731 41.3156 15.1937 40.2723 14.8019C41.1305 14.4635 41.955 13.5731 41.955 12.2731C41.955 10.1894 40.5752 8.83594 37.9501 8.83594H31.0508V21.4802ZM37.4957 11.2757C38.5054 11.2757 39.0438 11.6497 39.0438 12.5224C39.0438 13.3771 38.4886 13.769 37.4957 13.769H33.861V11.2757H37.4957ZM37.5631 16.2088C38.7578 16.2088 39.3467 16.6718 39.3467 17.6157C39.3467 18.5596 38.7578 19.0404 37.5631 19.0404H33.861V16.2088H37.5631Z" fill="#CFD1CC"/>
<path d="M53.6458 18.8088H46.5951V8.83594H43.7344V21.4802H53.6458V18.8088Z" fill="#CFD1CC"/>
<path d="M60.0861 21.6928C63.6536 21.6928 66.4133 19.0037 66.4133 15.157C66.4133 11.2568 63.6536 8.62109 60.0861 8.62109C56.5019 8.62109 53.7422 11.2568 53.7422 15.157C53.7422 19.0037 56.5019 21.6928 60.0861 21.6928ZM60.0861 18.9858C57.9996 18.9858 56.6533 17.3118 56.6533 15.157C56.6533 13.0199 57.9996 11.3281 60.0861 11.3281C62.1896 11.3281 63.5021 13.0377 63.5021 15.157C63.5021 17.294 62.1896 18.9858 60.0861 18.9858Z" fill="#CFD1CC"/>
<path d="M73.4533 21.6928C77.4749 21.6928 78.8889 18.6831 79.1071 17.4187H76.2133C75.9438 17.8995 75.2203 18.968 73.4533 18.968C71.4677 18.968 70.2562 17.2406 70.2562 15.157C70.2562 13.0733 71.4677 11.3459 73.4533 11.3459C75.1025 11.3459 75.9272 12.4144 76.196 12.8953H79.1071C78.8383 11.4527 77.3239 8.62109 73.4533 8.62109C69.8691 8.62109 67.3281 11.3815 67.3281 15.157C67.3281 18.9324 69.8691 21.6928 73.4533 21.6928Z" fill="#CFD1CC"/>
<path d="M88.8977 21.4802H92.8023L86.4584 14.9265L92.5328 8.83594H88.8139L83.3449 14.3032V8.83594H80.4844V21.4802H83.3449V15.7992L88.8977 21.4802Z" fill="#CFD1CC"/>
<path d="M101.374 8.83594H98.5134V16.9924C98.5134 18.1499 97.9412 19.0048 96.7967 19.0048C95.6355 19.0048 95.0806 18.1499 95.0806 16.9924V13.8758H92.3711V17.2595C92.3711 19.9843 93.8689 21.7295 96.7967 21.7295C99.7078 21.7295 101.374 19.9843 101.374 17.2595V8.83594Z" fill="#CFD1CC"/>
<path d="M109.158 21.6928C112.726 21.6928 115.485 19.0037 115.485 15.157C115.485 11.2568 112.726 8.62109 109.158 8.62109C105.574 8.62109 102.814 11.2568 102.814 15.157C102.814 19.0037 105.574 21.6928 109.158 21.6928ZM109.158 18.9858C107.072 18.9858 105.726 17.3118 105.726 15.157C105.726 13.0199 107.072 11.3281 109.158 11.3281C111.262 11.3281 112.574 13.0377 112.574 15.157C112.574 17.294 111.262 18.9858 109.158 18.9858Z" fill="#CFD1CC"/>
<path d="M122.935 16.1731L128 8.83594H124.786L121.522 13.4306L118.274 8.83594H114.639L119.939 16.1553V21.4802H122.935V16.1731Z" fill="#CFD1CC"/>
</g>
<defs>
<clipPath id="clip0_1027_7197">
<rect width="135" height="26" fill="white"/>
</clipPath>
</defs>
</svg>
