<svg width="12" height="12" viewBox="0 0 12 12" fill="none" xmlns="http://www.w3.org/2000/svg">
    <path
        d="M5.25 6.41479L1 3.75879V8.49979C1 8.66939 1.04314 8.83621 1.12536 8.98456C1.20758 9.1329 1.32617 9.2579 1.47 9.34779L5.25 11.7098V6.41479Z"
        fill="currentColor" />
    <path
        d="M5.99998 5.115L10.236 2.468L6.52998 0.152002C6.37105 0.0526697 6.1874 0 5.99998 0C5.81256 0 5.62891 0.0526697 5.46998 0.152002L1.76398 2.469L5.99998 5.115Z"
        fill="currentColor" />
    <path
        d="M6.75 6.41479V11.7148L10.53 9.35279C10.6745 9.26245 10.7936 9.13666 10.8759 8.98737C10.9581 8.83808 11.0009 8.67024 11 8.49979V3.75879L6.75 6.41479Z"
        fill="currentColor" />
</svg>