<svg width="16" height="16" viewBox="0 0 16 16" fill="none" xmlns="http://www.w3.org/2000/svg">
<path d="M15.8666 3.40932C15.7966 3.12713 15.4435 3.03151 15.2378 3.23713L12.9141 5.56088L10.7929 5.20744L10.4394 3.0862L12.7632 0.762452C12.97 0.555578 12.8704 0.203078 12.5863 0.132453C11.1057 -0.234421 9.47536 0.160891 8.31818 1.31776C7.07943 2.55651 6.7385 4.35213 7.25412 5.91775L0.585702 12.5862C-0.195234 13.3671 -0.195234 14.6334 0.585702 15.4143C1.36664 16.1952 2.63288 16.1952 3.41382 15.4143L10.0766 8.7515C11.6429 9.27369 13.435 8.929 14.6819 7.68213C15.8403 6.52369 16.235 4.89088 15.8666 3.40932ZM2.00007 14.7499C1.58601 14.7499 1.25007 14.414 1.25007 13.9999C1.25007 13.5856 1.58601 13.2499 2.00007 13.2499C2.41413 13.2499 2.75007 13.5856 2.75007 13.9999C2.75007 14.414 2.41413 14.7499 2.00007 14.7499Z" fill="#212423"/>
</svg>
