<svg width="12" height="8" viewBox="0 0 12 8" fill="none" xmlns="http://www.w3.org/2000/svg">
    <path
        d="M10.2807 6.70643L5.98771 2.41343L1.69471 6.70643C1.50611 6.88859 1.25351 6.98938 0.991311 6.9871C0.729114 6.98483 0.478301 6.87966 0.292893 6.69425C0.107485 6.50884 0.00231622 6.25803 3.78026e-05 5.99583C-0.00224062 5.73364 0.0985538 5.48103 0.280712 5.29243L5.28071 0.292431C5.46824 0.10496 5.72255 -0.000355721 5.98771 -0.000355721C6.25288 -0.000355721 6.50718 0.10496 6.69471 0.292431L11.6947 5.29243C11.7902 5.38468 11.8664 5.49502 11.9188 5.61703C11.9712 5.73903 11.9988 5.87025 12 6.00303C12.0011 6.13581 11.9758 6.26749 11.9255 6.39038C11.8753 6.51328 11.801 6.62493 11.7071 6.71883C11.6132 6.81272 11.5016 6.88697 11.3787 6.93725C11.2558 6.98753 11.1241 7.01283 10.9913 7.01168C10.8585 7.01053 10.7273 6.98294 10.6053 6.93053C10.4833 6.87812 10.373 6.80194 10.2807 6.70643Z"
        fill="currentColor" />
</svg>