<svg width="10" height="10" viewBox="0 0 10 10" fill="none" xmlns="http://www.w3.org/2000/svg">
<g clip-path="url(#clip0_2352_703)">
<path d="M7.25549 1.43275L3.67799 5.01024L7.25549 8.58774C7.40729 8.74491 7.49128 8.95541 7.48938 9.17391C7.48749 9.3924 7.39985 9.60142 7.24534 9.75592C7.09083 9.91043 6.88183 9.99807 6.66333 9.99997C6.44483 10.0019 6.23433 9.91787 6.07716 9.76607L1.91049 5.59941C1.75427 5.44313 1.6665 5.23121 1.6665 5.01024C1.6665 4.78927 1.75427 4.57735 1.91049 4.42108L6.07716 0.254417C6.15403 0.174833 6.24598 0.111333 6.34766 0.0676664C6.44933 0.0239997 6.55867 0.00100002 6.66932 1.97383e-08C6.77997 -0.000916652 6.88971 0.0201667 6.99212 0.0620834C7.09453 0.103917 7.18758 0.165833 7.26583 0.244083C7.34407 0.322333 7.40594 0.415333 7.44784 0.51775C7.48974 0.620166 7.51083 0.729917 7.50987 0.840584C7.50891 0.95125 7.48592 1.06058 7.44224 1.16225C7.39857 1.26392 7.33508 1.35583 7.25549 1.43275Z" fill="black"/>
</g>
</svg>
