<svg width="12" height="12" viewBox="0 0 12 12" fill="none" xmlns="http://www.w3.org/2000/svg">
    <path
        d="M7.25 0.5H1.75C1.28603 0.500529 0.841222 0.685074 0.513148 1.01315C0.185074 1.34122 0.00052934 1.78603 0 2.25V6.25C0.00052934 6.71397 0.185074 7.15878 0.513148 7.48685C0.841222 7.81493 1.28603 7.99947 1.75 8H2V6.5H1.75C1.6837 6.5 1.62011 6.47366 1.57322 6.42678C1.52634 6.37989 1.5 6.3163 1.5 6.25V2.25C1.5 2.1837 1.52634 2.12011 1.57322 2.07322C1.62011 2.02634 1.6837 2 1.75 2H7.25C7.3163 2 7.37989 2.02634 7.42678 2.07322C7.47366 2.12011 7.5 2.1837 7.5 2.25V6.25C7.5 6.3163 7.47366 6.37989 7.42678 6.42678C7.37989 6.47366 7.3163 6.5 7.25 6.5H5.5V8H7.25C7.71397 7.99947 8.15878 7.81493 8.48685 7.48685C8.81493 7.15878 8.99947 6.71397 9 6.25V2.25C8.99947 1.78603 8.81493 1.34122 8.48685 1.01315C8.15878 0.685074 7.71397 0.500529 7.25 0.5Z"
        fill="currentColor" />
    <path
        d="M10.25 4H10V5.5H10.25C10.3163 5.5 10.3799 5.52634 10.4268 5.57322C10.4737 5.62011 10.5 5.6837 10.5 5.75V9.75C10.5 9.8163 10.4737 9.87989 10.4268 9.92678C10.3799 9.97366 10.3163 10 10.25 10H4.75C4.6837 10 4.62011 9.97366 4.57322 9.92678C4.52634 9.87989 4.5 9.8163 4.5 9.75V5.75C4.5 5.6837 4.52634 5.62011 4.57322 5.57322C4.62011 5.52634 4.6837 5.5 4.75 5.5H6.5V4H4.75C4.28603 4.00053 3.84122 4.18507 3.51315 4.51315C3.18507 4.84122 3.00053 5.28603 3 5.75V9.75C3.00053 10.214 3.18507 10.6588 3.51315 10.9869C3.84122 11.3149 4.28603 11.4995 4.75 11.5H10.25C10.714 11.4995 11.1588 11.3149 11.4869 10.9869C11.8149 10.6588 11.9995 10.214 12 9.75V5.75C11.9995 5.28603 11.8149 4.84122 11.4869 4.51315C11.1588 4.18507 10.714 4.00053 10.25 4Z"
        fill="currentColor" />
</svg>