<svg width="12" height="11" viewBox="0 0 12 11" fill="none" xmlns="http://www.w3.org/2000/svg">
<path d="M3.99992 11.0001C3.73472 11 3.48041 10.8946 3.29292 10.7071L0.292919 7.70706C0.110761 7.51846 0.00996641 7.26586 0.0122448 7.00366C0.0145233 6.74147 0.119692 6.49065 0.3051 6.30524C0.490508 6.11984 0.741321 6.01467 1.00352 6.01239C1.26571 6.01011 1.51832 6.11091 1.70692 6.29306L3.90692 8.49306L10.2099 0.386063C10.3728 0.176542 10.6122 0.0402918 10.8755 0.00728544C11.1388 -0.025721 11.4044 0.0472204 11.6139 0.210063C11.8234 0.372906 11.9597 0.612311 11.9927 0.875613C12.0257 1.13891 11.9528 1.40454 11.7899 1.61406L4.78992 10.6141C4.70296 10.7264 4.59305 10.819 4.46752 10.8855C4.34199 10.9521 4.20372 10.9911 4.06192 11.0001H3.99992Z" fill="#BFF589"/>
</svg>
