<svg width="12" height="12" viewBox="0 0 12 12" fill="none" xmlns="http://www.w3.org/2000/svg">
    <path
        d="M4.53 4.47C4.46134 4.39631 4.37854 4.33721 4.28654 4.29622C4.19454 4.25523 4.09522 4.23319 3.99452 4.23141C3.89382 4.22963 3.79379 4.24816 3.7004 4.28588C3.60701 4.3236 3.52218 4.37974 3.45096 4.45096C3.37974 4.52218 3.3236 4.60702 3.28588 4.7004C3.24816 4.79379 3.22963 4.89382 3.23141 4.99452C3.23318 5.09523 3.25523 5.19454 3.29622 5.28654C3.33721 5.37854 3.39631 5.46134 3.47 5.53L5.47 7.53C5.5395 7.59979 5.62209 7.65516 5.71304 7.69294C5.804 7.73072 5.90151 7.75017 6 7.75017C6.09849 7.75017 6.196 7.73072 6.28696 7.69294C6.37791 7.65516 6.4605 7.59979 6.53 7.53L11.53 2.53C11.6625 2.38783 11.7346 2.19978 11.7312 2.00548C11.7277 1.81118 11.649 1.62579 11.5116 1.48838C11.3742 1.35097 11.1888 1.27225 10.9945 1.26883C10.8002 1.2654 10.6122 1.33752 10.47 1.47L6 5.939L4.53 4.47Z"
        fill="currentColor" />
    <path
        d="M11.1 6.02C10.9713 5.99371 10.8387 5.99303 10.7097 6.018C10.5808 6.04298 10.458 6.09311 10.3484 6.16555C10.2388 6.23798 10.1446 6.33129 10.0711 6.44015C9.99758 6.54902 9.94624 6.67129 9.92 6.8C9.76167 7.57505 9.37708 8.28575 8.81486 8.84224C8.25264 9.39873 7.53804 9.77603 6.76141 9.92642C5.98478 10.0768 5.181 9.99356 4.45169 9.68717C3.72237 9.38078 3.10028 8.86502 2.66407 8.20511C2.22785 7.54519 1.9971 6.77075 2.00099 5.97971C2.00488 5.18866 2.24324 4.41653 2.68592 3.76093C3.12861 3.10534 3.75574 2.59573 4.48803 2.29653C5.22032 1.99733 6.02489 1.92198 6.8 2.08C7.06004 2.13304 7.33051 2.08061 7.5519 1.93424C7.77328 1.78787 7.92746 1.55955 7.9805 1.2995C8.03354 1.03946 7.98111 0.768991 7.83474 0.547605C7.68837 0.326218 7.46004 0.172045 7.2 0.119001C6.80494 0.0395953 6.40296 -0.000268083 6 1.35672e-06C4.86476 0.000233066 3.75289 0.322525 2.79351 0.929444C1.83413 1.53636 1.06661 2.403 0.580111 3.42871C0.0936075 4.45442 -0.091922 5.5971 0.0450704 6.72404C0.182063 7.85098 0.635955 8.91593 1.35403 9.79521C2.07211 10.6745 3.0249 11.332 4.10175 11.6914C5.17859 12.0508 6.3353 12.0973 7.43753 11.8256C8.53976 11.5538 9.54227 10.9749 10.3286 10.1561C11.115 9.33736 11.653 8.3123 11.88 7.2C11.9063 7.0713 11.907 6.93869 11.882 6.80973C11.857 6.68077 11.8069 6.55799 11.7345 6.44841C11.662 6.33883 11.5687 6.2446 11.4598 6.17109C11.351 6.09758 11.2287 6.04624 11.1 6.02Z"
        fill="currentColor" />
</svg>