<svg width="24" height="24" viewBox="0 0 24 24" fill="none" xmlns="http://www.w3.org/2000/svg">
<circle cx="12" cy="12" r="12" fill="#85F550" fill-opacity="0.1"/>
<path d="M9.59971 18.0014C9.28147 18.0014 8.9763 17.8749 8.75131 17.6498L5.15131 14.0498C4.93272 13.8235 4.81176 13.5204 4.8145 13.2058C4.81723 12.8911 4.94344 12.5902 5.16593 12.3677C5.38841 12.1452 5.68939 12.019 6.00403 12.0162C6.31866 12.0135 6.62178 12.1345 6.84811 12.353L9.48811 14.993L17.0517 5.26464C17.2471 5.01322 17.5344 4.84972 17.8504 4.81011C18.1663 4.7705 18.4851 4.85803 18.7365 5.05344C18.9879 5.24885 19.1514 5.53614 19.191 5.8521C19.2306 6.16806 19.1431 6.48682 18.9477 6.73824L10.5477 17.5382C10.4434 17.6731 10.3115 17.7841 10.1608 17.864C10.0102 17.9439 9.84427 17.9907 9.67411 18.0014H9.59971Z" fill="#BFF589"/>
</svg>
