<svg width="12" height="12" viewBox="0 0 12 12" fill="none" xmlns="http://www.w3.org/2000/svg">
    <path
        d="M6.00002 4C6.32428 3.99943 6.64353 3.92003 6.93028 3.76865C7.21702 3.61726 7.46266 3.39843 7.64602 3.131C8.15089 3.37978 8.5938 3.7382 8.94242 4.18007C9.29103 4.62194 9.53655 5.1361 9.66103 5.685C9.69827 5.85141 9.79103 6.0002 9.92407 6.10688C10.0571 6.21357 10.2225 6.2718 10.393 6.272C10.4478 6.27223 10.5025 6.26653 10.556 6.255C10.7502 6.21173 10.9193 6.09319 11.0261 5.92539C11.133 5.7576 11.1689 5.55425 11.126 5.36C10.9374 4.53129 10.5514 3.76039 10.0009 3.11289C9.45038 2.46539 8.75161 1.96044 7.96402 1.641C7.89575 1.26682 7.72219 0.919871 7.46371 0.640843C7.20523 0.361814 6.87255 0.162277 6.50468 0.0656354C6.1368 -0.0310062 5.749 -0.0207447 5.38676 0.0952161C5.02451 0.211177 4.70284 0.428029 4.45948 0.720336C4.21612 1.01264 4.06115 1.36829 4.01276 1.74555C3.96437 2.12281 4.02456 2.50605 4.18627 2.85032C4.34798 3.19458 4.60451 3.4856 4.92576 3.68923C5.24701 3.89286 5.61967 4.00067 6.00002 4Z"
        fill="currentColor" />
    <path
        d="M2.31202 7.032C2.27887 6.85634 2.25815 6.67857 2.25002 6.5C2.24779 5.52267 2.62953 4.58357 3.31302 3.885C3.38177 3.81441 3.43594 3.73098 3.47244 3.63946C3.50895 3.54793 3.52707 3.45012 3.52576 3.3516C3.52446 3.25307 3.50377 3.15577 3.46487 3.06525C3.42596 2.97472 3.36961 2.89274 3.29902 2.824C3.22844 2.75525 3.145 2.70108 3.05348 2.66458C2.96196 2.62807 2.86415 2.60996 2.76562 2.61126C2.56665 2.61388 2.37687 2.69544 2.23802 2.838C1.28117 3.81641 0.746813 5.13147 0.750025 6.5C0.75308 6.79613 0.780843 7.09148 0.833025 7.383C0.456795 7.6532 0.186019 8.04562 0.0669281 8.49325C-0.0521633 8.94089 -0.0121858 9.41598 0.180035 9.83742C0.372256 10.2589 0.704801 10.6005 1.12089 10.804C1.53699 11.0076 2.01083 11.0604 2.46151 10.9534C2.9122 10.8465 3.31179 10.5864 3.59206 10.2176C3.87232 9.84878 4.01589 9.39414 3.99824 8.93127C3.9806 8.4684 3.80284 8.02601 3.49531 7.67962C3.18778 7.33323 2.76955 7.10433 2.31202 7.032Z"
        fill="currentColor" />
    <path
        d="M10 7C9.46959 7 8.96088 7.21071 8.58581 7.58578C8.21074 7.96086 8.00002 8.46956 8.00002 9C8.00386 9.19695 8.03758 9.39217 8.10003 9.579C7.67045 9.87162 7.18542 10.073 6.67491 10.1707C6.16441 10.2684 5.63929 10.2603 5.13202 10.147C4.93855 10.1003 4.73446 10.1324 4.56464 10.2362C4.39483 10.34 4.2732 10.507 4.22652 10.7005C4.17985 10.894 4.21194 11.0981 4.31574 11.2679C4.41954 11.4377 4.58655 11.5593 4.78003 11.606C5.51208 11.7823 6.27374 11.7969 7.01202 11.6489C7.75031 11.5009 8.44748 11.1938 9.05503 10.749C9.34396 10.9107 9.66895 10.997 10 11C10.5305 11 11.0392 10.7893 11.4142 10.4142C11.7893 10.0391 12 9.53043 12 9C12 8.46956 11.7893 7.96086 11.4142 7.58578C11.0392 7.21071 10.5305 7 10 7Z"
        fill="currentColor" />
</svg>