<svg width="120" height="120" viewBox="0 0 120 120" fill="none" xmlns="http://www.w3.org/2000/svg">
<rect width="120" height="120" fill="#E5E5E5"/>
<rect width="1680" height="1211" transform="translate(-437 -416)" fill="#212423"/>
<path d="M20.3022 103.647C11.4935 95.6356 5.31498 85.1461 2.57883 73.5576C-0.157313 61.9691 0.676921 49.8239 4.97188 38.7184C9.26685 27.6129 16.8215 18.0667 26.643 11.3347C36.4644 4.60276 48.0929 1 60 1" stroke="#F8FAF6" stroke-opacity="0.2" stroke-width="2"/>
<path d="M63.7286 1.11793C72.9741 1.70338 81.9518 4.45776 89.9349 9.15807C97.918 13.8584 104.682 20.3725 109.679 28.173C114.677 35.9736 117.767 44.8413 118.7 54.0582C119.633 63.2752 118.382 72.5823 115.05 81.226C111.717 89.8698 106.395 97.6072 99.516 103.812C92.6367 110.017 84.3931 114.514 75.4524 116.941C66.5117 119.367 57.1254 119.654 48.0532 117.778C38.9811 115.902 30.4782 111.916 23.2329 106.143" stroke="#E9AD39" stroke-width="2"/>
</svg>
