<svg width="24" height="20" viewBox="0 0 24 20" fill="none" xmlns="http://www.w3.org/2000/svg">
  <path
    d="M22 0H2C1.46957 0 0.960859 0.210714 0.585786 0.585786C0.210714 0.960859 0 1.46957 0 2L0 18C0 18.5304 0.210714 19.0391 0.585786 19.4142C0.960859 19.7893 1.46957 20 2 20H22C22.5304 20 23.0391 19.7893 23.4142 19.4142C23.7893 19.0391 24 18.5304 24 18V2C24 1.46957 23.7893 0.960859 23.4142 0.585786C23.0391 0.210714 22.5304 0 22 0ZM13 15.5C13 15.6326 12.9473 15.7598 12.8536 15.8536C12.7598 15.9473 12.6326 16 12.5 16H4.5C4.36739 16 4.24021 15.9473 4.14645 15.8536C4.05268 15.7598 4 15.6326 4 15.5V14.5C4 14.3674 4.05268 14.2402 4.14645 14.1464C4.24021 14.0527 4.36739 14 4.5 14H12.5C12.6326 14 12.7598 14.0527 12.8536 14.1464C12.9473 14.2402 13 14.3674 13 14.5V15.5ZM12.5 7C12.5 6.70333 12.588 6.41332 12.7528 6.16665C12.9176 5.91997 13.1519 5.72771 13.426 5.61418C13.7001 5.50065 14.0017 5.47094 14.2926 5.52882C14.5836 5.5867 14.8509 5.72956 15.0607 5.93934C15.2704 6.14912 15.4133 6.41639 15.4712 6.70736C15.5291 6.99834 15.4994 7.29994 15.3858 7.57403C15.2723 7.84811 15.08 8.08238 14.8334 8.2472C14.5867 8.41203 14.2967 8.5 14 8.5C13.6022 8.5 13.2206 8.34196 12.9393 8.06066C12.658 7.77936 12.5 7.39782 12.5 7ZM20 15.5C20 15.6326 19.9473 15.7598 19.8536 15.8536C19.7598 15.9473 19.6326 16 19.5 16H15.5C15.3674 16 15.2402 15.9473 15.1464 15.8536C15.0527 15.7598 15 15.6326 15 15.5V14.5C15 14.3674 15.0527 14.2402 15.1464 14.1464C15.2402 14.0527 15.3674 14 15.5 14H19.5C19.6326 14 19.7598 14.0527 19.8536 14.1464C19.9473 14.2402 20 14.3674 20 14.5V15.5ZM18.8 10.6C18.7212 10.7051 18.6225 10.7936 18.5095 10.8605C18.3965 10.9274 18.2714 10.9714 18.1414 10.9899C18.0114 11.0085 17.879 11.0013 17.7518 10.9687C17.6246 10.9361 17.5051 10.8788 17.4 10.8C17.2949 10.7212 17.2064 10.6225 17.1395 10.5095C17.0726 10.3965 17.0286 10.2714 17.01 10.1414C16.9915 10.0114 16.9987 9.87903 17.0313 9.75182C17.0639 9.62461 17.1212 9.50506 17.2 9.4C17.7193 8.70761 18 7.86548 18 7C18 6.13452 17.7193 5.29238 17.2 4.6C17.1212 4.49494 17.0639 4.37539 17.0313 4.24818C16.9987 4.12097 16.9915 3.98858 17.01 3.85858C17.0286 3.72858 17.0726 3.60351 17.1395 3.49051C17.2064 3.37751 17.2949 3.27879 17.4 3.2C17.5051 3.12121 17.6246 3.06388 17.7518 3.03129C17.879 2.99869 18.0114 2.99148 18.1414 3.01005C18.2714 3.02862 18.3965 3.07262 18.5095 3.13953C18.6225 3.20643 18.7212 3.29494 18.8 3.4C19.5789 4.43858 20 5.70178 20 7C20 8.29822 19.5789 9.56142 18.8 10.6Z"
    fill="currentColor" />
</svg>