<svg width="120" height="120" viewBox="0 0 120 120" fill="none" xmlns="http://www.w3.org/2000/svg">
<rect width="120" height="120" fill="#E5E5E5"/>
<rect width="1680" height="1211" transform="translate(-1023 -416)" fill="#212423"/>
<path d="M98.3381 104.846C91.1111 111.024 82.4981 115.365 73.2326 117.497C63.967 119.629 54.3233 119.491 45.1227 117.093C35.9221 114.696 27.4373 110.111 20.3906 103.728C13.3439 97.3445 7.94428 89.353 4.65141 80.4336C1.35855 71.5143 0.270035 61.9312 1.47857 52.5005C2.6871 43.0698 6.15689 34.0709 11.5924 26.2701C17.028 18.4692 24.2683 12.0976 32.6968 7.69768C41.1252 3.29778 50.4922 1 60 1" stroke="#F8FAF6" stroke-opacity="0.2" stroke-width="2"/>
<path d="M64.3318 1.15924C75.6014 1.9889 86.3957 6.03743 95.4313 12.8235C104.467 19.6095 111.364 28.8476 115.302 39.4393C119.239 50.031 120.053 61.5308 117.645 72.5714C115.237 83.612 109.71 93.7289 101.719 101.719" stroke="#85F550" stroke-width="2"/>
</svg>
