<svg width="12" height="12" viewBox="0 0 12 12" fill="none" xmlns="http://www.w3.org/2000/svg">
    <g>
        <path
            d="M10 0H2C1.73478 0 1.48043 0.105357 1.29289 0.292893C1.10536 0.48043 1 0.734784 1 1V11C1 11.2652 1.10536 11.5196 1.29289 11.7071C1.48043 11.8946 1.73478 12 2 12H10C10.2652 12 10.5196 11.8946 10.7071 11.7071C10.8946 11.5196 11 11.2652 11 11V1C11 0.734784 10.8946 0.48043 10.7071 0.292893C10.5196 0.105357 10.2652 0 10 0ZM4 8C3.80222 8 3.60888 7.94135 3.44443 7.83147C3.27998 7.72159 3.15181 7.56541 3.07612 7.38268C3.00043 7.19996 2.98063 6.99889 3.01921 6.80491C3.0578 6.61093 3.15304 6.43275 3.29289 6.29289C3.43275 6.15304 3.61093 6.0578 3.80491 6.01921C3.99889 5.98063 4.19996 6.00043 4.38268 6.07612C4.56541 6.15181 4.72159 6.27998 4.83147 6.44443C4.94135 6.60888 5 6.80222 5 7C5 7.26522 4.89464 7.51957 4.70711 7.70711C4.51957 7.89464 4.26522 8 4 8Z"
            fill="currentColor" />
    </g>
</svg>