<svg width="12" height="10" viewBox="0 0 12 10" fill="none" xmlns="http://www.w3.org/2000/svg">
<path d="M10.9994 0.000976562C10.7342 0.000976562 10.4798 0.106334 10.2923 0.29387C10.1048 0.481406 9.99942 0.73576 9.99942 1.00098V5.00098H4.99942V2.50098C4.99932 2.40499 4.9716 2.31106 4.91956 2.23041C4.86752 2.14975 4.79336 2.08578 4.70595 2.04613C4.61853 2.00649 4.52155 1.99284 4.42659 2.00682C4.33163 2.0208 4.2427 2.06182 4.17042 2.12498L0.170418 5.62498C0.116881 5.6719 0.0739826 5.72972 0.0445929 5.79457C0.0152031 5.85941 0 5.92978 0 6.00098C0 6.07217 0.0152031 6.14254 0.0445929 6.20739C0.0739826 6.27223 0.116881 6.33005 0.170418 6.37698L4.17042 9.87698C4.2427 9.94014 4.33163 9.98115 4.42659 9.99514C4.52155 10.0091 4.61853 9.99547 4.70595 9.95582C4.79336 9.91617 4.86752 9.8522 4.91956 9.77155C4.9716 9.69089 4.99932 9.59696 4.99942 9.50098V7.00098H10.9994C11.2646 7.00098 11.519 6.89562 11.7065 6.70808C11.8941 6.52055 11.9994 6.26619 11.9994 6.00098V1.00098C11.9994 0.73576 11.8941 0.481406 11.7065 0.29387C11.519 0.106334 11.2646 0.000976563 10.9994 0.000976562Z" fill="#5F615D"/>
</svg>
