<svg width="20" height="20" viewBox="0 0 20 20" fill="none" xmlns="http://www.w3.org/2000/svg">
<g clip-path="url(#clip0_1_11)">
<path d="M15.3315 7.87551C15.0068 8.20027 14.6008 8.41678 14.1678 8.49797C14.7632 10.0947 14.3708 11.9215 13.1529 13.1394C12.3139 13.9783 11.1773 14.4249 10.0271 14.4249C9.51285 14.4249 8.99865 14.3302 8.49797 14.1543C8.41678 14.5873 8.2138 14.9932 7.8755 15.318C6.99594 16.1976 5.56157 16.1976 4.66847 15.318C3.7889 14.4384 3.7889 13.0041 4.66847 12.111C4.99323 11.7862 5.39918 11.5697 5.8322 11.4885C5.22327 9.87821 5.6157 8.03789 6.83356 6.82003C8.05142 5.60216 9.89175 5.20974 11.502 5.81867C11.5832 5.39919 11.7862 4.99323 12.1245 4.66847C13.0041 3.7889 14.4384 3.7889 15.3315 4.66847C16.2111 5.56157 16.2111 6.99594 15.3315 7.87551ZM10 0C4.47902 0 0 4.47902 0 10C0 15.521 4.47902 20 10 20C15.521 20 20 15.521 20 10C20 4.47902 15.521 0 10 0ZM11.1908 11.1773C10.5413 11.8268 9.49932 11.8268 8.8498 11.1773C8.20027 10.5277 8.20027 9.48579 8.8498 8.83627C9.49932 8.18674 10.5413 8.18674 11.1908 8.83627C11.8268 9.48579 11.8268 10.5277 11.1908 11.1773ZM12.6658 5.20974C12.3275 5.54804 12.1651 6.03518 12.2463 6.50879C12.2733 6.67118 12.2598 6.82003 12.1921 6.96888C12.0974 7.15832 11.9486 7.29364 11.7591 7.37483C11.5697 7.44249 11.3667 7.44249 11.1637 7.34777C10.0812 6.84709 8.78214 7.07713 7.94316 7.9161C7.10419 8.75507 6.87415 10.0541 7.37483 11.1367C7.46955 11.3261 7.46955 11.5426 7.40189 11.7321C7.33423 11.908 7.19892 12.0704 7.00947 12.1516C6.90122 12.2057 6.79296 12.2192 6.68471 12.2192C6.63058 12.2192 6.57645 12.2057 6.53586 12.2057C6.03518 12.138 5.5751 12.2869 5.2368 12.6252C4.95264 12.9093 4.80379 13.2882 4.80379 13.6806C4.80379 14.0866 4.95264 14.452 5.2368 14.7361C5.81867 15.318 6.7659 15.318 7.34777 14.7361C7.68606 14.3978 7.84844 13.9107 7.76725 13.4371C7.76725 13.41 7.76725 13.3829 7.76725 13.3559C7.75372 13.2341 7.78078 13.0988 7.83491 12.977C7.92963 12.7876 8.07848 12.6522 8.26793 12.5846C8.45737 12.5169 8.66035 12.5169 8.86333 12.6116C9.94587 13.1123 11.2449 12.8823 12.0839 12.0433C12.9229 11.2043 13.1664 9.90528 12.6522 8.82273C12.5575 8.63329 12.5575 8.41678 12.6252 8.24086C12.6928 8.05142 12.8281 7.88904 13.0311 7.80785C13.1664 7.74019 13.3153 7.72666 13.4506 7.74019C13.4777 7.74019 13.4912 7.74019 13.5183 7.74019C13.9919 7.80785 14.452 7.659 14.7903 7.3207C15.3721 6.73884 15.3721 5.79161 14.7903 5.20974C14.1949 4.62788 13.2476 4.62788 12.6658 5.20974Z" fill="#5F615D"/>
</g>
</svg>
