<svg width="16" height="16" viewBox="0 0 16 16" fill="none" xmlns="http://www.w3.org/2000/svg">
<g clip-path="url(#clip0_415_447)">
<path d="M14.574 5.66895L13.15 7.09295C13.428 7.43995 13.656 7.75695 13.819 7.99995C13.059 9.12995 10.969 11.8199 8.25799 11.9849L6.44299 13.7999C6.93899 13.9239 7.45699 13.9999 7.99999 13.9999C12.707 13.9999 15.744 8.71594 15.871 8.49194C16.042 8.18794 16.043 7.81595 15.872 7.51195C15.825 7.42695 15.372 6.63095 14.574 5.66895Z" fill="#212423"/>
<path d="M0.292994 15.7072C0.487994 15.9022 0.743994 16.0002 0.999994 16.0002C1.25599 16.0002 1.51199 15.9022 1.70699 15.7072L15.707 1.70725C16.098 1.31625 16.098 0.68425 15.707 0.29325C15.316 -0.09775 14.684 -0.09775 14.293 0.29325L11.548 3.03825C10.515 2.43125 9.33099 2.00025 7.99999 2.00025C3.24499 2.00025 0.250994 7.28925 0.125994 7.51425C-0.0430064 7.81725 -0.0420064 8.18625 0.127994 8.48925C0.197994 8.61425 1.17199 10.2913 2.82099 11.7653L0.291994 14.2942C-0.0980063 14.6842 -0.0980063 15.3162 0.292994 15.7072ZM2.18099 7.99925C2.95799 6.83525 5.14599 4.00025 7.99999 4.00025C8.74199 4.00025 9.43699 4.20125 10.078 4.50825L8.51199 6.07425C8.34799 6.02925 8.17799 6.00025 7.99999 6.00025C6.89499 6.00025 5.99999 6.89525 5.99999 8.00025C5.99999 8.17825 6.02899 8.34825 6.07399 8.51225L4.23999 10.3462C3.28499 9.51025 2.55899 8.56225 2.18099 7.99925Z" fill="#212423"/>
</g>
<defs>
<clipPath id="clip0_415_447">
<rect width="16" height="16" fill="white"/>
</clipPath>
</defs>
</svg>
