<svg width="13" height="12" viewBox="0 0 13 12" xmlns="http://www.w3.org/2000/svg">
    <path
        d="M6.00047 1C2.42347 1 0.200466 5.367 0.105466 5.553C0.0361075 5.6918 0 5.84484 0 6C0 6.15516 0.0361075 6.3082 0.105466 6.447C0.200466 6.633 2.42347 11 6.00047 11C9.57747 11 11.8005 6.633 11.9005 6.447C11.9698 6.3082 12.0059 6.15516 12.0059 6C12.0059 5.84484 11.9698 5.6918 11.9005 5.553C11.8005 5.367 9.57747 1 6.00047 1ZM6.00047 9C4.31647 9 2.82947 7.129 2.14847 6.006C2.71847 5.076 4.19347 3 6.00047 3C7.68447 3 9.17147 4.872 9.85247 5.994C9.28247 6.924 7.80747 9 6.00047 9Z" />
    <path
        d="M6.00047 7.5C6.82889 7.5 7.50047 6.82843 7.50047 6C7.50047 5.17157 6.82889 4.5 6.00047 4.5C5.17204 4.5 4.50047 5.17157 4.50047 6C4.50047 6.82843 5.17204 7.5 6.00047 7.5Z" />
</svg>