<svg width="16" height="16" viewBox="0 0 16 16" fill="none" xmlns="http://www.w3.org/2000/svg">
<g clip-path="url(#clip0_415_436)">
<path d="M11.86 15.5419L7.99999 13.5129L4.13999 15.5419C3.41299 15.9289 2.54799 15.3069 2.68899 14.4879L3.42599 10.1889L0.301992 7.14495C-0.292008 6.56495 0.0389925 5.55795 0.856992 5.43895L5.17299 4.81194L7.10399 0.899945C7.43999 0.216945 8.56099 0.216945 8.89699 0.899945L10.828 4.81095L15.144 5.43795C15.962 5.55695 16.292 6.56395 15.699 7.14395L12.575 10.1889L13.312 14.4879C13.453 15.3109 12.586 15.9239 11.86 15.5419ZM8.46599 11.4979L10.998 12.8289L10.515 10.0089C10.459 9.68495 10.567 9.35394 10.802 9.12395L12.851 7.12595L10.02 6.71495C9.69299 6.66795 9.41199 6.46295 9.26699 6.16795L7.99999 3.60195L6.73299 6.16795C6.58699 6.46295 6.30599 6.66795 5.97999 6.71495L3.14899 7.12595L5.19799 9.12395C5.43299 9.35295 5.54099 9.68495 5.48499 10.0089L5.00199 12.8289L7.53399 11.4979C7.82599 11.3439 8.17399 11.3439 8.46599 11.4979Z" fill="#212423"/>
</g>
<defs>
<clipPath id="clip0_415_436">
<rect width="16" height="16" fill="white"/>
</clipPath>
</defs>
</svg>
