<svg width="100%" height="100%" viewBox="0 0 12 12" fill="none" xmlns="http://www.w3.org/2000/svg">
<path d="M11.25 2.25061C9.9375 2.25061 7.84125 1.19468 6.45 0.150741C6.18375 -0.0502468 5.81625 -0.0502468 5.55 0.150741C4.15875 1.19468 2.0625 2.25061 0.75 2.25061C0.336 2.25061 0 2.58584 0 3.00056C0 7.1883 2.02575 10.3629 5.7045 11.9393C5.799 11.9798 5.8995 12 6 12C6.1005 12 6.201 11.9798 6.2955 11.9393C9.97425 10.3629 12 7.1883 12 3.00056C12 2.58584 11.664 2.25061 11.25 2.25061ZM6 10.4281V6.00038H1.962C1.7235 5.28642 1.57125 4.51472 1.52025 3.68077C2.96625 3.43704 4.677 2.58434 6 1.67315V6.00038H10.038C9.3795 7.97575 8.0205 9.48241 6 10.4281Z" fill="#5F615D"/>
</svg>
