<svg width="12" height="12" viewBox="0 0 12 12" fill="none" xmlns="http://www.w3.org/2000/svg">
    <path
        d="M11.5 3H5.809L4.947 1.277C4.90557 1.19387 4.84181 1.12391 4.76286 1.07499C4.6839 1.02606 4.59288 1.0001 4.5 1H0.5C0.367392 1 0.240215 1.05268 0.146447 1.14645C0.0526784 1.24021 0 1.36739 0 1.5V10C0 10.5304 0.210714 11.0391 0.585786 11.4142C0.960859 11.7893 1.46957 12 2 12H10C10.5304 12 11.0391 11.7893 11.4142 11.4142C11.7893 11.0391 12 10.5304 12 10V3.5C12 3.36739 11.9473 3.24021 11.8536 3.14645C11.7598 3.05268 11.6326 3 11.5 3V3Z"
        fill="currentColor" />
</svg>