<svg width="12" height="12" viewBox="0 0 12 12" fill="none" xmlns="http://www.w3.org/2000/svg">
<g clip-path="url(#clip0_212_2225)">
<path d="M11.25 3.99985C11.1515 4.00009 11.0539 3.98077 10.9629 3.943C10.872 3.90524 10.7894 3.84978 10.72 3.77985L8.22 1.27985C8.08752 1.13767 8.0154 0.949625 8.01883 0.755324C8.02225 0.561023 8.10097 0.375638 8.23838 0.238225C8.37579 0.100812 8.56118 0.0220998 8.75548 0.0186715C8.94978 0.0152433 9.13783 0.0873665 9.28 0.219847L11.78 2.71985C11.8848 2.82473 11.9561 2.95831 11.985 3.10371C12.0139 3.24911 11.999 3.39981 11.9423 3.53677C11.8856 3.67373 11.7895 3.79082 11.6663 3.87324C11.5431 3.95566 11.3982 3.99972 11.25 3.99985Z" fill="black"/>
<path d="M5 1.99985C4.0111 1.99985 3.0444 2.29309 2.22215 2.8425C1.39991 3.39191 0.759043 4.1728 0.380605 5.08643C0.00216642 6.00006 -0.0968503 7.00539 0.0960758 7.9753C0.289002 8.9452 0.765206 9.83612 1.46447 10.5354C2.16373 11.2346 3.05465 11.7108 4.02455 11.9038C4.99446 12.0967 5.99979 11.9977 6.91342 11.6192C7.82705 11.2408 8.60794 10.5999 9.15735 9.7777C9.70676 8.95545 10 7.98875 10 6.99985C9.99841 5.67425 9.47112 4.4034 8.53378 3.46607C7.59644 2.52873 6.3256 2.00143 5 1.99985ZM7.5 7.49985H5C4.86739 7.49985 4.74022 7.44717 4.64645 7.3534C4.55268 7.25963 4.5 7.13245 4.5 6.99985V4.49985C4.5 4.36724 4.55268 4.24006 4.64645 4.14629C4.74022 4.05252 4.86739 3.99985 5 3.99985C5.13261 3.99985 5.25979 4.05252 5.35356 4.14629C5.44732 4.24006 5.5 4.36724 5.5 4.49985V6.49985H7.5C7.63261 6.49985 7.75979 6.55252 7.85356 6.64629C7.94732 6.74006 8 6.86724 8 6.99985C8 7.13245 7.94732 7.25963 7.85356 7.3534C7.75979 7.44717 7.63261 7.49985 7.5 7.49985Z" fill="black"/>
</g>
</svg>
