<svg width="16" height="16" viewBox="0 0 16 16" fill="none" xmlns="http://www.w3.org/2000/svg">
<g clip-path="url(#clip0_415_444)">
<path d="M14.682 2.31811C14.2646 1.89959 13.7687 1.56769 13.2226 1.3415C12.6765 1.11531 12.0911 0.99929 11.5 1.00011C10.8245 0.995238 10.1569 1.14681 9.54972 1.44295C8.94251 1.73909 8.4121 2.17178 8.00001 2.70711C7.58761 2.17212 7.05713 1.73969 6.44999 1.44358C5.84285 1.14747 5.17549 0.995697 4.50001 1.00011C3.60999 1.00011 2.73995 1.26402 1.99992 1.75849C1.2599 2.25295 0.683113 2.95576 0.342516 3.77803C0.00191823 4.60031 -0.0871968 5.50511 0.0864399 6.37803C0.260077 7.25095 0.688666 8.05278 1.31801 8.68211L8.00001 15.0001L14.682 8.68211C15.0999 8.26425 15.4314 7.76817 15.6575 7.2222C15.8837 6.67623 16 6.09107 16 5.50011C16 4.90916 15.8837 4.32399 15.6575 3.77803C15.4314 3.23206 15.0999 2.73598 14.682 2.31811ZM13.282 7.25111L8.00001 12.2471L2.71501 7.24711C2.37142 6.8954 2.13917 6.45018 2.04731 5.96715C1.95546 5.48412 2.00808 4.98473 2.19859 4.53145C2.3891 4.07817 2.70905 3.69113 3.1184 3.41876C3.52774 3.14638 4.00832 3.00076 4.50001 3.00011C5.93701 3.00011 6.81201 3.68111 8.00001 5.62511C9.18701 3.68111 10.062 3.00011 11.5 3.00011C11.9925 2.99999 12.4741 3.14534 12.8843 3.41791C13.2945 3.69048 13.615 4.07814 13.8057 4.53223C13.9963 4.98632 14.0486 5.48661 13.956 5.97031C13.8634 6.45402 13.63 6.89959 13.285 7.25111H13.282Z" fill="#212423"/>
</g>
<defs>
<clipPath id="clip0_415_444">
<rect width="16" height="16" fill="white"/>
</clipPath>
</defs>
</svg>
