<svg width="12" height="12" viewBox="0 0 12 12" fill="none" xmlns="http://www.w3.org/2000/svg">
    <g opacity="0.2">
        <path
            d="M5 3C5 2.73478 5.10536 2.48043 5.29289 2.29289C5.48043 2.10536 5.73478 2 6 2C6.26522 2 6.51957 2.10536 6.70711 2.29289C6.89464 2.48043 7 2.73478 7 3V5H9V3C9 2.20435 8.68393 1.44129 8.12132 0.878679C7.55871 0.316071 6.79565 0 6 0C5.20435 0 4.44129 0.316071 3.87868 0.878679C3.31607 1.44129 3 2.20435 3 3V5H5V3Z"
            fill="#F8FAF6" />
        <path
            d="M10 6H2C1.44772 6 1 6.44772 1 7V11C1 11.5523 1.44772 12 2 12H10C10.5523 12 11 11.5523 11 11V7C11 6.44772 10.5523 6 10 6Z"
            fill="#F8FAF6" />
    </g>
</svg>