<svg width="120" height="120" viewBox="0 0 120 120" fill="none" xmlns="http://www.w3.org/2000/svg">
<rect width="120" height="120" fill="#E5E5E5"/>
<rect width="1680" height="1211" transform="translate(-730 -416)" fill="#212423"/>
<path d="M111.13 30.5599C117.609 41.8128 120.195 54.8889 118.487 67.7611C116.779 80.6332 110.872 92.5823 101.683 101.756C92.4928 110.93 80.5333 116.815 67.6582 118.501C54.7831 120.186 41.7115 117.577 30.47 111.078C19.2286 104.579 10.445 94.5531 5.48118 82.5544C0.517332 70.5556 -0.349576 57.2545 3.01486 44.713C6.37929 32.1714 13.7871 21.0901 24.0899 13.1869C34.3928 5.28366 47.015 1 60 1" stroke="#F8FAF6" stroke-opacity="0.2" stroke-width="2"/>
<path d="M64.3008 1.15696C73.3446 1.81797 82.1144 4.55471 89.929 9.15463C97.7437 13.7545 104.393 20.0938 109.36 27.6802" stroke="#85F550" stroke-width="2"/>
</svg>
