<svg width="16" height="16" viewBox="0 0 16 16" fill="none" xmlns="http://www.w3.org/2000/svg">
    <path
        d="M15 7C14.4 7 14 7.4 14 8V14H2V2H8C8.6 2 9 1.6 9 1C9 0.4 8.6 0 8 0H1C0.4 0 0 0.4 0 1V15C0 15.6 0.4 16 1 16H15C15.6 16 16 15.6 16 15V8C16 7.4 15.6 7 15 7Z"
        fill="currentColor" />
    <path
        d="M14.3 0.3L6.3 8.3C5.9 8.7 5.9 9.3 6.3 9.7C6.5 9.9 6.7 10 7 10C7.3 10 7.5 9.9 7.7 9.7L15.7 1.7C16.1 1.3 16.1 0.7 15.7 0.3C15.3 -0.1 14.7 -0.1 14.3 0.3Z"
        fill="currentColor" />
</svg>