<svg width="12" height="12" viewBox="0 0 12 12" fill="none" xmlns="http://www.w3.org/2000/svg">
<g clip-path="url(#clip0_193_2188)">
<path d="M1.76388 9.00089C1.95695 9.00088 2.1459 8.94498 2.30789 8.83993C2.46989 8.73488 2.59801 8.58519 2.67679 8.40891C2.75557 8.23264 2.78164 8.03733 2.75184 7.84657C2.72204 7.65581 2.63766 7.47775 2.50888 7.3339C2.25158 7.0461 2.08307 6.68998 2.02369 6.30853C1.96431 5.92708 2.01659 5.53659 2.17423 5.1842C2.33188 4.83181 2.58813 4.53257 2.91208 4.3226C3.23603 4.11263 3.61383 4.0009 3.99988 4.0009H7.49988C7.5989 4.00107 7.69574 3.97184 7.77813 3.91691C7.86052 3.86199 7.92474 3.78383 7.96266 3.69236C8.00058 3.60088 8.01048 3.50021 7.99111 3.4031C7.97175 3.306 7.92398 3.21682 7.85388 3.14689L4.85388 0.146895C4.78395 0.0767879 4.69478 0.0290234 4.59767 0.00965666C4.50056 -0.00971013 4.39989 0.000192974 4.30841 0.0381105C4.21694 0.076028 4.13878 0.140252 4.08386 0.222642C4.02893 0.305031 3.9997 0.401874 3.99988 0.500895V2.00089C3.22768 2.00092 2.472 2.22446 1.82405 2.64452C1.17611 3.06459 0.663599 3.66322 0.348402 4.36816C0.033204 5.0731 -0.0712101 5.85421 0.047764 6.61718C0.166738 7.38016 0.504014 8.09239 1.01888 8.66789C1.11242 8.77296 1.2272 8.85697 1.35563 8.91437C1.48406 8.97177 1.6232 9.00127 1.76388 9.00089Z" fill="black"/>
<path d="M10.2359 3.00089C10.0428 3.00091 9.85386 3.05681 9.69186 3.16186C9.52986 3.26691 9.40174 3.4166 9.32296 3.59288C9.24418 3.76915 9.21812 3.96446 9.24791 4.15522C9.27771 4.34598 9.36209 4.52404 9.49088 4.66789C9.74818 4.95569 9.91668 5.31181 9.97606 5.69326C10.0354 6.07471 9.98316 6.4652 9.82552 6.81759C9.66788 7.16998 9.41162 7.46922 9.08767 7.67919C8.76372 7.88916 8.38592 8.00089 7.99988 8.00089H4.49988C4.40086 8.00072 4.30401 8.02995 4.22162 8.08487C4.13923 8.1398 4.07501 8.21796 4.03709 8.30943C3.99917 8.4009 3.98927 8.50158 4.00864 8.59869C4.02801 8.69579 4.07577 8.78497 4.14588 8.85489L7.14588 11.8549C7.21581 11.925 7.30498 11.9728 7.40209 11.9921C7.49919 12.0115 7.59987 12.0016 7.69134 11.9637C7.78281 11.9258 7.86097 11.8615 7.9159 11.7791C7.97083 11.6968 8.00005 11.5999 7.99988 11.5009V10.0009C8.77207 10.0009 9.52776 9.77733 10.1757 9.35727C10.8236 8.9372 11.3362 8.33856 11.6514 7.63363C11.9665 6.92869 12.071 6.14758 11.952 5.38461C11.833 4.62163 11.4957 3.9094 10.9809 3.33389C10.8873 3.22883 10.7726 3.14482 10.6441 3.08742C10.5157 3.03001 10.3765 3.00052 10.2359 3.00089Z" fill="black"/>
</g>
</svg>
