<svg width="12" height="12" viewBox="0 0 12 12" fill="none" xmlns="http://www.w3.org/2000/svg">
<g clip-path="url(#clip0_163_2211)">
<path fill-rule="evenodd" clip-rule="evenodd" d="M7.98087 11.3896C8.06961 11.4611 8.18009 11.5001 8.29402 11.5002C8.36518 11.4997 8.43541 11.4841 8.50002 11.4542C9.54417 10.9755 10.4289 10.2071 11.0492 9.24025C11.6695 8.27345 11.9992 7.14892 11.9992 6.00024C11.9992 4.85156 11.6695 3.72703 11.0492 2.76023C10.4289 1.79343 9.54417 1.025 8.50002 0.546241C8.43983 0.514423 8.37378 0.495233 8.30591 0.489848C8.23804 0.484463 8.16978 0.492995 8.10532 0.514923C8.04087 0.53685 7.98157 0.571711 7.93106 0.617367C7.88056 0.663024 7.83991 0.718514 7.8116 0.780437C7.7833 0.84236 7.76795 0.90941 7.76647 0.977478C7.765 1.04555 7.77745 1.1132 7.80305 1.17629C7.82865 1.23937 7.86686 1.29657 7.91535 1.34436C7.96384 1.39216 8.02158 1.42955 8.08502 1.45424C8.95571 1.85296 9.69358 2.49334 10.2109 3.29922C10.7282 4.10511 11.0032 5.0426 11.0032 6.00024C11.0032 6.95788 10.7282 7.89538 10.2109 8.70126C9.69358 9.50715 8.95571 10.1475 8.08502 10.5462C7.98157 10.594 7.89752 10.6756 7.8468 10.7776C7.79607 10.8797 7.78171 10.9959 7.80609 11.1072C7.83048 11.2185 7.89214 11.3182 7.98087 11.3896ZM3.49798 11.4537C3.5632 11.4838 3.63415 11.4995 3.70598 11.4997H3.70798C3.82192 11.4996 3.9324 11.4605 4.02113 11.3891C4.10987 11.3176 4.17153 11.218 4.19591 11.1067C4.22029 10.9954 4.20593 10.8791 4.15521 10.7771C4.10448 10.6751 4.02043 10.5934 3.91698 10.5457C3.04629 10.147 2.30843 9.50658 1.79111 8.7007C1.27379 7.89481 0.998778 6.95732 0.998778 5.99968C0.998778 5.04204 1.27379 4.10455 1.79111 3.29866C2.30843 2.49277 3.04629 1.8524 3.91698 1.45368C3.97929 1.42807 4.03579 1.39013 4.08307 1.34215C4.13036 1.29416 4.16745 1.23711 4.19214 1.17443C4.21683 1.11175 4.22859 1.04472 4.22673 0.977376C4.22486 0.910033 4.20941 0.843761 4.18129 0.782539C4.15318 0.721317 4.11298 0.666409 4.06311 0.621111C4.01325 0.575813 3.95474 0.541059 3.89111 0.518937C3.82747 0.496815 3.76002 0.48778 3.69281 0.492376C3.6256 0.496971 3.56001 0.515102 3.49998 0.54568C2.45575 1.02425 1.57083 1.79252 0.950367 2.7592C0.329903 3.72589 -3.33273e-05 4.85036 -0.00024404 5.99904C-0.000454551 7.14771 0.329069 8.27231 0.949179 9.23922C1.56929 10.2061 2.45392 10.9747 3.49798 11.4537ZM7 6C7 6.55228 6.55228 7 6 7C5.44772 7 5 6.55228 5 6C5 5.44772 5.44772 5 6 5C6.55228 5 7 5.44772 7 6ZM8 6C8 7.10457 7.10457 8 6 8C4.89543 8 4 7.10457 4 6C4 4.89543 4.89543 4 6 4C7.10457 4 8 4.89543 8 6Z" fill="black"/>
</g>
<defs>
<clipPath id="clip0_163_2211">
<rect width="12" height="12" fill="white"/>
</clipPath>
</defs>
</svg>
