<svg width="12" height="12" viewBox="0 0 12 12" fill="none" xmlns="http://www.w3.org/2000/svg">
<g clip-path="url(#clip0_163_2206)">
<path d="M3.70598 11.4997C3.63415 11.4995 3.5632 11.4838 3.49798 11.4537C2.45392 10.9747 1.56929 10.2061 0.949179 9.23922C0.329069 8.27231 -0.000454651 7.14771 -0.00024404 5.99904C-3.3428e-05 4.85036 0.329902 3.72589 0.950367 2.7592C1.57083 1.79252 2.45575 1.02425 3.49998 0.54568C3.56001 0.515102 3.6256 0.496971 3.69281 0.492376C3.76002 0.48778 3.82747 0.496815 3.89111 0.518937C3.95474 0.541059 4.01325 0.575813 4.06311 0.621111C4.11298 0.666409 4.15318 0.721317 4.18129 0.782539C4.20941 0.843761 4.22486 0.910033 4.22673 0.977376C4.22859 1.04472 4.21683 1.11175 4.19214 1.17443C4.16745 1.23711 4.13036 1.29416 4.08307 1.34215C4.03579 1.39013 3.97929 1.42807 3.91698 1.45368C3.04629 1.8524 2.30843 2.49277 1.79111 3.29866C1.27379 4.10455 0.998778 5.04204 0.998778 5.99968C0.998778 6.95732 1.27379 7.89481 1.79111 8.7007C2.30843 9.50658 3.04629 10.147 3.91698 10.5457C4.02043 10.5934 4.10448 10.6751 4.15521 10.7771C4.20593 10.8791 4.22029 10.9954 4.19591 11.1067C4.17153 11.218 4.10987 11.3176 4.02113 11.3891C3.9324 11.4605 3.82192 11.4996 3.70798 11.4997H3.70598Z" fill="black"/>
<path d="M8.29402 11.5002C8.18009 11.5001 8.06961 11.4611 7.98087 11.3896C7.89214 11.3182 7.83048 11.2185 7.80609 11.1072C7.78171 10.9959 7.79607 10.8797 7.8468 10.7776C7.89752 10.6756 7.98157 10.594 8.08502 10.5462C8.95571 10.1475 9.69358 9.50715 10.2109 8.70126C10.7282 7.89538 11.0032 6.95788 11.0032 6.00024C11.0032 5.0426 10.7282 4.10511 10.2109 3.29922C9.69358 2.49334 8.95571 1.85296 8.08502 1.45424C8.02158 1.42955 7.96384 1.39216 7.91535 1.34436C7.86686 1.29657 7.82865 1.23937 7.80305 1.17629C7.77745 1.1132 7.765 1.04555 7.76647 0.977478C7.76795 0.90941 7.7833 0.84236 7.8116 0.780437C7.83991 0.718514 7.88056 0.663024 7.93106 0.617367C7.98157 0.571711 8.04087 0.53685 8.10532 0.514923C8.16978 0.492995 8.23804 0.484463 8.30591 0.489848C8.37378 0.495233 8.43983 0.514423 8.50002 0.546241C9.54417 1.025 10.4289 1.79343 11.0492 2.76023C11.6695 3.72703 11.9992 4.85156 11.9992 6.00024C11.9992 7.14892 11.6695 8.27345 11.0492 9.24025C10.4289 10.2071 9.54417 10.9755 8.50002 11.4542C8.43541 11.4841 8.36518 11.4997 8.29402 11.5002Z" fill="black"/>
<path d="M6 8C7.10457 8 8 7.10457 8 6C8 4.89543 7.10457 4 6 4C4.89543 4 4 4.89543 4 6C4 7.10457 4.89543 8 6 8Z" fill="black"/>
</g>
<defs>
<clipPath id="clip0_163_2206">
<rect width="12" height="12" fill="white"/>
</clipPath>
</defs>
</svg>
