<svg width="12" height="12" viewBox="0 0 12 12" fill="none" xmlns="http://www.w3.org/2000/svg">
<g clip-path="url(#clip0_193_2191)">
<path d="M11.0005 10.5H1.00049C0.735272 10.5 0.480918 10.3946 0.293382 10.2071C0.105845 10.0196 0.000488281 9.76522 0.000488281 9.5V5.5C0.000488281 5.23478 0.105845 4.98043 0.293382 4.79289C0.480918 4.60536 0.735272 4.5 1.00049 4.5H11.0005C11.2657 4.5 11.5201 4.60536 11.7076 4.79289C11.8951 4.98043 12.0005 5.23478 12.0005 5.5V9.5C12.0005 9.76522 11.8951 10.0196 11.7076 10.2071C11.5201 10.3946 11.2657 10.5 11.0005 10.5ZM6.00049 8.5H10.0005V6.5H6.00049V8.5Z" fill="black"/>
<path d="M6.00049 3.5L9.00049 -0.5H3.00049L6.00049 3.5Z" fill="black"/>
</g>
</svg>
