<svg width="12" height="12" viewBox="0 0 12 12" fill="none" xmlns="http://www.w3.org/2000/svg">
<g clip-path="url(#clip0_193_2232)">
<path d="M6.00033 4C6.32458 3.99943 6.64384 3.92003 6.93058 3.76865C7.21733 3.61726 7.46296 3.39843 7.64633 3.131C8.15119 3.37978 8.59411 3.7382 8.94272 4.18007C9.29134 4.62194 9.53685 5.1361 9.66133 5.685C9.69857 5.85141 9.79134 6.0002 9.92438 6.10688C10.0574 6.21357 10.2228 6.2718 10.3933 6.272C10.4481 6.27223 10.5028 6.26653 10.5563 6.255C10.7505 6.21173 10.9196 6.09319 11.0264 5.92539C11.1333 5.7576 11.1692 5.55425 11.1263 5.36C10.9377 4.53129 10.5517 3.76039 10.0012 3.11289C9.45069 2.46539 8.75191 1.96044 7.96433 1.641C7.89606 1.26682 7.7225 0.919871 7.46402 0.640843C7.20554 0.361814 6.87285 0.162277 6.50498 0.0656354C6.13711 -0.0310062 5.74931 -0.0207447 5.38706 0.0952161C5.02482 0.211177 4.70315 0.428029 4.45978 0.720336C4.21642 1.01264 4.06146 1.36829 4.01307 1.74555C3.96468 2.12281 4.02487 2.50605 4.18658 2.85032C4.34829 3.19458 4.60481 3.4856 4.92607 3.68923C5.24732 3.89286 5.61998 4.00067 6.00033 4Z" fill="black"/>
<path d="M2.31233 7.032C2.27918 6.85634 2.25846 6.67857 2.25033 6.5C2.24809 5.52267 2.62984 4.58357 3.31333 3.885C3.38208 3.81441 3.43625 3.73098 3.47275 3.63946C3.50925 3.54793 3.52737 3.45012 3.52607 3.3516C3.52477 3.25307 3.50408 3.15577 3.46517 3.06525C3.42627 2.97472 3.36992 2.89274 3.29933 2.824C3.22874 2.75525 3.14531 2.70108 3.05379 2.66458C2.96227 2.62807 2.86445 2.60996 2.76593 2.61126C2.56695 2.61388 2.37717 2.69544 2.23833 2.838C1.28147 3.81641 0.747118 5.13147 0.75033 6.5C0.753385 6.79613 0.781148 7.09148 0.83333 7.383C0.4571 7.6532 0.186325 8.04562 0.0672333 8.49325C-0.0518581 8.94089 -0.0118807 9.41598 0.18034 9.83742C0.372561 10.2589 0.705106 10.6005 1.1212 10.804C1.53729 11.0076 2.01113 11.0604 2.46182 10.9534C2.91251 10.8465 3.31209 10.5864 3.59236 10.2176C3.87263 9.84878 4.01619 9.39414 3.99855 8.93127C3.9809 8.4684 3.80314 8.02601 3.49561 7.67962C3.18808 7.33323 2.76985 7.10433 2.31233 7.032Z" fill="black"/>
<path d="M10.0003 7C9.4699 7 8.96119 7.21071 8.58612 7.58578C8.21104 7.96086 8.00033 8.46956 8.00033 9C8.00417 9.19695 8.03788 9.39217 8.10033 9.579C7.67076 9.87162 7.18572 10.073 6.67522 10.1707C6.16471 10.2684 5.63959 10.2603 5.13233 10.147C4.93885 10.1003 4.73476 10.1324 4.56495 10.2362C4.39513 10.34 4.27351 10.507 4.22683 10.7005C4.18015 10.894 4.21224 11.0981 4.31604 11.2679C4.41985 11.4377 4.58685 11.5593 4.78033 11.606C5.51238 11.7823 6.27405 11.7969 7.01233 11.6489C7.75061 11.5009 8.44778 11.1938 9.05533 10.749C9.34426 10.9107 9.66925 10.997 10.0003 11C10.5308 11 11.0395 10.7893 11.4145 10.4142C11.7896 10.0391 12.0003 9.53043 12.0003 9C12.0003 8.46956 11.7896 7.96086 11.4145 7.58578C11.0395 7.21071 10.5308 7 10.0003 7Z" fill="black"/>
</g>
</svg>
