<svg width="12" height="12" viewBox="0 0 12 12" fill="none" xmlns="http://www.w3.org/2000/svg">
<path d="M7.25 1H1.75C1.28603 1.00053 0.841222 1.18507 0.513148 1.51315C0.185074 1.84122 0.00052934 2.28603 0 2.75V6.75C0.00052934 7.21397 0.185074 7.65878 0.513148 7.98685C0.841222 8.31493 1.28603 8.49947 1.75 8.5H2V7H1.75C1.6837 7 1.62011 6.97366 1.57322 6.92678C1.52634 6.87989 1.5 6.8163 1.5 6.75V2.75C1.5 2.6837 1.52634 2.62011 1.57322 2.57322C1.62011 2.52634 1.6837 2.5 1.75 2.5H7.25C7.3163 2.5 7.37989 2.52634 7.42678 2.57322C7.47366 2.62011 7.5 2.6837 7.5 2.75V6.75C7.5 6.8163 7.47366 6.87989 7.42678 6.92678C7.37989 6.97366 7.3163 7 7.25 7H5.5V8.5H7.25C7.71397 8.49947 8.15878 8.31493 8.48685 7.98685C8.81493 7.65878 8.99947 7.21397 9 6.75V2.75C8.99947 2.28603 8.81493 1.84122 8.48685 1.51315C8.15878 1.18507 7.71397 1.00053 7.25 1Z" fill="black"/>
<path d="M10.25 4.5H10V6H10.25C10.3163 6 10.3799 6.02634 10.4268 6.07322C10.4737 6.12011 10.5 6.1837 10.5 6.25V10.25C10.5 10.3163 10.4737 10.3799 10.4268 10.4268C10.3799 10.4737 10.3163 10.5 10.25 10.5H4.75C4.6837 10.5 4.62011 10.4737 4.57322 10.4268C4.52634 10.3799 4.5 10.3163 4.5 10.25V6.25C4.5 6.1837 4.52634 6.12011 4.57322 6.07322C4.62011 6.02634 4.6837 6 4.75 6H6.5V4.5H4.75C4.28603 4.50053 3.84122 4.68507 3.51315 5.01315C3.18507 5.34122 3.00053 5.78603 3 6.25V10.25C3.00053 10.714 3.18507 11.1588 3.51315 11.4869C3.84122 11.8149 4.28603 11.9995 4.75 12H10.25C10.714 11.9995 11.1588 11.8149 11.4869 11.4869C11.8149 11.1588 11.9995 10.714 12 10.25V6.25C11.9995 5.78603 11.8149 5.34122 11.4869 5.01315C11.1588 4.68507 10.714 4.50053 10.25 4.5Z" fill="black"/>
</svg>
