<svg width="12" height="12" viewBox="0 0 12 12" fill="none" xmlns="http://www.w3.org/2000/svg">
<g clip-path="url(#clip0_193_2238)">
<path d="M3.70622 11.0114C3.63439 11.0112 3.56345 10.9955 3.49822 10.9654C2.45416 10.4864 1.56953 9.71785 0.949423 8.75094C0.329313 7.78403 -0.000210511 6.65943 1.00895e-07 5.51076C0.000210713 4.36208 0.330147 3.23761 0.950611 2.27092C1.57108 1.30423 2.45599 0.535971 3.50022 0.0573983C3.56025 0.0268208 3.62584 0.00868991 3.69306 0.00409437C3.76027 -0.000501162 3.82772 0.00853343 3.89135 0.0306557C3.95498 0.0527779 4.01349 0.0875314 4.06336 0.13283C4.11322 0.178128 4.15342 0.233036 4.18154 0.294258C4.20965 0.355479 4.22511 0.421752 4.22697 0.489095C4.22884 0.556438 4.21707 0.623464 4.19239 0.686147C4.1677 0.748831 4.1306 0.805879 4.08331 0.853866C4.03603 0.901853 3.97954 0.93979 3.91722 0.965398C3.04654 1.36412 2.30867 2.00449 1.79135 2.81038C1.27403 3.61626 0.999022 4.55376 0.999022 5.5114C0.999022 6.46904 1.27403 7.40653 1.79135 8.21242C2.30867 9.0183 3.04654 9.65868 3.91722 10.0574C4.02068 10.1051 4.10473 10.1868 4.15545 10.2888C4.20618 10.3908 4.22054 10.5071 4.19616 10.6184C4.17177 10.7297 4.11011 10.8293 4.02138 10.9008C3.93264 10.9723 3.82216 11.0113 3.70822 11.0114H3.70622Z" fill="black"/>
<path d="M8.29427 11.012C8.18033 11.0118 8.06985 10.9728 7.98112 10.9014C7.89238 10.8299 7.83072 10.7303 7.80634 10.619C7.78195 10.5077 7.79631 10.3914 7.84704 10.2894C7.89777 10.1873 7.98181 10.1057 8.08527 10.058C8.95595 9.65924 9.69382 9.01886 10.2111 8.21298C10.7285 7.40709 11.0035 6.4696 11.0035 5.51196C11.0035 4.55432 10.7285 3.61683 10.2111 2.81094C9.69382 2.00505 8.95595 1.36468 8.08527 0.96596C8.02182 0.941268 7.96408 0.903878 7.9156 0.856082C7.86711 0.808287 7.82889 0.751092 7.80329 0.688004C7.77769 0.624917 7.76525 0.557265 7.76672 0.489197C7.76819 0.421129 7.78355 0.354079 7.81185 0.292156C7.84015 0.230233 7.8808 0.174742 7.93131 0.129086C7.98181 0.0834296 8.04111 0.0485691 8.10557 0.0266415C8.17003 0.00471397 8.23828 -0.00381869 8.30615 0.00156662C8.37402 0.00695192 8.44008 0.0261417 8.50027 0.0579597C9.54442 0.536723 10.4292 1.30515 11.0495 2.27195C11.6698 3.23875 11.9995 4.36328 11.9995 5.51196C11.9995 6.66064 11.6698 7.78517 11.0495 8.75197C10.4292 9.71877 9.54442 10.4872 8.50027 10.966C8.43566 10.9958 8.36543 11.0115 8.29427 11.012Z" fill="black"/>
</g>
</svg>
