<svg width="16" height="16" viewBox="0 0 16 16" fill="none" xmlns="http://www.w3.org/2000/svg">
<path d="M14.864 10.2159L12.307 9.5769C12.215 9.55387 12.1315 9.50516 12.0662 9.43646C12.0008 9.36776 11.9564 9.28191 11.938 9.1889L11.747 8.2259C12.2695 7.98709 12.7125 7.60324 13.0233 7.12C13.334 6.63676 13.4995 6.07444 13.5 5.4999V4.1259C13.5121 3.33035 13.2163 2.56089 12.6744 1.97834C12.1324 1.39578 11.3863 1.04522 10.592 0.999903C10.0716 0.984652 9.55628 1.10506 9.09656 1.34929C8.63685 1.59353 8.2486 1.95318 7.96997 2.3929C8.62911 3.15219 8.9945 4.12244 8.99997 5.1279C8.94048 5.98722 9.14419 6.84426 9.58397 7.5849C9.69119 7.75664 9.76252 7.94831 9.79369 8.14836C9.82485 8.34841 9.81519 8.55269 9.7653 8.74891C9.7154 8.94512 9.6263 9.12921 9.50337 9.29007C9.38043 9.45093 9.2262 9.58524 9.04997 9.6849L9.18697 9.7249C9.70883 9.87575 10.1677 10.1918 10.4946 10.6257C10.8215 11.0595 10.9988 11.5877 11 12.1309V14.4999C10.9983 14.6706 10.9672 14.8398 10.908 14.9999H15.5C15.6326 14.9999 15.7598 14.9472 15.8535 14.8535C15.9473 14.7597 16 14.6325 16 14.4999V11.6709C15.9999 11.3364 15.8881 11.0116 15.6823 10.748C15.4765 10.4843 15.1884 10.2971 14.864 10.2159Z" fill="black"/>
<path d="M8.912 10.689L6.755 10.073C6.67639 10.0506 6.60447 10.0092 6.54554 9.95258C6.48661 9.89592 6.44248 9.82568 6.417 9.748L6.247 9.226C7.0346 9.27799 7.8232 9.14084 8.547 8.826C8.60858 8.79409 8.66284 8.74972 8.70634 8.6957C8.74985 8.64169 8.78164 8.57922 8.79969 8.51225C8.81775 8.44529 8.82168 8.37531 8.81123 8.30674C8.80078 8.23818 8.77618 8.17254 8.739 8.114C8.19967 7.21604 7.94223 6.17689 8 5.131C8.01158 4.33959 7.71932 3.57386 7.18339 2.99142C6.64746 2.40899 5.90864 2.05417 5.119 2C4.71514 1.98397 4.3122 2.04971 3.93437 2.19328C3.55655 2.33685 3.21163 2.55528 2.92033 2.83547C2.62902 3.11566 2.39734 3.45183 2.23919 3.82378C2.08104 4.19574 1.99968 4.59582 2 5C2.07676 6.08899 1.82003 7.17553 1.264 8.115C1.22702 8.17357 1.20262 8.23918 1.19233 8.30768C1.18204 8.37618 1.1861 8.44607 1.20425 8.51291C1.22239 8.57976 1.25423 8.64211 1.29774 8.696C1.34125 8.7499 1.39548 8.79417 1.457 8.826C2.1808 9.14084 2.96941 9.27799 3.757 9.226L3.587 9.748C3.56152 9.82568 3.51739 9.89592 3.45846 9.95258C3.39953 10.0092 3.32761 10.0506 3.249 10.073L1.092 10.689C0.777864 10.7778 0.501269 10.9666 0.304192 11.2269C0.107115 11.4871 0.000314708 11.8046 0 12.131V14.5C0 14.6326 0.0526784 14.7598 0.146447 14.8536C0.240215 14.9473 0.367392 15 0.5 15H9.5C9.63261 15 9.75979 14.9473 9.85355 14.8536C9.94732 14.7598 10 14.6326 10 14.5V12.131C9.99993 11.8051 9.89371 11.488 9.6974 11.2279C9.5011 10.9677 9.22539 10.7785 8.912 10.689Z" fill="black"/>
</svg>
