<svg width="100%" height="100%" viewBox="0 0 12 12" fill="none" xmlns="http://www.w3.org/2000/svg">
    <g>
        <path
            d="M9 10H2V3H4V1H1C0.734784 1 0.48043 1.10536 0.292893 1.29289C0.105357 1.48043 0 1.73478 0 2V11C0 11.2652 0.105357 11.5196 0.292893 11.7071C0.48043 11.8946 0.734784 12 1 12H10C10.2652 12 10.5196 11.8946 10.7071 11.7071C10.8946 11.5196 11 11.2652 11 11V8H9V10Z"
            fill="currentColor" />
        <path
            d="M11.581 0.413C11.4501 0.281956 11.2947 0.177997 11.1236 0.107066C10.9526 0.0361357 10.7692 -0.00037384 10.584 -0.00037384C10.3988 -0.00037384 10.2154 0.0361357 10.0444 0.107066C9.87328 0.177997 9.71786 0.281956 9.587 0.413L5 5L4 8L7 7L11.587 2.413C11.718 2.28214 11.822 2.12672 11.8929 1.95565C11.9639 1.78458 12.0004 1.6012 12.0004 1.416C12.0004 1.2308 11.9639 1.04742 11.8929 0.87635C11.822 0.705276 11.718 0.549863 11.587 0.419L11.581 0.413Z"
            fill="currentColor" />
    </g>
</svg>