<svg width="16" height="16" viewBox="0 0 16 16" fill="none" xmlns="http://www.w3.org/2000/svg">
<path d="M14.4605 3.97276L5.14861 13.4019L2.81737 10.96L12.0902 1.56989C12.3833 1.2736 12.8977 1.27686 13.1875 1.57314L14.4638 2.88528C14.7568 3.18482 14.7536 3.67321 14.4605 3.97276ZM2.22805 12.2558L3.82671 13.9326L1.6485 14.4047L2.22805 12.2558ZM15.408 1.95734L14.1317 0.645209C13.6986 0.163333 12.3442 -0.520409 11.1525 0.632185L1.4271 10.4813C1.3457 10.5627 1.28709 10.6637 1.25779 10.7744L0.085659 15.108C-0.0641132 15.6615 0.222407 16.0034 0.723819 15.9448C0.769401 15.9382 5.3114 14.9647 5.3114 14.9647C5.43513 14.9387 5.54909 14.8736 5.64025 14.7824L15.395 4.90395C16.1959 4.09648 16.2024 2.77458 15.408 1.95734Z" fill="#9EA09C"/>
</svg>
