<svg width="16" height="16" viewBox="0 0 16 16" fill="none" xmlns="http://www.w3.org/2000/svg">
<g clip-path="url(#clip0_26_233)">
<path d="M15.0855 10.4003L11.9485 9.00832C11.6382 8.87105 11.2913 8.83996 10.9615 8.91987C10.6317 8.99978 10.3375 9.18623 10.1245 9.45032L9.1775 10.6353C7.64285 9.65901 6.34121 8.35772 5.3645 6.82332L6.5485 5.87732C6.81352 5.66452 7.00075 5.37008 7.08105 5.03983C7.16135 4.70958 7.13022 4.36204 6.9925 4.05132L5.5995 0.914319C5.45152 0.581126 5.19006 0.311288 4.8617 0.152875C4.53333 -0.00553726 4.1594 -0.0422351 3.8065 0.0493194L1.1545 0.738319C0.78863 0.833898 0.470514 1.06034 0.260414 1.37475C0.0503132 1.68917 -0.0371816 2.06972 0.0145026 2.44432C0.505618 5.86153 2.09045 9.02772 4.5317 11.4688C6.97295 13.9099 10.1393 15.4945 13.5565 15.9853C13.6267 15.9953 13.6976 16.0003 13.7685 16.0003C14.1099 16.0001 14.4417 15.8867 14.7118 15.6779C14.9819 15.4691 15.1753 15.1767 15.2615 14.8463L15.9495 12.1933C16.0424 11.8405 16.0064 11.4662 15.848 11.1375C15.6897 10.8089 15.4193 10.5475 15.0855 10.4003Z" fill="#212423"/>
</g>
</svg>
