<svg width="12" height="12" viewBox="0 0 12 12" fill="none" xmlns="http://www.w3.org/2000/svg">
    <path
        d="M9 5H7V3C7 2.73478 6.89464 2.48043 6.70711 2.29289C6.51957 2.10536 6.26522 2 6 2C5.73478 2 5.48043 2.10536 5.29289 2.29289C5.10536 2.48043 5 2.73478 5 3V5H3C2.73478 5 2.48043 5.10536 2.29289 5.29289C2.10536 5.48043 2 5.73478 2 6C2 6.26522 2.10536 6.51957 2.29289 6.70711C2.48043 6.89464 2.73478 7 3 7H5V9C5 9.26522 5.10536 9.51957 5.29289 9.70711C5.48043 9.89464 5.73478 10 6 10C6.26522 10 6.51957 9.89464 6.70711 9.70711C6.89464 9.51957 7 9.26522 7 9V7H9C9.26522 7 9.51957 6.89464 9.70711 6.70711C9.89464 6.51957 10 6.26522 10 6C10 5.73478 9.89464 5.48043 9.70711 5.29289C9.51957 5.10536 9.26522 5 9 5Z"
        fill="currentColor" />
</svg>