<svg width="12" height="12" viewBox="0 0 12 12" fill="none" xmlns="http://www.w3.org/2000/svg">
<g clip-path="url(#clip0_1293_610)">
<path d="M6.02988 0C2.45288 0 0.229885 4.367 0.134885 4.553C0.0655265 4.6918 0.0294189 4.84484 0.0294189 5C0.0294189 5.15516 0.0655265 5.3082 0.134885 5.447C0.229885 5.633 2.45288 10 6.02988 10C9.60688 10 11.8299 5.633 11.9299 5.447C11.9992 5.3082 12.0354 5.15516 12.0354 5C12.0354 4.84484 11.9992 4.6918 11.9299 4.553C11.8299 4.367 9.60688 0 6.02988 0ZM6.02988 8C4.34588 8 2.85889 6.129 2.17789 5.006C2.74788 4.076 4.22288 2 6.02988 2C7.71388 2 9.20089 3.872 9.88189 4.994C9.31189 5.924 7.83688 8 6.02988 8Z" fill="#212423"/>
<path d="M6.02991 6.5C6.85833 6.5 7.52991 5.82843 7.52991 5C7.52991 4.17157 6.85833 3.5 6.02991 3.5C5.20148 3.5 4.52991 4.17157 4.52991 5C4.52991 5.82843 5.20148 6.5 6.02991 6.5Z" fill="#212423"/>
</g>
<defs>
<clipPath id="clip0_1293_610">
<rect width="12" height="12" fill="white"/>
</clipPath>
</defs>
</svg>
