<svg width="100%" height="100%" viewBox="0 0 12 12" fill="none" xmlns="http://www.w3.org/2000/svg">
<path d="M2.92408 9.0761C2.63482 8.78724 2.24275 8.625 1.83396 8.625C1.42517 8.625 1.03309 8.78724 0.743833 9.0761C0.218833 9.6011 0.0335833 11.2608 0.0020833 11.5886C-0.00310977 11.6377 0.001429 11.6873 0.0154395 11.7346C0.0294501 11.7819 0.052657 11.8259 0.0837306 11.8643C0.114804 11.9026 0.153134 11.9344 0.196523 11.9579C0.239912 11.9814 0.287508 11.996 0.336583 12.0011H0.374083H0.409333C0.737083 11.9696 2.39758 11.7836 2.92183 11.2593C3.21154 10.9701 3.37451 10.5776 3.37493 10.1682C3.37536 9.75879 3.21319 9.36597 2.92408 9.0761Z" fill="#212423"/>
<path d="M11.9991 0.396171C12.0022 0.34363 11.9941 0.291032 11.9755 0.241801C11.9569 0.192569 11.9281 0.147805 11.8911 0.110421C11.8541 0.072348 11.8092 0.0428216 11.7596 0.0239074C11.71 0.00499333 11.6568 -0.00285164 11.6038 0.000921325C9.73634 0.0834354 7.92211 0.648559 6.3381 1.64117C5.3539 1.25952 4.26595 1.24089 3.26927 1.5886C2.27258 1.93631 1.43232 2.62764 0.899096 3.53867C0.85723 3.61024 0.840262 3.69366 0.850847 3.7759C0.861432 3.85813 0.898972 3.93454 0.957596 3.99317L2.51085 5.54567C2.26731 5.93199 2.05079 6.33471 1.86285 6.75092C1.83534 6.81925 1.82856 6.89417 1.84337 6.96633C1.85817 7.03849 1.8939 7.10469 1.9461 7.15667L4.84185 10.0509C4.89395 10.1034 4.96042 10.1393 5.03288 10.1541C5.10534 10.1689 5.18057 10.162 5.2491 10.1342C5.66365 9.94628 6.06462 9.72976 6.4491 9.48617L8.00835 11.0454C8.06666 11.103 8.14223 11.1399 8.22349 11.1505C8.30476 11.161 8.38725 11.1447 8.45835 11.1039C9.37447 10.5681 10.0687 9.72225 10.4155 8.7192C10.7622 7.71615 10.7387 6.62213 10.3491 5.63492C11.3377 4.05836 11.9058 2.25473 11.9991 0.396171ZM6.7491 6.37592C6.52659 6.37592 6.30908 6.30994 6.12408 6.18633C5.93907 6.06271 5.79488 5.88701 5.70973 5.68144C5.62458 5.47587 5.6023 5.24967 5.64571 5.03144C5.68912 4.81322 5.79627 4.61276 5.9536 4.45543C6.11093 4.29809 6.31139 4.19095 6.52962 4.14754C6.74785 4.10413 6.97405 4.12641 7.17961 4.21156C7.38518 4.29671 7.56088 4.4409 7.6845 4.6259C7.80812 4.81091 7.8741 5.02842 7.8741 5.25092C7.8741 5.54929 7.75557 5.83544 7.54459 6.04642C7.33361 6.25739 7.04746 6.37592 6.7491 6.37592Z" fill="#212423"/>
</svg>
