<svg width="12" height="12" viewBox="0 0 12 12" fill="none" xmlns="http://www.w3.org/2000/svg">
<g clip-path="url(#clip0_1293_592)">
<path d="M11.737 10.2927L9.19695 7.75268C9.88305 6.7161 10.1597 5.46165 9.97329 4.23263C9.78687 3.00362 9.15064 1.88764 8.18801 1.10115C7.22539 0.31465 6.00497 -0.0863065 4.76346 -0.0239564C3.52195 0.0383937 2.34785 0.559607 1.46886 1.43859C0.58988 2.31757 0.0686672 3.49168 0.00631704 4.73319C-0.0560331 5.9747 0.344923 7.19511 1.13142 8.15774C1.91792 9.12037 3.03389 9.75659 4.26291 9.94302C5.49192 10.1294 6.74637 9.85277 7.78295 9.16668L10.323 11.7067C10.5116 11.8888 10.7642 11.9896 11.0264 11.9874C11.2886 11.9851 11.5394 11.8799 11.7248 11.6945C11.9102 11.5091 12.0153 11.2583 12.0176 10.9961C12.0199 10.7339 11.9191 10.4813 11.737 10.2927ZM2.02995 4.99968C2.02995 4.40633 2.2059 3.82632 2.53554 3.33297C2.86519 2.83962 3.33372 2.4551 3.8819 2.22804C4.43008 2.00098 5.03328 1.94157 5.61522 2.05732C6.19717 2.17308 6.73172 2.4588 7.15127 2.87836C7.57083 3.29792 7.85655 3.83247 7.97231 4.41441C8.08806 4.99635 8.02865 5.59955 7.80159 6.14773C7.57453 6.69591 7.19001 7.16444 6.69666 7.49409C6.20332 7.82373 5.6233 7.99968 5.02995 7.99968C4.2343 7.99968 3.47124 7.68361 2.90863 7.121C2.34602 6.55839 2.02995 5.79533 2.02995 4.99968Z" fill="#5F615D"/>
</g>
</svg>
