<svg width="16" height="16" viewBox="0 0 16 16" fill="none" xmlns="http://www.w3.org/2000/svg">
<g clip-path="url(#clip0_415_437)">
<path d="M15.707 0.292637C15.434 0.0206365 15.027 -0.0723635 14.664 0.0586365L0.663999 5.05864C0.286999 5.19264 0.0259992 5.53964 0.00199923 5.93864C-0.0220008 6.33864 0.193999 6.71364 0.552999 6.89364L5.139 9.18564L11 4.99964L6.813 10.8616L9.105 15.4476C9.276 15.7866 9.623 15.9996 10 15.9996C10.021 15.9996 10.041 15.9986 10.061 15.9976C10.461 15.9736 10.808 15.7136 10.943 15.3356L15.943 1.33564C16.072 0.972636 15.98 0.565637 15.707 0.292637Z" fill="#212423"/>
</g>
<defs>
<clipPath id="clip0_415_437">
<rect width="16" height="16" fill="white"/>
</clipPath>
</defs>
</svg>
