<svg width="12" height="12" viewBox="0 0 12 12" fill="none" xmlns="http://www.w3.org/2000/svg">
    <path class="sorter__arrow--up"
        d="M3.38381 0.170831C3.33534 0.117056 3.2761 0.0740625 3.20996 0.0446345C3.14381 0.0152064 3.07221 0 2.99981 0C2.92741 0 2.85582 0.0152064 2.78967 0.0446345C2.72352 0.0740625 2.66429 0.117056 2.61581 0.170831L0.115813 3.17083C0.0550083 3.24383 0.0162609 3.33265 0.00410785 3.42687C-0.00804517 3.5211 0.0068993 3.61684 0.0471913 3.70288C0.0874832 3.78892 0.151455 3.8617 0.231615 3.9127C0.311775 3.96369 0.404806 3.9908 0.499813 3.99083H1.99981V10.4908C1.99981 10.6234 2.05249 10.7506 2.14626 10.8444C2.24003 10.9382 2.3672 10.9908 2.49981 10.9908H3.49981C3.63242 10.9908 3.7596 10.9382 3.85337 10.8444C3.94713 10.7506 3.99981 10.6234 3.99981 10.4908V3.99083H5.49981C5.59482 3.9908 5.68785 3.96369 5.76801 3.9127C5.84817 3.8617 5.91214 3.78892 5.95243 3.70288C5.99273 3.61684 6.00767 3.5211 5.99552 3.42687C5.98337 3.33265 5.94462 3.24383 5.88381 3.17083L3.38381 0.170831Z"
        fill="currentColor" />
    <path class="sorter__arrow--down"
        d="M9.49981 0.990831H8.49981C8.3672 0.990831 8.24003 1.04351 8.14626 1.13728C8.05249 1.23105 7.99981 1.35822 7.99981 1.49083V7.99083H6.49981C6.40481 7.99087 6.31178 8.01797 6.23162 8.06897C6.15145 8.11996 6.08748 8.19274 6.04719 8.27878C6.0069 8.36482 5.99195 8.46056 6.00411 8.55479C6.01626 8.64902 6.05501 8.73783 6.11581 8.81083L8.61581 11.8108C8.66274 11.8671 8.72146 11.9124 8.78781 11.9434C8.85417 11.9745 8.92654 11.9906 8.99981 11.9906C9.07308 11.9906 9.14546 11.9745 9.21181 11.9434C9.27817 11.9124 9.33689 11.8671 9.38381 11.8108L11.8838 8.81083C11.9446 8.73783 11.9834 8.64902 11.9955 8.55479C12.0077 8.46056 11.9927 8.36482 11.9524 8.27878C11.9121 8.19274 11.8482 8.11996 11.768 8.06897C11.6879 8.01797 11.5948 7.99087 11.4998 7.99083H9.99981V1.49083C9.99981 1.35822 9.94713 1.23105 9.85337 1.13728C9.7596 1.04351 9.63242 0.990831 9.49981 0.990831Z"
        fill="currentColor" />
</svg>