<svg width="16" height="14" viewBox="0 0 16 14" fill="none" xmlns="http://www.w3.org/2000/svg">
<path d="M14.864 9.2159L12.307 8.5769C12.215 8.55387 12.1315 8.50516 12.0662 8.43646C12.0008 8.36776 11.9564 8.28191 11.938 8.1889L11.747 7.2259C12.2695 6.98709 12.7125 6.60324 13.0233 6.12C13.334 5.63675 13.4995 5.07444 13.5 4.4999V3.1259C13.5121 2.33035 13.2163 1.56089 12.6744 0.978337C12.1324 0.395783 11.3863 0.0452175 10.592 -9.63211e-05C10.0716 -0.0153484 9.55628 0.105061 9.09656 0.349295C8.63685 0.593529 8.2486 0.953181 7.96997 1.3929C8.62911 2.15219 8.9945 3.12244 8.99997 4.1279C8.94048 4.98722 9.14419 5.84426 9.58397 6.5849C9.69118 6.75664 9.76252 6.94831 9.79369 7.14836C9.82485 7.34841 9.81519 7.55269 9.7653 7.74891C9.7154 7.94512 9.6263 8.12921 9.50337 8.29007C9.38043 8.45093 9.2262 8.58524 9.04997 8.6849L9.18697 8.7249C9.70883 8.87575 10.1677 9.19182 10.4946 9.62566C10.8215 10.0595 10.9988 10.5877 11 11.1309V13.4999C10.9983 13.6706 10.9672 13.8398 10.908 13.9999H15.5C15.6326 13.9999 15.7598 13.9472 15.8535 13.8535C15.9473 13.7597 16 13.6325 16 13.4999V10.6709C15.9999 10.3364 15.8881 10.0116 15.6823 9.74796C15.4765 9.48434 15.1884 9.29707 14.864 9.2159Z" fill="#5F615D"/>
<path d="M8.912 9.689L6.755 9.073C6.67639 9.05059 6.60447 9.00924 6.54554 8.95258C6.48661 8.89592 6.44248 8.82568 6.417 8.748L6.247 8.226C7.0346 8.27799 7.8232 8.14084 8.547 7.826C8.60858 7.79409 8.66284 7.74972 8.70634 7.6957C8.74985 7.64169 8.78164 7.57922 8.79969 7.51225C8.81775 7.44529 8.82168 7.37531 8.81123 7.30674C8.80078 7.23818 8.77618 7.17254 8.739 7.114C8.19967 6.21604 7.94223 5.17689 8 4.131C8.01158 3.33959 7.71932 2.57386 7.18339 1.99142C6.64746 1.40899 5.90864 1.05417 5.119 1C4.71514 0.983968 4.3122 1.04971 3.93437 1.19328C3.55655 1.33685 3.21163 1.55528 2.92033 1.83547C2.62902 2.11566 2.39734 2.45183 2.23919 2.82378C2.08104 3.19574 1.99968 3.59582 2 4C2.07676 5.08899 1.82003 6.17553 1.264 7.115C1.22702 7.17357 1.20262 7.23918 1.19233 7.30768C1.18204 7.37618 1.1861 7.44607 1.20425 7.51291C1.22239 7.57976 1.25423 7.64211 1.29774 7.696C1.34125 7.7499 1.39548 7.79417 1.457 7.826C2.1808 8.14084 2.96941 8.27799 3.757 8.226L3.587 8.748C3.56152 8.82568 3.51739 8.89592 3.45846 8.95258C3.39953 9.00924 3.32761 9.05059 3.249 9.073L1.092 9.689C0.777864 9.77779 0.501269 9.96664 0.304192 10.2269C0.107115 10.4871 0.000314708 10.8046 0 11.131V13.5C0 13.6326 0.0526784 13.7598 0.146447 13.8536C0.240215 13.9473 0.367392 14 0.5 14H9.5C9.63261 14 9.75979 13.9473 9.85355 13.8536C9.94732 13.7598 10 13.6326 10 13.5V11.131C9.99993 10.8051 9.89371 10.488 9.6974 10.2279C9.5011 9.96768 9.22539 9.77852 8.912 9.689Z" fill="#5F615D"/>
</svg>
