<svg width="24" height="24" viewBox="0 0 24 24" fill="none" xmlns="http://www.w3.org/2000/svg">
    <path d="M7 12L12 6L17 12H13V18H11V12H7Z" fill="#5F615D" />
    <path d="M15 1H9V3H15V1Z" fill="#5F615D" />
    <path d="M15 21H9V23H15V21Z" fill="#5F615D" />
    <path d="M3 9H1V15H3V9Z" fill="#5F615D" />
    <path d="M23 9H21V15H23V9Z" fill="#5F615D" />
    <path d="M3 6H1V2C1 1.73478 1.10536 1.48043 1.29289 1.29289C1.48043 1.10536 1.73478 1 2 1H6V3H3V6Z"
        fill="#5F615D" />
    <path d="M23 6H21V3H18V1H22C22.2652 1 22.5196 1.10536 22.7071 1.29289C22.8946 1.48043 23 1.73478 23 2V6Z"
        fill="#5F615D" />
    <path d="M22 23H18V21H21V18H23V22C23 22.2652 22.8946 22.5196 22.7071 22.7071C22.5196 22.8946 22.2652 23 22 23Z"
        fill="#5F615D" />
    <path d="M6 23H2C1.73478 23 1.48043 22.8946 1.29289 22.7071C1.10536 22.5196 1 22.2652 1 22V18H3V21H6V23Z"
        fill="#5F615D" />
</svg>