<svg width="16" height="16" viewBox="0 0 16 16" fill="none" xmlns="http://www.w3.org/2000/svg">
<g clip-path="url(#clip0_80_389)">
<path d="M9 6H7V10H9V6Z" fill="#212423"/>
<path d="M8 13C8.55228 13 9 12.5523 9 12C9 11.4477 8.55228 11 8 11C7.44772 11 7 11.4477 7 12C7 12.5523 7.44772 13 8 13Z" fill="#212423"/>
<path d="M15 16.0004H1.00002C0.653016 16.0004 0.332016 15.8204 0.149016 15.5254C-0.0339842 15.2304 -0.0499843 14.8624 0.105016 14.5524L7.10502 0.552445C7.44502 -0.125555 8.55402 -0.125555 8.89402 0.552445L15.894 14.5524C16.049 14.8624 16.033 15.2304 15.85 15.5254C15.667 15.8204 15.347 16.0004 15 16.0004ZM2.61802 14.0004H13.382L8.00002 3.23645L2.61802 14.0004Z" fill="#212423"/>
</g>
<defs>
<clipPath id="clip0_80_389">
<rect width="16" height="16" fill="white"/>
</clipPath>
</defs>
</svg>
