<svg width="100%" height="100%" viewBox="0 0 40 40" fill="none" xmlns="http://www.w3.org/2000/svg">
<g clip-path="url(#clip0_1244_7389)">
<path d="M29.7413 7.87147C27.8574 6.81875 27.2495 4.43684 28.3004 2.5547C29.02 1.28044 30.3492 0.615845 31.6784 0.615845C32.343 0.615845 33.0076 0.782436 33.6172 1.11385C35.5011 2.22151 36.109 4.60343 35.0581 6.43063C34.3385 7.70488 33.0093 8.36948 31.6801 8.36948C31.0155 8.36948 30.3509 8.20289 29.7413 7.87147ZM39.4338 18.8932H33.0093C32.7878 15.9016 31.292 13.2432 29.0218 11.5276C28.6336 11.2512 28.2455 10.9729 27.8024 10.6965C26.3616 9.9202 24.701 9.47714 22.9287 9.47714C21.1015 9.47714 19.4391 9.9202 17.9434 10.7514L14.3988 5.37968C16.8906 3.88389 19.7706 3.0527 22.9287 3.0527C24.148 3.0527 25.3656 3.16435 26.5849 3.44083C26.1418 5.60121 27.0829 7.87147 29.0767 9.03408C29.8529 9.47714 30.7391 9.69867 31.6801 9.69867C32.9544 9.69867 34.1719 9.25561 35.1148 8.42442C37.6633 11.1945 39.269 14.8489 39.4355 18.8914L39.4338 18.8932ZM13.1813 6.21087L16.7258 11.5826C14.5105 13.2999 13.0147 15.9034 12.8481 18.8932C12.7932 19.1147 12.7932 19.3362 12.7932 19.6127C12.7932 19.8342 12.7932 20.1107 12.8481 20.3322C13.0696 23.4886 14.732 26.2037 17.1689 27.9193L13.791 33.4026C10.5779 31.2972 8.141 28.0859 7.03333 24.3198C8.58406 23.4337 9.69172 21.7164 9.69172 19.7775C9.69172 17.8387 8.58406 16.0664 6.92168 15.1803C7.9744 11.5241 10.1897 8.36771 13.1795 6.20732L13.1813 6.21087ZM4.43166 15.9016C6.59204 15.9016 8.3643 17.6189 8.3643 19.7793C8.3643 21.9397 6.59204 23.7119 4.43166 23.7119C2.27127 23.7119 0.553955 21.9397 0.553955 19.7793C0.553955 17.6189 2.27127 15.9016 4.43166 15.9016ZM15.0652 34.1789L18.4431 28.6406C19.7723 29.3052 21.3231 29.6933 22.9287 29.6933C24.701 29.6933 26.3634 29.2502 27.8574 28.419C28.3004 28.1975 28.6886 27.921 29.0767 27.5879C31.292 25.9255 32.7878 23.3238 33.0093 20.3322H39.4338C39.2672 24.5413 37.4949 28.3623 34.7267 31.1873C33.8955 30.5777 32.8427 30.2462 31.7918 30.2462C30.8507 30.2462 29.9646 30.4678 29.1883 30.9108C27.4161 31.9636 26.475 33.8457 26.5849 35.7296C25.3656 36.0061 24.148 36.1727 22.9287 36.1727C20.0488 36.1727 17.3922 35.4531 15.0652 34.1789ZM31.79 31.5754C33.1192 31.5754 34.4484 32.24 35.1679 33.5143C36.2207 35.3982 35.5561 37.8351 33.7271 38.886C33.1174 39.2192 32.4528 39.384 31.7882 39.384C30.4041 39.384 29.1299 38.7194 28.4103 37.4452C27.3027 35.5613 27.9673 33.1811 29.8512 32.0734C30.4608 31.7403 31.1254 31.5754 31.79 31.5754Z" fill="white"/>
</g>
</svg>
