<svg width="24" height="24" viewBox="0 0 24 24" fill="none" xmlns="http://www.w3.org/2000/svg">
    <path fill-rule="evenodd" clip-rule="evenodd"
        d="M6.02334 22.301H1.98787C1.1399 22.301 0.721033 22.301 0.465639 22.1376C0.189784 21.9588 0.0212193 21.6625 0.000785612 21.3355C-0.0145535 21.0343 0.194906 20.6663 0.61377 19.9308L10.5778 2.36772C11.0018 1.62191 11.2164 1.24901 11.4871 1.1111C11.7783 0.962967 12.1256 0.962967 12.4168 1.1111C12.6875 1.24901 12.9021 1.62191 13.326 2.36772L15.3745 5.94345L15.3849 5.9617C15.8428 6.7618 16.075 7.16754 16.1764 7.59338C16.2888 8.05824 16.2888 8.54862 16.1764 9.01347C16.0743 9.44255 15.8444 9.85123 15.3795 10.6634L10.1457 19.9154L10.1321 19.9391C9.67117 20.7458 9.43757 21.1547 9.11382 21.4632C8.76135 21.8004 8.33736 22.0454 7.87251 22.1836C7.44852 22.301 6.97348 22.301 6.02334 22.301ZM16.2142 22.301H21.9966C22.8497 22.301 23.2788 22.301 23.5344 22.1326C23.8102 21.9538 23.9838 21.6523 23.9993 21.3255C24.0139 21.034 23.809 20.6804 23.4076 19.9876C23.3937 19.964 23.3799 19.94 23.3658 19.9156L20.4693 14.9606L20.4364 14.9048C20.0294 14.2166 19.8239 13.869 19.56 13.7347C19.269 13.5865 18.9265 13.5865 18.6355 13.7347C18.3699 13.8726 18.1554 14.2353 17.7314 14.9657L14.8452 19.9207L14.8353 19.9377C14.4129 20.667 14.2017 21.0315 14.2169 21.3305C14.2374 21.6575 14.4059 21.9588 14.6818 22.1376C14.9321 22.301 15.3612 22.301 16.2142 22.301Z"
        fill="currentColor" />
</svg>