<svg width="24" height="24" viewBox="0 0 24 24" fill="none" xmlns="http://www.w3.org/2000/svg">
    <g clip-path="url(#clip0_1901_3057)">
        <path
            d="M17.7467 11.4267C18.5333 10.5067 19 9.30667 19 8C19 5.52 17.3067 3.42667 15 2.84V0H12.3333V2.66667H9.66667V0H7V2.66667H3V5.33333H5.66667V18.6667H3V21.3333H7V24H9.66667V21.3333H12.3333V24H15V21.3333C17.9467 21.3333 20.3333 18.9467 20.3333 16C20.3333 14.0667 19.2933 12.36 17.7467 11.4267ZM8.33333 5.33333H13.6667C15.1333 5.33333 16.3333 6.53333 16.3333 8C16.3333 9.46667 15.1333 10.6667 13.6667 10.6667H8.33333V5.33333ZM15 18.6667H8.33333V13.3333H15C16.4667 13.3333 17.6667 14.5333 17.6667 16C17.6667 17.4667 16.4667 18.6667 15 18.6667Z"
            fill="currentColor" />
    </g>
</svg>