<svg width="24" height="24" viewBox="0 0 24 24" fill="none" xmlns="http://www.w3.org/2000/svg">
    <path
        d="M18.3978 9.45061C18.0081 9.84032 17.521 10.1001 17.0014 10.1976C17.7158 12.1137 17.2449 14.3058 15.7835 15.7673C14.7767 16.774 13.4127 17.3099 12.0325 17.3099C11.4154 17.3099 10.7984 17.1962 10.1976 16.9851C10.1001 17.5047 9.85656 17.9919 9.45061 18.3816C8.39513 19.4371 6.67388 19.4371 5.60217 18.3816C4.54668 17.3261 4.54668 15.6049 5.60217 14.5332C5.99188 14.1434 6.47902 13.8836 6.99864 13.7862C6.26793 11.8539 6.73884 9.64547 8.20027 8.18403C9.66171 6.7226 11.8701 6.25169 13.8024 6.98241C13.8999 6.47903 14.1434 5.99188 14.5494 5.60216C15.6049 4.54668 17.3261 4.54668 18.3978 5.60216C19.4533 6.67388 19.4533 8.39513 18.3978 9.45061ZM12 0C5.37483 0 0 5.37483 0 12C0 18.6252 5.37483 24 12 24C18.6252 24 24 18.6252 24 12C24 5.37483 18.6252 0 12 0ZM13.429 13.4127C12.6495 14.1921 11.3992 14.1921 10.6198 13.4127C9.84032 12.6333 9.84032 11.3829 10.6198 10.6035C11.3992 9.82409 12.6495 9.82409 13.429 10.6035C14.1921 11.3829 14.1921 12.6333 13.429 13.4127ZM15.1989 6.25169C14.793 6.65765 14.5981 7.24222 14.6955 7.81055C14.728 8.00541 14.7118 8.18403 14.6306 8.36265C14.5169 8.58999 14.3383 8.75237 14.111 8.8498C13.8836 8.93099 13.6401 8.93099 13.3965 8.81732C12.0974 8.21651 10.5386 8.49256 9.5318 9.49932C8.52503 10.5061 8.24899 12.065 8.8498 13.364C8.96346 13.5913 8.96346 13.8511 8.88227 14.0785C8.80108 14.2896 8.6387 14.4844 8.41137 14.5819C8.28146 14.6468 8.15156 14.6631 8.02165 14.6631C7.9567 14.6631 7.89174 14.6468 7.84303 14.6468C7.24222 14.5656 6.69012 14.7442 6.28417 15.1502C5.94316 15.4912 5.76455 15.9459 5.76455 16.4168C5.76455 16.9039 5.94316 17.3424 6.28417 17.6834C6.98241 18.3816 8.11908 18.3816 8.81732 17.6834C9.22327 17.2774 9.41813 16.6928 9.3207 16.1245C9.3207 16.092 9.3207 16.0595 9.3207 16.0271C9.30446 15.8809 9.33694 15.7185 9.40189 15.5724C9.51556 15.3451 9.69418 15.1827 9.92151 15.1015C10.1488 15.0203 10.3924 15.0203 10.636 15.134C11.935 15.7348 13.4939 15.4587 14.5007 14.452C15.5074 13.4452 15.7997 11.8863 15.1827 10.5873C15.069 10.3599 15.069 10.1001 15.1502 9.88904C15.2314 9.6617 15.3938 9.46685 15.6373 9.36942C15.7997 9.28823 15.9783 9.27199 16.1407 9.28823C16.1732 9.28823 16.1894 9.28823 16.2219 9.28823C16.7903 9.36942 17.3424 9.1908 17.7483 8.78484C18.4465 8.0866 18.4465 6.94993 17.7483 6.25169C17.0338 5.55345 15.8972 5.55345 15.1989 6.25169Z"
        fill="currentColor" />
</svg>