<svg width="24" height="24" viewBox="0 0 24 24" fill="none" xmlns="http://www.w3.org/2000/svg">
    <g clip-path="url(#clip0_1931_2554)">
        <path
            d="M3.90143 17.3571C4.0486 17.2099 4.24635 17.1272 4.4533 17.1272H23.6075C23.957 17.1272 24.1318 17.5503 23.8834 17.794L20.0986 21.5788C19.9514 21.726 19.7536 21.8088 19.5467 21.8088H0.392517C0.0430052 21.8088 -0.131751 21.3857 0.116587 21.142L3.90143 17.3571Z"
            fill="currentColor" />
        <path
            d="M3.90143 3.22994C4.0486 3.08278 4.24635 3 4.4533 3H23.6075C23.957 3 24.1318 3.42309 23.8834 3.66683L20.0986 7.44708C19.9514 7.59425 19.7536 7.67702 19.5467 7.67702H0.392517C0.0430052 7.67702 -0.131751 7.25393 0.116587 7.01019L3.90143 3.22994Z"
            fill="currentColor" />
        <path
            d="M20.0986 10.2476C19.9514 10.1004 19.7536 10.0177 19.5467 10.0177H0.392517C0.0430052 10.0177 -0.131751 10.4408 0.116587 10.6845L3.90143 14.4647C4.0486 14.6119 4.24635 14.6947 4.4533 14.6947H23.6075C23.957 14.6947 24.1318 14.2716 23.8834 14.0279L20.0986 10.2476Z"
            fill="currentColor" />
    </g>
</svg>