<svg width="100%" height="100%" version="1.1" viewBox="0 0 60 40" xmlns="http://www.w3.org/2000/svg">
<g fill="none" fill-rule="evenodd">
<g fill-rule="nonzero">
<path id="Path" d="m60 35c0 2.75-2.25 5-5 5h-50c-2.75 0-5-2.25-5-5v-30c0-2.75 2.25-5 5-5h50c2.75 0 5 2.25 5 5v30z" fill="#fff"/>
<g transform="translate(3 15)">
<path id="b" d="m7.751 5.1932c0 1.3197-0.37537 2.3299-1.1248 3.0319-0.75205 0.70068-1.8373 1.0523-3.2558 1.0523h-2.2706v-8.0144h2.5156c1.3092 0 2.3246 0.34639 3.0464 1.0365 0.72702 0.69015 1.0892 1.6556 1.0892 2.8936zm-1.7649 0.04478c0-1.7214-0.76127-2.5815-2.2785-2.5815h-0.90615v5.2169l0.72966-1.48e-6c1.6371 0.0013171 2.455-0.87849 2.455-2.6355z" fill="#101010"/>
<polygon id="Path" points="9.1879 9.2775 9.1879 1.2631 10.887 1.2631 10.887 9.2775" fill="#101010"/>
<path id="Path" d="m17.637 7.0516c0 0.72571-0.25946 1.2934-0.78234 1.7109-0.52156 0.4162-1.2446 0.62693-2.1732 0.62693-0.85346 0-1.6121-0.162-2.2706-0.48205v-1.5792c0.54132 0.24366 0.99966 0.41093 1.3737 0.51234 0.37405 0.097463 0.7178 0.1462 1.0286 0.1462 0.37141 0 0.65854-0.072439 0.85741-0.21337 0.19493-0.14093 0.29898-0.35561 0.29898-0.63483 0-0.15673-0.043463-0.29634-0.13302-0.41883-0.08561-0.1238-0.216-0.24234-0.38722-0.35429-0.1699-0.11195-0.51629-0.29502-1.0379-0.54263-0.48863-0.23049-0.85478-0.45307-1.1024-0.6638-0.24629-0.21073-0.4399-0.45702-0.5861-0.7402-0.1462-0.28317-0.21863-0.61244-0.21863-0.9878 0-0.70859 0.23971-1.2657 0.72044-1.6714 0.48205-0.40698 1.1445-0.60849 1.994-0.60849 0.4162 0 0.81395 0.048732 1.192 0.14751 0.378 0.097463 0.77444 0.23839 1.1867 0.4162l-0.5479 1.321c-0.42805-0.17517-0.78366-0.30029-1.0629-0.36746-0.28054-0.068488-0.5558-0.10405-0.82449-0.10405-0.32268 0-0.57029 0.073756-0.7402 0.22522-0.17254 0.15015-0.25815 0.34507-0.25815 0.5861 0 0.15015 0.034244 0.27922 0.10405 0.39249 0.069805 0.11195 0.18044 0.21863 0.3319 0.32268s0.51234 0.29107 1.0774 0.56239c0.7481 0.35824 1.2618 0.7178 1.541 1.0774 0.27922 0.35693 0.41883 0.79815 0.41883 1.321z" fill="#101010"/>
<path id="Path" d="m22.493 2.5617c-0.6401 0-1.134 0.24234-1.4857 0.72044-0.35298 0.48073-0.52551 1.1524-0.52551 2.0099 0 1.786 0.67039 2.6802 2.0112 2.6802 0.56371 0 1.242-0.13698 2.0454-0.42146v1.4251c-0.65854 0.27527-1.3935 0.41093-2.2048 0.41093-1.1656 0-2.0573-0.35561-2.675-1.0629-0.61771-0.70595-0.9259-1.7214-0.9259-3.0451 0-0.83371 0.15278-1.5634 0.45702-2.189 0.30161-0.62956 0.73888-1.1077 1.3065-1.4422 0.57029-0.33454 1.2354-0.5018 1.9993-0.5018 0.77839 0 1.562 0.18834 2.3457 0.56502l-0.5479 1.3816c-0.30161-0.14224-0.60059-0.26605-0.90615-0.37273-0.30424-0.10668-0.6019-0.15805-0.89429-0.15805z" fill="#101010"/>
<path id="Path" d="m38.141 1.2631h1.7161l-2.7224 8.0144h-1.8531l-2.7184-8.0144h1.7175l1.508 4.7691c0.082976 0.28317 0.17254 0.60849 0.26078 0.98517 0.086927 0.37537 0.14356 0.6322 0.16727 0.77971 0.039512-0.33585 0.17649-0.92063 0.41093-1.7649l1.5133-4.7691z" fill="#101010"/>
<polygon id="a" points="45.481 9.2775 40.865 9.2775 40.865 1.2631 45.481 1.2631 45.481 2.6565 42.564 2.6565 42.564 4.4161 45.28 4.4161 45.28 5.8083 42.564 5.8083 42.564 7.8735 45.481 7.8735" fill="#101010"/>
<path d="m48.853 6.2021v3.0754h-1.699v-8.0144h2.3352c1.0892 0 1.894 0.19756 2.4181 0.59532 0.52156 0.39644 0.78366 0.99702 0.78366 1.8057 0 0.4702-0.13039 0.89166-0.38854 1.2578-0.25946 0.36746-0.62693 0.6559-1.1011 0.864 1.2051 1.7991 1.9901 2.9647 2.3562 3.4902h-1.886l-1.9137-3.0754-0.90483 0.0013171zm0-1.3816h0.54922c0.53605 0 0.9338-0.089561 1.1893-0.26737 0.2542-0.18044 0.38327-0.46229 0.38327-0.84556 0-0.38063-0.13171-0.64932-0.39249-0.81132s-0.66512-0.24102-1.213-0.24102h-0.51893l0.0026341 2.1653z" fill="#101010"/>
<circle cx="28.733" cy="5.2709" r="4.0079" fill="#E35617"/>
</g>
<path d="m60 27.5v7.5c0 0.688-0.141 1.344-0.395 1.941-0.255 0.597-0.621 1.137-1.074 1.59s-0.992 0.819-1.59 1.074c-0.599 0.254-1.254 0.395-1.941 0.395h-22.457-22.457l49.914-12.5z" fill="#F89A20"/>
</g>
</g>
</svg>
