<svg width="100%" height="100%" viewBox="0 0 16 16" xmlns="http://www.w3.org/2000/svg"><path d="M3.156.274v2.851H.306l2.85-2.85Z" fill="currentColor"/><path d="M3.538 4.063c.255 0 .462-.21.462-.47V0h6.615C11.38 0 12 .63 12 1.406v5.24A5.039 5.039 0 0 0 7.625 8.5h-5.01a.465.465 0 0 0-.461.47c0 .259.206.469.461.469h4.402a5.177 5.177 0 0 0-.534 1.874H2.615a.465.465 0 0 0-.461.47c0 .258.206.468.461.468h3.868A5.174 5.174 0 0 0 8.623 16H1.385C.62 16 0 15.37 0 14.594V4.063h3.538Zm-.923 2.562h6.77c.255 0 .461-.21.461-.469a.465.465 0 0 0-.461-.468h-6.77a.465.465 0 0 0-.461.468c0 .26.206.469.461.469Z" fill="currentColor"/><path fill-rule="evenodd" clip-rule="evenodd" d="M11.78 16a4.22 4.22 0 1 0 0-8.44 4.22 4.22 0 0 0 0 8.44Zm.503-1.877c.824-.153 1.271-.671 1.271-1.349 0-.8-.412-1.222-1.229-1.444l-.63-.168c-.334-.1-.498-.228-.498-.49 0-.268.22-.437.568-.437s.54.215.561.484v.007h1.1v-.007c-.021-.665-.376-1.169-1.143-1.324v-.812h-1v.806c-.745.155-1.22.619-1.22 1.317 0 .8.417 1.195 1.22 1.43l.632.169c.318.087.489.234.489.503 0 .275-.206.463-.625.463-.397 0-.66-.215-.66-.584v-.014h-1.114v.027c0 .732.455 1.262 1.277 1.417v.86h1.001v-.854Z" fill="currentColor"/></svg>