<svg width="100%" height="100%" viewBox="0 0 100 62" fill="none" xmlns="http://www.w3.org/2000/svg">
<path d="m30.8 0c-8.1865 0.026579-16.028 3.3112-21.803 9.1328-5.7747 5.8216-9.0106 13.704-8.9974 21.917 0.013247 8.213 3.2746 16.085 9.068 21.888 5.7934 5.8028 13.645 9.0619 21.832 9.0619s16.038-3.2591 21.832-9.0619 9.0548-13.675 9.0681-21.888c0.0132-8.213-3.2227-16.096-8.9974-21.917-5.7747-5.8216-13.616-9.1062-21.803-9.1328h-0.2z" fill="#EB001B"/>
<path d="m69 0c-8.1865 0.026579-16.028 3.3112-21.803 9.1328-5.7746 5.8216-9.0106 13.704-8.9973 21.917 0.0132 8.213 3.2746 16.085 9.068 21.888s13.645 9.0619 21.832 9.0619 16.038-3.2591 21.832-9.0619c5.7935-5.8028 9.0548-13.675 9.0681-21.888 0.013-8.213-3.2227-16.096-8.9974-21.917-5.7747-5.8216-13.616-9.1062-21.803-9.1328h-0.2z" fill="#F79E1B"/>
<path d="m50 6.6213c-3.6809 2.9006-6.6568 6.6022-8.7032 10.825-2.0463 4.2232-3.1096 8.8575-3.1096 13.553 0 4.6957 1.0633 9.3301 3.1096 13.553 2.0464 4.2231 5.0223 7.9247 8.7032 10.825 3.6808-2.9006 6.6568-6.6022 8.7031-10.825 2.0464-4.2232 3.1097-8.8576 3.1097-13.553 0-4.6958-1.0633-9.3301-3.1097-13.553-2.0463-4.2232-5.0223-7.9248-8.7031-10.825z" fill="#FF5F00"/>
</svg>
