<svg width="100%" height="100%" viewBox="0 0 100 32" fill="none" xmlns="http://www.w3.org/2000/svg">
<path d="M65.119 0.0492554C58.0257 0.0492554 51.687 3.67286 51.687 10.3674C51.687 18.0451 62.929 18.5754 62.929 22.4329C62.929 24.0569 61.0406 25.5108 57.8153 25.5108C53.238 25.5108 49.8169 23.4794 49.8169 23.4794L48.3531 30.2353C48.3531 30.2353 52.2941 31.9512 57.5265 31.9512C65.2817 31.9512 71.3845 28.1497 71.3845 21.3404C71.3845 13.2274 60.0955 12.7129 60.0955 9.13291C60.0955 7.86071 61.6457 6.4667 64.8618 6.4667C68.4905 6.4667 71.451 7.94409 71.451 7.94409L72.8836 1.41912C72.8836 1.41912 69.6623 0.0494525 65.1194 0.0494525L65.119 0.0492554ZM0.221992 0.541713L0.0502319 1.52662C0.0502319 1.52662 3.03443 2.0649 5.72213 3.13864C9.18283 4.36994 9.42933 5.08665 10.0121 7.31299L16.3632 31.4431H24.8769L37.9929 0.542019H29.4987L21.0709 21.5518L17.6319 3.74222C17.3165 1.70393 15.719 0.54123 13.7635 0.54123H0.222532L0.221992 0.541713ZM41.409 0.541713L34.7456 31.4428H42.8455L49.4855 0.541713H41.409ZM86.585 0.541713C84.6318 0.541713 83.597 1.57234 82.8376 3.3733L70.9706 31.4428H79.4648L81.1082 26.7645H91.4562L92.4555 31.4428H99.9503L93.4118 0.541713H86.5845H86.585ZM87.6897 8.89031L90.2075 20.4857H83.4621L87.6897 8.89031Z" fill="currentColor"/>
</svg>
