<svg width="100%" height="100%" viewBox="0 0 13 12" fill="none" xmlns="http://www.w3.org/2000/svg">
<path fill-rule="evenodd" clip-rule="evenodd" d="M5.37702 1.00537C5.37702 0.45012 5.82714 0 6.38239 0C6.93764 0 7.38776 0.45012 7.38776 1.00537V8.0603L10.6317 4.81637C11.0243 4.42375 11.6609 4.42375 12.0535 4.81637C12.4461 5.209 12.4461 5.84556 12.0535 6.23818L7.10421 11.1875C6.90585 11.3858 6.64521 11.484 6.38522 11.4819C6.12326 11.4855 5.86014 11.3874 5.66025 11.1875L0.71097 6.23825C0.318348 5.84563 0.318349 5.20906 0.710971 4.81644C1.10359 4.42382 1.74016 4.42382 2.13278 4.81644L5.37702 8.06068V1.00537Z" fill="#212423"/>
</svg>
