<svg width="16" height="12" viewBox="0 0 12 12" fill="none" xmlns="http://www.w3.org/2000/svg">
    <path
        d="M9.71929 5.28071L4.71929 0.280711C4.53069 0.0985537 4.27808 -0.00224113 4.01589 3.71933e-05C3.75369 0.00231552 3.50288 0.107485 3.31747 0.292892C3.13206 0.478301 3.02689 0.729114 3.02461 0.99131C3.02234 1.25351 3.12313 1.50611 3.30529 1.69471L7.59829 5.98771L3.30529 10.2807C3.20978 10.373 3.1336 10.4833 3.08119 10.6053C3.02878 10.7273 3.00119 10.8585 3.00004 10.9913C2.99888 11.1241 3.02419 11.2558 3.07447 11.3787C3.12475 11.5016 3.199 11.6132 3.29289 11.7071C3.38679 11.801 3.49844 11.8753 3.62133 11.9255C3.74423 11.9758 3.87591 12.0011 4.00869 12C4.14147 11.9988 4.27269 11.9712 4.39469 11.9188C4.5167 11.8664 4.62704 11.7902 4.71929 11.6947L9.71929 6.69471C9.90676 6.50718 10.0121 6.25288 10.0121 5.98771C10.0121 5.72255 9.90676 5.46824 9.71929 5.28071Z"
        fill="currentColor" />
</svg>