<svg width="100%" height="100%" viewBox="0 0 12 12" xmlns="http://www.w3.org/2000/svg"><path d="M4.96052 1.00537C4.96052.45012 5.41064 0 5.96589 0s1.00537.45012 1.00537 1.00537V8.0603l3.24394-3.24393c.3926-.39262 1.0292-.39262 1.4218 0 .3926.39263.3926 1.02919 0 1.42181L6.68771 11.1875c-.19836.1983-.459.2965-.71899.2944-.26196.0036-.52508-.0945-.72497-.2944L.294466 6.23825c-.392622-.39262-.392621-1.02919.000001-1.42181.392619-.39262 1.029193-.39262 1.421813 0l3.24424 3.24424V1.00537Z" fill="currentColor"/></svg>