<svg width="100%" height="100%" viewBox="0 0 24 24" fill="none" xmlns="http://www.w3.org/2000/svg">
<path d="M20.5028 4.49714C20.1845 4.17883 19.7525 4 19.3024 4C18.8521 4 18.4203 4.17883 18.1019 4.49714L12.5106 10.0885L6.91925 4.49714C6.59902 4.18784 6.17012 4.01669 5.72492 4.02056C5.27972 4.02443 4.85386 4.20301 4.53904 4.51783C4.22422 4.83264 4.04567 5.25851 4.0418 5.70371C4.03793 6.1489 4.20906 6.5778 4.51836 6.89805L10.1097 12.4894L4.51836 18.0808C4.35619 18.2374 4.22684 18.4248 4.13785 18.6319C4.04886 18.8391 4.00202 19.0619 4.00006 19.2874C3.9981 19.5129 4.04107 19.7363 4.12644 19.945C4.21181 20.1537 4.33789 20.3433 4.49732 20.5028C4.65674 20.6622 4.84632 20.7882 5.055 20.8736C5.26366 20.959 5.48724 21.002 5.71269 20.9999C5.93815 20.9981 6.16095 20.9512 6.36812 20.8622C6.57527 20.7733 6.76262 20.6439 6.91925 20.4817L12.5106 14.8903L18.1019 20.4817C18.4221 20.7909 18.8511 20.9621 19.2962 20.9583C19.7415 20.9544 20.1673 20.7758 20.4821 20.461C20.7969 20.1462 20.9755 19.7204 20.9795 19.2751C20.9832 18.8299 20.812 18.401 20.5028 18.0808L14.9115 12.4894L20.5028 6.89805C20.8212 6.57964 21 6.14783 21 5.6976C21 5.24735 20.8212 4.81555 20.5028 4.49714Z" fill="currentColor"/>
</svg>
