<svg width="100%" height="100%" viewBox="0 0 12 12" fill="none" xmlns="http://www.w3.org/2000/svg">
<path fill-rule="evenodd" clip-rule="evenodd" d="M0.00361443 1.63768C0.00361443 1.472 0.137929 1.33768 0.303614 1.33768H2.57346C2.73915 1.33768 2.87346 1.472 2.87346 1.63768V10.3813C2.87346 10.547 2.73915 10.6813 2.57346 10.6813H0.303615C0.137929 10.6813 0.00361443 10.547 0.00361443 10.3813V1.63768ZM4.56947 1.63768C4.56947 1.472 4.70378 1.33768 4.86947 1.33768H7.14982C7.31551 1.33768 7.44982 1.472 7.44982 1.63768V10.3813C7.44982 10.547 7.31551 10.6813 7.14982 10.6813H4.86947C4.70378 10.6813 4.56947 10.547 4.56947 10.3813V1.63768ZM9.40792 1.33768C9.24224 1.33768 9.10792 1.472 9.10792 1.63768V10.3813C9.10792 10.547 9.24224 10.6813 9.40792 10.6813H11.6965C11.8622 10.6813 11.9965 10.547 11.9965 10.3813V1.63768C11.9965 1.472 11.8622 1.33768 11.6965 1.33768H9.40792Z" fill="#212423"/>
</svg>
