<svg width="100%" height="100%" viewBox="0 0 16 16" fill="none" xmlns="http://www.w3.org/2000/svg">
  <path fill-rule="evenodd" clip-rule="evenodd"
    d="M0.0110934 2.63489C-0.133155 1.1208 1.15003 -0.145452 2.66753 0.0135089L7.13077 0.481069C8.04786 0.577134 8.90401 0.984181 9.55605 1.63411L14.8212 6.88215C16.3929 8.44882 16.3929 10.9889 14.8212 12.5556L12.5444 14.825C10.9726 16.3917 8.42426 16.3917 6.8525 14.825L1.60032 9.58984C0.938404 8.93007 0.527956 8.06105 0.439491 7.13225L0.0110934 2.63489ZM4.00658 4.04543C4.94958 3.10541 6.4786 3.10541 7.42169 4.04543C8.36477 4.98544 8.36477 6.50946 7.42169 7.4495C6.4786 8.38953 4.94958 8.38953 4.00658 7.4495C3.06349 6.50946 3.06349 4.98544 4.00658 4.04543Z"
    fill="black" />
</svg>
  