<svg width="100%" height="100%" viewBox="0 0 12 13" fill="none" xmlns="http://www.w3.org/2000/svg">
<path d="M10 0.135132H8V2.13513H10V10.1351H2V2.13513H4V0.135132H2C1.46957 0.135132 0.960859 0.345846 0.585786 0.720918C0.210714 1.09599 0 1.6047 0 2.13513V10.1351C0 10.6656 0.210714 11.1743 0.585786 11.5493C0.960859 11.9244 1.46957 12.1351 2 12.1351H10C10.5304 12.1351 11.0391 11.9244 11.4142 11.5493C11.7893 11.1743 12 10.6656 12 10.1351V2.13513C12 1.6047 11.7893 1.09599 11.4142 0.720918C11.0391 0.345846 10.5304 0.135132 10 0.135132Z" fill="#212423"/>
<path d="M6.5 0.135132H5.5C5.36739 0.135132 5.24021 0.18781 5.14645 0.281578C5.05268 0.375347 5 0.502524 5 0.635132V5.13513H3.5C3.40499 5.13517 3.31196 5.16227 3.2318 5.21327C3.15164 5.26426 3.08767 5.33704 3.04738 5.42308C3.00709 5.50912 2.99214 5.60486 3.00429 5.69909C3.01645 5.79332 3.0552 5.88213 3.116 5.95513L5.616 8.95513C5.66293 9.0114 5.72164 9.05667 5.788 9.08774C5.85436 9.1188 5.92673 9.13491 6 9.13491C6.07327 9.13491 6.14564 9.1188 6.212 9.08774C6.27836 9.05667 6.33707 9.0114 6.384 8.95513L8.884 5.95513C8.9448 5.88213 8.98355 5.79332 8.9957 5.69909C9.00786 5.60486 8.99291 5.50912 8.95262 5.42308C8.91233 5.33704 8.84836 5.26426 8.7682 5.21327C8.68804 5.16227 8.59501 5.13517 8.5 5.13513H7V0.635132C7 0.502524 6.94732 0.375347 6.85355 0.281578C6.75979 0.18781 6.63261 0.135132 6.5 0.135132Z" fill="#212423"/>
</svg>
