<svg width="100%" height="100%" viewBox="0 0 12 12" xmlns="http://www.w3.org/2000/svg"><path d="M3.75 3.25c0-.19891.07902-.38968.21967-.53033C4.11032 2.57902 4.30109 2.5 4.5 2.5c.19891 0 .38968.07902.53033.21967.14065.14065.21967.33142.21967.53033 0 .19891-.07902.38968-.21967.53033C4.88968 3.92098 4.69891 4 4.5 4c-.19891 0-.38968-.07902-.53033-.21967C3.82902 3.63968 3.75 3.44891 3.75 3.25Zm0 3c0-.19891.07902-.38968.21967-.53033C4.11032 5.57902 4.30109 5.5 4.5 5.5c.19891 0 .38968.07902.53033.21967.14065.14065.21967.33142.21967.53033 0 .19891-.07902.38968-.21967.53033C4.88968 6.92098 4.69891 7 4.5 7c-.19891 0-.38968-.07902-.53033-.21967C3.82902 6.63968 3.75 6.44891 3.75 6.25Zm3-3c0-.19891.07902-.38968.21967-.53033C7.11032 2.57902 7.30109 2.5 7.5 2.5c.19891 0 .38968.07902.53033.21967.14065.14065.21967.33142.21967.53033 0 .19891-.07902.38968-.21967.53033C7.88968 3.92098 7.69891 4 7.5 4c-.19891 0-.38968-.07902-.53033-.21967C6.82902 3.63968 6.75 3.44891 6.75 3.25Zm0 3c0-.19891.07902-.38968.21967-.53033C7.11032 5.57902 7.30109 5.5 7.5 5.5c.19891 0 .38968.07902.53033.21967.14065.14065.21967.33142.21967.53033 0 .19891-.07902.38968-.21967.53033C7.88968 6.92098 7.69891 7 7.5 7c-.19891 0-.38968-.07902-.53033-.21967C6.82902 6.63968 6.75 6.44891 6.75 6.25Zm-3 3c0-.19891.07902-.38968.21967-.53033C4.11032 8.57902 4.30109 8.5 4.5 8.5c.19891 0 .38968.07902.53033.21967.14065.14065.21967.33142.21967.53033 0 .19891-.07902.38968-.21967.53033C4.88968 9.92098 4.69891 10 4.5 10c-.19891 0-.38968-.07902-.53033-.21967C3.82902 9.63968 3.75 9.44891 3.75 9.25Zm3 0c0-.19891.07902-.38968.21967-.53033C7.11032 8.57902 7.30109 8.5 7.5 8.5c.19891 0 .38968.07902.53033.21967.14065.14065.21967.33142.21967.53033 0 .19891-.07902.38968-.21967.53033C7.88968 9.92098 7.69891 10 7.5 10c-.19891 0-.38968-.07902-.53033-.21967C6.82902 9.63968 6.75 9.44891 6.75 9.25Z" fill="currentColor"/></svg>