<svg width="100%" height="100%" viewBox="0 0 12 12" xmlns="http://www.w3.org/2000/svg">
<path d="M3.12215 0C3.12215 0 3.854 1.703 1.78672 4.29565C-1.49219 8.4073 0.288687 11.1253 2.76016 11.8226C5.21822 12.5162 8.35943 11.2108 7.88498 7.28942C7.56479 4.64384 4.77104 1.7319 3.12215 0Z" fill="currentColor"/>
<path d="M7.98633 1.99023C7.98633 1.99023 8.66247 2.49203 8.45445 3.95381C8.08691 6.5355 9.7625 7.06876 10.9353 6.54018C11.8632 6.12204 12.4764 5.03933 11.5144 3.78063C10.7817 2.82192 9.02576 2.30216 7.98633 1.99023Z" fill="currentColor"/>
<path d="M9.2326 7.46411C9.2326 7.46411 9.60973 7.9395 9.18321 8.92517C8.51035 10.4798 9.29268 11.1889 10.1251 11.2122C10.9622 11.2356 11.8499 10.5657 11.3596 9.36479C11.0307 8.55902 9.90067 7.87311 9.2326 7.46411Z" fill="currentColor"/>
</svg>
