<svg width="100%" height="100%" viewBox="0 0 16 16" fill="none" xmlns="http://www.w3.org/2000/svg">
<g>
<path d="M8.00001 14C12.707 14 15.744 8.716 15.871 8.492C16.042 8.188 16.043 7.816 15.872 7.512C15.746 7.287 12.731 2 8.00001 2C3.24501 2 0.251005 7.289 0.126005 7.514C-0.0429946 7.817 -0.0419946 8.186 0.128005 8.489C0.254005 8.713 3.26901 14 8.00001 14ZM8.00001 4C10.839 4 13.036 6.835 13.818 8C13.034 9.166 10.837 12 8.00001 12C5.15901 12 2.96201 9.162 2.18101 7.999C2.95801 6.835 5.14601 4 8.00001 4Z" fill="currentColor" />
<path d="M8 10C9.10457 10 10 9.10457 10 8C10 6.89543 9.10457 6 8 6C6.89543 6 6 6.89543 6 8C6 9.10457 6.89543 10 8 10Z" fill="currentColor" />
</g>
</svg>
