<svg width="100%" height="100%" viewBox="0 0 12 12" fill="none" xmlns="http://www.w3.org/2000/svg">
<path d="M9.7097 5H2.2903C2.02509 5 1.77073 5.10536 1.5832 5.29289C1.39566 5.48043 1.2903 5.73478 1.2903 6C1.2903 6.26522 1.39566 6.51957 1.5832 6.70711C1.77073 6.89464 2.02509 7 2.2903 7H9.7097C9.9749 7 10.2293 6.89464 10.4168 6.70711C10.6043 6.51957 10.7097 6.26522 10.7097 6C10.7097 5.73478 10.6043 5.48043 10.4168 5.29289C10.2293 5.10536 9.9749 5 9.7097 5Z" fill="#212423"/>
<path d="M11 1H3.58061C3.31539 1 3.06104 1.10536 2.8735 1.29289C2.68596 1.48043 2.58061 1.73478 2.58061 2C2.58061 2.26522 2.68596 2.51957 2.8735 2.70711C3.06104 2.89464 3.31539 3 3.58061 3H11C11.2652 3 11.5196 2.89464 11.7071 2.70711C11.8946 2.51957 12 2.26522 12 2C12 1.73478 11.8946 1.48043 11.7071 1.29289C11.5196 1.10536 11.2652 1 11 1Z" fill="#212423"/>
<path d="M8.41939 9H1C0.734786 9 0.480432 9.10536 0.292895 9.29289C0.105359 9.48043 2.39976e-06 9.73478 2.39976e-06 10C2.39976e-06 10.2652 0.105359 10.5196 0.292895 10.7071C0.480432 10.8946 0.734786 11 1 11H8.41939C8.68459 11 8.93899 10.8946 9.12649 10.7071C9.31399 10.5196 9.41939 10.2652 9.41939 10C9.41939 9.73478 9.31399 9.48043 9.12649 9.29289C8.93899 9.10536 8.68459 9 8.41939 9Z" fill="#212423"/>
</svg>
