<svg width="100%" height="100%" viewBox="0 0 18 14" fill="none" xmlns="http://www.w3.org/2000/svg">
<path d="M3.33333 14C2.97971 14 2.64057 13.8771 2.39052 13.6583C2.14048 13.4395 2 13.1428 2 12.8333V1.16667C2 0.857247 2.14048 0.560501 2.39052 0.341709C2.64057 0.122916 2.97971 0 3.33333 0C3.68696 0 4.02609 0.122916 4.27614 0.341709C4.52619 0.560501 4.66667 0.857247 4.66667 1.16667V12.8333C4.66667 13.1428 4.52619 13.4395 4.27614 13.6583C4.02609 13.8771 3.68696 14 3.33333 14Z" fill="black"/>
<path d="M6 9.33333V1.16667L14 4.66667L6 9.33333Z" fill="black"/>
</svg>
