<svg width="100%" height="100%" viewBox="0 0 12 12" fill="none" xmlns="http://www.w3.org/2000/svg">
<g>
<path d="M9.40792 0.876244C9.24224 0.876244 9.10792 1.01056 9.10792 1.17624V10.8238C9.10792 10.9894 9.24224 11.1238 9.40792 11.1238H11.6965C11.8622 11.1238 11.9965 10.9894 11.9965 10.8238V1.17624C11.9965 1.01056 11.8622 0.876244 11.6965 0.876244H9.40792Z" fill="#212423"/>
<path d="M4.56947 4.31285C4.56947 4.14717 4.70378 4.01285 4.86947 4.01285H7.14982C7.31551 4.01285 7.44982 4.14717 7.44982 4.31285V10.8238C7.44982 10.9894 7.31551 11.1238 7.14982 11.1238H4.86947C4.70378 11.1238 4.56947 10.9894 4.56947 10.8238V4.31285Z" fill="#212423"/>
<path d="M0.00361443 6.90243C0.00361443 6.73675 0.137929 6.60243 0.303614 6.60243H2.57346C2.73915 6.60243 2.87346 6.73675 2.87346 6.90243V10.8238C2.87346 10.9894 2.73915 11.1238 2.57346 11.1238H0.303615C0.137929 11.1238 0.00361443 10.9894 0.00361443 10.8238V6.90243Z" fill="#212423"/>
</g>
</svg>
