<svg width="100%" height="100%" viewBox="0 0 12 12" fill="none" xmlns="http://www.w3.org/2000/svg">
<path d="M4.69455 1.33768H1.71067C1.50468 1.33768 1.33768 1.50468 1.33768 1.71067V4.69455C1.33768 4.90054 1.50468 5.06754 1.71067 5.06754H4.69455C4.90054 5.06754 5.06754 4.90054 5.06754 4.69455V1.71067C5.06754 1.50468 4.90054 1.33768 4.69455 1.33768Z" fill="#212423"/>
<path d="M10.2893 1.33768H7.30545C7.09946 1.33768 6.93246 1.50468 6.93246 1.71067V4.69455C6.93246 4.90054 7.09946 5.06754 7.30545 5.06754H10.2893C10.4953 5.06754 10.6623 4.90054 10.6623 4.69455V1.71067C10.6623 1.50468 10.4953 1.33768 10.2893 1.33768Z" fill="#212423"/>
<path d="M4.69455 6.93246H1.71067C1.50468 6.93246 1.33768 7.09946 1.33768 7.30545V10.2893C1.33768 10.4953 1.50468 10.6623 1.71067 10.6623H4.69455C4.90054 10.6623 5.06754 10.4953 5.06754 10.2893V7.30545C5.06754 7.09946 4.90054 6.93246 4.69455 6.93246Z" fill="#212423"/>
<path d="M10.2893 6.93246H7.30545C7.09946 6.93246 6.93246 7.09946 6.93246 7.30545V10.2893C6.93246 10.4953 7.09946 10.6623 7.30545 10.6623H10.2893C10.4953 10.6623 10.6623 10.4953 10.6623 10.2893V7.30545C10.6623 7.09946 10.4953 6.93246 10.2893 6.93246Z" fill="#212423"/>
</svg>
