<svg width="100%" height="100%" viewBox="0 0 12 12" fill="none" xmlns="http://www.w3.org/2000/svg">
<path d="M4.6 1H1.4C1.17909 1 1 1.17909 1 1.4V4.6C1 4.82091 1.17909 5 1.4 5H4.6C4.82091 5 5 4.82091 5 4.6V1.4C5 1.17909 4.82091 1 4.6 1Z" fill="#212423"/>
<path d="M10.6 1H7.4C7.17909 1 7 1.17909 7 1.4V4.6C7 4.82091 7.17909 5 7.4 5H10.6C10.8209 5 11 4.82091 11 4.6V1.4C11 1.17909 10.8209 1 10.6 1Z" fill="#212423"/>
<path d="M4.6 7H1.4C1.17909 7 1 7.17909 1 7.4V10.6C1 10.8209 1.17909 11 1.4 11H4.6C4.82091 11 5 10.8209 5 10.6V7.4C5 7.17909 4.82091 7 4.6 7Z" fill="#212423"/>
<path d="M10.6 7H7.4C7.17909 7 7 7.17909 7 7.4V10.6C7 10.8209 7.17909 11 7.4 11H10.6C10.8209 11 11 10.8209 11 10.6V7.4C11 7.17909 10.8209 7 10.6 7Z" fill="#212423"/>
</svg>
