<svg width="100%" height="100%" viewBox="0 0 16 16" xmlns="http://www.w3.org/2000/svg" ><path d="M5.17869 0c2.87245-8e-8 5.17871 2.30029 5.17871 5.16532 0 .66116-.1243 1.25345-.3314 1.81819L16 12.9421V16l-3.0382-.0275v-1.7907l-1.8229-.0275v-1.7907l-1.82287-.0275-2.31444-2.3085c-.5662.2066-1.18764.3581-1.8229.3306C2.30625 10.3582 3.2e-7 8.0579 0 5.19287-1.5e-7 2.32784 2.30625 1.7e-7 5.17869 0ZM3.93581 2.42426c-.82859 0-1.51909.68871-1.5329 1.52893 0 .82645.6905 1.51516 1.5329 1.52894.82859 0 1.51908-.68871 1.53289-1.52894.01381-.84022-.67668-1.52893-1.53289-1.52893Z" fill="currentColor"/></svg>