<svg width="100%" height="100%" viewBox="0 0 667 667" fill="none" xmlns="http://www.w3.org/2000/svg">
<path fill-rule="evenodd" clip-rule="evenodd" d="M133.333 100C133.333 44.7715 178.105 0 233.333 0H566.667C621.896 0 666.667 44.7718 666.667 100V433.333C666.667 488.563 621.896 533.333 566.667 533.333H233.333C178.105 533.333 133.333 488.563 133.333 433.333V100ZM233.333 66.6667C214.924 66.6667 200 81.5905 200 100V433.333C200 451.743 214.923 466.667 233.333 466.667H566.667C585.077 466.667 600 451.744 600 433.333V100C600 81.5902 585.077 66.6667 566.667 66.6667H233.333ZM33.3333 233.333C51.7428 233.333 66.6667 248.257 66.6667 266.667C66.6667 319.78 66.6667 476.293 66.667 566.743C66.667 585.104 81.5404 600 100 600H400C418.409 600 433.333 614.924 433.333 633.333C433.333 651.743 418.409 666.667 400 666.667H100C44.8216 666.667 0.000331879 622.023 0.000335693 566.743C0 476.293 0 319.78 0 266.667C0 248.257 14.9238 233.333 33.3333 233.333Z" fill="black"/>
<path fill-rule="evenodd" clip-rule="evenodd" d="M603.272 56.0953H174.38V484.987H603.272V56.0953ZM440.19 152.314C440.19 130.549 422.546 112.905 400.781 112.905C379.016 112.905 361.372 130.549 361.372 152.314V231.132H282.554C260.789 231.132 243.144 248.776 243.144 270.541C243.144 292.306 260.789 309.95 282.554 309.95H361.372V388.769C361.372 410.534 379.016 428.178 400.781 428.178C422.546 428.178 440.19 410.534 440.19 388.769V309.95H519.008C540.773 309.95 558.417 292.306 558.417 270.541C558.417 248.776 540.773 231.132 519.008 231.132H440.19V152.314Z" fill="black"/>
</svg>
