<svg width="100%" height="100%" viewBox="0 0 16 16" xmlns="http://www.w3.org/2000/svg"><path d="M8 0C4.72187 0 2.0625 2.65937 2.0625 5.9375C2.0625 8.23125 4.96875 12.7906 6.71562 15.325C7.20625 16.0344 8.17812 16.2156 8.8875 15.725C9.04375 15.6156 9.17813 15.4812 9.2875 15.325C11.0344 12.7906 13.9375 8.23125 13.9375 5.9375C13.9375 2.65937 11.2812 0 8 0ZM8 8.96875C6.35938 8.96875 5.03125 7.64062 5.03125 6C5.03125 4.35938 6.35938 3.03125 8 3.03125C9.64062 3.03125 10.9688 4.35938 10.9688 6C10.9688 7.64062 9.64062 8.96875 8 8.96875Z" fill="currentColor"/></svg>
