<svg width="100%" height="100%" viewBox="0 0 12 12" xmlns="http://www.w3.org/2000/svg"><path d="M11.5 6.548H1.868L4.051 8.72a.546.546 0 0 1-.39.936.55.55 0 0 1-.386-.16L.152 6.388a.6.6 0 0 1-.068-.083c-.01-.014-.016-.027-.022-.04C.05 6.245.04 6.228.033 6.21.024 6.193.02 6.173.015 6.156L0 6.107a.587.587 0 0 1 0-.214c.004-.018.011-.033.015-.049.005-.017.01-.037.018-.054.007-.018.018-.035.029-.055.006-.013.013-.026.022-.04a.596.596 0 0 1 .068-.083l3.123-3.108a.553.553 0 0 1 .776 0 .546.546 0 0 1 0 .775L1.868 5.452 11.5 5.5c.304 0 .5.198.5.5s-.196.548-.5.548Z" fill="currentColor"/></svg>