<svg width="100%" height="100%" viewBox="0 0 12 12" xmlns="http://www.w3.org/2000/svg"><path d="M1.10035 9.10814c0 .30228-.246481.54762-.550174.54762C.246482 9.65576 0 9.41042 0 9.10814V2.8918c0-.30228.246482-.54762.550176-.54762.303693 0 .550174.24534.550174.54762v6.21634ZM11.4498 6.54759H3.83128L6.0143 8.72048c.21566.21465.21566.56075 0 .7754-.10785.10514-.24865.15993-.38951.15993-.14085 0-.2817-.05479-.38729-.15993L2.11484 6.38772c-.02638-.02626-.04842-.05478-.06823-.08321-.00879-.01318-.01541-.02631-.02203-.03944-.01102-.01972-.02199-.03723-.02861-.05478-.00879-.01751-.01319-.03723-.01759-.05478-.00439-.01534-.01101-.03064-.01541-.04819-.01319-.07008-.01319-.14458 0-.21466.0044-.0175.01102-.03285.01541-.04819.0044-.01751.0088-.03722.01759-.05478.00662-.01751.01759-.03506.02861-.05478.00662-.01313.01319-.02626.02203-.03944.01981-.02847.0418-.05694.06823-.08325L5.2375 2.50405c.21344-.21244.56115-.21244.7768 0 .21566.21465.21566.56075 0 .77541L3.83128 5.45235h7.61852c.3037 0 .5502.24533.5502.54762 0 .30228-.2465.54762-.5502.54762Z" fill="currentColor"/></svg>