<svg width="100%" height="100%" viewBox="0 0 12 12" xmlns="http://www.w3.org/2000/svg"><path d="M.5 5.452h9.632L7.949 3.28a.546.546 0 0 1 .39-.936.55.55 0 0 1 .386.16l3.123 3.108a.605.605 0 0 1 .09.123c.011.02.022.037.029.055.009.017.013.037.018.054l.015.049a.587.587 0 0 1 0 .214c-.004.018-.011.033-.015.049-.005.017-.01.037-.018.054-.007.018-.018.035-.029.055a.598.598 0 0 1-.09.123L8.725 9.496a.553.553 0 0 1-.776 0 .546.546 0 0 1 0-.775l2.183-2.173L.5 6.5C.196 6.5 0 6.302 0 6s.196-.548.5-.548Z" fill="currentColor"/></svg>