<svg width="100%" height="100%" viewBox="0 0 12 12" xmlns="http://www.w3.org/2000/svg"><g clip-path="url(#a)"><path d="M11.891 5.748 9.93 3.902a.346.346 0 0 0-.584.252v.808H7.038V2.654h.808a.346.346 0 0 0 .252-.584L6.252.11a.346.346 0 0 0-.504 0L3.902 2.07a.346.346 0 0 0 .252.584h.808v2.308H2.654v-.808a.346.346 0 0 0-.584-.252L.11 5.748a.346.346 0 0 0 0 .504L2.07 8.098a.346.346 0 0 0 .584-.252v-.808h2.308v2.308h-.808a.346.346 0 0 0-.252.584l1.846 1.961a.345.345 0 0 0 .504 0L8.098 9.93a.346.346 0 0 0-.252-.584h-.808V7.038h2.308v.808a.346.346 0 0 0 .583.252l1.962-1.846a.345.345 0 0 0 0-.504Z" fill="currentColor"/></g><defs><clipPath id="a"><path d="M0 0h12v12H0z"/></clipPath></defs></svg>