<svg width="100%" height="100%" viewBox="0 0 12 12" xmlns="http://www.w3.org/2000/svg"><path d="M10.8996 2.89186c0-.30228.2465-.54762.5502-.54762S12 2.58958 12 2.89186V9.1082c0 .30228-.2465.54762-.5502.54762s-.5502-.24534-.5502-.54762V2.89186ZM.550175 5.45241H8.16872L5.9857 3.27952c-.21566-.21465-.21566-.56075 0-.77541.10785-.10513.24865-.15992.38951-.15992.14085 0 .28171.05479.38729.15992l3.12266 3.10817c.02638.02626.04842.05478.06823.08321.00879.01318.01541.02631.02203.03944.01102.01972.02199.03723.02858.05478.0088.01751.0132.03723.0176.05478.0044.01534.011.03064.0154.04819.0132.07008.0132.14458 0 .21466-.0044.0175-.011.03285-.0154.04819-.0044.01751-.0088.03722-.0176.05478-.00659.01751-.01756.03506-.02858.05478-.00662.01313-.01319.02626-.02203.03944-.01981.02847-.0418.05694-.06823.08325L6.7625 9.49595c-.21344.21244-.56115.21244-.7768 0-.21566-.21465-.21566-.56075 0-.77541l2.18302-2.17289H.550175c-.303694 0-.5501749-.24533-.55017487-.54762.00004631-.30228.24648087-.54762.55017487-.54762Z" fill="currentColor"/></svg>