<svg width="24" height="24" viewBox="0 0 24 24" fill="none" xmlns="http://www.w3.org/2000/svg">
<g clip-path="url(#clip0_744_6445)">
<path d="M17.25 17.8333H6.16667V6.74992H9.33333V3.58325H4.58333C4.16341 3.58325 3.76068 3.75007 3.46375 4.04699C3.16682 4.34393 3 4.74665 3 5.16659V19.4166C3 19.8365 3.16682 20.2393 3.46375 20.5362C3.76068 20.833 4.16341 20.9999 4.58333 20.9999H18.8333C19.2532 20.9999 19.656 20.833 19.9529 20.5362C20.2498 20.2393 20.4167 19.8365 20.4167 19.4166V14.6666H17.25V17.8333Z" fill="#F9F9F9"/>
<path d="M21.3363 2.6539C21.129 2.44641 20.8829 2.28181 20.612 2.1695C20.3413 2.0572 20.0509 1.99939 19.7577 1.99939C19.4644 1.99939 19.1741 2.0572 18.9033 2.1695C18.6324 2.28181 18.3863 2.44641 18.1791 2.6539L10.9163 9.91665L9.33301 14.6666L14.083 13.0833L21.3458 5.82057C21.5532 5.61337 21.7178 5.36729 21.8301 5.09643C21.9425 4.82557 22.0003 4.53522 22.0003 4.24198C22.0003 3.94875 21.9425 3.6584 21.8301 3.38754C21.7178 3.11667 21.5532 2.8706 21.3458 2.6634L21.3363 2.6539Z" fill="#F9F9F9"/>
</g>
</svg>
