<svg width="100%" height="100%" viewBox="0 0 12 12" fill="none" xmlns="http://www.w3.org/2000/svg">
    <g>
        <path fill-rule="evenodd" clip-rule="evenodd"
            d="M9 3C9 4.65685 7.65685 6 6 6C4.34315 6 3 4.65685 3 3C3 1.34315 4.34315 0 6 0C7.65685 0 9 1.34315 9 3ZM1 10.333C1 9.106 2.625 7 6 7C9.375 7 11 9.106 11 10.333V11C11 11.2652 10.8946 11.5196 10.7071 11.7071C10.5196 11.8946 10.2652 12 10 12H2C1.73478 12 1.48043 11.8946 1.29289 11.7071C1.10536 11.5196 1 11.2652 1 11V10.333Z"
            fill="currentColor" />
    </g>
</svg>