<svg width="100%" height="100%" viewBox="0 0 12 12" fill="none" xmlns="http://www.w3.org/2000/svg">
<path fill-rule="evenodd" clip-rule="evenodd" d="M4.53266 10.6359C4.36698 10.6359 4.23266 10.5015 4.23266 10.3359L4.23266 8.73538C4.23266 8.56969 4.36698 8.43538 4.53266 8.43538L10.9977 8.43538C11.1634 8.43538 11.2977 8.56969 11.2977 8.73538L11.2977 10.3359C11.2977 10.5015 11.1634 10.6359 10.9977 10.6359L4.53266 10.6359ZM4.53266 7.13494C4.36698 7.13494 4.23266 7.00063 4.23266 6.83494L4.23266 5.2264C4.23266 5.06071 4.36698 4.9264 4.53266 4.9264L10.9977 4.9264C11.1634 4.9264 11.2977 5.06071 11.2977 5.2264L11.2977 6.83494C11.2977 7.00063 11.1634 7.13494 10.9977 7.13494L4.53266 7.13494ZM4.23266 3.35503C4.23266 3.52072 4.36698 3.65503 4.53266 3.65503L10.9977 3.65503C11.1634 3.65503 11.2977 3.52072 11.2977 3.35503L11.2977 1.7402C11.2977 1.57451 11.1634 1.4402 10.9977 1.4402L4.53266 1.4402C4.36698 1.4402 4.23266 1.57451 4.23266 1.7402L4.23266 3.35503Z" fill="#212423"/>
<path fill-rule="evenodd" clip-rule="evenodd" d="M1.00233 10.6359C0.83665 10.6359 0.702335 10.5015 0.702335 10.3359L0.702335 8.73538C0.702335 8.56969 0.83665 8.43538 1.00234 8.43538L2.56145 8.43538C2.72714 8.43538 2.86145 8.56969 2.86145 8.73538L2.86145 10.3359C2.86145 10.5015 2.72714 10.6359 2.56145 10.6359L1.00233 10.6359ZM1.00233 7.13494C0.83665 7.13494 0.702335 7.00063 0.702335 6.83494L0.702335 5.2264C0.702335 5.06071 0.83665 4.9264 1.00234 4.9264L2.56145 4.9264C2.72714 4.9264 2.86145 5.06071 2.86145 5.2264L2.86145 6.83494C2.86145 7.00063 2.72714 7.13494 2.56145 7.13494L1.00233 7.13494ZM0.702335 3.35503C0.702335 3.52072 0.83665 3.65503 1.00233 3.65503L2.56145 3.65503C2.72714 3.65503 2.86145 3.52072 2.86145 3.35503L2.86145 1.7402C2.86145 1.57451 2.72714 1.4402 2.56145 1.4402L1.00234 1.4402C0.83665 1.4402 0.702335 1.57451 0.702335 1.7402L0.702335 3.35503Z" fill="#212423"/>
</svg>
