<svg width="100%" height="100%" viewBox="0 0 12 12" fill="none" xmlns="http://www.w3.org/2000/svg">
<path d="M12 5.5C12 5.22386 11.7761 5 11.5 5H0.5C0.223858 5 0 5.22386 0 5.5V6.5C0 6.77614 0.223858 7 0.5 7H11.5C11.7761 7 12 6.77614 12 6.5V5.5Z" fill="#212423"/>
<path d="M12 1.5C12 1.22386 11.7761 1 11.5 1H0.5C0.223858 1 0 1.22386 0 1.5V2.5C0 2.77614 0.223858 3 0.5 3H11.5C11.7761 3 12 2.77614 12 2.5V1.5Z" fill="#212423"/>
<path d="M12 9.5C12 9.22386 11.7761 9 11.5 9H0.5C0.223858 9 0 9.22386 0 9.5V10.5C0 10.7761 0.223858 11 0.5 11H11.5C11.7761 11 12 10.7761 12 10.5V9.5Z" fill="#212423"/>
</svg>
