<svg width="100%" height="100%" viewBox="0 0 24 24" fill="none" xmlns="http://www.w3.org/2000/svg">
<path fill-rule="evenodd" clip-rule="evenodd" d="M2.67799 11.422C2.44578 11.6542 2.26157 11.9298 2.13589 12.2331C2.01021 12.5365 1.94553 12.8616 1.94553 13.19C1.94553 13.5184 2.01021 13.8435 2.13589 14.1469C2.26157 14.4502 2.44578 14.7258 2.67799 14.958L9.04199 21.322C9.27415 21.5542 9.54977 21.7384 9.85313 21.8641C10.1565 21.9898 10.4816 22.0545 10.81 22.0545C11.1384 22.0545 11.4635 21.9898 11.7669 21.8641C12.0702 21.7384 12.3458 21.5542 12.578 21.322L20.268 13.632C20.5001 13.3998 20.6842 13.1242 20.8098 12.8208C20.9354 12.5175 21.0001 12.1923 21 11.864V4.5C21 4.10218 20.842 3.72064 20.5607 3.43934C20.2793 3.15804 19.8978 3 19.5 3H12.135C11.8067 2.99994 11.4815 3.06455 11.1782 3.19015C10.8748 3.31575 10.5992 3.49987 10.367 3.732L2.67799 11.422ZM14.988 7C13.878 7 13 7.832 13 8.988C13 10.145 13.878 11 14.988 11C16.121 11 17 10.145 17 8.988C17 7.832 16.12 7 14.988 7Z" fill="#F9F9F9"/>
</svg>
