<svg width="100%" height="100%" viewBox="0 0 24 24" fill="none" xmlns="http://www.w3.org/2000/svg">
<path fill-rule="evenodd" clip-rule="evenodd" d="M10.3675 21.322C10.5997 21.5542 10.8753 21.7384 11.1787 21.8641C11.482 21.9898 11.8072 22.0545 12.1355 22.0545C12.4639 22.0545 12.789 21.9898 13.0924 21.8641C13.3957 21.7384 13.6714 21.5542 13.9035 21.322L20.2675 14.958C20.4997 14.7259 20.684 14.4502 20.8096 14.1469C20.9353 13.8435 21 13.5184 21 13.19C21 12.8616 20.9353 12.5365 20.8096 12.2331C20.6839 11.9298 20.4997 11.6542 20.2675 11.422L12.5775 3.73201C12.3453 3.49988 12.0697 3.31575 11.7663 3.19016C11.463 3.06456 11.1379 2.99995 10.8095 3.00001L3.44553 3.00001C3.0477 3.00001 2.66617 3.15804 2.38487 3.43935C2.10356 3.72065 1.94553 4.10218 1.94553 4.50001L1.94553 11.865C1.94546 12.1933 2.01008 12.5185 2.13567 12.8218C2.26127 13.1252 2.44539 13.4008 2.67753 13.633L10.3675 21.322ZM5.94553 9.01201C5.94553 10.122 6.77753 11 7.93353 11C9.09053 11 9.94553 10.122 9.94553 9.01201C9.94553 7.87901 9.09053 7.00001 7.93353 7.00001C6.77753 7.00001 5.94553 7.88001 5.94553 9.01201Z" fill="#F9F9F9"/>
</svg>
