<svg width="100%" height="100%" viewBox="0 0 14 12" fill="none" xmlns="http://www.w3.org/2000/svg">
<path fill-rule="evenodd" clip-rule="evenodd" d="M4.35109 9.80039C3.95847 10.193 3.3219 10.193 2.92928 9.80039C2.53666 9.40777 2.53666 8.7712 2.92928 8.37858L7.91787 3.38999L3.33026 3.38999C2.77501 3.38999 2.32489 2.93987 2.32489 2.38462C2.32489 1.82937 2.77501 1.37925 3.33026 1.37925L10.3296 1.37925C10.6101 1.37925 10.8638 1.49415 11.0462 1.67946C11.234 1.86212 11.3507 2.11755 11.3507 2.40024L11.3507 9.39958C11.3507 9.95483 10.9006 10.405 10.3453 10.405C9.79007 10.405 9.33995 9.95483 9.33995 9.39958L9.33995 4.81153L4.35109 9.80039Z" fill="#212423"/>
</svg>
