<svg width="100%" height="100%" viewBox="0 0 13 12" fill="none" xmlns="http://www.w3.org/2000/svg">
<path fill-rule="evenodd" clip-rule="evenodd" d="M2.32278 3.1032C1.93016 2.71058 1.93016 2.07401 2.32278 1.68139C2.7154 1.28877 3.35197 1.28877 3.74459 1.68139L8.73318 6.66998L8.73318 2.08237C8.73318 1.52712 9.1833 1.077 9.73855 1.077C10.2938 1.077 10.7439 1.52712 10.7439 2.08237L10.7439 9.08172C10.7439 9.36225 10.629 9.61595 10.4437 9.79832C10.261 9.98613 10.0056 10.1028 9.72293 10.1028L2.72359 10.1028C2.16834 10.1028 1.71822 9.65268 1.71822 9.09743C1.71822 8.54218 2.16834 8.09206 2.72359 8.09206L7.31163 8.09206L2.32278 3.1032Z" fill="#212423"/>
</svg>
