<svg width="100%" height="100%" viewBox="0 0 21 20" fill="none" xmlns="http://www.w3.org/2000/svg">
<circle cx="10.3423" cy="10" r="10" fill="#EE7070" fill-opacity="0.1"/>
<path d="M15.0494 5.29279C14.8618 5.10532 14.6075 5 14.3424 5C14.0772 5 13.8229 5.10532 13.6354 5.29279L10.3424 8.58579L7.04937 5.29279C6.86076 5.11063 6.60816 5.00983 6.34597 5.01211C6.08377 5.01439 5.83296 5.11956 5.64755 5.30497C5.46214 5.49038 5.35697 5.74119 5.35469 6.00339C5.35241 6.26558 5.45321 6.51818 5.63537 6.70679L8.92837 9.99979L5.63537 13.2928C5.53986 13.385 5.46367 13.4954 5.41126 13.6174C5.35886 13.7394 5.33127 13.8706 5.33012 14.0034C5.32896 14.1362 5.35426 14.2678 5.40454 14.3907C5.45483 14.5136 5.52908 14.6253 5.62297 14.7192C5.71686 14.8131 5.82852 14.8873 5.95141 14.9376C6.07431 14.9879 6.20599 15.0132 6.33877 15.012C6.47155 15.0109 6.60277 14.9833 6.72477 14.9309C6.84677 14.8785 6.95712 14.8023 7.04937 14.7068L10.3424 11.4138L13.6354 14.7068C13.824 14.8889 14.0766 14.9897 14.3388 14.9875C14.601 14.9852 14.8518 14.88 15.0372 14.6946C15.2226 14.5092 15.3278 14.2584 15.33 13.9962C15.3323 13.734 15.2315 13.4814 15.0494 13.2928L11.7564 9.99979L15.0494 6.70679C15.2368 6.51926 15.3422 6.26495 15.3422 5.99979C15.3422 5.73462 15.2368 5.48031 15.0494 5.29279Z" fill="#EE7070"/>
</svg>
