<svg width="100%" height="100%" viewBox="0 0 13 13" fill="none" xmlns="http://www.w3.org/2000/svg">
<path d="M10.4355 12.2587H8.43555V10.2587H10.4355V2.25867H2.43555V10.2587H4.43555V12.2587H2.43555C1.90511 12.2587 1.39641 12.048 1.02133 11.6729C0.646261 11.2978 0.435547 10.7891 0.435547 10.2587V2.25867C0.435547 1.72823 0.646261 1.21953 1.02133 0.844454C1.39641 0.469381 1.90511 0.258667 2.43555 0.258667H10.4355C10.966 0.258667 11.4747 0.469381 11.8498 0.844454C12.2248 1.21953 12.4355 1.72823 12.4355 2.25867V10.2587C12.4355 10.7891 12.2248 11.2978 11.8498 11.6729C11.4747 12.048 10.966 12.2587 10.4355 12.2587Z" fill="#212423"/>
<path d="M6.93555 12.2587H5.93555C5.80294 12.2587 5.67576 12.206 5.58199 12.1122C5.48823 12.0185 5.43555 11.8913 5.43555 11.7587V7.25867H3.93555C3.84054 7.25863 3.74751 7.23153 3.66735 7.18053C3.58719 7.12953 3.52322 7.05675 3.48293 6.97071C3.44263 6.88467 3.42769 6.78894 3.43984 6.69471C3.45199 6.60048 3.49074 6.51167 3.55155 6.43867L6.05155 3.43867C6.09847 3.3824 6.15719 3.33713 6.22355 3.30606C6.2899 3.27499 6.36228 3.25889 6.43555 3.25889C6.50882 3.25889 6.58119 3.27499 6.64755 3.30606C6.7139 3.33713 6.77262 3.3824 6.81955 3.43867L9.31955 6.43867C9.38035 6.51167 9.4191 6.60048 9.43125 6.69471C9.4434 6.78894 9.42846 6.88467 9.38817 6.97071C9.34788 7.05675 9.28391 7.12953 9.20374 7.18053C9.12358 7.23153 9.03055 7.25863 8.93555 7.25867H7.43555V11.7587C7.43555 11.8913 7.38287 12.0185 7.2891 12.1122C7.19533 12.206 7.06816 12.2587 6.93555 12.2587Z" fill="#212423"/>
</svg>
