<svg width="100%" height="100%" viewBox="0 0 16 16" fill="none" xmlns="http://www.w3.org/2000/svg">
<g clip-path="url(#clip0_1511_6217)">
<path d="M9 6.25H7V9.75H9V6.25Z" fill="currentColor"/>
<path d="M8 12.375C8.55228 12.375 9 11.9832 9 11.5C9 11.0168 8.55228 10.625 8 10.625C7.44772 10.625 7 11.0168 7 11.5C7 11.9832 7.44772 12.375 8 12.375Z" fill="currentColor"/>
<path d="M15 15.0004H1.00002C0.653016 15.0004 0.332016 14.8429 0.149016 14.5848C-0.0339842 14.3266 -0.0499843 14.0046 0.105016 13.7334L7.10502 1.48339C7.44502 0.89014 8.55402 0.89014 8.89402 1.48339L15.894 13.7334C16.049 14.0046 16.033 14.3266 15.85 14.5848C15.667 14.8429 15.347 15.0004 15 15.0004ZM2.61802 13.2504H13.382L8.00002 3.83189L2.61802 13.2504Z" fill="currentColor"/>
</g>
</svg>
