<svg width="12" height="12" viewBox="0 0 12 12" fill="none" xmlns="http://www.w3.org/2000/svg">
  <g clip-path="url(#clip0_4231_15542)">
    <path fill-rule="evenodd" clip-rule="evenodd"
      d="M1 0H11C11.2652 0 11.5196 0.105357 11.7071 0.292893C11.8946 0.48043 12 0.734784 12 1C12 1.26522 11.8946 1.51957 11.7071 1.70711C11.5196 1.89464 11.2652 2 11 2H1C0.734784 2 0.48043 1.89464 0.292893 1.70711C0.105357 1.51957 0 1.26522 0 1C0 0.734784 0.105357 0.48043 0.292893 0.292893C0.48043 0.105357 0.734784 0 1 0ZM6.85353 11.854C6.75977 11.9477 6.63259 12.0004 6.49998 12.0004H5.49998C5.36737 12.0004 5.24019 11.9477 5.14643 11.854C5.05266 11.7602 4.99998 11.633 4.99998 11.5004V9.00041H2.49998C2.40399 9.00031 2.31006 8.97258 2.22941 8.92054C2.14876 8.8685 2.08478 8.79435 2.04514 8.70693C2.00549 8.61952 1.99184 8.52254 2.00582 8.42758C2.0198 8.33262 2.06082 8.24368 2.12398 8.1714L5.62398 4.17141C5.67223 4.12007 5.73048 4.07915 5.79515 4.05118C5.85982 4.02322 5.92953 4.00879 5.99998 4.00879C6.07043 4.00879 6.14014 4.02322 6.20481 4.05118C6.26948 4.07915 6.32773 4.12007 6.37598 4.17141L9.87598 8.1714C9.93914 8.24368 9.98016 8.33262 9.99414 8.42758C10.0081 8.52254 9.99447 8.61952 9.95482 8.70693C9.91518 8.79435 9.8512 8.8685 9.77055 8.92054C9.68989 8.97258 9.59597 9.00031 9.49998 9.00041H6.99998V11.5004C6.99998 11.633 6.9473 11.7602 6.85353 11.854Z"
      fill="#212423" />
  </g>
  <defs>
    <clipPath id="clip0_4231_15542">
      <rect width="12" height="12" fill="white" />
    </clipPath>
  </defs>
</svg>