<svg width="12" height="12" viewBox="0 0 12 12" fill="none" xmlns="http://www.w3.org/2000/svg">
  <g clip-path="url(#clip0_4231_15549)">
    <path fill-rule="evenodd" clip-rule="evenodd"
      d="M5.49998 0H6.49998C6.63259 0 6.75977 0.0526784 6.85353 0.146447C6.9473 0.240215 6.99998 0.367392 6.99998 0.5V3H9.49998C9.59597 3.0001 9.68989 3.02782 9.77055 3.07986C9.8512 3.1319 9.91518 3.20606 9.95482 3.29347C9.99447 3.38089 10.0081 3.47787 9.99414 3.57283C9.98016 3.66779 9.93914 3.75672 9.87598 3.829L6.37598 7.829C6.32905 7.88254 6.27123 7.92544 6.20639 7.95483C6.14155 7.98422 6.07117 7.99942 5.99998 7.99942C5.92879 7.99942 5.85841 7.98422 5.79357 7.95483C5.72873 7.92544 5.67091 7.88254 5.62398 7.829L2.12398 3.829C2.06082 3.75672 2.0198 3.66779 2.00582 3.57283C1.99184 3.47787 2.00549 3.38089 2.04514 3.29347C2.08478 3.20606 2.14876 3.1319 2.22941 3.07986C2.31006 3.02782 2.40399 3.0001 2.49998 3H4.99998V0.5C4.99998 0.367392 5.05266 0.240215 5.14643 0.146447C5.24019 0.0526784 5.36737 0 5.49998 0ZM1 10H11C11.2652 10 11.5196 10.1054 11.7071 10.2929C11.8946 10.4804 12 10.7348 12 11C12 11.2652 11.8946 11.5196 11.7071 11.7071C11.5196 11.8946 11.2652 12 11 12H1C0.734784 12 0.48043 11.8946 0.292893 11.7071C0.105357 11.5196 0 11.2652 0 11C0 10.7348 0.105357 10.4804 0.292893 10.2929C0.48043 10.1054 0.734784 10 1 10Z"
      fill="#212423" />
  </g>
  <defs>
    <clipPath id="clip0_4231_15549">
      <rect width="12" height="12" fill="white" />
    </clipPath>
  </defs>
</svg>