<svg width="12" height="12" viewBox="0 0 12 12" fill="none" xmlns="http://www.w3.org/2000/svg">
  <path
    d="M4 10.9996C3.7348 10.9995 3.48049 10.8941 3.293 10.7066L0.292995 7.70657C0.110837 7.51797 0.0100427 7.26537 0.0123211 7.00317C0.0145995 6.74098 0.119768 6.49016 0.305177 6.30476C0.490585 6.11935 0.741397 6.01418 1.00359 6.0119C1.26579 6.00962 1.51839 6.11042 1.707 6.29258L3.907 8.49257L10.21 0.385575C10.3728 0.176054 10.6122 0.0398036 10.8755 0.00679716C11.1388 -0.0262092 11.4045 0.0467322 11.614 0.209575C11.8235 0.372418 11.9598 0.611823 11.9928 0.875124C12.0258 1.13843 11.9528 1.40405 11.79 1.61357L4.79 10.6136C4.70304 10.7259 4.59313 10.8185 4.4676 10.885C4.34207 10.9516 4.2038 10.9906 4.062 10.9996H4Z"
    fill="#212423" />
</svg>