<svg width="12" height="12" viewBox="0 0 12 12" fill="none" xmlns="http://www.w3.org/2000/svg">
<path d="M10.707 1.29279C10.5195 1.10532 10.2652 1 10 1C9.73486 1 9.48055 1.10532 9.29302 1.29279L6.00002 4.58579L2.70702 1.29279C2.51842 1.11063 2.26582 1.00983 2.00362 1.01211C1.74142 1.01439 1.49061 1.11956 1.3052 1.30497C1.11979 1.49038 1.01462 1.74119 1.01235 2.00339C1.01007 2.26558 1.11086 2.51818 1.29302 2.70679L4.58602 5.99979L1.29302 9.29279C1.19751 9.38503 1.12133 9.49538 1.06892 9.61738C1.01651 9.73939 0.988924 9.87061 0.98777 10.0034C0.986616 10.1362 1.01192 10.2678 1.0622 10.3907C1.11248 10.5136 1.18673 10.6253 1.28063 10.7192C1.37452 10.8131 1.48617 10.8873 1.60907 10.9376C1.73196 10.9879 1.86364 11.0132 1.99642 11.012C2.1292 11.0109 2.26042 10.9833 2.38242 10.9309C2.50443 10.8785 2.61477 10.8023 2.70702 10.7068L6.00002 7.41379L9.29302 10.7068C9.48162 10.8889 9.73422 10.9897 9.99642 10.9875C10.2586 10.9852 10.5094 10.88 10.6948 10.6946C10.8802 10.5092 10.9854 10.2584 10.9877 9.99619C10.99 9.73399 10.8892 9.48139 10.707 9.29279L7.41402 5.99979L10.707 2.70679C10.8945 2.51926 10.9998 2.26495 10.9998 1.99979C10.9998 1.73462 10.8945 1.48031 10.707 1.29279Z" fill="#212423"/>
</svg>
