<svg width="12" height="12" viewBox="0 0 12 12" fill="none" xmlns="http://www.w3.org/2000/svg">
<g clip-path="url(#clip0_4231_15343)">
<path fill-rule="evenodd" clip-rule="evenodd" d="M3.5 1H8.5C8.77614 1 9 1.22386 9 1.5V5.5C9 5.77614 8.77614 6 8.5 6H3.5C3.22386 6 3 5.77614 3 5.5V1.5C3 1.22386 3.22386 1 3.5 1ZM0.891 5.18836C0.826356 5.10725 0.73809 5.04826 0.638429 5.01954C0.538767 4.99083 0.432642 4.99382 0.334754 5.0281C0.236866 5.06237 0.15206 5.12624 0.0920827 5.21086C0.0321053 5.29547 -7.46121e-05 5.39665 0 5.50036V10.5004C0 10.633 0.0526787 10.7601 0.146447 10.8539C0.240215 10.9477 0.367392 11.0004 0.5 11.0004H4.5C4.59417 11.0004 4.68644 10.9739 4.76619 10.9238C4.84594 10.8737 4.90993 10.8021 4.95078 10.7173C4.99164 10.6324 5.0077 10.5378 4.99712 10.4442C4.98655 10.3506 4.94976 10.2619 4.891 10.1884L0.891 5.18836ZM11.665 5.02809C11.5672 4.99384 11.4612 4.99084 11.3616 5.0195C11.2619 5.04816 11.1737 5.10708 11.109 5.18809L7.10904 10.1881C7.05028 10.2617 7.0135 10.3504 7.00292 10.4439C6.99234 10.5375 7.00841 10.6322 7.04926 10.717C7.09012 10.8019 7.1541 10.8734 7.23385 10.9235C7.3136 10.9736 7.40587 11.0001 7.50004 11.0001H11.5C11.6327 11.0001 11.7598 10.9474 11.8536 10.8536C11.9474 10.7599 12 10.6327 12 10.5001V5.50009C12 5.39639 11.9678 5.29525 11.9078 5.21068C11.8478 5.12612 11.7629 5.06231 11.665 5.02809Z" fill="#212423"/>
</g>
<defs>
<clipPath id="clip0_4231_15343">
<rect width="12" height="12" fill="white"/>
</clipPath>
</defs>
</svg>
